%TF.GenerationSoftware,KiCad,Pcbnew,5.1.5+dfsg1-2build2*%
%TF.CreationDate,2022-01-02T10:29:47+01:00*%
%TF.ProjectId,micro_rusEFI,6d696372-6f5f-4727-9573-4546492e6b69,R0.5.5rc2*%
%TF.SameCoordinates,Original*%
%TF.FileFunction,Soldermask,Bot*%
%TF.FilePolarity,Negative*%
%FSLAX46Y46*%
G04 Gerber Fmt 4.6, Leading zero omitted, Abs format (unit mm)*
G04 Created by KiCad (PCBNEW 5.1.5+dfsg1-2build2) date 2022-01-02 10:29:47*
%MOMM*%
%LPD*%
G04 APERTURE LIST*
%ADD10O,1.700152X1.950152*%
%ADD11C,0.100000*%
%ADD12O,2.616352X1.016152*%
%ADD13C,0.889152*%
%ADD14O,1.500152X2.380152*%
%ADD15C,1.400152*%
%ADD16R,1.800152X2.500152*%
%ADD17C,2.000152*%
%ADD18C,0.990752*%
%ADD19C,1.000000*%
%ADD20R,1.600152X1.600152*%
%ADD21C,1.600152*%
%ADD22C,4.000152*%
%ADD23C,2.200152*%
%ADD24R,1.300152X0.800152*%
%ADD25O,1.300152X0.800152*%
%ADD26R,1.524152X1.524152*%
%ADD27C,0.254000*%
G04 APERTURE END LIST*
D10*
X69629040Y-97551240D03*
X67129040Y-97551240D03*
X64629040Y-97551240D03*
X62129040Y-97551240D03*
D11*
G36*
X60253691Y-96577367D02*
G01*
X60277951Y-96580966D01*
X60301743Y-96586926D01*
X60324835Y-96595188D01*
X60347006Y-96605674D01*
X60368043Y-96618283D01*
X60387743Y-96632894D01*
X60405916Y-96649364D01*
X60422386Y-96667537D01*
X60436997Y-96687237D01*
X60449606Y-96708274D01*
X60460092Y-96730445D01*
X60468354Y-96753537D01*
X60474314Y-96777329D01*
X60477913Y-96801589D01*
X60479116Y-96826086D01*
X60479116Y-98276394D01*
X60477913Y-98300891D01*
X60474314Y-98325151D01*
X60468354Y-98348943D01*
X60460092Y-98372035D01*
X60449606Y-98394206D01*
X60436997Y-98415243D01*
X60422386Y-98434943D01*
X60405916Y-98453116D01*
X60387743Y-98469586D01*
X60368043Y-98484197D01*
X60347006Y-98496806D01*
X60324835Y-98507292D01*
X60301743Y-98515554D01*
X60277951Y-98521514D01*
X60253691Y-98525113D01*
X60229194Y-98526316D01*
X59028886Y-98526316D01*
X59004389Y-98525113D01*
X58980129Y-98521514D01*
X58956337Y-98515554D01*
X58933245Y-98507292D01*
X58911074Y-98496806D01*
X58890037Y-98484197D01*
X58870337Y-98469586D01*
X58852164Y-98453116D01*
X58835694Y-98434943D01*
X58821083Y-98415243D01*
X58808474Y-98394206D01*
X58797988Y-98372035D01*
X58789726Y-98348943D01*
X58783766Y-98325151D01*
X58780167Y-98300891D01*
X58778964Y-98276394D01*
X58778964Y-96826086D01*
X58780167Y-96801589D01*
X58783766Y-96777329D01*
X58789726Y-96753537D01*
X58797988Y-96730445D01*
X58808474Y-96708274D01*
X58821083Y-96687237D01*
X58835694Y-96667537D01*
X58852164Y-96649364D01*
X58870337Y-96632894D01*
X58890037Y-96618283D01*
X58911074Y-96605674D01*
X58933245Y-96595188D01*
X58956337Y-96586926D01*
X58980129Y-96580966D01*
X59004389Y-96577367D01*
X59028886Y-96576164D01*
X60229194Y-96576164D01*
X60253691Y-96577367D01*
G37*
D12*
X58534600Y-109471400D03*
X62834600Y-109471400D03*
X60934600Y-105971400D03*
D13*
X59334600Y-108221400D03*
X60134600Y-107221400D03*
X60934600Y-108221400D03*
X61734600Y-107221400D03*
X62534600Y-108221400D03*
D14*
X57234600Y-107721400D03*
X64634600Y-107721400D03*
D15*
X91350000Y-76400000D03*
X75650000Y-60400000D03*
D11*
G36*
X60394928Y-26246337D02*
G01*
X60416166Y-26249487D01*
X60436994Y-26254704D01*
X60457210Y-26261937D01*
X60476619Y-26271117D01*
X60495035Y-26282155D01*
X60512281Y-26294946D01*
X60528189Y-26309365D01*
X60890635Y-26671811D01*
X60905054Y-26687719D01*
X60917845Y-26704965D01*
X60928883Y-26723381D01*
X60938063Y-26742790D01*
X60945296Y-26763006D01*
X60950513Y-26783834D01*
X60953663Y-26805072D01*
X60954717Y-26826517D01*
X60953663Y-26847962D01*
X60950513Y-26869200D01*
X60945296Y-26890028D01*
X60938063Y-26910244D01*
X60928883Y-26929653D01*
X60917845Y-26948069D01*
X60905054Y-26965315D01*
X60890635Y-26981223D01*
X60581223Y-27290635D01*
X60565315Y-27305054D01*
X60548069Y-27317845D01*
X60529653Y-27328883D01*
X60510244Y-27338063D01*
X60490028Y-27345296D01*
X60469200Y-27350513D01*
X60447962Y-27353663D01*
X60426517Y-27354717D01*
X60405072Y-27353663D01*
X60383834Y-27350513D01*
X60363006Y-27345296D01*
X60342790Y-27338063D01*
X60323381Y-27328883D01*
X60304965Y-27317845D01*
X60287719Y-27305054D01*
X60271811Y-27290635D01*
X59909365Y-26928189D01*
X59894946Y-26912281D01*
X59882155Y-26895035D01*
X59871117Y-26876619D01*
X59861937Y-26857210D01*
X59854704Y-26836994D01*
X59849487Y-26816166D01*
X59846337Y-26794928D01*
X59845283Y-26773483D01*
X59846337Y-26752038D01*
X59849487Y-26730800D01*
X59854704Y-26709972D01*
X59861937Y-26689756D01*
X59871117Y-26670347D01*
X59882155Y-26651931D01*
X59894946Y-26634685D01*
X59909365Y-26618777D01*
X60218777Y-26309365D01*
X60234685Y-26294946D01*
X60251931Y-26282155D01*
X60270347Y-26271117D01*
X60289756Y-26261937D01*
X60309972Y-26254704D01*
X60330800Y-26249487D01*
X60352038Y-26246337D01*
X60373483Y-26245283D01*
X60394928Y-26246337D01*
G37*
G36*
X59281234Y-27360031D02*
G01*
X59302472Y-27363181D01*
X59323300Y-27368398D01*
X59343516Y-27375631D01*
X59362925Y-27384811D01*
X59381341Y-27395849D01*
X59398587Y-27408640D01*
X59414495Y-27423059D01*
X59776941Y-27785505D01*
X59791360Y-27801413D01*
X59804151Y-27818659D01*
X59815189Y-27837075D01*
X59824369Y-27856484D01*
X59831602Y-27876700D01*
X59836819Y-27897528D01*
X59839969Y-27918766D01*
X59841023Y-27940211D01*
X59839969Y-27961656D01*
X59836819Y-27982894D01*
X59831602Y-28003722D01*
X59824369Y-28023938D01*
X59815189Y-28043347D01*
X59804151Y-28061763D01*
X59791360Y-28079009D01*
X59776941Y-28094917D01*
X59467529Y-28404329D01*
X59451621Y-28418748D01*
X59434375Y-28431539D01*
X59415959Y-28442577D01*
X59396550Y-28451757D01*
X59376334Y-28458990D01*
X59355506Y-28464207D01*
X59334268Y-28467357D01*
X59312823Y-28468411D01*
X59291378Y-28467357D01*
X59270140Y-28464207D01*
X59249312Y-28458990D01*
X59229096Y-28451757D01*
X59209687Y-28442577D01*
X59191271Y-28431539D01*
X59174025Y-28418748D01*
X59158117Y-28404329D01*
X58795671Y-28041883D01*
X58781252Y-28025975D01*
X58768461Y-28008729D01*
X58757423Y-27990313D01*
X58748243Y-27970904D01*
X58741010Y-27950688D01*
X58735793Y-27929860D01*
X58732643Y-27908622D01*
X58731589Y-27887177D01*
X58732643Y-27865732D01*
X58735793Y-27844494D01*
X58741010Y-27823666D01*
X58748243Y-27803450D01*
X58757423Y-27784041D01*
X58768461Y-27765625D01*
X58781252Y-27748379D01*
X58795671Y-27732471D01*
X59105083Y-27423059D01*
X59120991Y-27408640D01*
X59138237Y-27395849D01*
X59156653Y-27384811D01*
X59176062Y-27375631D01*
X59196278Y-27368398D01*
X59217106Y-27363181D01*
X59238344Y-27360031D01*
X59259789Y-27358977D01*
X59281234Y-27360031D01*
G37*
G36*
X58394928Y-25946337D02*
G01*
X58416166Y-25949487D01*
X58436994Y-25954704D01*
X58457210Y-25961937D01*
X58476619Y-25971117D01*
X58495035Y-25982155D01*
X58512281Y-25994946D01*
X58528189Y-26009365D01*
X58890635Y-26371811D01*
X58905054Y-26387719D01*
X58917845Y-26404965D01*
X58928883Y-26423381D01*
X58938063Y-26442790D01*
X58945296Y-26463006D01*
X58950513Y-26483834D01*
X58953663Y-26505072D01*
X58954717Y-26526517D01*
X58953663Y-26547962D01*
X58950513Y-26569200D01*
X58945296Y-26590028D01*
X58938063Y-26610244D01*
X58928883Y-26629653D01*
X58917845Y-26648069D01*
X58905054Y-26665315D01*
X58890635Y-26681223D01*
X58581223Y-26990635D01*
X58565315Y-27005054D01*
X58548069Y-27017845D01*
X58529653Y-27028883D01*
X58510244Y-27038063D01*
X58490028Y-27045296D01*
X58469200Y-27050513D01*
X58447962Y-27053663D01*
X58426517Y-27054717D01*
X58405072Y-27053663D01*
X58383834Y-27050513D01*
X58363006Y-27045296D01*
X58342790Y-27038063D01*
X58323381Y-27028883D01*
X58304965Y-27017845D01*
X58287719Y-27005054D01*
X58271811Y-26990635D01*
X57909365Y-26628189D01*
X57894946Y-26612281D01*
X57882155Y-26595035D01*
X57871117Y-26576619D01*
X57861937Y-26557210D01*
X57854704Y-26536994D01*
X57849487Y-26516166D01*
X57846337Y-26494928D01*
X57845283Y-26473483D01*
X57846337Y-26452038D01*
X57849487Y-26430800D01*
X57854704Y-26409972D01*
X57861937Y-26389756D01*
X57871117Y-26370347D01*
X57882155Y-26351931D01*
X57894946Y-26334685D01*
X57909365Y-26318777D01*
X58218777Y-26009365D01*
X58234685Y-25994946D01*
X58251931Y-25982155D01*
X58270347Y-25971117D01*
X58289756Y-25961937D01*
X58309972Y-25954704D01*
X58330800Y-25949487D01*
X58352038Y-25946337D01*
X58373483Y-25945283D01*
X58394928Y-25946337D01*
G37*
G36*
X57281234Y-27060031D02*
G01*
X57302472Y-27063181D01*
X57323300Y-27068398D01*
X57343516Y-27075631D01*
X57362925Y-27084811D01*
X57381341Y-27095849D01*
X57398587Y-27108640D01*
X57414495Y-27123059D01*
X57776941Y-27485505D01*
X57791360Y-27501413D01*
X57804151Y-27518659D01*
X57815189Y-27537075D01*
X57824369Y-27556484D01*
X57831602Y-27576700D01*
X57836819Y-27597528D01*
X57839969Y-27618766D01*
X57841023Y-27640211D01*
X57839969Y-27661656D01*
X57836819Y-27682894D01*
X57831602Y-27703722D01*
X57824369Y-27723938D01*
X57815189Y-27743347D01*
X57804151Y-27761763D01*
X57791360Y-27779009D01*
X57776941Y-27794917D01*
X57467529Y-28104329D01*
X57451621Y-28118748D01*
X57434375Y-28131539D01*
X57415959Y-28142577D01*
X57396550Y-28151757D01*
X57376334Y-28158990D01*
X57355506Y-28164207D01*
X57334268Y-28167357D01*
X57312823Y-28168411D01*
X57291378Y-28167357D01*
X57270140Y-28164207D01*
X57249312Y-28158990D01*
X57229096Y-28151757D01*
X57209687Y-28142577D01*
X57191271Y-28131539D01*
X57174025Y-28118748D01*
X57158117Y-28104329D01*
X56795671Y-27741883D01*
X56781252Y-27725975D01*
X56768461Y-27708729D01*
X56757423Y-27690313D01*
X56748243Y-27670904D01*
X56741010Y-27650688D01*
X56735793Y-27629860D01*
X56732643Y-27608622D01*
X56731589Y-27587177D01*
X56732643Y-27565732D01*
X56735793Y-27544494D01*
X56741010Y-27523666D01*
X56748243Y-27503450D01*
X56757423Y-27484041D01*
X56768461Y-27465625D01*
X56781252Y-27448379D01*
X56795671Y-27432471D01*
X57105083Y-27123059D01*
X57120991Y-27108640D01*
X57138237Y-27095849D01*
X57156653Y-27084811D01*
X57176062Y-27075631D01*
X57196278Y-27068398D01*
X57217106Y-27063181D01*
X57238344Y-27060031D01*
X57259789Y-27058977D01*
X57281234Y-27060031D01*
G37*
G36*
X54194928Y-25746337D02*
G01*
X54216166Y-25749487D01*
X54236994Y-25754704D01*
X54257210Y-25761937D01*
X54276619Y-25771117D01*
X54295035Y-25782155D01*
X54312281Y-25794946D01*
X54328189Y-25809365D01*
X54690635Y-26171811D01*
X54705054Y-26187719D01*
X54717845Y-26204965D01*
X54728883Y-26223381D01*
X54738063Y-26242790D01*
X54745296Y-26263006D01*
X54750513Y-26283834D01*
X54753663Y-26305072D01*
X54754717Y-26326517D01*
X54753663Y-26347962D01*
X54750513Y-26369200D01*
X54745296Y-26390028D01*
X54738063Y-26410244D01*
X54728883Y-26429653D01*
X54717845Y-26448069D01*
X54705054Y-26465315D01*
X54690635Y-26481223D01*
X54381223Y-26790635D01*
X54365315Y-26805054D01*
X54348069Y-26817845D01*
X54329653Y-26828883D01*
X54310244Y-26838063D01*
X54290028Y-26845296D01*
X54269200Y-26850513D01*
X54247962Y-26853663D01*
X54226517Y-26854717D01*
X54205072Y-26853663D01*
X54183834Y-26850513D01*
X54163006Y-26845296D01*
X54142790Y-26838063D01*
X54123381Y-26828883D01*
X54104965Y-26817845D01*
X54087719Y-26805054D01*
X54071811Y-26790635D01*
X53709365Y-26428189D01*
X53694946Y-26412281D01*
X53682155Y-26395035D01*
X53671117Y-26376619D01*
X53661937Y-26357210D01*
X53654704Y-26336994D01*
X53649487Y-26316166D01*
X53646337Y-26294928D01*
X53645283Y-26273483D01*
X53646337Y-26252038D01*
X53649487Y-26230800D01*
X53654704Y-26209972D01*
X53661937Y-26189756D01*
X53671117Y-26170347D01*
X53682155Y-26151931D01*
X53694946Y-26134685D01*
X53709365Y-26118777D01*
X54018777Y-25809365D01*
X54034685Y-25794946D01*
X54051931Y-25782155D01*
X54070347Y-25771117D01*
X54089756Y-25761937D01*
X54109972Y-25754704D01*
X54130800Y-25749487D01*
X54152038Y-25746337D01*
X54173483Y-25745283D01*
X54194928Y-25746337D01*
G37*
G36*
X53081234Y-26860031D02*
G01*
X53102472Y-26863181D01*
X53123300Y-26868398D01*
X53143516Y-26875631D01*
X53162925Y-26884811D01*
X53181341Y-26895849D01*
X53198587Y-26908640D01*
X53214495Y-26923059D01*
X53576941Y-27285505D01*
X53591360Y-27301413D01*
X53604151Y-27318659D01*
X53615189Y-27337075D01*
X53624369Y-27356484D01*
X53631602Y-27376700D01*
X53636819Y-27397528D01*
X53639969Y-27418766D01*
X53641023Y-27440211D01*
X53639969Y-27461656D01*
X53636819Y-27482894D01*
X53631602Y-27503722D01*
X53624369Y-27523938D01*
X53615189Y-27543347D01*
X53604151Y-27561763D01*
X53591360Y-27579009D01*
X53576941Y-27594917D01*
X53267529Y-27904329D01*
X53251621Y-27918748D01*
X53234375Y-27931539D01*
X53215959Y-27942577D01*
X53196550Y-27951757D01*
X53176334Y-27958990D01*
X53155506Y-27964207D01*
X53134268Y-27967357D01*
X53112823Y-27968411D01*
X53091378Y-27967357D01*
X53070140Y-27964207D01*
X53049312Y-27958990D01*
X53029096Y-27951757D01*
X53009687Y-27942577D01*
X52991271Y-27931539D01*
X52974025Y-27918748D01*
X52958117Y-27904329D01*
X52595671Y-27541883D01*
X52581252Y-27525975D01*
X52568461Y-27508729D01*
X52557423Y-27490313D01*
X52548243Y-27470904D01*
X52541010Y-27450688D01*
X52535793Y-27429860D01*
X52532643Y-27408622D01*
X52531589Y-27387177D01*
X52532643Y-27365732D01*
X52535793Y-27344494D01*
X52541010Y-27323666D01*
X52548243Y-27303450D01*
X52557423Y-27284041D01*
X52568461Y-27265625D01*
X52581252Y-27248379D01*
X52595671Y-27232471D01*
X52905083Y-26923059D01*
X52920991Y-26908640D01*
X52938237Y-26895849D01*
X52956653Y-26884811D01*
X52976062Y-26875631D01*
X52996278Y-26868398D01*
X53017106Y-26863181D01*
X53038344Y-26860031D01*
X53059789Y-26858977D01*
X53081234Y-26860031D01*
G37*
G36*
X56294928Y-25846337D02*
G01*
X56316166Y-25849487D01*
X56336994Y-25854704D01*
X56357210Y-25861937D01*
X56376619Y-25871117D01*
X56395035Y-25882155D01*
X56412281Y-25894946D01*
X56428189Y-25909365D01*
X56790635Y-26271811D01*
X56805054Y-26287719D01*
X56817845Y-26304965D01*
X56828883Y-26323381D01*
X56838063Y-26342790D01*
X56845296Y-26363006D01*
X56850513Y-26383834D01*
X56853663Y-26405072D01*
X56854717Y-26426517D01*
X56853663Y-26447962D01*
X56850513Y-26469200D01*
X56845296Y-26490028D01*
X56838063Y-26510244D01*
X56828883Y-26529653D01*
X56817845Y-26548069D01*
X56805054Y-26565315D01*
X56790635Y-26581223D01*
X56481223Y-26890635D01*
X56465315Y-26905054D01*
X56448069Y-26917845D01*
X56429653Y-26928883D01*
X56410244Y-26938063D01*
X56390028Y-26945296D01*
X56369200Y-26950513D01*
X56347962Y-26953663D01*
X56326517Y-26954717D01*
X56305072Y-26953663D01*
X56283834Y-26950513D01*
X56263006Y-26945296D01*
X56242790Y-26938063D01*
X56223381Y-26928883D01*
X56204965Y-26917845D01*
X56187719Y-26905054D01*
X56171811Y-26890635D01*
X55809365Y-26528189D01*
X55794946Y-26512281D01*
X55782155Y-26495035D01*
X55771117Y-26476619D01*
X55761937Y-26457210D01*
X55754704Y-26436994D01*
X55749487Y-26416166D01*
X55746337Y-26394928D01*
X55745283Y-26373483D01*
X55746337Y-26352038D01*
X55749487Y-26330800D01*
X55754704Y-26309972D01*
X55761937Y-26289756D01*
X55771117Y-26270347D01*
X55782155Y-26251931D01*
X55794946Y-26234685D01*
X55809365Y-26218777D01*
X56118777Y-25909365D01*
X56134685Y-25894946D01*
X56151931Y-25882155D01*
X56170347Y-25871117D01*
X56189756Y-25861937D01*
X56209972Y-25854704D01*
X56230800Y-25849487D01*
X56252038Y-25846337D01*
X56273483Y-25845283D01*
X56294928Y-25846337D01*
G37*
G36*
X55181234Y-26960031D02*
G01*
X55202472Y-26963181D01*
X55223300Y-26968398D01*
X55243516Y-26975631D01*
X55262925Y-26984811D01*
X55281341Y-26995849D01*
X55298587Y-27008640D01*
X55314495Y-27023059D01*
X55676941Y-27385505D01*
X55691360Y-27401413D01*
X55704151Y-27418659D01*
X55715189Y-27437075D01*
X55724369Y-27456484D01*
X55731602Y-27476700D01*
X55736819Y-27497528D01*
X55739969Y-27518766D01*
X55741023Y-27540211D01*
X55739969Y-27561656D01*
X55736819Y-27582894D01*
X55731602Y-27603722D01*
X55724369Y-27623938D01*
X55715189Y-27643347D01*
X55704151Y-27661763D01*
X55691360Y-27679009D01*
X55676941Y-27694917D01*
X55367529Y-28004329D01*
X55351621Y-28018748D01*
X55334375Y-28031539D01*
X55315959Y-28042577D01*
X55296550Y-28051757D01*
X55276334Y-28058990D01*
X55255506Y-28064207D01*
X55234268Y-28067357D01*
X55212823Y-28068411D01*
X55191378Y-28067357D01*
X55170140Y-28064207D01*
X55149312Y-28058990D01*
X55129096Y-28051757D01*
X55109687Y-28042577D01*
X55091271Y-28031539D01*
X55074025Y-28018748D01*
X55058117Y-28004329D01*
X54695671Y-27641883D01*
X54681252Y-27625975D01*
X54668461Y-27608729D01*
X54657423Y-27590313D01*
X54648243Y-27570904D01*
X54641010Y-27550688D01*
X54635793Y-27529860D01*
X54632643Y-27508622D01*
X54631589Y-27487177D01*
X54632643Y-27465732D01*
X54635793Y-27444494D01*
X54641010Y-27423666D01*
X54648243Y-27403450D01*
X54657423Y-27384041D01*
X54668461Y-27365625D01*
X54681252Y-27348379D01*
X54695671Y-27332471D01*
X55005083Y-27023059D01*
X55020991Y-27008640D01*
X55038237Y-26995849D01*
X55056653Y-26984811D01*
X55076062Y-26975631D01*
X55096278Y-26968398D01*
X55117106Y-26963181D01*
X55138344Y-26960031D01*
X55159789Y-26958977D01*
X55181234Y-26960031D01*
G37*
D15*
X34200000Y-24100000D03*
X30700000Y-24100000D03*
D16*
X30700000Y-26500000D03*
X30700000Y-30500000D03*
X34200000Y-26500000D03*
X34200000Y-30500000D03*
D15*
X37700000Y-24100000D03*
X41200000Y-24100000D03*
D16*
X41200000Y-26500000D03*
X41200000Y-30500000D03*
X37700000Y-26500000D03*
X37700000Y-30500000D03*
D17*
X47879000Y-67183000D03*
D18*
X38100000Y-111887000D03*
X38100000Y-113919000D03*
X33020000Y-112903000D03*
D11*
G36*
X90833273Y-29793827D02*
G01*
X92106173Y-31066727D01*
X90338299Y-32834601D01*
X89065399Y-31561701D01*
X90833273Y-29793827D01*
G37*
G36*
X93661701Y-26965399D02*
G01*
X94934601Y-28238299D01*
X93166727Y-30006173D01*
X91893827Y-28733273D01*
X93661701Y-26965399D01*
G37*
G36*
X89033273Y-26593827D02*
G01*
X90306173Y-27866727D01*
X88538299Y-29634601D01*
X87265399Y-28361701D01*
X89033273Y-26593827D01*
G37*
G36*
X91861701Y-23765399D02*
G01*
X93134601Y-25038299D01*
X91366727Y-26806173D01*
X90093827Y-25533273D01*
X91861701Y-23765399D01*
G37*
D19*
X91084400Y-58648600D03*
X60350000Y-65450000D03*
D20*
X58311000Y-101240000D03*
X60811000Y-101240000D03*
D15*
X73900400Y-69999260D03*
X48475000Y-83819400D03*
X44792000Y-101091400D03*
X44792000Y-99313400D03*
X44792000Y-97535400D03*
X40093000Y-90550400D03*
X44030000Y-87629400D03*
D21*
X48698520Y-107718260D03*
X46158520Y-107718260D03*
X41078520Y-107718260D03*
X41078520Y-110258260D03*
X46158520Y-110258260D03*
X43618520Y-110258260D03*
X48698520Y-110258260D03*
X43618520Y-107718260D03*
X51238520Y-107718260D03*
D20*
X51238520Y-110258260D03*
D21*
X75674200Y-29567600D03*
X75674200Y-32067600D03*
X75674200Y-34567600D03*
X75674200Y-37067600D03*
X73174200Y-29567600D03*
X73174200Y-32067600D03*
X73174200Y-34567600D03*
X73174200Y-37067600D03*
X70674200Y-29567600D03*
X70674200Y-32067600D03*
X70674200Y-34567600D03*
X70674200Y-37067600D03*
X68174200Y-29567600D03*
X68174200Y-32067600D03*
X68174200Y-34567600D03*
X68174200Y-37067600D03*
X65674200Y-29567600D03*
X65674200Y-32067600D03*
X65674200Y-34567600D03*
X65674200Y-37067600D03*
X63174200Y-29567600D03*
X63174200Y-32067600D03*
X63174200Y-34567600D03*
X63174200Y-37067600D03*
X60674200Y-29567600D03*
X60674200Y-32067600D03*
X60674200Y-34567600D03*
X60674200Y-37067600D03*
X58174200Y-29567600D03*
X58174200Y-32067600D03*
X58174200Y-34567600D03*
X58174200Y-37067600D03*
X55674200Y-29567600D03*
X55674200Y-32067600D03*
X55674200Y-34567600D03*
X55674200Y-37067600D03*
X53174200Y-29567600D03*
X53174200Y-32067600D03*
X53174200Y-34567600D03*
X53174200Y-37067600D03*
X49674200Y-29567600D03*
X49674200Y-32067600D03*
X49674200Y-34567600D03*
X49674200Y-37067600D03*
X45974200Y-29567600D03*
X45974200Y-32067600D03*
X45974200Y-34567600D03*
X45974200Y-37067600D03*
D22*
X35424200Y-34317600D03*
X86224200Y-34317600D03*
D23*
X39524200Y-38167600D03*
X82124200Y-38167600D03*
D20*
X22211400Y-97789400D03*
D21*
X22211400Y-100329400D03*
X22211400Y-102869400D03*
D20*
X54596400Y-111759400D03*
X66661400Y-111759400D03*
X99681400Y-97789400D03*
D21*
X99681400Y-100329400D03*
X99681400Y-102869400D03*
D20*
X99681400Y-90169400D03*
D21*
X99681400Y-92709400D03*
X99681400Y-95249400D03*
D20*
X97014400Y-101091400D03*
D21*
X94474400Y-101091400D03*
X91934400Y-101091400D03*
D20*
X97014400Y-91820400D03*
D21*
X94474400Y-91820400D03*
X91934400Y-91820400D03*
D20*
X96525450Y-63499400D03*
D21*
X96525450Y-66039400D03*
X96525450Y-68579400D03*
X96525450Y-71119400D03*
X96525450Y-73659400D03*
D20*
X30733100Y-77215400D03*
D21*
X33273100Y-77215400D03*
X35813100Y-77215400D03*
X38353100Y-77215400D03*
X40893100Y-77215400D03*
X30733100Y-74675400D03*
X33273100Y-74675400D03*
X35813100Y-74675400D03*
X38353100Y-74675400D03*
X40893100Y-74675400D03*
D24*
X69557000Y-87934200D03*
D25*
X69557000Y-86689600D03*
D20*
X77558000Y-44246200D03*
D21*
X74103600Y-54225809D03*
X74103600Y-51685809D03*
X74103600Y-56765809D03*
D20*
X74103600Y-49145809D03*
D26*
X63311000Y-101240000D03*
X65811000Y-101240000D03*
D15*
X84851000Y-82651000D03*
X90851000Y-82651000D03*
D27*
G36*
X94312231Y-38561406D02*
G01*
X95199053Y-38953257D01*
X96027416Y-39665991D01*
X96519370Y-40342429D01*
X96889068Y-41143441D01*
X97090185Y-42107310D01*
X97029363Y-42715536D01*
X96799219Y-43766505D01*
X96229245Y-44683621D01*
X95554189Y-45363118D01*
X94751640Y-45795260D01*
X94141995Y-46039118D01*
X93223255Y-46100367D01*
X91991250Y-45915567D01*
X91021466Y-45343642D01*
X90577533Y-44994243D01*
X90085289Y-44378938D01*
X89734195Y-43748715D01*
X89489109Y-42890915D01*
X89489109Y-42301200D01*
X91439099Y-42301200D01*
X91459100Y-42568090D01*
X91518655Y-42829018D01*
X91616434Y-43078156D01*
X91750253Y-43309937D01*
X91917123Y-43519185D01*
X92113316Y-43701226D01*
X92334449Y-43851992D01*
X92575583Y-43968116D01*
X92831331Y-44047003D01*
X93095980Y-44086893D01*
X93363618Y-44086893D01*
X93628267Y-44047003D01*
X93884015Y-43968116D01*
X94125149Y-43851992D01*
X94346282Y-43701226D01*
X94542475Y-43519185D01*
X94709345Y-43309937D01*
X94843164Y-43078156D01*
X94940943Y-42829018D01*
X95000498Y-42568090D01*
X95020499Y-42301200D01*
X95000498Y-42034310D01*
X94940943Y-41773382D01*
X94843164Y-41524244D01*
X94709345Y-41292463D01*
X94542475Y-41083215D01*
X94346282Y-40901174D01*
X94125149Y-40750408D01*
X93884015Y-40634284D01*
X93628267Y-40555397D01*
X93363618Y-40515507D01*
X93095980Y-40515507D01*
X92831331Y-40555397D01*
X92575583Y-40634284D01*
X92334449Y-40750408D01*
X92113316Y-40901174D01*
X91917123Y-41083215D01*
X91750253Y-41292463D01*
X91616434Y-41524244D01*
X91518655Y-41773382D01*
X91459100Y-42034310D01*
X91439099Y-42301200D01*
X89489109Y-42301200D01*
X89489109Y-41908338D01*
X89797578Y-40674461D01*
X90409652Y-39744108D01*
X91084711Y-39204062D01*
X91949127Y-38710109D01*
X92991753Y-38464785D01*
X94312231Y-38561406D01*
G37*
X94312231Y-38561406D02*
X95199053Y-38953257D01*
X96027416Y-39665991D01*
X96519370Y-40342429D01*
X96889068Y-41143441D01*
X97090185Y-42107310D01*
X97029363Y-42715536D01*
X96799219Y-43766505D01*
X96229245Y-44683621D01*
X95554189Y-45363118D01*
X94751640Y-45795260D01*
X94141995Y-46039118D01*
X93223255Y-46100367D01*
X91991250Y-45915567D01*
X91021466Y-45343642D01*
X90577533Y-44994243D01*
X90085289Y-44378938D01*
X89734195Y-43748715D01*
X89489109Y-42890915D01*
X89489109Y-42301200D01*
X91439099Y-42301200D01*
X91459100Y-42568090D01*
X91518655Y-42829018D01*
X91616434Y-43078156D01*
X91750253Y-43309937D01*
X91917123Y-43519185D01*
X92113316Y-43701226D01*
X92334449Y-43851992D01*
X92575583Y-43968116D01*
X92831331Y-44047003D01*
X93095980Y-44086893D01*
X93363618Y-44086893D01*
X93628267Y-44047003D01*
X93884015Y-43968116D01*
X94125149Y-43851992D01*
X94346282Y-43701226D01*
X94542475Y-43519185D01*
X94709345Y-43309937D01*
X94843164Y-43078156D01*
X94940943Y-42829018D01*
X95000498Y-42568090D01*
X95020499Y-42301200D01*
X95000498Y-42034310D01*
X94940943Y-41773382D01*
X94843164Y-41524244D01*
X94709345Y-41292463D01*
X94542475Y-41083215D01*
X94346282Y-40901174D01*
X94125149Y-40750408D01*
X93884015Y-40634284D01*
X93628267Y-40555397D01*
X93363618Y-40515507D01*
X93095980Y-40515507D01*
X92831331Y-40555397D01*
X92575583Y-40634284D01*
X92334449Y-40750408D01*
X92113316Y-40901174D01*
X91917123Y-41083215D01*
X91750253Y-41292463D01*
X91616434Y-41524244D01*
X91518655Y-41773382D01*
X91459100Y-42034310D01*
X91439099Y-42301200D01*
X89489109Y-42301200D01*
X89489109Y-41908338D01*
X89797578Y-40674461D01*
X90409652Y-39744108D01*
X91084711Y-39204062D01*
X91949127Y-38710109D01*
X92991753Y-38464785D01*
X94312231Y-38561406D01*
G36*
X29604502Y-38536498D02*
G01*
X30491324Y-38928349D01*
X31319687Y-39641083D01*
X31811641Y-40317521D01*
X32181339Y-41118533D01*
X32382456Y-42082402D01*
X32321634Y-42690628D01*
X32091490Y-43741597D01*
X31521516Y-44658713D01*
X30846460Y-45338210D01*
X30043911Y-45770352D01*
X29434266Y-46014210D01*
X28515526Y-46075459D01*
X27283521Y-45890659D01*
X26313737Y-45318734D01*
X25869804Y-44969335D01*
X25377560Y-44354030D01*
X25026466Y-43723807D01*
X24781380Y-42866007D01*
X24781380Y-42301200D01*
X26770701Y-42301200D01*
X26790702Y-42568090D01*
X26850257Y-42829018D01*
X26948036Y-43078156D01*
X27081855Y-43309937D01*
X27248725Y-43519185D01*
X27444918Y-43701226D01*
X27666051Y-43851992D01*
X27907185Y-43968116D01*
X28162933Y-44047003D01*
X28427582Y-44086893D01*
X28695220Y-44086893D01*
X28959869Y-44047003D01*
X29215617Y-43968116D01*
X29456751Y-43851992D01*
X29677884Y-43701226D01*
X29874077Y-43519185D01*
X30040947Y-43309937D01*
X30174766Y-43078156D01*
X30272545Y-42829018D01*
X30332100Y-42568090D01*
X30352101Y-42301200D01*
X30332100Y-42034310D01*
X30272545Y-41773382D01*
X30174766Y-41524244D01*
X30040947Y-41292463D01*
X29874077Y-41083215D01*
X29677884Y-40901174D01*
X29456751Y-40750408D01*
X29215617Y-40634284D01*
X28959869Y-40555397D01*
X28695220Y-40515507D01*
X28427582Y-40515507D01*
X28162933Y-40555397D01*
X27907185Y-40634284D01*
X27666051Y-40750408D01*
X27444918Y-40901174D01*
X27248725Y-41083215D01*
X27081855Y-41292463D01*
X26948036Y-41524244D01*
X26850257Y-41773382D01*
X26790702Y-42034310D01*
X26770701Y-42301200D01*
X24781380Y-42301200D01*
X24781380Y-41883430D01*
X25089849Y-40649553D01*
X25701923Y-39719200D01*
X26376982Y-39179154D01*
X27241398Y-38685201D01*
X28284024Y-38439877D01*
X29604502Y-38536498D01*
G37*
X29604502Y-38536498D02*
X30491324Y-38928349D01*
X31319687Y-39641083D01*
X31811641Y-40317521D01*
X32181339Y-41118533D01*
X32382456Y-42082402D01*
X32321634Y-42690628D01*
X32091490Y-43741597D01*
X31521516Y-44658713D01*
X30846460Y-45338210D01*
X30043911Y-45770352D01*
X29434266Y-46014210D01*
X28515526Y-46075459D01*
X27283521Y-45890659D01*
X26313737Y-45318734D01*
X25869804Y-44969335D01*
X25377560Y-44354030D01*
X25026466Y-43723807D01*
X24781380Y-42866007D01*
X24781380Y-42301200D01*
X26770701Y-42301200D01*
X26790702Y-42568090D01*
X26850257Y-42829018D01*
X26948036Y-43078156D01*
X27081855Y-43309937D01*
X27248725Y-43519185D01*
X27444918Y-43701226D01*
X27666051Y-43851992D01*
X27907185Y-43968116D01*
X28162933Y-44047003D01*
X28427582Y-44086893D01*
X28695220Y-44086893D01*
X28959869Y-44047003D01*
X29215617Y-43968116D01*
X29456751Y-43851992D01*
X29677884Y-43701226D01*
X29874077Y-43519185D01*
X30040947Y-43309937D01*
X30174766Y-43078156D01*
X30272545Y-42829018D01*
X30332100Y-42568090D01*
X30352101Y-42301200D01*
X30332100Y-42034310D01*
X30272545Y-41773382D01*
X30174766Y-41524244D01*
X30040947Y-41292463D01*
X29874077Y-41083215D01*
X29677884Y-40901174D01*
X29456751Y-40750408D01*
X29215617Y-40634284D01*
X28959869Y-40555397D01*
X28695220Y-40515507D01*
X28427582Y-40515507D01*
X28162933Y-40555397D01*
X27907185Y-40634284D01*
X27666051Y-40750408D01*
X27444918Y-40901174D01*
X27248725Y-41083215D01*
X27081855Y-41292463D01*
X26948036Y-41524244D01*
X26850257Y-41773382D01*
X26790702Y-42034310D01*
X26770701Y-42301200D01*
X24781380Y-42301200D01*
X24781380Y-41883430D01*
X25089849Y-40649553D01*
X25701923Y-39719200D01*
X26376982Y-39179154D01*
X27241398Y-38685201D01*
X28284024Y-38439877D01*
X29604502Y-38536498D01*
G36*
X35130231Y-100854906D02*
G01*
X36017053Y-101246757D01*
X36845416Y-101959491D01*
X37337370Y-102635929D01*
X37707068Y-103436941D01*
X37908185Y-104400810D01*
X37847363Y-105009036D01*
X37617219Y-106060005D01*
X37047245Y-106977121D01*
X36372189Y-107656618D01*
X35569640Y-108088760D01*
X34959995Y-108332618D01*
X34041255Y-108393867D01*
X32809250Y-108209067D01*
X31839466Y-107637142D01*
X31395533Y-107287743D01*
X30903289Y-106672438D01*
X30552195Y-106042215D01*
X30307109Y-105184415D01*
X30307109Y-104569300D01*
X32269800Y-104569300D01*
X32289801Y-104836190D01*
X32349356Y-105097118D01*
X32447135Y-105346256D01*
X32580954Y-105578037D01*
X32747824Y-105787285D01*
X32944017Y-105969326D01*
X33165150Y-106120092D01*
X33406284Y-106236216D01*
X33662032Y-106315103D01*
X33926681Y-106354993D01*
X34194319Y-106354993D01*
X34458968Y-106315103D01*
X34714716Y-106236216D01*
X34955850Y-106120092D01*
X35176983Y-105969326D01*
X35373176Y-105787285D01*
X35540046Y-105578037D01*
X35673865Y-105346256D01*
X35771644Y-105097118D01*
X35831199Y-104836190D01*
X35851200Y-104569300D01*
X35831199Y-104302410D01*
X35771644Y-104041482D01*
X35673865Y-103792344D01*
X35540046Y-103560563D01*
X35373176Y-103351315D01*
X35176983Y-103169274D01*
X34955850Y-103018508D01*
X34714716Y-102902384D01*
X34458968Y-102823497D01*
X34194319Y-102783607D01*
X33926681Y-102783607D01*
X33662032Y-102823497D01*
X33406284Y-102902384D01*
X33165150Y-103018508D01*
X32944017Y-103169274D01*
X32747824Y-103351315D01*
X32580954Y-103560563D01*
X32447135Y-103792344D01*
X32349356Y-104041482D01*
X32289801Y-104302410D01*
X32269800Y-104569300D01*
X30307109Y-104569300D01*
X30307109Y-104201838D01*
X30615578Y-102967961D01*
X31227652Y-102037608D01*
X31902711Y-101497562D01*
X32767127Y-101003609D01*
X33809753Y-100758285D01*
X35130231Y-100854906D01*
G37*
X35130231Y-100854906D02*
X36017053Y-101246757D01*
X36845416Y-101959491D01*
X37337370Y-102635929D01*
X37707068Y-103436941D01*
X37908185Y-104400810D01*
X37847363Y-105009036D01*
X37617219Y-106060005D01*
X37047245Y-106977121D01*
X36372189Y-107656618D01*
X35569640Y-108088760D01*
X34959995Y-108332618D01*
X34041255Y-108393867D01*
X32809250Y-108209067D01*
X31839466Y-107637142D01*
X31395533Y-107287743D01*
X30903289Y-106672438D01*
X30552195Y-106042215D01*
X30307109Y-105184415D01*
X30307109Y-104569300D01*
X32269800Y-104569300D01*
X32289801Y-104836190D01*
X32349356Y-105097118D01*
X32447135Y-105346256D01*
X32580954Y-105578037D01*
X32747824Y-105787285D01*
X32944017Y-105969326D01*
X33165150Y-106120092D01*
X33406284Y-106236216D01*
X33662032Y-106315103D01*
X33926681Y-106354993D01*
X34194319Y-106354993D01*
X34458968Y-106315103D01*
X34714716Y-106236216D01*
X34955850Y-106120092D01*
X35176983Y-105969326D01*
X35373176Y-105787285D01*
X35540046Y-105578037D01*
X35673865Y-105346256D01*
X35771644Y-105097118D01*
X35831199Y-104836190D01*
X35851200Y-104569300D01*
X35831199Y-104302410D01*
X35771644Y-104041482D01*
X35673865Y-103792344D01*
X35540046Y-103560563D01*
X35373176Y-103351315D01*
X35176983Y-103169274D01*
X34955850Y-103018508D01*
X34714716Y-102902384D01*
X34458968Y-102823497D01*
X34194319Y-102783607D01*
X33926681Y-102783607D01*
X33662032Y-102823497D01*
X33406284Y-102902384D01*
X33165150Y-103018508D01*
X32944017Y-103169274D01*
X32747824Y-103351315D01*
X32580954Y-103560563D01*
X32447135Y-103792344D01*
X32349356Y-104041482D01*
X32289801Y-104302410D01*
X32269800Y-104569300D01*
X30307109Y-104569300D01*
X30307109Y-104201838D01*
X30615578Y-102967961D01*
X31227652Y-102037608D01*
X31902711Y-101497562D01*
X32767127Y-101003609D01*
X33809753Y-100758285D01*
X35130231Y-100854906D01*
G36*
X88724231Y-100918406D02*
G01*
X89611053Y-101310257D01*
X90439416Y-102022991D01*
X90931370Y-102699429D01*
X91301068Y-103500441D01*
X91502185Y-104464310D01*
X91441363Y-105072536D01*
X91211219Y-106123505D01*
X90641245Y-107040621D01*
X89966189Y-107720118D01*
X89163640Y-108152260D01*
X88553995Y-108396118D01*
X87635255Y-108457367D01*
X86403250Y-108272567D01*
X85433466Y-107700642D01*
X84989533Y-107351243D01*
X84497289Y-106735938D01*
X84146195Y-106105715D01*
X83901109Y-105247915D01*
X83901109Y-104569300D01*
X85940000Y-104569300D01*
X85960001Y-104836190D01*
X86019556Y-105097118D01*
X86117335Y-105346256D01*
X86251154Y-105578037D01*
X86418024Y-105787285D01*
X86614217Y-105969326D01*
X86835350Y-106120092D01*
X87076484Y-106236216D01*
X87332232Y-106315103D01*
X87596881Y-106354993D01*
X87864519Y-106354993D01*
X88129168Y-106315103D01*
X88384916Y-106236216D01*
X88626050Y-106120092D01*
X88847183Y-105969326D01*
X89043376Y-105787285D01*
X89210246Y-105578037D01*
X89344065Y-105346256D01*
X89441844Y-105097118D01*
X89501399Y-104836190D01*
X89521400Y-104569300D01*
X89501399Y-104302410D01*
X89441844Y-104041482D01*
X89344065Y-103792344D01*
X89210246Y-103560563D01*
X89043376Y-103351315D01*
X88847183Y-103169274D01*
X88626050Y-103018508D01*
X88384916Y-102902384D01*
X88129168Y-102823497D01*
X87864519Y-102783607D01*
X87596881Y-102783607D01*
X87332232Y-102823497D01*
X87076484Y-102902384D01*
X86835350Y-103018508D01*
X86614217Y-103169274D01*
X86418024Y-103351315D01*
X86251154Y-103560563D01*
X86117335Y-103792344D01*
X86019556Y-104041482D01*
X85960001Y-104302410D01*
X85940000Y-104569300D01*
X83901109Y-104569300D01*
X83901109Y-104265338D01*
X84209578Y-103031461D01*
X84821652Y-102101108D01*
X85496711Y-101561062D01*
X86361127Y-101067109D01*
X87403753Y-100821785D01*
X88724231Y-100918406D01*
G37*
X88724231Y-100918406D02*
X89611053Y-101310257D01*
X90439416Y-102022991D01*
X90931370Y-102699429D01*
X91301068Y-103500441D01*
X91502185Y-104464310D01*
X91441363Y-105072536D01*
X91211219Y-106123505D01*
X90641245Y-107040621D01*
X89966189Y-107720118D01*
X89163640Y-108152260D01*
X88553995Y-108396118D01*
X87635255Y-108457367D01*
X86403250Y-108272567D01*
X85433466Y-107700642D01*
X84989533Y-107351243D01*
X84497289Y-106735938D01*
X84146195Y-106105715D01*
X83901109Y-105247915D01*
X83901109Y-104569300D01*
X85940000Y-104569300D01*
X85960001Y-104836190D01*
X86019556Y-105097118D01*
X86117335Y-105346256D01*
X86251154Y-105578037D01*
X86418024Y-105787285D01*
X86614217Y-105969326D01*
X86835350Y-106120092D01*
X87076484Y-106236216D01*
X87332232Y-106315103D01*
X87596881Y-106354993D01*
X87864519Y-106354993D01*
X88129168Y-106315103D01*
X88384916Y-106236216D01*
X88626050Y-106120092D01*
X88847183Y-105969326D01*
X89043376Y-105787285D01*
X89210246Y-105578037D01*
X89344065Y-105346256D01*
X89441844Y-105097118D01*
X89501399Y-104836190D01*
X89521400Y-104569300D01*
X89501399Y-104302410D01*
X89441844Y-104041482D01*
X89344065Y-103792344D01*
X89210246Y-103560563D01*
X89043376Y-103351315D01*
X88847183Y-103169274D01*
X88626050Y-103018508D01*
X88384916Y-102902384D01*
X88129168Y-102823497D01*
X87864519Y-102783607D01*
X87596881Y-102783607D01*
X87332232Y-102823497D01*
X87076484Y-102902384D01*
X86835350Y-103018508D01*
X86614217Y-103169274D01*
X86418024Y-103351315D01*
X86251154Y-103560563D01*
X86117335Y-103792344D01*
X86019556Y-104041482D01*
X85960001Y-104302410D01*
X85940000Y-104569300D01*
X83901109Y-104569300D01*
X83901109Y-104265338D01*
X84209578Y-103031461D01*
X84821652Y-102101108D01*
X85496711Y-101561062D01*
X86361127Y-101067109D01*
X87403753Y-100821785D01*
X88724231Y-100918406D01*
M02*
