M48
; DRILL file {KiCad 5.1.5+dfsg1-2build2} date Po 21. marec 2022, 22:38:44
; FORMAT={-:-/ absolute / inch / decimal}
; #@! TF.CreationDate,2022-03-21T22:38:44+01:00
; #@! TF.GenerationSoftware,Kicad,Pcbnew,5.1.5+dfsg1-2build2
FMAT,2
INCH
T1C0.0118
T2C0.0150
T3C0.0171
T4C0.0197
T5C0.0200
T6C0.0276
T7C0.0374
T8C0.0394
T9C0.0453
T10C0.0866
T11C0.1575
T12C0.0390
%
G90
G05
T1
X0.845Y-2.815
X0.845Y-3.375
X0.85Y-1.735
X0.85Y-2.355
X0.85Y-2.58
X0.85Y-3.045
X0.855Y-1.455
X0.855Y-1.95
X0.855Y-2.15
X0.855Y-3.7
X0.9037Y-3.1908
X0.9037Y-3.2203
X0.905Y-4.13
X0.9094Y-2.4196
X0.915Y-1.255
X0.9409Y-3.5276
X0.945Y-4.19
X0.9843Y-3.7303
X0.9843Y-3.7803
X0.9843Y-3.8303
X0.995Y-1.085
X0.995Y-4.155
X1.005Y-2.86
X1.0093Y-3.7553
X1.0093Y-3.8053
X1.018Y-2.217
X1.0261Y-2.0661
X1.0343Y-3.7303
X1.0343Y-3.7803
X1.0343Y-3.8303
X1.059Y-2.5039
X1.0593Y-3.7553
X1.0593Y-3.8053
X1.065Y-0.93
X1.065Y-4.055
X1.0827Y-3.3386
X1.0827Y-3.3976
X1.0827Y-3.4606
X1.0827Y-3.5276
X1.0843Y-3.7303
X1.0843Y-3.7803
X1.0843Y-3.8303
X1.1024Y-2.7087
X1.1063Y-1.8307
X1.1093Y-3.7553
X1.1093Y-3.8053
X1.125Y-4.22
X1.1343Y-3.7303
X1.1343Y-3.7803
X1.1343Y-3.8303
X1.1416Y-2.4175
X1.1439Y-3.5807
X1.1575Y-2.8543
X1.1575Y-3.144
X1.1593Y-3.7553
X1.1593Y-3.8053
X1.16Y-4.035
X1.1614Y-1.8287
X1.1652Y-3.1908
X1.1772Y-3.4606
X1.1772Y-3.5276
X1.1772Y-3.5807
X1.18Y-4.275
X1.1843Y-3.7303
X1.1843Y-3.7803
X1.1843Y-3.8303
X1.189Y-1.993
X1.1929Y-3.189
X1.2Y-4.42
X1.203Y-1.906
X1.203Y-2.217
X1.2122Y-1.8075
X1.255Y-4.345
X1.2598Y-3.6614
X1.2598Y-3.6942
X1.26Y-3.99
X1.2708Y-1.5731
X1.273Y-2.5039
X1.273Y-2.6171
X1.2756Y-0.91
X1.2908Y-1.6984
X1.2913Y-3.189
X1.2913Y-3.5807
X1.2913Y-3.7638
X1.293Y-1.6198
X1.315Y-4.535
X1.3228Y-3.8858
X1.329Y-2.057
X1.3593Y-2.7431
X1.3593Y-2.8543
X1.3661Y-3.8858
X1.37Y-3.665
X1.4055Y-3.9961
X1.4134Y-3.311
X1.4134Y-3.4606
X1.4134Y-3.5807
X1.4134Y-3.8858
X1.4154Y-1.6732
X1.435Y-1.78
X1.435Y-1.83
X1.435Y-1.88
X1.435Y-1.93
X1.435Y-1.98
X1.435Y-2.03
X1.4409Y-4.0354
X1.448Y-2.213
X1.4488Y-1.6732
X1.4843Y-1.3
X1.4843Y-1.6732
X1.4843Y-4.0787
X1.485Y-1.78
X1.485Y-1.83
X1.485Y-1.88
X1.485Y-1.93
X1.485Y-1.98
X1.485Y-2.03
X1.487Y-2.5039
X1.492Y-2.118
X1.5236Y-4.125
X1.5315Y-3.9685
X1.535Y-1.78
X1.535Y-1.83
X1.535Y-1.88
X1.535Y-1.93
X1.535Y-1.98
X1.535Y-2.03
X1.5354Y-1.72
X1.541Y-2.4958
X1.5512Y-0.91
X1.553Y-2.096
X1.555Y-4.255
X1.5561Y-2.7431
X1.5561Y-2.8524
X1.5561Y-2.9921
X1.56Y-4.365
X1.5648Y-2.445
X1.5669Y-4.0079
X1.57Y-4.125
X1.5728Y-1.7195
X1.5994Y-3.311
X1.6Y-2.315
X1.6Y-3.925
X1.6004Y-2.4547
X1.6024Y-2.5984
X1.609Y-3.1339
X1.618Y-2.266
X1.618Y-4.161
X1.6181Y-4.0079
X1.619Y-1.94
X1.6199Y-4.41
X1.6457Y-2.4537
X1.653Y-1.493
X1.6535Y-3.5567
X1.66Y-1.782
X1.6654Y-1.1654
X1.6829Y-3.553
X1.685Y-4.29
X1.686Y-1.46
X1.6875Y-0.96
X1.6875Y-1.2525
X1.6875Y-1.3
X1.6875Y-1.3525
X1.6875Y-1.4025
X1.69Y-1.782
X1.6959Y-1.1641
X1.7047Y-2.9921
X1.7047Y-3.1339
X1.71Y-3.808
X1.71Y-3.875
X1.71Y-3.945
X1.712Y-4.015
X1.715Y-4.545
X1.7174Y-4.41
X1.718Y-1.782
X1.7199Y-4.16
X1.7293Y-2.096
X1.734Y-3.2316
X1.7376Y-2.125
X1.753Y-2.389
X1.753Y-2.419
X1.753Y-2.4537
X1.753Y-2.4892
X1.7609Y-3.2439
X1.7625Y-3.693
X1.7677Y-4.125
X1.775Y-3.415
X1.7758Y-3.5912
X1.7835Y-1.563
X1.7854Y-3.0906
X1.7857Y-3.1403
X1.7925Y-3.6925
X1.8Y-1.31
X1.8031Y-1.5433
X1.8174Y-4.41
X1.82Y-1.215
X1.82Y-4.16
X1.8228Y-1.5236
X1.825Y-1.31
X1.83Y-0.91
X1.835Y-2.7125
X1.8359Y-1.6278
X1.8425Y-1.5039
X1.845Y-1.215
X1.85Y-1.305
X1.855Y-1.4
X1.8622Y-1.4843
X1.865Y-1.34
X1.865Y-4.125
X1.865Y-4.4764
X1.8727Y-1.586
X1.875Y-1.37
X1.875Y-3.195
X1.8775Y-3.225
X1.878Y-1.835
X1.878Y-1.92
X1.8799Y-2.2953
X1.8799Y-2.3701
X1.8799Y-2.4803
X1.8815Y-3.4608
X1.8819Y-3.3625
X1.8819Y-3.3976
X1.8819Y-3.4312
X1.8819Y-3.5157
X1.8819Y-3.575
X1.8825Y-3.97
X1.885Y-1.41
X1.885Y-2.96
X1.8898Y-2.7125
X1.897Y-3.4871
X1.9Y-3.605
X1.9035Y-2.11
X1.9035Y-2.1654
X1.9035Y-2.2323
X1.905Y-1.385
X1.906Y-2.982
X1.91Y-3.25
X1.9144Y-1.6278
X1.915Y-3.35
X1.915Y-3.97
X1.9163Y-2.5482
X1.9173Y-4.41
X1.9199Y-4.16
X1.9225Y-3.145
X1.93Y-1.215
X1.935Y-4.0925
X1.9409Y-0.9843
X1.9497Y-2.7125
X1.955Y-1.215
X1.955Y-3.185
X1.955Y-3.22
X1.96Y-1.31
X1.9606Y-0.9646
X1.9606Y-2.2323
X1.9646Y-3.0315
X1.9646Y-4.125
X1.9646Y-4.4764
X1.965Y-1.835
X1.9751Y-3.6111
X1.985Y-1.215
X1.985Y-1.31
X1.985Y-1.5807
X1.985Y-1.6171
X1.9858Y-3.5278
X1.9921Y-3.0512
X1.9921Y-3.752
X1.9963Y-3.5637
X2.0Y-3.595
X2.01Y-2.7125
X2.015Y-4.41
X2.0177Y-2.0748
X2.0177Y-2.1654
X2.0177Y-2.2323
X2.0199Y-4.16
X2.025Y-1.835
X2.0276Y-1.4331
X2.0276Y-1.4646
X2.0394Y-1.3543
X2.0468Y-3.1516
X2.0512Y-2.874
X2.066Y-2.3701
X2.0689Y-1.6929
X2.0689Y-1.92
X2.0744Y-3.576
X2.0747Y-2.8333
X2.0748Y-1.0276
X2.0748Y-2.4803
X2.0748Y-2.5305
X2.075Y-3.7933
X2.0759Y-3.1598
X2.0825Y-1.97
X2.0827Y-3.3209
X2.0827Y-3.4055
X2.0839Y-3.4594
X2.0945Y-1.0079
X2.099Y-4.093
X2.1Y-4.015
X2.1011Y-3.1838
X2.104Y-1.835
X2.105Y-3.935
X2.1179Y-3.2093
X2.1309Y-1.5807
X2.1309Y-1.6929
X2.1339Y-2.5305
X2.1356Y-2.8374
X2.1457Y-4.2409
X2.15Y-4.545
X2.1592Y-3.27
X2.1654Y-1.835
X2.1654Y-2.0551
X2.1654Y-3.4331
X2.17Y-3.305
X2.17Y-4.015
X2.1772Y-2.9055
X2.185Y-2.5305
X2.189Y-2.11
X2.189Y-4.0925
X2.189Y-4.16
X2.1929Y-2.8346
X2.1929Y-2.8701
X2.2008Y-3.4685
X2.2077Y-1.5797
X2.2082Y-3.305
X2.215Y-4.3
X2.215Y-4.362
X2.215Y-4.426
X2.2283Y-3.3661
X2.2323Y-3.437
X2.2425Y-1.835
X2.2634Y-3.88
X2.2634Y-3.935
X2.269Y-3.2325
X2.27Y-3.265
X2.275Y-2.3701
X2.275Y-4.545
X2.2805Y-3.1743
X2.2853Y-3.145
X2.29Y-3.205
X2.302Y-4.362
X2.302Y-4.426
X2.3025Y-1.835
X2.306Y-4.0925
X2.306Y-4.224
X2.311Y-2.8346
X2.311Y-2.8701
X2.3257Y-3.1563
X2.3504Y-2.2323
X2.3543Y-2.9409
X2.3563Y-2.1093
X2.3612Y-1.6929
X2.365Y-2.715
X2.3687Y-2.8333
X2.3821Y-3.3366
X2.385Y-3.59
X2.3898Y-1.1063
X2.392Y-4.4
X2.3957Y-2.065
X2.3957Y-2.2323
X2.3957Y-3.7933
X2.3996Y-1.5807
X2.4097Y-3.0916
X2.422Y-1.835
X2.4272Y-1.1063
X2.4277Y-2.8333
X2.435Y-1.6929
X2.4508Y-2.1654
X2.4508Y-2.2323
X2.4508Y-2.3701
X2.46Y-4.545
X2.4626Y-1.1063
X2.474Y-4.215
X2.4813Y-3.5596
X2.484Y-4.365
X2.4843Y-2.4803
X2.4843Y-2.5305
X2.4845Y-1.835
X2.4856Y-2.836
X2.4882Y-1.97
X2.492Y-3.626
X2.4921Y-3.7933
X2.4941Y-3.935
X2.498Y-1.1063
X2.5039Y-3.5404
X2.5068Y-4.16
X2.51Y-4.41
X2.5275Y-3.5225
X2.5315Y-1.5807
X2.5394Y-1.6929
X2.5394Y-2.5305
X2.54Y-2.715
X2.5433Y-2.8346
X2.5512Y-3.5039
X2.5657Y-3.4571
X2.5732Y-4.09
X2.5748Y-1.1063
X2.577Y-3.527
X2.5807Y-1.6929
X2.5845Y-3.4342
X2.586Y-3.48
X2.5906Y-2.5305
X2.5925Y-3.7933
X2.5925Y-3.935
X2.598Y-1.835
X2.6024Y-1.1063
X2.605Y-4.545
X2.606Y-2.8343
X2.6245Y-4.335
X2.6358Y-2.1102
X2.6402Y-3.626
X2.6572Y-2.986
X2.6575Y-2.9561
X2.658Y-1.835
X2.6604Y-1.5817
X2.6628Y-2.7696
X2.68Y-3.9004
X2.68Y-3.9398
X2.68Y-3.9858
X2.683Y-1.97
X2.692Y-3.7933
X2.695Y-4.109
X2.695Y-4.217
X2.695Y-4.29
X2.695Y-4.334
X2.695Y-4.378
X2.695Y-4.428
X2.7087Y-2.9055
X2.714Y-3.88
X2.7146Y-2.7667
X2.7283Y-3.0906
X2.7283Y-3.165
X2.732Y-3.228
X2.7411Y-2.2549
X2.745Y-3.615
X2.7488Y-2.3855
X2.7549Y-1.6516
X2.755Y-3.185
X2.7559Y-1.7126
X2.7559Y-2.8996
X2.7559Y-2.937
X2.7569Y-4.015
X2.7575Y-4.29
X2.7576Y-4.109
X2.7576Y-4.217
X2.7576Y-4.334
X2.7576Y-4.378
X2.7576Y-4.428
X2.758Y-2.693
X2.7598Y-3.0906
X2.7628Y-1.8071
X2.763Y-3.88
X2.768Y-3.228
X2.7717Y-2.1317
X2.7756Y-3.0159
X2.7829Y-3.1643
X2.783Y-3.737
X2.7869Y-2.3668
X2.7925Y-3.5425
X2.794Y-4.155
X2.794Y-4.217
X2.7992Y-1.8071
X2.8Y-3.228
X2.8Y-3.7933
X2.8Y-3.8189
X2.8012Y-1.5807
X2.8012Y-1.7618
X2.81Y-2.13
X2.81Y-3.18
X2.812Y-4.246
X2.8125Y-3.13
X2.814Y-2.352
X2.831Y-2.5778
X2.8404Y-2.4238
X2.8425Y-1.8071
X2.8475Y-4.32
X2.8482Y-2.3834
X2.8504Y-2.2323
X2.8504Y-2.2717
X2.855Y-4.3525
X2.858Y-4.084
X2.8677Y-2.54
X2.88Y-3.57
X2.885Y-2.415
X2.889Y-4.4764
X2.892Y-2.8113
X2.8937Y-3.1142
X2.895Y-3.228
X2.8975Y-2.5324
X2.905Y-4.545
X2.9058Y-2.5762
X2.9075Y-2.8681
X2.9075Y-2.8996
X2.9089Y-2.9532
X2.9134Y-1.811
X2.9281Y-2.5351
X2.9291Y-2.8386
X2.934Y-4.11
X2.935Y-4.334
X2.9406Y-2.8113
X2.9406Y-2.93
X2.9449Y-2.3346
X2.955Y-3.62
X2.955Y-3.684
X2.955Y-3.737
X2.955Y-3.783
X2.955Y-3.8346
X2.955Y-3.88
X2.955Y-3.9252
X2.9665Y-2.313
X2.9685Y-3.1
X2.986Y-4.11
X2.9882Y-2.2913
X2.9921Y-1.7283
X2.999Y-3.1
X3.0098Y-2.2697
X3.01Y-3.783
X3.011Y-3.685
X3.011Y-3.737
X3.011Y-3.833
X3.0236Y-1.811
X3.0236Y-1.878
X3.0236Y-1.9331
X3.0236Y-1.9803
X3.0236Y-2.0315
X3.0236Y-2.0827
X3.0236Y-2.1339
X3.026Y-2.363
X3.028Y-2.5002
X3.028Y-2.5302
X3.028Y-2.5601
X3.028Y-2.59
X3.028Y-4.523
X3.036Y-2.72
X3.043Y-2.8396
X3.043Y-2.8693
X3.043Y-2.958
X3.0433Y-1.1378
X3.0433Y-1.1614
X3.0433Y-3.46
X3.0433Y-3.5
X3.0433Y-3.54
X3.048Y-2.8988
X3.048Y-2.9285
X3.0512Y-3.1929
X3.0512Y-3.227
X3.0551Y-1.2756
X3.0551Y-1.3583
X3.0551Y-1.4567
X3.0551Y-1.5157
X3.072Y-2.824
X3.0744Y-2.9642
X3.0787Y-2.2699
X3.086Y-2.023
X3.122Y-2.433
X3.1339Y-1.1693
X3.1339Y-1.3583
X3.1339Y-1.4567
X3.1339Y-1.5157
X3.1378Y-1.811
X3.1457Y-1.9331
X3.1457Y-1.9606
X3.155Y-3.1
X3.1614Y-1.811
X3.1614Y-2.433
X3.1614Y-2.4677
X3.1614Y-2.5039
X3.185Y-4.428
X3.185Y-4.378
X3.185Y-4.4764
X3.186Y-4.109
X3.186Y-4.217
X3.186Y-4.29
X3.186Y-4.334
X3.188Y-2.025
X3.1949Y-1.811
X3.2008Y-1.1988
X3.2008Y-2.433
X3.2008Y-2.4677
X3.2008Y-2.5039
X3.211Y-2.907
X3.2165Y-2.315
X3.2185Y-1.811
X3.23Y-3.833
X3.2382Y-2.2933
X3.248Y-1.1988
X3.248Y-1.9331
X3.248Y-1.9606
X3.252Y-1.811
X3.252Y-2.907
X3.2598Y-2.2717
X3.2756Y-1.811
X3.2835Y-1.1988
X3.287Y-2.149
X3.29Y-1.33
X3.29Y-3.255
X3.2913Y-2.3386
X3.307Y-2.907
X3.3071Y-1.5787
X3.3071Y-1.811
X3.308Y-1.28
X3.314Y-2.024
X3.3189Y-1.1988
X3.33Y-3.57
X3.3307Y-1.6909
X3.3307Y-1.811
X3.357Y-1.255
X3.3583Y-2.315
X3.36Y-3.885
X3.36Y-3.935
X3.36Y-3.985
X3.3622Y-1.9331
X3.3622Y-1.9606
X3.365Y-3.0725
X3.3661Y-2.2471
X3.37Y-2.909
X3.3741Y-2.9441
X3.375Y-3.86
X3.375Y-3.91
X3.375Y-3.96
X3.3791Y-3.6709
X3.3799Y-2.2933
X3.39Y-3.835
X3.39Y-3.885
X3.39Y-3.935
X3.39Y-3.985
X3.3976Y-4.4764
X3.4006Y-1.4508
X3.4014Y-2.2718
X3.4027Y-2.3257
X3.405Y-3.64
X3.405Y-3.91
X3.405Y-3.96
X3.406Y-3.86
X3.407Y-3.81
X3.41Y-2.027
X3.42Y-3.615
X3.42Y-3.665
X3.42Y-3.935
X3.42Y-3.985
X3.422Y-2.955
X3.422Y-3.835
X3.4252Y-3.0551
X3.435Y-3.64
X3.435Y-3.96
X3.437Y-1.9331
X3.437Y-1.9606
X3.44Y-2.912
X3.44Y-3.435
X3.45Y-3.615
X3.45Y-3.665
X3.45Y-3.755
X3.45Y-3.935
X3.45Y-3.985
X3.465Y-3.64
X3.465Y-3.96
X3.4685Y-2.4668
X3.48Y-3.615
X3.48Y-3.665
X3.48Y-3.755
X3.48Y-3.935
X3.48Y-3.985
X3.487Y-2.57
X3.4921Y-2.4961
X3.495Y-3.64
X3.495Y-3.78
X3.495Y-3.96
X3.5Y-4.3819
X3.51Y-3.615
X3.51Y-3.665
X3.51Y-3.755
X3.51Y-3.805
X3.51Y-3.835
X3.51Y-3.935
X3.51Y-3.985
X3.5118Y-2.4449
X3.5157Y-1.9331
X3.5157Y-2.1732
X3.5197Y-2.9331
X3.55Y-2.595
X3.55Y-3.625
X3.55Y-3.655
X3.55Y-3.685
X3.55Y-3.715
X3.55Y-3.745
X3.55Y-3.775
X3.55Y-3.805
X3.55Y-3.835
X3.55Y-3.865
X3.55Y-3.895
X3.5512Y-2.6811
X3.5512Y-2.7402
X3.5512Y-2.7913
X3.5512Y-2.8504
X3.5512Y-2.9331
X3.552Y-2.6246
X3.559Y-2.4066
X3.5591Y-2.374
X3.575Y-2.135
X3.5827Y-0.9921
X3.59Y-2.24
X3.592Y-3.546
X3.593Y-3.325
X3.593Y-3.39
X3.593Y-3.485
X3.5965Y-3.0807
X3.6063Y-4.2835
X3.6102Y-1.0197
X3.6137Y-3.3563
X3.614Y-3.516
X3.633Y-3.325
X3.633Y-3.39
X3.633Y-3.486
X3.633Y-3.55
X3.6437Y-0.9173
X3.647Y-4.033
X3.6545Y-1.4803
X3.6567Y-2.6141
X3.658Y-3.7239
X3.658Y-3.7539
X3.658Y-3.7839
X3.658Y-3.8139
X3.658Y-3.8439
X3.658Y-3.8739
X3.6649Y-2.534
X3.6654Y-3.1063
X3.6654Y-3.1378
X3.6654Y-3.1693
X3.6693Y-2.5827
X3.6701Y-2.5049
X3.6732Y-0.9429
X3.675Y-3.225
X3.6811Y-1.0906
X3.688Y-3.7239
X3.688Y-3.7539
X3.688Y-3.7839
X3.688Y-3.8139
X3.688Y-3.8439
X3.688Y-3.8739
X3.689Y-2.5551
X3.697Y-4.033
X3.7028Y-0.9685
X3.7087Y-1.1181
X3.7126Y-2.878
X3.7146Y-1.8583
X3.7186Y-3.7105
X3.7186Y-3.7405
X3.7186Y-3.7705
X3.7186Y-3.8005
X3.7186Y-3.8305
X3.7186Y-3.8605
X3.7186Y-3.8905
X3.7205Y-1.4803
X3.7323Y-0.9921
X3.7446Y-3.0845
X3.7486Y-3.7105
X3.7486Y-3.7405
X3.7486Y-3.7705
X3.7486Y-3.8005
X3.7486Y-3.8305
X3.7486Y-3.8605
X3.7486Y-3.8905
X3.757Y-4.033
X3.758Y-3.485
X3.7598Y-2.9921
X3.76Y-3.325
X3.76Y-3.39
X3.76Y-3.545
X3.765Y-4.23
X3.7786Y-3.7105
X3.7786Y-3.7405
X3.7786Y-3.7705
X3.7786Y-3.8005
X3.7786Y-3.8305
X3.7786Y-3.8605
X3.7786Y-3.8905
X3.78Y-3.355
X3.78Y-3.515
X3.7874Y-2.9921
X3.7874Y-3.0236
X3.793Y-2.44
X3.797Y-2.402
X3.8Y-3.325
X3.8Y-3.39
X3.8Y-3.485
X3.8Y-3.545
X3.8086Y-3.7105
X3.8086Y-3.7405
X3.8086Y-3.7705
X3.8086Y-3.8005
X3.8086Y-3.8305
X3.8086Y-3.8605
X3.8086Y-3.8905
X3.8102Y-1.4058
X3.815Y-2.9921
X3.815Y-3.0236
X3.8189Y-1.1732
X3.8228Y-2.3425
X3.825Y-3.28
X3.8386Y-3.185
X3.8425Y-2.9921
X3.845Y-1.2
X3.8465Y-1.4055
X3.85Y-3.425
X3.8622Y-2.7717
X3.8622Y-2.8071
X3.8622Y-2.8425
X3.8622Y-2.878
X3.8661Y-3.0591
X3.8661Y-3.1614
X3.885Y-4.13
X3.8898Y-3.1339
X3.8912Y-1.505
X3.898Y-1.4187
X3.935Y-3.36
X3.935Y-3.47
T2
X2.336Y-4.2607
X2.3675Y-4.2213
X2.399Y-4.2607
X2.4305Y-4.2213
X2.462Y-4.2607
T3
X1.9525Y-3.3583
X2.4416Y-3.125
X2.8502Y-3.118
X2.878Y-3.1457
X3.3849Y-3.7367
X3.4086Y-3.7604
T4
X2.7385Y-3.413
X2.7385Y-3.462
T6
X3.5965Y-3.0079
X1.2087Y-0.9488
X1.4843Y-0.9488
X1.3465Y-0.9488
X3.1574Y-2.563
X3.1574Y-2.653
X3.1574Y-2.743
X3.1574Y-2.823
X3.2008Y-2.693
X3.2074Y-2.613
X3.2074Y-2.773
X3.2402Y-2.5631
X3.2402Y-2.823
X3.2486Y-2.6532
X3.2521Y-2.7311
X3.2835Y-2.6104
X3.2874Y-2.7816
X3.2941Y-2.6921
X3.3268Y-2.5631
X3.3317Y-2.6507
X3.3346Y-2.8249
X3.3382Y-2.7366
X3.374Y-2.6064
X3.374Y-2.693
X3.374Y-2.7816
X3.4134Y-2.7481
X3.4173Y-2.6497
X3.4174Y-2.563
X3.4174Y-2.823
X1.5785Y-3.565
X1.7335Y-3.45
X1.7635Y-3.84
X1.7635Y-3.91
X1.7635Y-3.98
X1.9085Y-3.3
X2.9095Y-2.7559
X3.3406Y-3.254
X3.5768Y-3.254
X2.9783Y-2.378
X1.622Y-0.9488
T7
X2.3474Y-3.8356
X2.4459Y-3.8356
X2.5443Y-3.8356
X2.6427Y-3.8356
X2.7411Y-3.8356
T8
X2.2957Y-3.9858
X2.3941Y-3.9858
X2.4926Y-3.9858
X2.591Y-3.9858
T9
X0.8745Y-3.85
X0.8745Y-3.95
X0.8745Y-4.05
X1.21Y-2.94
X1.21Y-3.04
X1.31Y-2.94
X1.31Y-3.04
X1.41Y-2.94
X1.41Y-3.04
X1.51Y-2.94
X1.51Y-3.04
X1.61Y-2.94
X1.61Y-3.04
X1.6173Y-4.2409
X1.6173Y-4.3409
X1.7173Y-4.2409
X1.7173Y-4.3409
X1.81Y-1.1641
X1.81Y-1.2625
X1.81Y-1.3609
X1.81Y-1.4594
X1.8173Y-4.2409
X1.8173Y-4.3409
X1.9173Y-4.2409
X1.9173Y-4.3409
X1.9557Y-1.1641
X1.9557Y-1.2625
X1.9557Y-1.3609
X1.9557Y-1.4594
X2.0173Y-4.2409
X2.0173Y-4.3409
X2.0935Y-1.1641
X2.0935Y-1.2625
X2.0935Y-1.3609
X2.0935Y-1.4594
X2.1495Y-4.4
X2.1919Y-1.1641
X2.1919Y-1.2625
X2.1919Y-1.3609
X2.1919Y-1.4594
X2.2903Y-1.1641
X2.2903Y-1.2625
X2.2903Y-1.3609
X2.2903Y-1.4594
X2.3887Y-1.1641
X2.3887Y-1.2625
X2.3887Y-1.3609
X2.3887Y-1.4594
X2.4872Y-1.1641
X2.4872Y-1.2625
X2.4872Y-1.3609
X2.4872Y-1.4594
X2.5856Y-1.1641
X2.5856Y-1.2625
X2.5856Y-1.3609
X2.5856Y-1.4594
X2.6245Y-4.4
X2.684Y-1.1641
X2.684Y-1.2625
X2.684Y-1.3609
X2.684Y-1.4594
X2.7824Y-1.1641
X2.7824Y-1.2625
X2.7824Y-1.3609
X2.7824Y-1.4594
X2.8809Y-1.1641
X2.8809Y-1.2625
X2.8809Y-1.3609
X2.8809Y-1.4594
X2.9175Y-1.9349
X2.9175Y-2.0349
X2.9175Y-2.1349
X2.9175Y-2.2349
X2.9793Y-1.1641
X2.9793Y-1.2625
X2.9793Y-1.3609
X2.9793Y-1.4594
X3.0535Y-1.742
X3.6195Y-3.615
X3.6195Y-3.98
X3.7195Y-3.615
X3.7195Y-3.98
X3.8002Y-2.5
X3.8002Y-2.6
X3.8002Y-2.7
X3.8002Y-2.8
X3.8002Y-2.9
X3.8195Y-3.615
X3.8195Y-3.98
X3.9245Y-3.55
X3.9245Y-3.65
X3.9245Y-3.75
X3.9245Y-3.85
X3.9245Y-3.95
X3.9245Y-4.05
T10
X1.5561Y-1.5027
X3.2332Y-1.5027
T11
X1.3947Y-1.3511
X3.3947Y-1.3511
T12
X1.3Y-4.445
X1.5Y-4.405
X1.5Y-4.485
T5
G00X2.336Y-4.3099
M15
G01X2.273Y-4.3099
M16
G05
G00X2.4305Y-4.1721
M15
G01X2.3675Y-4.1721
M16
G05
G00X2.5053Y-4.3099
M15
G01X2.4423Y-4.3099
M16
G05
T8
G00X2.2533Y-4.2237
M15
G01X2.2533Y-4.2583
M16
G05
G00X2.5447Y-4.2237
M15
G01X2.5447Y-4.2583
M16
G05
T0
M30
