%TF.GenerationSoftware,KiCad,Pcbnew,5.1.5+dfsg1-2build2*%
%TF.CreationDate,2022-03-21T22:38:46+01:00*%
%TF.ProjectId,micro_rusEFI,6d696372-6f5f-4727-9573-4546492e6b69,R0.5.5rc2*%
%TF.SameCoordinates,Original*%
%TF.FileFunction,Soldermask,Bot*%
%TF.FilePolarity,Negative*%
%FSLAX46Y46*%
G04 Gerber Fmt 4.6, Leading zero omitted, Abs format (unit mm)*
G04 Created by KiCad (PCBNEW 5.1.5+dfsg1-2build2) date 2022-03-21 22:38:46*
%MOMM*%
%LPD*%
G04 APERTURE LIST*
%ADD10C,1.400152*%
%ADD11R,1.524152X1.524152*%
%ADD12R,1.600152X1.600152*%
%ADD13C,1.600152*%
%ADD14O,1.300152X0.800152*%
%ADD15R,1.300152X0.800152*%
%ADD16C,2.200152*%
%ADD17C,4.000152*%
%ADD18O,1.700152X1.950152*%
%ADD19C,0.100000*%
%ADD20O,2.616352X1.016152*%
%ADD21C,0.889152*%
%ADD22O,1.500152X2.380152*%
%ADD23R,1.800152X2.500152*%
%ADD24C,2.000152*%
%ADD25C,0.990752*%
%ADD26C,1.000000*%
%ADD27C,0.254000*%
G04 APERTURE END LIST*
D10*
X90851000Y-82651000D03*
X84851000Y-82651000D03*
D11*
X65811000Y-101240000D03*
X63311000Y-101240000D03*
D12*
X74103600Y-49145809D03*
D13*
X74103600Y-56765809D03*
X74103600Y-51685809D03*
X74103600Y-54225809D03*
D12*
X77558000Y-44246200D03*
D14*
X69557000Y-86689600D03*
D15*
X69557000Y-87934200D03*
D13*
X40893100Y-74675400D03*
X38353100Y-74675400D03*
X35813100Y-74675400D03*
X33273100Y-74675400D03*
X30733100Y-74675400D03*
X40893100Y-77215400D03*
X38353100Y-77215400D03*
X35813100Y-77215400D03*
X33273100Y-77215400D03*
D12*
X30733100Y-77215400D03*
D13*
X96525450Y-73659400D03*
X96525450Y-71119400D03*
X96525450Y-68579400D03*
X96525450Y-66039400D03*
D12*
X96525450Y-63499400D03*
D13*
X91934400Y-91820400D03*
X94474400Y-91820400D03*
D12*
X97014400Y-91820400D03*
D13*
X91934400Y-101091400D03*
X94474400Y-101091400D03*
D12*
X97014400Y-101091400D03*
D13*
X99681400Y-95249400D03*
X99681400Y-92709400D03*
D12*
X99681400Y-90169400D03*
D13*
X99681400Y-102869400D03*
X99681400Y-100329400D03*
D12*
X99681400Y-97789400D03*
X66661400Y-111759400D03*
X54596400Y-111759400D03*
D13*
X22211400Y-102869400D03*
X22211400Y-100329400D03*
D12*
X22211400Y-97789400D03*
D16*
X82124200Y-38167600D03*
X39524200Y-38167600D03*
D17*
X86224200Y-34317600D03*
X35424200Y-34317600D03*
D13*
X45974200Y-37067600D03*
X45974200Y-34567600D03*
X45974200Y-32067600D03*
X45974200Y-29567600D03*
X49674200Y-37067600D03*
X49674200Y-34567600D03*
X49674200Y-32067600D03*
X49674200Y-29567600D03*
X53174200Y-37067600D03*
X53174200Y-34567600D03*
X53174200Y-32067600D03*
X53174200Y-29567600D03*
X55674200Y-37067600D03*
X55674200Y-34567600D03*
X55674200Y-32067600D03*
X55674200Y-29567600D03*
X58174200Y-37067600D03*
X58174200Y-34567600D03*
X58174200Y-32067600D03*
X58174200Y-29567600D03*
X60674200Y-37067600D03*
X60674200Y-34567600D03*
X60674200Y-32067600D03*
X60674200Y-29567600D03*
X63174200Y-37067600D03*
X63174200Y-34567600D03*
X63174200Y-32067600D03*
X63174200Y-29567600D03*
X65674200Y-37067600D03*
X65674200Y-34567600D03*
X65674200Y-32067600D03*
X65674200Y-29567600D03*
X68174200Y-37067600D03*
X68174200Y-34567600D03*
X68174200Y-32067600D03*
X68174200Y-29567600D03*
X70674200Y-37067600D03*
X70674200Y-34567600D03*
X70674200Y-32067600D03*
X70674200Y-29567600D03*
X73174200Y-37067600D03*
X73174200Y-34567600D03*
X73174200Y-32067600D03*
X73174200Y-29567600D03*
X75674200Y-37067600D03*
X75674200Y-34567600D03*
X75674200Y-32067600D03*
X75674200Y-29567600D03*
D12*
X51238520Y-110258260D03*
D13*
X51238520Y-107718260D03*
X43618520Y-107718260D03*
X48698520Y-110258260D03*
X43618520Y-110258260D03*
X46158520Y-110258260D03*
X41078520Y-110258260D03*
X41078520Y-107718260D03*
X46158520Y-107718260D03*
X48698520Y-107718260D03*
D10*
X44030000Y-87629400D03*
X40093000Y-90550400D03*
X44792000Y-97535400D03*
X44792000Y-99313400D03*
X44792000Y-101091400D03*
X48475000Y-83819400D03*
X73900400Y-69999260D03*
D12*
X60811000Y-101240000D03*
X58311000Y-101240000D03*
D18*
X69625000Y-97425000D03*
X67125000Y-97425000D03*
X64625000Y-97425000D03*
X62125000Y-97425000D03*
D19*
G36*
X60249651Y-96451127D02*
G01*
X60273911Y-96454726D01*
X60297703Y-96460686D01*
X60320795Y-96468948D01*
X60342966Y-96479434D01*
X60364003Y-96492043D01*
X60383703Y-96506654D01*
X60401876Y-96523124D01*
X60418346Y-96541297D01*
X60432957Y-96560997D01*
X60445566Y-96582034D01*
X60456052Y-96604205D01*
X60464314Y-96627297D01*
X60470274Y-96651089D01*
X60473873Y-96675349D01*
X60475076Y-96699846D01*
X60475076Y-98150154D01*
X60473873Y-98174651D01*
X60470274Y-98198911D01*
X60464314Y-98222703D01*
X60456052Y-98245795D01*
X60445566Y-98267966D01*
X60432957Y-98289003D01*
X60418346Y-98308703D01*
X60401876Y-98326876D01*
X60383703Y-98343346D01*
X60364003Y-98357957D01*
X60342966Y-98370566D01*
X60320795Y-98381052D01*
X60297703Y-98389314D01*
X60273911Y-98395274D01*
X60249651Y-98398873D01*
X60225154Y-98400076D01*
X59024846Y-98400076D01*
X59000349Y-98398873D01*
X58976089Y-98395274D01*
X58952297Y-98389314D01*
X58929205Y-98381052D01*
X58907034Y-98370566D01*
X58885997Y-98357957D01*
X58866297Y-98343346D01*
X58848124Y-98326876D01*
X58831654Y-98308703D01*
X58817043Y-98289003D01*
X58804434Y-98267966D01*
X58793948Y-98245795D01*
X58785686Y-98222703D01*
X58779726Y-98198911D01*
X58776127Y-98174651D01*
X58774924Y-98150154D01*
X58774924Y-96699846D01*
X58776127Y-96675349D01*
X58779726Y-96651089D01*
X58785686Y-96627297D01*
X58793948Y-96604205D01*
X58804434Y-96582034D01*
X58817043Y-96560997D01*
X58831654Y-96541297D01*
X58848124Y-96523124D01*
X58866297Y-96506654D01*
X58885997Y-96492043D01*
X58907034Y-96479434D01*
X58929205Y-96468948D01*
X58952297Y-96460686D01*
X58976089Y-96454726D01*
X59000349Y-96451127D01*
X59024846Y-96449924D01*
X60225154Y-96449924D01*
X60249651Y-96451127D01*
G37*
D20*
X58534600Y-109471400D03*
X62834600Y-109471400D03*
X60934600Y-105971400D03*
D21*
X59334600Y-108221400D03*
X60134600Y-107221400D03*
X60934600Y-108221400D03*
X61734600Y-107221400D03*
X62534600Y-108221400D03*
D22*
X57234600Y-107721400D03*
X64634600Y-107721400D03*
D10*
X91350000Y-76400000D03*
X75650000Y-60400000D03*
D19*
G36*
X54194928Y-25746337D02*
G01*
X54216166Y-25749487D01*
X54236994Y-25754704D01*
X54257210Y-25761937D01*
X54276619Y-25771117D01*
X54295035Y-25782155D01*
X54312281Y-25794946D01*
X54328189Y-25809365D01*
X54690635Y-26171811D01*
X54705054Y-26187719D01*
X54717845Y-26204965D01*
X54728883Y-26223381D01*
X54738063Y-26242790D01*
X54745296Y-26263006D01*
X54750513Y-26283834D01*
X54753663Y-26305072D01*
X54754717Y-26326517D01*
X54753663Y-26347962D01*
X54750513Y-26369200D01*
X54745296Y-26390028D01*
X54738063Y-26410244D01*
X54728883Y-26429653D01*
X54717845Y-26448069D01*
X54705054Y-26465315D01*
X54690635Y-26481223D01*
X54381223Y-26790635D01*
X54365315Y-26805054D01*
X54348069Y-26817845D01*
X54329653Y-26828883D01*
X54310244Y-26838063D01*
X54290028Y-26845296D01*
X54269200Y-26850513D01*
X54247962Y-26853663D01*
X54226517Y-26854717D01*
X54205072Y-26853663D01*
X54183834Y-26850513D01*
X54163006Y-26845296D01*
X54142790Y-26838063D01*
X54123381Y-26828883D01*
X54104965Y-26817845D01*
X54087719Y-26805054D01*
X54071811Y-26790635D01*
X53709365Y-26428189D01*
X53694946Y-26412281D01*
X53682155Y-26395035D01*
X53671117Y-26376619D01*
X53661937Y-26357210D01*
X53654704Y-26336994D01*
X53649487Y-26316166D01*
X53646337Y-26294928D01*
X53645283Y-26273483D01*
X53646337Y-26252038D01*
X53649487Y-26230800D01*
X53654704Y-26209972D01*
X53661937Y-26189756D01*
X53671117Y-26170347D01*
X53682155Y-26151931D01*
X53694946Y-26134685D01*
X53709365Y-26118777D01*
X54018777Y-25809365D01*
X54034685Y-25794946D01*
X54051931Y-25782155D01*
X54070347Y-25771117D01*
X54089756Y-25761937D01*
X54109972Y-25754704D01*
X54130800Y-25749487D01*
X54152038Y-25746337D01*
X54173483Y-25745283D01*
X54194928Y-25746337D01*
G37*
G36*
X53081234Y-26860031D02*
G01*
X53102472Y-26863181D01*
X53123300Y-26868398D01*
X53143516Y-26875631D01*
X53162925Y-26884811D01*
X53181341Y-26895849D01*
X53198587Y-26908640D01*
X53214495Y-26923059D01*
X53576941Y-27285505D01*
X53591360Y-27301413D01*
X53604151Y-27318659D01*
X53615189Y-27337075D01*
X53624369Y-27356484D01*
X53631602Y-27376700D01*
X53636819Y-27397528D01*
X53639969Y-27418766D01*
X53641023Y-27440211D01*
X53639969Y-27461656D01*
X53636819Y-27482894D01*
X53631602Y-27503722D01*
X53624369Y-27523938D01*
X53615189Y-27543347D01*
X53604151Y-27561763D01*
X53591360Y-27579009D01*
X53576941Y-27594917D01*
X53267529Y-27904329D01*
X53251621Y-27918748D01*
X53234375Y-27931539D01*
X53215959Y-27942577D01*
X53196550Y-27951757D01*
X53176334Y-27958990D01*
X53155506Y-27964207D01*
X53134268Y-27967357D01*
X53112823Y-27968411D01*
X53091378Y-27967357D01*
X53070140Y-27964207D01*
X53049312Y-27958990D01*
X53029096Y-27951757D01*
X53009687Y-27942577D01*
X52991271Y-27931539D01*
X52974025Y-27918748D01*
X52958117Y-27904329D01*
X52595671Y-27541883D01*
X52581252Y-27525975D01*
X52568461Y-27508729D01*
X52557423Y-27490313D01*
X52548243Y-27470904D01*
X52541010Y-27450688D01*
X52535793Y-27429860D01*
X52532643Y-27408622D01*
X52531589Y-27387177D01*
X52532643Y-27365732D01*
X52535793Y-27344494D01*
X52541010Y-27323666D01*
X52548243Y-27303450D01*
X52557423Y-27284041D01*
X52568461Y-27265625D01*
X52581252Y-27248379D01*
X52595671Y-27232471D01*
X52905083Y-26923059D01*
X52920991Y-26908640D01*
X52938237Y-26895849D01*
X52956653Y-26884811D01*
X52976062Y-26875631D01*
X52996278Y-26868398D01*
X53017106Y-26863181D01*
X53038344Y-26860031D01*
X53059789Y-26858977D01*
X53081234Y-26860031D01*
G37*
G36*
X56151775Y-25889490D02*
G01*
X56173013Y-25892640D01*
X56193841Y-25897857D01*
X56214057Y-25905090D01*
X56233466Y-25914270D01*
X56251882Y-25925308D01*
X56269128Y-25938099D01*
X56285036Y-25952518D01*
X56647482Y-26314964D01*
X56661901Y-26330872D01*
X56674692Y-26348118D01*
X56685730Y-26366534D01*
X56694910Y-26385943D01*
X56702143Y-26406159D01*
X56707360Y-26426987D01*
X56710510Y-26448225D01*
X56711564Y-26469670D01*
X56710510Y-26491115D01*
X56707360Y-26512353D01*
X56702143Y-26533181D01*
X56694910Y-26553397D01*
X56685730Y-26572806D01*
X56674692Y-26591222D01*
X56661901Y-26608468D01*
X56647482Y-26624376D01*
X56338070Y-26933788D01*
X56322162Y-26948207D01*
X56304916Y-26960998D01*
X56286500Y-26972036D01*
X56267091Y-26981216D01*
X56246875Y-26988449D01*
X56226047Y-26993666D01*
X56204809Y-26996816D01*
X56183364Y-26997870D01*
X56161919Y-26996816D01*
X56140681Y-26993666D01*
X56119853Y-26988449D01*
X56099637Y-26981216D01*
X56080228Y-26972036D01*
X56061812Y-26960998D01*
X56044566Y-26948207D01*
X56028658Y-26933788D01*
X55666212Y-26571342D01*
X55651793Y-26555434D01*
X55639002Y-26538188D01*
X55627964Y-26519772D01*
X55618784Y-26500363D01*
X55611551Y-26480147D01*
X55606334Y-26459319D01*
X55603184Y-26438081D01*
X55602130Y-26416636D01*
X55603184Y-26395191D01*
X55606334Y-26373953D01*
X55611551Y-26353125D01*
X55618784Y-26332909D01*
X55627964Y-26313500D01*
X55639002Y-26295084D01*
X55651793Y-26277838D01*
X55666212Y-26261930D01*
X55975624Y-25952518D01*
X55991532Y-25938099D01*
X56008778Y-25925308D01*
X56027194Y-25914270D01*
X56046603Y-25905090D01*
X56066819Y-25897857D01*
X56087647Y-25892640D01*
X56108885Y-25889490D01*
X56130330Y-25888436D01*
X56151775Y-25889490D01*
G37*
G36*
X55038081Y-27003184D02*
G01*
X55059319Y-27006334D01*
X55080147Y-27011551D01*
X55100363Y-27018784D01*
X55119772Y-27027964D01*
X55138188Y-27039002D01*
X55155434Y-27051793D01*
X55171342Y-27066212D01*
X55533788Y-27428658D01*
X55548207Y-27444566D01*
X55560998Y-27461812D01*
X55572036Y-27480228D01*
X55581216Y-27499637D01*
X55588449Y-27519853D01*
X55593666Y-27540681D01*
X55596816Y-27561919D01*
X55597870Y-27583364D01*
X55596816Y-27604809D01*
X55593666Y-27626047D01*
X55588449Y-27646875D01*
X55581216Y-27667091D01*
X55572036Y-27686500D01*
X55560998Y-27704916D01*
X55548207Y-27722162D01*
X55533788Y-27738070D01*
X55224376Y-28047482D01*
X55208468Y-28061901D01*
X55191222Y-28074692D01*
X55172806Y-28085730D01*
X55153397Y-28094910D01*
X55133181Y-28102143D01*
X55112353Y-28107360D01*
X55091115Y-28110510D01*
X55069670Y-28111564D01*
X55048225Y-28110510D01*
X55026987Y-28107360D01*
X55006159Y-28102143D01*
X54985943Y-28094910D01*
X54966534Y-28085730D01*
X54948118Y-28074692D01*
X54930872Y-28061901D01*
X54914964Y-28047482D01*
X54552518Y-27685036D01*
X54538099Y-27669128D01*
X54525308Y-27651882D01*
X54514270Y-27633466D01*
X54505090Y-27614057D01*
X54497857Y-27593841D01*
X54492640Y-27573013D01*
X54489490Y-27551775D01*
X54488436Y-27530330D01*
X54489490Y-27508885D01*
X54492640Y-27487647D01*
X54497857Y-27466819D01*
X54505090Y-27446603D01*
X54514270Y-27427194D01*
X54525308Y-27408778D01*
X54538099Y-27391532D01*
X54552518Y-27375624D01*
X54861930Y-27066212D01*
X54877838Y-27051793D01*
X54895084Y-27039002D01*
X54913500Y-27027964D01*
X54932909Y-27018784D01*
X54953125Y-27011551D01*
X54973953Y-27006334D01*
X54995191Y-27003184D01*
X55016636Y-27002130D01*
X55038081Y-27003184D01*
G37*
G36*
X58351775Y-25989490D02*
G01*
X58373013Y-25992640D01*
X58393841Y-25997857D01*
X58414057Y-26005090D01*
X58433466Y-26014270D01*
X58451882Y-26025308D01*
X58469128Y-26038099D01*
X58485036Y-26052518D01*
X58847482Y-26414964D01*
X58861901Y-26430872D01*
X58874692Y-26448118D01*
X58885730Y-26466534D01*
X58894910Y-26485943D01*
X58902143Y-26506159D01*
X58907360Y-26526987D01*
X58910510Y-26548225D01*
X58911564Y-26569670D01*
X58910510Y-26591115D01*
X58907360Y-26612353D01*
X58902143Y-26633181D01*
X58894910Y-26653397D01*
X58885730Y-26672806D01*
X58874692Y-26691222D01*
X58861901Y-26708468D01*
X58847482Y-26724376D01*
X58538070Y-27033788D01*
X58522162Y-27048207D01*
X58504916Y-27060998D01*
X58486500Y-27072036D01*
X58467091Y-27081216D01*
X58446875Y-27088449D01*
X58426047Y-27093666D01*
X58404809Y-27096816D01*
X58383364Y-27097870D01*
X58361919Y-27096816D01*
X58340681Y-27093666D01*
X58319853Y-27088449D01*
X58299637Y-27081216D01*
X58280228Y-27072036D01*
X58261812Y-27060998D01*
X58244566Y-27048207D01*
X58228658Y-27033788D01*
X57866212Y-26671342D01*
X57851793Y-26655434D01*
X57839002Y-26638188D01*
X57827964Y-26619772D01*
X57818784Y-26600363D01*
X57811551Y-26580147D01*
X57806334Y-26559319D01*
X57803184Y-26538081D01*
X57802130Y-26516636D01*
X57803184Y-26495191D01*
X57806334Y-26473953D01*
X57811551Y-26453125D01*
X57818784Y-26432909D01*
X57827964Y-26413500D01*
X57839002Y-26395084D01*
X57851793Y-26377838D01*
X57866212Y-26361930D01*
X58175624Y-26052518D01*
X58191532Y-26038099D01*
X58208778Y-26025308D01*
X58227194Y-26014270D01*
X58246603Y-26005090D01*
X58266819Y-25997857D01*
X58287647Y-25992640D01*
X58308885Y-25989490D01*
X58330330Y-25988436D01*
X58351775Y-25989490D01*
G37*
G36*
X57238081Y-27103184D02*
G01*
X57259319Y-27106334D01*
X57280147Y-27111551D01*
X57300363Y-27118784D01*
X57319772Y-27127964D01*
X57338188Y-27139002D01*
X57355434Y-27151793D01*
X57371342Y-27166212D01*
X57733788Y-27528658D01*
X57748207Y-27544566D01*
X57760998Y-27561812D01*
X57772036Y-27580228D01*
X57781216Y-27599637D01*
X57788449Y-27619853D01*
X57793666Y-27640681D01*
X57796816Y-27661919D01*
X57797870Y-27683364D01*
X57796816Y-27704809D01*
X57793666Y-27726047D01*
X57788449Y-27746875D01*
X57781216Y-27767091D01*
X57772036Y-27786500D01*
X57760998Y-27804916D01*
X57748207Y-27822162D01*
X57733788Y-27838070D01*
X57424376Y-28147482D01*
X57408468Y-28161901D01*
X57391222Y-28174692D01*
X57372806Y-28185730D01*
X57353397Y-28194910D01*
X57333181Y-28202143D01*
X57312353Y-28207360D01*
X57291115Y-28210510D01*
X57269670Y-28211564D01*
X57248225Y-28210510D01*
X57226987Y-28207360D01*
X57206159Y-28202143D01*
X57185943Y-28194910D01*
X57166534Y-28185730D01*
X57148118Y-28174692D01*
X57130872Y-28161901D01*
X57114964Y-28147482D01*
X56752518Y-27785036D01*
X56738099Y-27769128D01*
X56725308Y-27751882D01*
X56714270Y-27733466D01*
X56705090Y-27714057D01*
X56697857Y-27693841D01*
X56692640Y-27673013D01*
X56689490Y-27651775D01*
X56688436Y-27630330D01*
X56689490Y-27608885D01*
X56692640Y-27587647D01*
X56697857Y-27566819D01*
X56705090Y-27546603D01*
X56714270Y-27527194D01*
X56725308Y-27508778D01*
X56738099Y-27491532D01*
X56752518Y-27475624D01*
X57061930Y-27166212D01*
X57077838Y-27151793D01*
X57095084Y-27139002D01*
X57113500Y-27127964D01*
X57132909Y-27118784D01*
X57153125Y-27111551D01*
X57173953Y-27106334D01*
X57195191Y-27103184D01*
X57216636Y-27102130D01*
X57238081Y-27103184D01*
G37*
G36*
X60551775Y-26189490D02*
G01*
X60573013Y-26192640D01*
X60593841Y-26197857D01*
X60614057Y-26205090D01*
X60633466Y-26214270D01*
X60651882Y-26225308D01*
X60669128Y-26238099D01*
X60685036Y-26252518D01*
X61047482Y-26614964D01*
X61061901Y-26630872D01*
X61074692Y-26648118D01*
X61085730Y-26666534D01*
X61094910Y-26685943D01*
X61102143Y-26706159D01*
X61107360Y-26726987D01*
X61110510Y-26748225D01*
X61111564Y-26769670D01*
X61110510Y-26791115D01*
X61107360Y-26812353D01*
X61102143Y-26833181D01*
X61094910Y-26853397D01*
X61085730Y-26872806D01*
X61074692Y-26891222D01*
X61061901Y-26908468D01*
X61047482Y-26924376D01*
X60738070Y-27233788D01*
X60722162Y-27248207D01*
X60704916Y-27260998D01*
X60686500Y-27272036D01*
X60667091Y-27281216D01*
X60646875Y-27288449D01*
X60626047Y-27293666D01*
X60604809Y-27296816D01*
X60583364Y-27297870D01*
X60561919Y-27296816D01*
X60540681Y-27293666D01*
X60519853Y-27288449D01*
X60499637Y-27281216D01*
X60480228Y-27272036D01*
X60461812Y-27260998D01*
X60444566Y-27248207D01*
X60428658Y-27233788D01*
X60066212Y-26871342D01*
X60051793Y-26855434D01*
X60039002Y-26838188D01*
X60027964Y-26819772D01*
X60018784Y-26800363D01*
X60011551Y-26780147D01*
X60006334Y-26759319D01*
X60003184Y-26738081D01*
X60002130Y-26716636D01*
X60003184Y-26695191D01*
X60006334Y-26673953D01*
X60011551Y-26653125D01*
X60018784Y-26632909D01*
X60027964Y-26613500D01*
X60039002Y-26595084D01*
X60051793Y-26577838D01*
X60066212Y-26561930D01*
X60375624Y-26252518D01*
X60391532Y-26238099D01*
X60408778Y-26225308D01*
X60427194Y-26214270D01*
X60446603Y-26205090D01*
X60466819Y-26197857D01*
X60487647Y-26192640D01*
X60508885Y-26189490D01*
X60530330Y-26188436D01*
X60551775Y-26189490D01*
G37*
G36*
X59438081Y-27303184D02*
G01*
X59459319Y-27306334D01*
X59480147Y-27311551D01*
X59500363Y-27318784D01*
X59519772Y-27327964D01*
X59538188Y-27339002D01*
X59555434Y-27351793D01*
X59571342Y-27366212D01*
X59933788Y-27728658D01*
X59948207Y-27744566D01*
X59960998Y-27761812D01*
X59972036Y-27780228D01*
X59981216Y-27799637D01*
X59988449Y-27819853D01*
X59993666Y-27840681D01*
X59996816Y-27861919D01*
X59997870Y-27883364D01*
X59996816Y-27904809D01*
X59993666Y-27926047D01*
X59988449Y-27946875D01*
X59981216Y-27967091D01*
X59972036Y-27986500D01*
X59960998Y-28004916D01*
X59948207Y-28022162D01*
X59933788Y-28038070D01*
X59624376Y-28347482D01*
X59608468Y-28361901D01*
X59591222Y-28374692D01*
X59572806Y-28385730D01*
X59553397Y-28394910D01*
X59533181Y-28402143D01*
X59512353Y-28407360D01*
X59491115Y-28410510D01*
X59469670Y-28411564D01*
X59448225Y-28410510D01*
X59426987Y-28407360D01*
X59406159Y-28402143D01*
X59385943Y-28394910D01*
X59366534Y-28385730D01*
X59348118Y-28374692D01*
X59330872Y-28361901D01*
X59314964Y-28347482D01*
X58952518Y-27985036D01*
X58938099Y-27969128D01*
X58925308Y-27951882D01*
X58914270Y-27933466D01*
X58905090Y-27914057D01*
X58897857Y-27893841D01*
X58892640Y-27873013D01*
X58889490Y-27851775D01*
X58888436Y-27830330D01*
X58889490Y-27808885D01*
X58892640Y-27787647D01*
X58897857Y-27766819D01*
X58905090Y-27746603D01*
X58914270Y-27727194D01*
X58925308Y-27708778D01*
X58938099Y-27691532D01*
X58952518Y-27675624D01*
X59261930Y-27366212D01*
X59277838Y-27351793D01*
X59295084Y-27339002D01*
X59313500Y-27327964D01*
X59332909Y-27318784D01*
X59353125Y-27311551D01*
X59373953Y-27306334D01*
X59395191Y-27303184D01*
X59416636Y-27302130D01*
X59438081Y-27303184D01*
G37*
D10*
X34200000Y-24100000D03*
X30700000Y-24100000D03*
D23*
X30700000Y-26500000D03*
X30700000Y-30500000D03*
X34200000Y-26500000D03*
X34200000Y-30500000D03*
D10*
X37700000Y-24100000D03*
X41200000Y-24100000D03*
D23*
X41200000Y-26500000D03*
X41200000Y-30500000D03*
X37700000Y-26500000D03*
X37700000Y-30500000D03*
D24*
X47879000Y-67183000D03*
D25*
X38100000Y-111887000D03*
X38100000Y-113919000D03*
X33020000Y-112903000D03*
D19*
G36*
X90833273Y-29793827D02*
G01*
X92106173Y-31066727D01*
X90338299Y-32834601D01*
X89065399Y-31561701D01*
X90833273Y-29793827D01*
G37*
G36*
X93661701Y-26965399D02*
G01*
X94934601Y-28238299D01*
X93166727Y-30006173D01*
X91893827Y-28733273D01*
X93661701Y-26965399D01*
G37*
G36*
X89033273Y-26593827D02*
G01*
X90306173Y-27866727D01*
X88538299Y-29634601D01*
X87265399Y-28361701D01*
X89033273Y-26593827D01*
G37*
G36*
X91861701Y-23765399D02*
G01*
X93134601Y-25038299D01*
X91366727Y-26806173D01*
X90093827Y-25533273D01*
X91861701Y-23765399D01*
G37*
D26*
X91084400Y-58648600D03*
X60350000Y-65450000D03*
D27*
G36*
X94312231Y-38561406D02*
G01*
X95199053Y-38953257D01*
X96027416Y-39665991D01*
X96519370Y-40342429D01*
X96889068Y-41143441D01*
X97090185Y-42107310D01*
X97029363Y-42715536D01*
X96799219Y-43766505D01*
X96229245Y-44683621D01*
X95554189Y-45363118D01*
X94751640Y-45795260D01*
X94141995Y-46039118D01*
X93223255Y-46100367D01*
X91991250Y-45915567D01*
X91021466Y-45343642D01*
X90577533Y-44994243D01*
X90085289Y-44378938D01*
X89734195Y-43748715D01*
X89489109Y-42890915D01*
X89489109Y-42301200D01*
X91439099Y-42301200D01*
X91459100Y-42568090D01*
X91518655Y-42829018D01*
X91616434Y-43078156D01*
X91750253Y-43309937D01*
X91917123Y-43519185D01*
X92113316Y-43701226D01*
X92334449Y-43851992D01*
X92575583Y-43968116D01*
X92831331Y-44047003D01*
X93095980Y-44086893D01*
X93363618Y-44086893D01*
X93628267Y-44047003D01*
X93884015Y-43968116D01*
X94125149Y-43851992D01*
X94346282Y-43701226D01*
X94542475Y-43519185D01*
X94709345Y-43309937D01*
X94843164Y-43078156D01*
X94940943Y-42829018D01*
X95000498Y-42568090D01*
X95020499Y-42301200D01*
X95000498Y-42034310D01*
X94940943Y-41773382D01*
X94843164Y-41524244D01*
X94709345Y-41292463D01*
X94542475Y-41083215D01*
X94346282Y-40901174D01*
X94125149Y-40750408D01*
X93884015Y-40634284D01*
X93628267Y-40555397D01*
X93363618Y-40515507D01*
X93095980Y-40515507D01*
X92831331Y-40555397D01*
X92575583Y-40634284D01*
X92334449Y-40750408D01*
X92113316Y-40901174D01*
X91917123Y-41083215D01*
X91750253Y-41292463D01*
X91616434Y-41524244D01*
X91518655Y-41773382D01*
X91459100Y-42034310D01*
X91439099Y-42301200D01*
X89489109Y-42301200D01*
X89489109Y-41908338D01*
X89797578Y-40674461D01*
X90409652Y-39744108D01*
X91084711Y-39204062D01*
X91949127Y-38710109D01*
X92991753Y-38464785D01*
X94312231Y-38561406D01*
G37*
X94312231Y-38561406D02*
X95199053Y-38953257D01*
X96027416Y-39665991D01*
X96519370Y-40342429D01*
X96889068Y-41143441D01*
X97090185Y-42107310D01*
X97029363Y-42715536D01*
X96799219Y-43766505D01*
X96229245Y-44683621D01*
X95554189Y-45363118D01*
X94751640Y-45795260D01*
X94141995Y-46039118D01*
X93223255Y-46100367D01*
X91991250Y-45915567D01*
X91021466Y-45343642D01*
X90577533Y-44994243D01*
X90085289Y-44378938D01*
X89734195Y-43748715D01*
X89489109Y-42890915D01*
X89489109Y-42301200D01*
X91439099Y-42301200D01*
X91459100Y-42568090D01*
X91518655Y-42829018D01*
X91616434Y-43078156D01*
X91750253Y-43309937D01*
X91917123Y-43519185D01*
X92113316Y-43701226D01*
X92334449Y-43851992D01*
X92575583Y-43968116D01*
X92831331Y-44047003D01*
X93095980Y-44086893D01*
X93363618Y-44086893D01*
X93628267Y-44047003D01*
X93884015Y-43968116D01*
X94125149Y-43851992D01*
X94346282Y-43701226D01*
X94542475Y-43519185D01*
X94709345Y-43309937D01*
X94843164Y-43078156D01*
X94940943Y-42829018D01*
X95000498Y-42568090D01*
X95020499Y-42301200D01*
X95000498Y-42034310D01*
X94940943Y-41773382D01*
X94843164Y-41524244D01*
X94709345Y-41292463D01*
X94542475Y-41083215D01*
X94346282Y-40901174D01*
X94125149Y-40750408D01*
X93884015Y-40634284D01*
X93628267Y-40555397D01*
X93363618Y-40515507D01*
X93095980Y-40515507D01*
X92831331Y-40555397D01*
X92575583Y-40634284D01*
X92334449Y-40750408D01*
X92113316Y-40901174D01*
X91917123Y-41083215D01*
X91750253Y-41292463D01*
X91616434Y-41524244D01*
X91518655Y-41773382D01*
X91459100Y-42034310D01*
X91439099Y-42301200D01*
X89489109Y-42301200D01*
X89489109Y-41908338D01*
X89797578Y-40674461D01*
X90409652Y-39744108D01*
X91084711Y-39204062D01*
X91949127Y-38710109D01*
X92991753Y-38464785D01*
X94312231Y-38561406D01*
G36*
X29604502Y-38536498D02*
G01*
X30491324Y-38928349D01*
X31319687Y-39641083D01*
X31811641Y-40317521D01*
X32181339Y-41118533D01*
X32382456Y-42082402D01*
X32321634Y-42690628D01*
X32091490Y-43741597D01*
X31521516Y-44658713D01*
X30846460Y-45338210D01*
X30043911Y-45770352D01*
X29434266Y-46014210D01*
X28515526Y-46075459D01*
X27283521Y-45890659D01*
X26313737Y-45318734D01*
X25869804Y-44969335D01*
X25377560Y-44354030D01*
X25026466Y-43723807D01*
X24781380Y-42866007D01*
X24781380Y-42301200D01*
X26770701Y-42301200D01*
X26790702Y-42568090D01*
X26850257Y-42829018D01*
X26948036Y-43078156D01*
X27081855Y-43309937D01*
X27248725Y-43519185D01*
X27444918Y-43701226D01*
X27666051Y-43851992D01*
X27907185Y-43968116D01*
X28162933Y-44047003D01*
X28427582Y-44086893D01*
X28695220Y-44086893D01*
X28959869Y-44047003D01*
X29215617Y-43968116D01*
X29456751Y-43851992D01*
X29677884Y-43701226D01*
X29874077Y-43519185D01*
X30040947Y-43309937D01*
X30174766Y-43078156D01*
X30272545Y-42829018D01*
X30332100Y-42568090D01*
X30352101Y-42301200D01*
X30332100Y-42034310D01*
X30272545Y-41773382D01*
X30174766Y-41524244D01*
X30040947Y-41292463D01*
X29874077Y-41083215D01*
X29677884Y-40901174D01*
X29456751Y-40750408D01*
X29215617Y-40634284D01*
X28959869Y-40555397D01*
X28695220Y-40515507D01*
X28427582Y-40515507D01*
X28162933Y-40555397D01*
X27907185Y-40634284D01*
X27666051Y-40750408D01*
X27444918Y-40901174D01*
X27248725Y-41083215D01*
X27081855Y-41292463D01*
X26948036Y-41524244D01*
X26850257Y-41773382D01*
X26790702Y-42034310D01*
X26770701Y-42301200D01*
X24781380Y-42301200D01*
X24781380Y-41883430D01*
X25089849Y-40649553D01*
X25701923Y-39719200D01*
X26376982Y-39179154D01*
X27241398Y-38685201D01*
X28284024Y-38439877D01*
X29604502Y-38536498D01*
G37*
X29604502Y-38536498D02*
X30491324Y-38928349D01*
X31319687Y-39641083D01*
X31811641Y-40317521D01*
X32181339Y-41118533D01*
X32382456Y-42082402D01*
X32321634Y-42690628D01*
X32091490Y-43741597D01*
X31521516Y-44658713D01*
X30846460Y-45338210D01*
X30043911Y-45770352D01*
X29434266Y-46014210D01*
X28515526Y-46075459D01*
X27283521Y-45890659D01*
X26313737Y-45318734D01*
X25869804Y-44969335D01*
X25377560Y-44354030D01*
X25026466Y-43723807D01*
X24781380Y-42866007D01*
X24781380Y-42301200D01*
X26770701Y-42301200D01*
X26790702Y-42568090D01*
X26850257Y-42829018D01*
X26948036Y-43078156D01*
X27081855Y-43309937D01*
X27248725Y-43519185D01*
X27444918Y-43701226D01*
X27666051Y-43851992D01*
X27907185Y-43968116D01*
X28162933Y-44047003D01*
X28427582Y-44086893D01*
X28695220Y-44086893D01*
X28959869Y-44047003D01*
X29215617Y-43968116D01*
X29456751Y-43851992D01*
X29677884Y-43701226D01*
X29874077Y-43519185D01*
X30040947Y-43309937D01*
X30174766Y-43078156D01*
X30272545Y-42829018D01*
X30332100Y-42568090D01*
X30352101Y-42301200D01*
X30332100Y-42034310D01*
X30272545Y-41773382D01*
X30174766Y-41524244D01*
X30040947Y-41292463D01*
X29874077Y-41083215D01*
X29677884Y-40901174D01*
X29456751Y-40750408D01*
X29215617Y-40634284D01*
X28959869Y-40555397D01*
X28695220Y-40515507D01*
X28427582Y-40515507D01*
X28162933Y-40555397D01*
X27907185Y-40634284D01*
X27666051Y-40750408D01*
X27444918Y-40901174D01*
X27248725Y-41083215D01*
X27081855Y-41292463D01*
X26948036Y-41524244D01*
X26850257Y-41773382D01*
X26790702Y-42034310D01*
X26770701Y-42301200D01*
X24781380Y-42301200D01*
X24781380Y-41883430D01*
X25089849Y-40649553D01*
X25701923Y-39719200D01*
X26376982Y-39179154D01*
X27241398Y-38685201D01*
X28284024Y-38439877D01*
X29604502Y-38536498D01*
G36*
X35130231Y-100854906D02*
G01*
X36017053Y-101246757D01*
X36845416Y-101959491D01*
X37337370Y-102635929D01*
X37707068Y-103436941D01*
X37908185Y-104400810D01*
X37847363Y-105009036D01*
X37617219Y-106060005D01*
X37047245Y-106977121D01*
X36372189Y-107656618D01*
X35569640Y-108088760D01*
X34959995Y-108332618D01*
X34041255Y-108393867D01*
X32809250Y-108209067D01*
X31839466Y-107637142D01*
X31395533Y-107287743D01*
X30903289Y-106672438D01*
X30552195Y-106042215D01*
X30307109Y-105184415D01*
X30307109Y-104569300D01*
X32269800Y-104569300D01*
X32289801Y-104836190D01*
X32349356Y-105097118D01*
X32447135Y-105346256D01*
X32580954Y-105578037D01*
X32747824Y-105787285D01*
X32944017Y-105969326D01*
X33165150Y-106120092D01*
X33406284Y-106236216D01*
X33662032Y-106315103D01*
X33926681Y-106354993D01*
X34194319Y-106354993D01*
X34458968Y-106315103D01*
X34714716Y-106236216D01*
X34955850Y-106120092D01*
X35176983Y-105969326D01*
X35373176Y-105787285D01*
X35540046Y-105578037D01*
X35673865Y-105346256D01*
X35771644Y-105097118D01*
X35831199Y-104836190D01*
X35851200Y-104569300D01*
X35831199Y-104302410D01*
X35771644Y-104041482D01*
X35673865Y-103792344D01*
X35540046Y-103560563D01*
X35373176Y-103351315D01*
X35176983Y-103169274D01*
X34955850Y-103018508D01*
X34714716Y-102902384D01*
X34458968Y-102823497D01*
X34194319Y-102783607D01*
X33926681Y-102783607D01*
X33662032Y-102823497D01*
X33406284Y-102902384D01*
X33165150Y-103018508D01*
X32944017Y-103169274D01*
X32747824Y-103351315D01*
X32580954Y-103560563D01*
X32447135Y-103792344D01*
X32349356Y-104041482D01*
X32289801Y-104302410D01*
X32269800Y-104569300D01*
X30307109Y-104569300D01*
X30307109Y-104201838D01*
X30615578Y-102967961D01*
X31227652Y-102037608D01*
X31902711Y-101497562D01*
X32767127Y-101003609D01*
X33809753Y-100758285D01*
X35130231Y-100854906D01*
G37*
X35130231Y-100854906D02*
X36017053Y-101246757D01*
X36845416Y-101959491D01*
X37337370Y-102635929D01*
X37707068Y-103436941D01*
X37908185Y-104400810D01*
X37847363Y-105009036D01*
X37617219Y-106060005D01*
X37047245Y-106977121D01*
X36372189Y-107656618D01*
X35569640Y-108088760D01*
X34959995Y-108332618D01*
X34041255Y-108393867D01*
X32809250Y-108209067D01*
X31839466Y-107637142D01*
X31395533Y-107287743D01*
X30903289Y-106672438D01*
X30552195Y-106042215D01*
X30307109Y-105184415D01*
X30307109Y-104569300D01*
X32269800Y-104569300D01*
X32289801Y-104836190D01*
X32349356Y-105097118D01*
X32447135Y-105346256D01*
X32580954Y-105578037D01*
X32747824Y-105787285D01*
X32944017Y-105969326D01*
X33165150Y-106120092D01*
X33406284Y-106236216D01*
X33662032Y-106315103D01*
X33926681Y-106354993D01*
X34194319Y-106354993D01*
X34458968Y-106315103D01*
X34714716Y-106236216D01*
X34955850Y-106120092D01*
X35176983Y-105969326D01*
X35373176Y-105787285D01*
X35540046Y-105578037D01*
X35673865Y-105346256D01*
X35771644Y-105097118D01*
X35831199Y-104836190D01*
X35851200Y-104569300D01*
X35831199Y-104302410D01*
X35771644Y-104041482D01*
X35673865Y-103792344D01*
X35540046Y-103560563D01*
X35373176Y-103351315D01*
X35176983Y-103169274D01*
X34955850Y-103018508D01*
X34714716Y-102902384D01*
X34458968Y-102823497D01*
X34194319Y-102783607D01*
X33926681Y-102783607D01*
X33662032Y-102823497D01*
X33406284Y-102902384D01*
X33165150Y-103018508D01*
X32944017Y-103169274D01*
X32747824Y-103351315D01*
X32580954Y-103560563D01*
X32447135Y-103792344D01*
X32349356Y-104041482D01*
X32289801Y-104302410D01*
X32269800Y-104569300D01*
X30307109Y-104569300D01*
X30307109Y-104201838D01*
X30615578Y-102967961D01*
X31227652Y-102037608D01*
X31902711Y-101497562D01*
X32767127Y-101003609D01*
X33809753Y-100758285D01*
X35130231Y-100854906D01*
G36*
X88724231Y-100918406D02*
G01*
X89611053Y-101310257D01*
X90439416Y-102022991D01*
X90931370Y-102699429D01*
X91301068Y-103500441D01*
X91502185Y-104464310D01*
X91441363Y-105072536D01*
X91211219Y-106123505D01*
X90641245Y-107040621D01*
X89966189Y-107720118D01*
X89163640Y-108152260D01*
X88553995Y-108396118D01*
X87635255Y-108457367D01*
X86403250Y-108272567D01*
X85433466Y-107700642D01*
X84989533Y-107351243D01*
X84497289Y-106735938D01*
X84146195Y-106105715D01*
X83901109Y-105247915D01*
X83901109Y-104569300D01*
X85940000Y-104569300D01*
X85960001Y-104836190D01*
X86019556Y-105097118D01*
X86117335Y-105346256D01*
X86251154Y-105578037D01*
X86418024Y-105787285D01*
X86614217Y-105969326D01*
X86835350Y-106120092D01*
X87076484Y-106236216D01*
X87332232Y-106315103D01*
X87596881Y-106354993D01*
X87864519Y-106354993D01*
X88129168Y-106315103D01*
X88384916Y-106236216D01*
X88626050Y-106120092D01*
X88847183Y-105969326D01*
X89043376Y-105787285D01*
X89210246Y-105578037D01*
X89344065Y-105346256D01*
X89441844Y-105097118D01*
X89501399Y-104836190D01*
X89521400Y-104569300D01*
X89501399Y-104302410D01*
X89441844Y-104041482D01*
X89344065Y-103792344D01*
X89210246Y-103560563D01*
X89043376Y-103351315D01*
X88847183Y-103169274D01*
X88626050Y-103018508D01*
X88384916Y-102902384D01*
X88129168Y-102823497D01*
X87864519Y-102783607D01*
X87596881Y-102783607D01*
X87332232Y-102823497D01*
X87076484Y-102902384D01*
X86835350Y-103018508D01*
X86614217Y-103169274D01*
X86418024Y-103351315D01*
X86251154Y-103560563D01*
X86117335Y-103792344D01*
X86019556Y-104041482D01*
X85960001Y-104302410D01*
X85940000Y-104569300D01*
X83901109Y-104569300D01*
X83901109Y-104265338D01*
X84209578Y-103031461D01*
X84821652Y-102101108D01*
X85496711Y-101561062D01*
X86361127Y-101067109D01*
X87403753Y-100821785D01*
X88724231Y-100918406D01*
G37*
X88724231Y-100918406D02*
X89611053Y-101310257D01*
X90439416Y-102022991D01*
X90931370Y-102699429D01*
X91301068Y-103500441D01*
X91502185Y-104464310D01*
X91441363Y-105072536D01*
X91211219Y-106123505D01*
X90641245Y-107040621D01*
X89966189Y-107720118D01*
X89163640Y-108152260D01*
X88553995Y-108396118D01*
X87635255Y-108457367D01*
X86403250Y-108272567D01*
X85433466Y-107700642D01*
X84989533Y-107351243D01*
X84497289Y-106735938D01*
X84146195Y-106105715D01*
X83901109Y-105247915D01*
X83901109Y-104569300D01*
X85940000Y-104569300D01*
X85960001Y-104836190D01*
X86019556Y-105097118D01*
X86117335Y-105346256D01*
X86251154Y-105578037D01*
X86418024Y-105787285D01*
X86614217Y-105969326D01*
X86835350Y-106120092D01*
X87076484Y-106236216D01*
X87332232Y-106315103D01*
X87596881Y-106354993D01*
X87864519Y-106354993D01*
X88129168Y-106315103D01*
X88384916Y-106236216D01*
X88626050Y-106120092D01*
X88847183Y-105969326D01*
X89043376Y-105787285D01*
X89210246Y-105578037D01*
X89344065Y-105346256D01*
X89441844Y-105097118D01*
X89501399Y-104836190D01*
X89521400Y-104569300D01*
X89501399Y-104302410D01*
X89441844Y-104041482D01*
X89344065Y-103792344D01*
X89210246Y-103560563D01*
X89043376Y-103351315D01*
X88847183Y-103169274D01*
X88626050Y-103018508D01*
X88384916Y-102902384D01*
X88129168Y-102823497D01*
X87864519Y-102783607D01*
X87596881Y-102783607D01*
X87332232Y-102823497D01*
X87076484Y-102902384D01*
X86835350Y-103018508D01*
X86614217Y-103169274D01*
X86418024Y-103351315D01*
X86251154Y-103560563D01*
X86117335Y-103792344D01*
X86019556Y-104041482D01*
X85960001Y-104302410D01*
X85940000Y-104569300D01*
X83901109Y-104569300D01*
X83901109Y-104265338D01*
X84209578Y-103031461D01*
X84821652Y-102101108D01*
X85496711Y-101561062D01*
X86361127Y-101067109D01*
X87403753Y-100821785D01*
X88724231Y-100918406D01*
M02*
