%TF.GenerationSoftware,KiCad,Pcbnew,5.1.5+dfsg1-2build2*%
%TF.CreationDate,2021-12-30T23:42:08+01:00*%
%TF.ProjectId,micro_rusEFI,6d696372-6f5f-4727-9573-4546492e6b69,R0.5.5rc2*%
%TF.SameCoordinates,Original*%
%TF.FileFunction,Paste,Bot*%
%TF.FilePolarity,Positive*%
%FSLAX46Y46*%
G04 Gerber Fmt 4.6, Leading zero omitted, Abs format (unit mm)*
G04 Created by KiCad (PCBNEW 5.1.5+dfsg1-2build2) date 2021-12-30 23:42:08*
%MOMM*%
%LPD*%
G04 APERTURE LIST*
%ADD10C,0.100000*%
%ADD11R,1.800000X2.500000*%
G04 APERTURE END LIST*
D10*
G36*
X60394924Y-26246427D02*
G01*
X60416159Y-26249577D01*
X60436983Y-26254793D01*
X60457195Y-26262025D01*
X60476601Y-26271204D01*
X60495014Y-26282240D01*
X60512257Y-26295028D01*
X60528163Y-26309444D01*
X60890556Y-26671837D01*
X60904972Y-26687743D01*
X60917760Y-26704986D01*
X60928796Y-26723399D01*
X60937975Y-26742805D01*
X60945207Y-26763017D01*
X60950423Y-26783841D01*
X60953573Y-26805076D01*
X60954626Y-26826517D01*
X60953573Y-26847958D01*
X60950423Y-26869193D01*
X60945207Y-26890017D01*
X60937975Y-26910229D01*
X60928796Y-26929635D01*
X60917760Y-26948048D01*
X60904972Y-26965291D01*
X60890556Y-26981197D01*
X60581197Y-27290556D01*
X60565291Y-27304972D01*
X60548048Y-27317760D01*
X60529635Y-27328796D01*
X60510229Y-27337975D01*
X60490017Y-27345207D01*
X60469193Y-27350423D01*
X60447958Y-27353573D01*
X60426517Y-27354626D01*
X60405076Y-27353573D01*
X60383841Y-27350423D01*
X60363017Y-27345207D01*
X60342805Y-27337975D01*
X60323399Y-27328796D01*
X60304986Y-27317760D01*
X60287743Y-27304972D01*
X60271837Y-27290556D01*
X59909444Y-26928163D01*
X59895028Y-26912257D01*
X59882240Y-26895014D01*
X59871204Y-26876601D01*
X59862025Y-26857195D01*
X59854793Y-26836983D01*
X59849577Y-26816159D01*
X59846427Y-26794924D01*
X59845374Y-26773483D01*
X59846427Y-26752042D01*
X59849577Y-26730807D01*
X59854793Y-26709983D01*
X59862025Y-26689771D01*
X59871204Y-26670365D01*
X59882240Y-26651952D01*
X59895028Y-26634709D01*
X59909444Y-26618803D01*
X60218803Y-26309444D01*
X60234709Y-26295028D01*
X60251952Y-26282240D01*
X60270365Y-26271204D01*
X60289771Y-26262025D01*
X60309983Y-26254793D01*
X60330807Y-26249577D01*
X60352042Y-26246427D01*
X60373483Y-26245374D01*
X60394924Y-26246427D01*
G37*
G36*
X59281230Y-27360121D02*
G01*
X59302465Y-27363271D01*
X59323289Y-27368487D01*
X59343501Y-27375719D01*
X59362907Y-27384898D01*
X59381320Y-27395934D01*
X59398563Y-27408722D01*
X59414469Y-27423138D01*
X59776862Y-27785531D01*
X59791278Y-27801437D01*
X59804066Y-27818680D01*
X59815102Y-27837093D01*
X59824281Y-27856499D01*
X59831513Y-27876711D01*
X59836729Y-27897535D01*
X59839879Y-27918770D01*
X59840932Y-27940211D01*
X59839879Y-27961652D01*
X59836729Y-27982887D01*
X59831513Y-28003711D01*
X59824281Y-28023923D01*
X59815102Y-28043329D01*
X59804066Y-28061742D01*
X59791278Y-28078985D01*
X59776862Y-28094891D01*
X59467503Y-28404250D01*
X59451597Y-28418666D01*
X59434354Y-28431454D01*
X59415941Y-28442490D01*
X59396535Y-28451669D01*
X59376323Y-28458901D01*
X59355499Y-28464117D01*
X59334264Y-28467267D01*
X59312823Y-28468320D01*
X59291382Y-28467267D01*
X59270147Y-28464117D01*
X59249323Y-28458901D01*
X59229111Y-28451669D01*
X59209705Y-28442490D01*
X59191292Y-28431454D01*
X59174049Y-28418666D01*
X59158143Y-28404250D01*
X58795750Y-28041857D01*
X58781334Y-28025951D01*
X58768546Y-28008708D01*
X58757510Y-27990295D01*
X58748331Y-27970889D01*
X58741099Y-27950677D01*
X58735883Y-27929853D01*
X58732733Y-27908618D01*
X58731680Y-27887177D01*
X58732733Y-27865736D01*
X58735883Y-27844501D01*
X58741099Y-27823677D01*
X58748331Y-27803465D01*
X58757510Y-27784059D01*
X58768546Y-27765646D01*
X58781334Y-27748403D01*
X58795750Y-27732497D01*
X59105109Y-27423138D01*
X59121015Y-27408722D01*
X59138258Y-27395934D01*
X59156671Y-27384898D01*
X59176077Y-27375719D01*
X59196289Y-27368487D01*
X59217113Y-27363271D01*
X59238348Y-27360121D01*
X59259789Y-27359068D01*
X59281230Y-27360121D01*
G37*
G36*
X58394924Y-25946427D02*
G01*
X58416159Y-25949577D01*
X58436983Y-25954793D01*
X58457195Y-25962025D01*
X58476601Y-25971204D01*
X58495014Y-25982240D01*
X58512257Y-25995028D01*
X58528163Y-26009444D01*
X58890556Y-26371837D01*
X58904972Y-26387743D01*
X58917760Y-26404986D01*
X58928796Y-26423399D01*
X58937975Y-26442805D01*
X58945207Y-26463017D01*
X58950423Y-26483841D01*
X58953573Y-26505076D01*
X58954626Y-26526517D01*
X58953573Y-26547958D01*
X58950423Y-26569193D01*
X58945207Y-26590017D01*
X58937975Y-26610229D01*
X58928796Y-26629635D01*
X58917760Y-26648048D01*
X58904972Y-26665291D01*
X58890556Y-26681197D01*
X58581197Y-26990556D01*
X58565291Y-27004972D01*
X58548048Y-27017760D01*
X58529635Y-27028796D01*
X58510229Y-27037975D01*
X58490017Y-27045207D01*
X58469193Y-27050423D01*
X58447958Y-27053573D01*
X58426517Y-27054626D01*
X58405076Y-27053573D01*
X58383841Y-27050423D01*
X58363017Y-27045207D01*
X58342805Y-27037975D01*
X58323399Y-27028796D01*
X58304986Y-27017760D01*
X58287743Y-27004972D01*
X58271837Y-26990556D01*
X57909444Y-26628163D01*
X57895028Y-26612257D01*
X57882240Y-26595014D01*
X57871204Y-26576601D01*
X57862025Y-26557195D01*
X57854793Y-26536983D01*
X57849577Y-26516159D01*
X57846427Y-26494924D01*
X57845374Y-26473483D01*
X57846427Y-26452042D01*
X57849577Y-26430807D01*
X57854793Y-26409983D01*
X57862025Y-26389771D01*
X57871204Y-26370365D01*
X57882240Y-26351952D01*
X57895028Y-26334709D01*
X57909444Y-26318803D01*
X58218803Y-26009444D01*
X58234709Y-25995028D01*
X58251952Y-25982240D01*
X58270365Y-25971204D01*
X58289771Y-25962025D01*
X58309983Y-25954793D01*
X58330807Y-25949577D01*
X58352042Y-25946427D01*
X58373483Y-25945374D01*
X58394924Y-25946427D01*
G37*
G36*
X57281230Y-27060121D02*
G01*
X57302465Y-27063271D01*
X57323289Y-27068487D01*
X57343501Y-27075719D01*
X57362907Y-27084898D01*
X57381320Y-27095934D01*
X57398563Y-27108722D01*
X57414469Y-27123138D01*
X57776862Y-27485531D01*
X57791278Y-27501437D01*
X57804066Y-27518680D01*
X57815102Y-27537093D01*
X57824281Y-27556499D01*
X57831513Y-27576711D01*
X57836729Y-27597535D01*
X57839879Y-27618770D01*
X57840932Y-27640211D01*
X57839879Y-27661652D01*
X57836729Y-27682887D01*
X57831513Y-27703711D01*
X57824281Y-27723923D01*
X57815102Y-27743329D01*
X57804066Y-27761742D01*
X57791278Y-27778985D01*
X57776862Y-27794891D01*
X57467503Y-28104250D01*
X57451597Y-28118666D01*
X57434354Y-28131454D01*
X57415941Y-28142490D01*
X57396535Y-28151669D01*
X57376323Y-28158901D01*
X57355499Y-28164117D01*
X57334264Y-28167267D01*
X57312823Y-28168320D01*
X57291382Y-28167267D01*
X57270147Y-28164117D01*
X57249323Y-28158901D01*
X57229111Y-28151669D01*
X57209705Y-28142490D01*
X57191292Y-28131454D01*
X57174049Y-28118666D01*
X57158143Y-28104250D01*
X56795750Y-27741857D01*
X56781334Y-27725951D01*
X56768546Y-27708708D01*
X56757510Y-27690295D01*
X56748331Y-27670889D01*
X56741099Y-27650677D01*
X56735883Y-27629853D01*
X56732733Y-27608618D01*
X56731680Y-27587177D01*
X56732733Y-27565736D01*
X56735883Y-27544501D01*
X56741099Y-27523677D01*
X56748331Y-27503465D01*
X56757510Y-27484059D01*
X56768546Y-27465646D01*
X56781334Y-27448403D01*
X56795750Y-27432497D01*
X57105109Y-27123138D01*
X57121015Y-27108722D01*
X57138258Y-27095934D01*
X57156671Y-27084898D01*
X57176077Y-27075719D01*
X57196289Y-27068487D01*
X57217113Y-27063271D01*
X57238348Y-27060121D01*
X57259789Y-27059068D01*
X57281230Y-27060121D01*
G37*
G36*
X54194924Y-25746427D02*
G01*
X54216159Y-25749577D01*
X54236983Y-25754793D01*
X54257195Y-25762025D01*
X54276601Y-25771204D01*
X54295014Y-25782240D01*
X54312257Y-25795028D01*
X54328163Y-25809444D01*
X54690556Y-26171837D01*
X54704972Y-26187743D01*
X54717760Y-26204986D01*
X54728796Y-26223399D01*
X54737975Y-26242805D01*
X54745207Y-26263017D01*
X54750423Y-26283841D01*
X54753573Y-26305076D01*
X54754626Y-26326517D01*
X54753573Y-26347958D01*
X54750423Y-26369193D01*
X54745207Y-26390017D01*
X54737975Y-26410229D01*
X54728796Y-26429635D01*
X54717760Y-26448048D01*
X54704972Y-26465291D01*
X54690556Y-26481197D01*
X54381197Y-26790556D01*
X54365291Y-26804972D01*
X54348048Y-26817760D01*
X54329635Y-26828796D01*
X54310229Y-26837975D01*
X54290017Y-26845207D01*
X54269193Y-26850423D01*
X54247958Y-26853573D01*
X54226517Y-26854626D01*
X54205076Y-26853573D01*
X54183841Y-26850423D01*
X54163017Y-26845207D01*
X54142805Y-26837975D01*
X54123399Y-26828796D01*
X54104986Y-26817760D01*
X54087743Y-26804972D01*
X54071837Y-26790556D01*
X53709444Y-26428163D01*
X53695028Y-26412257D01*
X53682240Y-26395014D01*
X53671204Y-26376601D01*
X53662025Y-26357195D01*
X53654793Y-26336983D01*
X53649577Y-26316159D01*
X53646427Y-26294924D01*
X53645374Y-26273483D01*
X53646427Y-26252042D01*
X53649577Y-26230807D01*
X53654793Y-26209983D01*
X53662025Y-26189771D01*
X53671204Y-26170365D01*
X53682240Y-26151952D01*
X53695028Y-26134709D01*
X53709444Y-26118803D01*
X54018803Y-25809444D01*
X54034709Y-25795028D01*
X54051952Y-25782240D01*
X54070365Y-25771204D01*
X54089771Y-25762025D01*
X54109983Y-25754793D01*
X54130807Y-25749577D01*
X54152042Y-25746427D01*
X54173483Y-25745374D01*
X54194924Y-25746427D01*
G37*
G36*
X53081230Y-26860121D02*
G01*
X53102465Y-26863271D01*
X53123289Y-26868487D01*
X53143501Y-26875719D01*
X53162907Y-26884898D01*
X53181320Y-26895934D01*
X53198563Y-26908722D01*
X53214469Y-26923138D01*
X53576862Y-27285531D01*
X53591278Y-27301437D01*
X53604066Y-27318680D01*
X53615102Y-27337093D01*
X53624281Y-27356499D01*
X53631513Y-27376711D01*
X53636729Y-27397535D01*
X53639879Y-27418770D01*
X53640932Y-27440211D01*
X53639879Y-27461652D01*
X53636729Y-27482887D01*
X53631513Y-27503711D01*
X53624281Y-27523923D01*
X53615102Y-27543329D01*
X53604066Y-27561742D01*
X53591278Y-27578985D01*
X53576862Y-27594891D01*
X53267503Y-27904250D01*
X53251597Y-27918666D01*
X53234354Y-27931454D01*
X53215941Y-27942490D01*
X53196535Y-27951669D01*
X53176323Y-27958901D01*
X53155499Y-27964117D01*
X53134264Y-27967267D01*
X53112823Y-27968320D01*
X53091382Y-27967267D01*
X53070147Y-27964117D01*
X53049323Y-27958901D01*
X53029111Y-27951669D01*
X53009705Y-27942490D01*
X52991292Y-27931454D01*
X52974049Y-27918666D01*
X52958143Y-27904250D01*
X52595750Y-27541857D01*
X52581334Y-27525951D01*
X52568546Y-27508708D01*
X52557510Y-27490295D01*
X52548331Y-27470889D01*
X52541099Y-27450677D01*
X52535883Y-27429853D01*
X52532733Y-27408618D01*
X52531680Y-27387177D01*
X52532733Y-27365736D01*
X52535883Y-27344501D01*
X52541099Y-27323677D01*
X52548331Y-27303465D01*
X52557510Y-27284059D01*
X52568546Y-27265646D01*
X52581334Y-27248403D01*
X52595750Y-27232497D01*
X52905109Y-26923138D01*
X52921015Y-26908722D01*
X52938258Y-26895934D01*
X52956671Y-26884898D01*
X52976077Y-26875719D01*
X52996289Y-26868487D01*
X53017113Y-26863271D01*
X53038348Y-26860121D01*
X53059789Y-26859068D01*
X53081230Y-26860121D01*
G37*
G36*
X56294924Y-25846427D02*
G01*
X56316159Y-25849577D01*
X56336983Y-25854793D01*
X56357195Y-25862025D01*
X56376601Y-25871204D01*
X56395014Y-25882240D01*
X56412257Y-25895028D01*
X56428163Y-25909444D01*
X56790556Y-26271837D01*
X56804972Y-26287743D01*
X56817760Y-26304986D01*
X56828796Y-26323399D01*
X56837975Y-26342805D01*
X56845207Y-26363017D01*
X56850423Y-26383841D01*
X56853573Y-26405076D01*
X56854626Y-26426517D01*
X56853573Y-26447958D01*
X56850423Y-26469193D01*
X56845207Y-26490017D01*
X56837975Y-26510229D01*
X56828796Y-26529635D01*
X56817760Y-26548048D01*
X56804972Y-26565291D01*
X56790556Y-26581197D01*
X56481197Y-26890556D01*
X56465291Y-26904972D01*
X56448048Y-26917760D01*
X56429635Y-26928796D01*
X56410229Y-26937975D01*
X56390017Y-26945207D01*
X56369193Y-26950423D01*
X56347958Y-26953573D01*
X56326517Y-26954626D01*
X56305076Y-26953573D01*
X56283841Y-26950423D01*
X56263017Y-26945207D01*
X56242805Y-26937975D01*
X56223399Y-26928796D01*
X56204986Y-26917760D01*
X56187743Y-26904972D01*
X56171837Y-26890556D01*
X55809444Y-26528163D01*
X55795028Y-26512257D01*
X55782240Y-26495014D01*
X55771204Y-26476601D01*
X55762025Y-26457195D01*
X55754793Y-26436983D01*
X55749577Y-26416159D01*
X55746427Y-26394924D01*
X55745374Y-26373483D01*
X55746427Y-26352042D01*
X55749577Y-26330807D01*
X55754793Y-26309983D01*
X55762025Y-26289771D01*
X55771204Y-26270365D01*
X55782240Y-26251952D01*
X55795028Y-26234709D01*
X55809444Y-26218803D01*
X56118803Y-25909444D01*
X56134709Y-25895028D01*
X56151952Y-25882240D01*
X56170365Y-25871204D01*
X56189771Y-25862025D01*
X56209983Y-25854793D01*
X56230807Y-25849577D01*
X56252042Y-25846427D01*
X56273483Y-25845374D01*
X56294924Y-25846427D01*
G37*
G36*
X55181230Y-26960121D02*
G01*
X55202465Y-26963271D01*
X55223289Y-26968487D01*
X55243501Y-26975719D01*
X55262907Y-26984898D01*
X55281320Y-26995934D01*
X55298563Y-27008722D01*
X55314469Y-27023138D01*
X55676862Y-27385531D01*
X55691278Y-27401437D01*
X55704066Y-27418680D01*
X55715102Y-27437093D01*
X55724281Y-27456499D01*
X55731513Y-27476711D01*
X55736729Y-27497535D01*
X55739879Y-27518770D01*
X55740932Y-27540211D01*
X55739879Y-27561652D01*
X55736729Y-27582887D01*
X55731513Y-27603711D01*
X55724281Y-27623923D01*
X55715102Y-27643329D01*
X55704066Y-27661742D01*
X55691278Y-27678985D01*
X55676862Y-27694891D01*
X55367503Y-28004250D01*
X55351597Y-28018666D01*
X55334354Y-28031454D01*
X55315941Y-28042490D01*
X55296535Y-28051669D01*
X55276323Y-28058901D01*
X55255499Y-28064117D01*
X55234264Y-28067267D01*
X55212823Y-28068320D01*
X55191382Y-28067267D01*
X55170147Y-28064117D01*
X55149323Y-28058901D01*
X55129111Y-28051669D01*
X55109705Y-28042490D01*
X55091292Y-28031454D01*
X55074049Y-28018666D01*
X55058143Y-28004250D01*
X54695750Y-27641857D01*
X54681334Y-27625951D01*
X54668546Y-27608708D01*
X54657510Y-27590295D01*
X54648331Y-27570889D01*
X54641099Y-27550677D01*
X54635883Y-27529853D01*
X54632733Y-27508618D01*
X54631680Y-27487177D01*
X54632733Y-27465736D01*
X54635883Y-27444501D01*
X54641099Y-27423677D01*
X54648331Y-27403465D01*
X54657510Y-27384059D01*
X54668546Y-27365646D01*
X54681334Y-27348403D01*
X54695750Y-27332497D01*
X55005109Y-27023138D01*
X55021015Y-27008722D01*
X55038258Y-26995934D01*
X55056671Y-26984898D01*
X55076077Y-26975719D01*
X55096289Y-26968487D01*
X55117113Y-26963271D01*
X55138348Y-26960121D01*
X55159789Y-26959068D01*
X55181230Y-26960121D01*
G37*
D11*
X30700000Y-26500000D03*
X30700000Y-30500000D03*
X34200000Y-26500000D03*
X34200000Y-30500000D03*
X41200000Y-26500000D03*
X41200000Y-30500000D03*
X37700000Y-26500000D03*
X37700000Y-30500000D03*
D10*
G36*
X90833273Y-29793934D02*
G01*
X92106066Y-31066727D01*
X90338299Y-32834494D01*
X89065506Y-31561701D01*
X90833273Y-29793934D01*
G37*
G36*
X93661701Y-26965506D02*
G01*
X94934494Y-28238299D01*
X93166727Y-30006066D01*
X91893934Y-28733273D01*
X93661701Y-26965506D01*
G37*
G36*
X89033273Y-26593934D02*
G01*
X90306066Y-27866727D01*
X88538299Y-29634494D01*
X87265506Y-28361701D01*
X89033273Y-26593934D01*
G37*
G36*
X91861701Y-23765506D02*
G01*
X93134494Y-25038299D01*
X91366727Y-26806066D01*
X90093934Y-25533273D01*
X91861701Y-23765506D01*
G37*
M02*
