%TF.GenerationSoftware,KiCad,Pcbnew,5.1.5+dfsg1-2build2*%
%TF.CreationDate,2022-02-05T13:04:16+01:00*%
%TF.ProjectId,micro_rusEFI,6d696372-6f5f-4727-9573-4546492e6b69,R0.5.5rc2*%
%TF.SameCoordinates,Original*%
%TF.FileFunction,Paste,Bot*%
%TF.FilePolarity,Positive*%
%FSLAX46Y46*%
G04 Gerber Fmt 4.6, Leading zero omitted, Abs format (unit mm)*
G04 Created by KiCad (PCBNEW 5.1.5+dfsg1-2build2) date 2022-02-05 13:04:16*
%MOMM*%
%LPD*%
G04 APERTURE LIST*
%ADD10C,0.100000*%
%ADD11R,1.800000X2.500000*%
G04 APERTURE END LIST*
D10*
G36*
X54194924Y-25746427D02*
G01*
X54216159Y-25749577D01*
X54236983Y-25754793D01*
X54257195Y-25762025D01*
X54276601Y-25771204D01*
X54295014Y-25782240D01*
X54312257Y-25795028D01*
X54328163Y-25809444D01*
X54690556Y-26171837D01*
X54704972Y-26187743D01*
X54717760Y-26204986D01*
X54728796Y-26223399D01*
X54737975Y-26242805D01*
X54745207Y-26263017D01*
X54750423Y-26283841D01*
X54753573Y-26305076D01*
X54754626Y-26326517D01*
X54753573Y-26347958D01*
X54750423Y-26369193D01*
X54745207Y-26390017D01*
X54737975Y-26410229D01*
X54728796Y-26429635D01*
X54717760Y-26448048D01*
X54704972Y-26465291D01*
X54690556Y-26481197D01*
X54381197Y-26790556D01*
X54365291Y-26804972D01*
X54348048Y-26817760D01*
X54329635Y-26828796D01*
X54310229Y-26837975D01*
X54290017Y-26845207D01*
X54269193Y-26850423D01*
X54247958Y-26853573D01*
X54226517Y-26854626D01*
X54205076Y-26853573D01*
X54183841Y-26850423D01*
X54163017Y-26845207D01*
X54142805Y-26837975D01*
X54123399Y-26828796D01*
X54104986Y-26817760D01*
X54087743Y-26804972D01*
X54071837Y-26790556D01*
X53709444Y-26428163D01*
X53695028Y-26412257D01*
X53682240Y-26395014D01*
X53671204Y-26376601D01*
X53662025Y-26357195D01*
X53654793Y-26336983D01*
X53649577Y-26316159D01*
X53646427Y-26294924D01*
X53645374Y-26273483D01*
X53646427Y-26252042D01*
X53649577Y-26230807D01*
X53654793Y-26209983D01*
X53662025Y-26189771D01*
X53671204Y-26170365D01*
X53682240Y-26151952D01*
X53695028Y-26134709D01*
X53709444Y-26118803D01*
X54018803Y-25809444D01*
X54034709Y-25795028D01*
X54051952Y-25782240D01*
X54070365Y-25771204D01*
X54089771Y-25762025D01*
X54109983Y-25754793D01*
X54130807Y-25749577D01*
X54152042Y-25746427D01*
X54173483Y-25745374D01*
X54194924Y-25746427D01*
G37*
G36*
X53081230Y-26860121D02*
G01*
X53102465Y-26863271D01*
X53123289Y-26868487D01*
X53143501Y-26875719D01*
X53162907Y-26884898D01*
X53181320Y-26895934D01*
X53198563Y-26908722D01*
X53214469Y-26923138D01*
X53576862Y-27285531D01*
X53591278Y-27301437D01*
X53604066Y-27318680D01*
X53615102Y-27337093D01*
X53624281Y-27356499D01*
X53631513Y-27376711D01*
X53636729Y-27397535D01*
X53639879Y-27418770D01*
X53640932Y-27440211D01*
X53639879Y-27461652D01*
X53636729Y-27482887D01*
X53631513Y-27503711D01*
X53624281Y-27523923D01*
X53615102Y-27543329D01*
X53604066Y-27561742D01*
X53591278Y-27578985D01*
X53576862Y-27594891D01*
X53267503Y-27904250D01*
X53251597Y-27918666D01*
X53234354Y-27931454D01*
X53215941Y-27942490D01*
X53196535Y-27951669D01*
X53176323Y-27958901D01*
X53155499Y-27964117D01*
X53134264Y-27967267D01*
X53112823Y-27968320D01*
X53091382Y-27967267D01*
X53070147Y-27964117D01*
X53049323Y-27958901D01*
X53029111Y-27951669D01*
X53009705Y-27942490D01*
X52991292Y-27931454D01*
X52974049Y-27918666D01*
X52958143Y-27904250D01*
X52595750Y-27541857D01*
X52581334Y-27525951D01*
X52568546Y-27508708D01*
X52557510Y-27490295D01*
X52548331Y-27470889D01*
X52541099Y-27450677D01*
X52535883Y-27429853D01*
X52532733Y-27408618D01*
X52531680Y-27387177D01*
X52532733Y-27365736D01*
X52535883Y-27344501D01*
X52541099Y-27323677D01*
X52548331Y-27303465D01*
X52557510Y-27284059D01*
X52568546Y-27265646D01*
X52581334Y-27248403D01*
X52595750Y-27232497D01*
X52905109Y-26923138D01*
X52921015Y-26908722D01*
X52938258Y-26895934D01*
X52956671Y-26884898D01*
X52976077Y-26875719D01*
X52996289Y-26868487D01*
X53017113Y-26863271D01*
X53038348Y-26860121D01*
X53059789Y-26859068D01*
X53081230Y-26860121D01*
G37*
G36*
X56151771Y-25889580D02*
G01*
X56173006Y-25892730D01*
X56193830Y-25897946D01*
X56214042Y-25905178D01*
X56233448Y-25914357D01*
X56251861Y-25925393D01*
X56269104Y-25938181D01*
X56285010Y-25952597D01*
X56647403Y-26314990D01*
X56661819Y-26330896D01*
X56674607Y-26348139D01*
X56685643Y-26366552D01*
X56694822Y-26385958D01*
X56702054Y-26406170D01*
X56707270Y-26426994D01*
X56710420Y-26448229D01*
X56711473Y-26469670D01*
X56710420Y-26491111D01*
X56707270Y-26512346D01*
X56702054Y-26533170D01*
X56694822Y-26553382D01*
X56685643Y-26572788D01*
X56674607Y-26591201D01*
X56661819Y-26608444D01*
X56647403Y-26624350D01*
X56338044Y-26933709D01*
X56322138Y-26948125D01*
X56304895Y-26960913D01*
X56286482Y-26971949D01*
X56267076Y-26981128D01*
X56246864Y-26988360D01*
X56226040Y-26993576D01*
X56204805Y-26996726D01*
X56183364Y-26997779D01*
X56161923Y-26996726D01*
X56140688Y-26993576D01*
X56119864Y-26988360D01*
X56099652Y-26981128D01*
X56080246Y-26971949D01*
X56061833Y-26960913D01*
X56044590Y-26948125D01*
X56028684Y-26933709D01*
X55666291Y-26571316D01*
X55651875Y-26555410D01*
X55639087Y-26538167D01*
X55628051Y-26519754D01*
X55618872Y-26500348D01*
X55611640Y-26480136D01*
X55606424Y-26459312D01*
X55603274Y-26438077D01*
X55602221Y-26416636D01*
X55603274Y-26395195D01*
X55606424Y-26373960D01*
X55611640Y-26353136D01*
X55618872Y-26332924D01*
X55628051Y-26313518D01*
X55639087Y-26295105D01*
X55651875Y-26277862D01*
X55666291Y-26261956D01*
X55975650Y-25952597D01*
X55991556Y-25938181D01*
X56008799Y-25925393D01*
X56027212Y-25914357D01*
X56046618Y-25905178D01*
X56066830Y-25897946D01*
X56087654Y-25892730D01*
X56108889Y-25889580D01*
X56130330Y-25888527D01*
X56151771Y-25889580D01*
G37*
G36*
X55038077Y-27003274D02*
G01*
X55059312Y-27006424D01*
X55080136Y-27011640D01*
X55100348Y-27018872D01*
X55119754Y-27028051D01*
X55138167Y-27039087D01*
X55155410Y-27051875D01*
X55171316Y-27066291D01*
X55533709Y-27428684D01*
X55548125Y-27444590D01*
X55560913Y-27461833D01*
X55571949Y-27480246D01*
X55581128Y-27499652D01*
X55588360Y-27519864D01*
X55593576Y-27540688D01*
X55596726Y-27561923D01*
X55597779Y-27583364D01*
X55596726Y-27604805D01*
X55593576Y-27626040D01*
X55588360Y-27646864D01*
X55581128Y-27667076D01*
X55571949Y-27686482D01*
X55560913Y-27704895D01*
X55548125Y-27722138D01*
X55533709Y-27738044D01*
X55224350Y-28047403D01*
X55208444Y-28061819D01*
X55191201Y-28074607D01*
X55172788Y-28085643D01*
X55153382Y-28094822D01*
X55133170Y-28102054D01*
X55112346Y-28107270D01*
X55091111Y-28110420D01*
X55069670Y-28111473D01*
X55048229Y-28110420D01*
X55026994Y-28107270D01*
X55006170Y-28102054D01*
X54985958Y-28094822D01*
X54966552Y-28085643D01*
X54948139Y-28074607D01*
X54930896Y-28061819D01*
X54914990Y-28047403D01*
X54552597Y-27685010D01*
X54538181Y-27669104D01*
X54525393Y-27651861D01*
X54514357Y-27633448D01*
X54505178Y-27614042D01*
X54497946Y-27593830D01*
X54492730Y-27573006D01*
X54489580Y-27551771D01*
X54488527Y-27530330D01*
X54489580Y-27508889D01*
X54492730Y-27487654D01*
X54497946Y-27466830D01*
X54505178Y-27446618D01*
X54514357Y-27427212D01*
X54525393Y-27408799D01*
X54538181Y-27391556D01*
X54552597Y-27375650D01*
X54861956Y-27066291D01*
X54877862Y-27051875D01*
X54895105Y-27039087D01*
X54913518Y-27028051D01*
X54932924Y-27018872D01*
X54953136Y-27011640D01*
X54973960Y-27006424D01*
X54995195Y-27003274D01*
X55016636Y-27002221D01*
X55038077Y-27003274D01*
G37*
G36*
X58351771Y-25989580D02*
G01*
X58373006Y-25992730D01*
X58393830Y-25997946D01*
X58414042Y-26005178D01*
X58433448Y-26014357D01*
X58451861Y-26025393D01*
X58469104Y-26038181D01*
X58485010Y-26052597D01*
X58847403Y-26414990D01*
X58861819Y-26430896D01*
X58874607Y-26448139D01*
X58885643Y-26466552D01*
X58894822Y-26485958D01*
X58902054Y-26506170D01*
X58907270Y-26526994D01*
X58910420Y-26548229D01*
X58911473Y-26569670D01*
X58910420Y-26591111D01*
X58907270Y-26612346D01*
X58902054Y-26633170D01*
X58894822Y-26653382D01*
X58885643Y-26672788D01*
X58874607Y-26691201D01*
X58861819Y-26708444D01*
X58847403Y-26724350D01*
X58538044Y-27033709D01*
X58522138Y-27048125D01*
X58504895Y-27060913D01*
X58486482Y-27071949D01*
X58467076Y-27081128D01*
X58446864Y-27088360D01*
X58426040Y-27093576D01*
X58404805Y-27096726D01*
X58383364Y-27097779D01*
X58361923Y-27096726D01*
X58340688Y-27093576D01*
X58319864Y-27088360D01*
X58299652Y-27081128D01*
X58280246Y-27071949D01*
X58261833Y-27060913D01*
X58244590Y-27048125D01*
X58228684Y-27033709D01*
X57866291Y-26671316D01*
X57851875Y-26655410D01*
X57839087Y-26638167D01*
X57828051Y-26619754D01*
X57818872Y-26600348D01*
X57811640Y-26580136D01*
X57806424Y-26559312D01*
X57803274Y-26538077D01*
X57802221Y-26516636D01*
X57803274Y-26495195D01*
X57806424Y-26473960D01*
X57811640Y-26453136D01*
X57818872Y-26432924D01*
X57828051Y-26413518D01*
X57839087Y-26395105D01*
X57851875Y-26377862D01*
X57866291Y-26361956D01*
X58175650Y-26052597D01*
X58191556Y-26038181D01*
X58208799Y-26025393D01*
X58227212Y-26014357D01*
X58246618Y-26005178D01*
X58266830Y-25997946D01*
X58287654Y-25992730D01*
X58308889Y-25989580D01*
X58330330Y-25988527D01*
X58351771Y-25989580D01*
G37*
G36*
X57238077Y-27103274D02*
G01*
X57259312Y-27106424D01*
X57280136Y-27111640D01*
X57300348Y-27118872D01*
X57319754Y-27128051D01*
X57338167Y-27139087D01*
X57355410Y-27151875D01*
X57371316Y-27166291D01*
X57733709Y-27528684D01*
X57748125Y-27544590D01*
X57760913Y-27561833D01*
X57771949Y-27580246D01*
X57781128Y-27599652D01*
X57788360Y-27619864D01*
X57793576Y-27640688D01*
X57796726Y-27661923D01*
X57797779Y-27683364D01*
X57796726Y-27704805D01*
X57793576Y-27726040D01*
X57788360Y-27746864D01*
X57781128Y-27767076D01*
X57771949Y-27786482D01*
X57760913Y-27804895D01*
X57748125Y-27822138D01*
X57733709Y-27838044D01*
X57424350Y-28147403D01*
X57408444Y-28161819D01*
X57391201Y-28174607D01*
X57372788Y-28185643D01*
X57353382Y-28194822D01*
X57333170Y-28202054D01*
X57312346Y-28207270D01*
X57291111Y-28210420D01*
X57269670Y-28211473D01*
X57248229Y-28210420D01*
X57226994Y-28207270D01*
X57206170Y-28202054D01*
X57185958Y-28194822D01*
X57166552Y-28185643D01*
X57148139Y-28174607D01*
X57130896Y-28161819D01*
X57114990Y-28147403D01*
X56752597Y-27785010D01*
X56738181Y-27769104D01*
X56725393Y-27751861D01*
X56714357Y-27733448D01*
X56705178Y-27714042D01*
X56697946Y-27693830D01*
X56692730Y-27673006D01*
X56689580Y-27651771D01*
X56688527Y-27630330D01*
X56689580Y-27608889D01*
X56692730Y-27587654D01*
X56697946Y-27566830D01*
X56705178Y-27546618D01*
X56714357Y-27527212D01*
X56725393Y-27508799D01*
X56738181Y-27491556D01*
X56752597Y-27475650D01*
X57061956Y-27166291D01*
X57077862Y-27151875D01*
X57095105Y-27139087D01*
X57113518Y-27128051D01*
X57132924Y-27118872D01*
X57153136Y-27111640D01*
X57173960Y-27106424D01*
X57195195Y-27103274D01*
X57216636Y-27102221D01*
X57238077Y-27103274D01*
G37*
G36*
X60551771Y-26189580D02*
G01*
X60573006Y-26192730D01*
X60593830Y-26197946D01*
X60614042Y-26205178D01*
X60633448Y-26214357D01*
X60651861Y-26225393D01*
X60669104Y-26238181D01*
X60685010Y-26252597D01*
X61047403Y-26614990D01*
X61061819Y-26630896D01*
X61074607Y-26648139D01*
X61085643Y-26666552D01*
X61094822Y-26685958D01*
X61102054Y-26706170D01*
X61107270Y-26726994D01*
X61110420Y-26748229D01*
X61111473Y-26769670D01*
X61110420Y-26791111D01*
X61107270Y-26812346D01*
X61102054Y-26833170D01*
X61094822Y-26853382D01*
X61085643Y-26872788D01*
X61074607Y-26891201D01*
X61061819Y-26908444D01*
X61047403Y-26924350D01*
X60738044Y-27233709D01*
X60722138Y-27248125D01*
X60704895Y-27260913D01*
X60686482Y-27271949D01*
X60667076Y-27281128D01*
X60646864Y-27288360D01*
X60626040Y-27293576D01*
X60604805Y-27296726D01*
X60583364Y-27297779D01*
X60561923Y-27296726D01*
X60540688Y-27293576D01*
X60519864Y-27288360D01*
X60499652Y-27281128D01*
X60480246Y-27271949D01*
X60461833Y-27260913D01*
X60444590Y-27248125D01*
X60428684Y-27233709D01*
X60066291Y-26871316D01*
X60051875Y-26855410D01*
X60039087Y-26838167D01*
X60028051Y-26819754D01*
X60018872Y-26800348D01*
X60011640Y-26780136D01*
X60006424Y-26759312D01*
X60003274Y-26738077D01*
X60002221Y-26716636D01*
X60003274Y-26695195D01*
X60006424Y-26673960D01*
X60011640Y-26653136D01*
X60018872Y-26632924D01*
X60028051Y-26613518D01*
X60039087Y-26595105D01*
X60051875Y-26577862D01*
X60066291Y-26561956D01*
X60375650Y-26252597D01*
X60391556Y-26238181D01*
X60408799Y-26225393D01*
X60427212Y-26214357D01*
X60446618Y-26205178D01*
X60466830Y-26197946D01*
X60487654Y-26192730D01*
X60508889Y-26189580D01*
X60530330Y-26188527D01*
X60551771Y-26189580D01*
G37*
G36*
X59438077Y-27303274D02*
G01*
X59459312Y-27306424D01*
X59480136Y-27311640D01*
X59500348Y-27318872D01*
X59519754Y-27328051D01*
X59538167Y-27339087D01*
X59555410Y-27351875D01*
X59571316Y-27366291D01*
X59933709Y-27728684D01*
X59948125Y-27744590D01*
X59960913Y-27761833D01*
X59971949Y-27780246D01*
X59981128Y-27799652D01*
X59988360Y-27819864D01*
X59993576Y-27840688D01*
X59996726Y-27861923D01*
X59997779Y-27883364D01*
X59996726Y-27904805D01*
X59993576Y-27926040D01*
X59988360Y-27946864D01*
X59981128Y-27967076D01*
X59971949Y-27986482D01*
X59960913Y-28004895D01*
X59948125Y-28022138D01*
X59933709Y-28038044D01*
X59624350Y-28347403D01*
X59608444Y-28361819D01*
X59591201Y-28374607D01*
X59572788Y-28385643D01*
X59553382Y-28394822D01*
X59533170Y-28402054D01*
X59512346Y-28407270D01*
X59491111Y-28410420D01*
X59469670Y-28411473D01*
X59448229Y-28410420D01*
X59426994Y-28407270D01*
X59406170Y-28402054D01*
X59385958Y-28394822D01*
X59366552Y-28385643D01*
X59348139Y-28374607D01*
X59330896Y-28361819D01*
X59314990Y-28347403D01*
X58952597Y-27985010D01*
X58938181Y-27969104D01*
X58925393Y-27951861D01*
X58914357Y-27933448D01*
X58905178Y-27914042D01*
X58897946Y-27893830D01*
X58892730Y-27873006D01*
X58889580Y-27851771D01*
X58888527Y-27830330D01*
X58889580Y-27808889D01*
X58892730Y-27787654D01*
X58897946Y-27766830D01*
X58905178Y-27746618D01*
X58914357Y-27727212D01*
X58925393Y-27708799D01*
X58938181Y-27691556D01*
X58952597Y-27675650D01*
X59261956Y-27366291D01*
X59277862Y-27351875D01*
X59295105Y-27339087D01*
X59313518Y-27328051D01*
X59332924Y-27318872D01*
X59353136Y-27311640D01*
X59373960Y-27306424D01*
X59395195Y-27303274D01*
X59416636Y-27302221D01*
X59438077Y-27303274D01*
G37*
D11*
X30700000Y-26500000D03*
X30700000Y-30500000D03*
X34200000Y-26500000D03*
X34200000Y-30500000D03*
X41200000Y-26500000D03*
X41200000Y-30500000D03*
X37700000Y-26500000D03*
X37700000Y-30500000D03*
D10*
G36*
X90833273Y-29793934D02*
G01*
X92106066Y-31066727D01*
X90338299Y-32834494D01*
X89065506Y-31561701D01*
X90833273Y-29793934D01*
G37*
G36*
X93661701Y-26965506D02*
G01*
X94934494Y-28238299D01*
X93166727Y-30006066D01*
X91893934Y-28733273D01*
X93661701Y-26965506D01*
G37*
G36*
X89033273Y-26593934D02*
G01*
X90306066Y-27866727D01*
X88538299Y-29634494D01*
X87265506Y-28361701D01*
X89033273Y-26593934D01*
G37*
G36*
X91861701Y-23765506D02*
G01*
X93134494Y-25038299D01*
X91366727Y-26806066D01*
X90093934Y-25533273D01*
X91861701Y-23765506D01*
G37*
M02*
