%TF.GenerationSoftware,KiCad,Pcbnew,6.0.7-f9a2dced07~116~ubuntu20.04.1*%
%TF.CreationDate,2022-09-11T23:31:03+02:00*%
%TF.ProjectId,micro_rusEFI,6d696372-6f5f-4727-9573-4546492e6b69,R0.6.1rc*%
%TF.SameCoordinates,Original*%
%TF.FileFunction,Soldermask,Bot*%
%TF.FilePolarity,Negative*%
%FSLAX46Y46*%
G04 Gerber Fmt 4.6, Leading zero omitted, Abs format (unit mm)*
G04 Created by KiCad (PCBNEW 6.0.7-f9a2dced07~116~ubuntu20.04.1) date 2022-09-11 23:31:03*
%MOMM*%
%LPD*%
G01*
G04 APERTURE LIST*
G04 Aperture macros list*
%AMRoundRect*
0 Rectangle with rounded corners*
0 $1 Rounding radius*
0 $2 $3 $4 $5 $6 $7 $8 $9 X,Y pos of 4 corners*
0 Add a 4 corners polygon primitive as box body*
4,1,4,$2,$3,$4,$5,$6,$7,$8,$9,$2,$3,0*
0 Add four circle primitives for the rounded corners*
1,1,$1+$1,$2,$3*
1,1,$1+$1,$4,$5*
1,1,$1+$1,$6,$7*
1,1,$1+$1,$8,$9*
0 Add four rect primitives between the rounded corners*
20,1,$1+$1,$2,$3,$4,$5,0*
20,1,$1+$1,$4,$5,$6,$7,0*
20,1,$1+$1,$6,$7,$8,$9,0*
20,1,$1+$1,$8,$9,$2,$3,0*%
%AMRotRect*
0 Rectangle, with rotation*
0 The origin of the aperture is its center*
0 $1 length*
0 $2 width*
0 $3 Rotation angle, in degrees counterclockwise*
0 Add horizontal line*
21,1,$1,$2,0,0,$3*%
G04 Aperture macros list end*
%ADD10C,0.889000*%
%ADD11O,1.500000X2.380000*%
%ADD12O,2.616200X1.016000*%
%ADD13C,0.990600*%
%ADD14C,4.000000*%
%ADD15C,2.200000*%
%ADD16C,1.600000*%
%ADD17C,1.400000*%
%ADD18R,1.600000X1.600000*%
%ADD19R,1.524000X1.524000*%
%ADD20R,1.300000X0.800000*%
%ADD21O,1.300000X0.800000*%
%ADD22RoundRect,0.249900X-0.600100X-0.725100X0.600100X-0.725100X0.600100X0.725100X-0.600100X0.725100X0*%
%ADD23O,1.700000X1.950000*%
%ADD24RotRect,2.500000X1.800000X225.000000*%
%ADD25C,1.000000*%
%ADD26C,2.000000*%
%ADD27R,1.800000X2.500000*%
%ADD28RoundRect,0.218750X0.026517X-0.335876X0.335876X-0.026517X-0.026517X0.335876X-0.335876X0.026517X0*%
G04 APERTURE END LIST*
D10*
X62534600Y-108221400D03*
X61734600Y-107221400D03*
X60934600Y-108221400D03*
X60134600Y-107221400D03*
X59334600Y-108221400D03*
D11*
X64634600Y-107721400D03*
D12*
X58534600Y-109471400D03*
X60934600Y-105971400D03*
X62834600Y-109471400D03*
D11*
X57234600Y-107721400D03*
D13*
X38100000Y-113919000D03*
X38100000Y-111887000D03*
X33020000Y-112903000D03*
D14*
X86224200Y-34317600D03*
X35424200Y-34317600D03*
D15*
X82124200Y-38167600D03*
X39524200Y-38167600D03*
D16*
X45974200Y-29567600D03*
X45974200Y-32067600D03*
X45974200Y-34567600D03*
X45974200Y-37067600D03*
X49674200Y-29567600D03*
X49674200Y-32067600D03*
X49674200Y-34567600D03*
X49674200Y-37067600D03*
X53174200Y-29567600D03*
X53174200Y-32067600D03*
X53174200Y-34567600D03*
X53174200Y-37067600D03*
X55674200Y-29567600D03*
X55674200Y-32067600D03*
X55674200Y-34567600D03*
X55674200Y-37067600D03*
X58174200Y-29567600D03*
X58174200Y-32067600D03*
X58174200Y-34567600D03*
X58174200Y-37067600D03*
X60674200Y-29567600D03*
X60674200Y-32067600D03*
X60674200Y-34567600D03*
X60674200Y-37067600D03*
X63174200Y-29567600D03*
X63174200Y-32067600D03*
X63174200Y-34567600D03*
X63174200Y-37067600D03*
X65674200Y-29567600D03*
X65674200Y-32067600D03*
X65674200Y-34567600D03*
X65674200Y-37067600D03*
X68174200Y-29567600D03*
X68174200Y-32067600D03*
X68174200Y-34567600D03*
X68174200Y-37067600D03*
X70674200Y-29567600D03*
X70674200Y-32067600D03*
X70674200Y-34567600D03*
X70674200Y-37067600D03*
X73174200Y-29567600D03*
X73174200Y-32067600D03*
X73174200Y-34567600D03*
X73174200Y-37067600D03*
X75674200Y-29567600D03*
X75674200Y-32067600D03*
X75674200Y-34567600D03*
X75674200Y-37067600D03*
D17*
X40093000Y-90550400D03*
X44792000Y-101091400D03*
X44792000Y-99313400D03*
X44792000Y-97535400D03*
D18*
X60811000Y-101240000D03*
X58311000Y-101240000D03*
D17*
X73900400Y-69999260D03*
X48475000Y-83819400D03*
X44030000Y-87629400D03*
D19*
X63311000Y-101240000D03*
X65811000Y-101240000D03*
D20*
X69557000Y-87934200D03*
D21*
X69557000Y-86689600D03*
D17*
X84851000Y-82651000D03*
X90851000Y-82651000D03*
D18*
X74103600Y-49145809D03*
D16*
X74103600Y-51685809D03*
X74103600Y-54225809D03*
X74103600Y-56765809D03*
D18*
X96525450Y-63499400D03*
D16*
X96525450Y-66039400D03*
X96525450Y-68579400D03*
X96525450Y-71119400D03*
X96525450Y-73659400D03*
D18*
X51238520Y-110258260D03*
D16*
X51238520Y-107718260D03*
X48698520Y-110258260D03*
X48698520Y-107718260D03*
X46158520Y-110258260D03*
X46158520Y-107718260D03*
X43618520Y-110258260D03*
X43618520Y-107718260D03*
X41078520Y-110258260D03*
X41078520Y-107718260D03*
D18*
X30733100Y-77215400D03*
D16*
X30733100Y-74675400D03*
X33273100Y-77215400D03*
X33273100Y-74675400D03*
X35813100Y-77215400D03*
X35813100Y-74675400D03*
X38353100Y-77215400D03*
X38353100Y-74675400D03*
X40893100Y-77215400D03*
X40893100Y-74675400D03*
D18*
X77558000Y-44246200D03*
X54596400Y-111759400D03*
X66661400Y-111759400D03*
X22211400Y-97789400D03*
D16*
X22211400Y-100329400D03*
X22211400Y-102869400D03*
D18*
X99681400Y-97789400D03*
D16*
X99681400Y-100329400D03*
X99681400Y-102869400D03*
D18*
X99681400Y-90169400D03*
D16*
X99681400Y-92709400D03*
X99681400Y-95249400D03*
D18*
X97014400Y-101091400D03*
D16*
X94474400Y-101091400D03*
X91934400Y-101091400D03*
D18*
X97014400Y-91820400D03*
D16*
X94474400Y-91820400D03*
X91934400Y-91820400D03*
D17*
X30700000Y-24100000D03*
X34200000Y-24100000D03*
X41200000Y-24100000D03*
X37700000Y-24100000D03*
D22*
X59625000Y-97425000D03*
D23*
X62125000Y-97425000D03*
X64625000Y-97425000D03*
X67125000Y-97425000D03*
X69625000Y-97425000D03*
D24*
X93414214Y-28485786D03*
X90585786Y-31314214D03*
X91614214Y-25285786D03*
X88785786Y-28114214D03*
D25*
X91084400Y-58648600D03*
X60350000Y-65450000D03*
D26*
X47879000Y-67183000D03*
D27*
X41200000Y-30500000D03*
X41200000Y-26500000D03*
X34200000Y-30500000D03*
X34200000Y-26500000D03*
X30700000Y-30500000D03*
X30700000Y-26500000D03*
X37700000Y-30500000D03*
X37700000Y-26500000D03*
D17*
X91350000Y-76400000D03*
X75650000Y-60400000D03*
D28*
X59443153Y-27856847D03*
X60556847Y-26743153D03*
X55043153Y-27556847D03*
X56156847Y-26443153D03*
X57243153Y-27656847D03*
X58356847Y-26543153D03*
X53086306Y-27413694D03*
X54200000Y-26300000D03*
G36*
X88733670Y-100791757D02*
G01*
X88775400Y-100802170D01*
X89662519Y-101194152D01*
X89693774Y-101213891D01*
X90522334Y-101926795D01*
X90542055Y-101948197D01*
X91034140Y-102624813D01*
X91046642Y-102646122D01*
X91416428Y-103447325D01*
X91425369Y-103474390D01*
X91626540Y-104438520D01*
X91628571Y-104476794D01*
X91567727Y-105085232D01*
X91565435Y-105099647D01*
X91335242Y-106150841D01*
X91319176Y-106190397D01*
X90749052Y-107107755D01*
X90731422Y-107130049D01*
X90056182Y-107809732D01*
X90026531Y-107831868D01*
X89223798Y-108264108D01*
X89210857Y-108270157D01*
X88601016Y-108514094D01*
X88562602Y-108522827D01*
X87643596Y-108584094D01*
X87616524Y-108582979D01*
X86384219Y-108398133D01*
X86338904Y-108382059D01*
X85368890Y-107809998D01*
X85354969Y-107800478D01*
X84910900Y-107450972D01*
X84890438Y-107430672D01*
X84398067Y-106815209D01*
X84386384Y-106797817D01*
X84035191Y-106167417D01*
X84024111Y-106140712D01*
X83778957Y-105282672D01*
X83774109Y-105248057D01*
X83774109Y-104573997D01*
X85940352Y-104573997D01*
X85959648Y-104831485D01*
X85961051Y-104840791D01*
X86018506Y-105092518D01*
X86021280Y-105101512D01*
X86115611Y-105341864D01*
X86119695Y-105350343D01*
X86248798Y-105573957D01*
X86254089Y-105581718D01*
X86415089Y-105783605D01*
X86421477Y-105790489D01*
X86610755Y-105966114D01*
X86618119Y-105971987D01*
X86831454Y-106117436D01*
X86839599Y-106122138D01*
X87072235Y-106234170D01*
X87080991Y-106237606D01*
X87327725Y-106313713D01*
X87336891Y-106315805D01*
X87592221Y-106354291D01*
X87601597Y-106354993D01*
X87859803Y-106354993D01*
X87869179Y-106354291D01*
X88124509Y-106315805D01*
X88133675Y-106313713D01*
X88380409Y-106237606D01*
X88389165Y-106234170D01*
X88621801Y-106122138D01*
X88629946Y-106117436D01*
X88843281Y-105971987D01*
X88850645Y-105966114D01*
X89039923Y-105790489D01*
X89046311Y-105783605D01*
X89207311Y-105581718D01*
X89212602Y-105573957D01*
X89341705Y-105350343D01*
X89345789Y-105341864D01*
X89440120Y-105101512D01*
X89442894Y-105092518D01*
X89500349Y-104840791D01*
X89501752Y-104831485D01*
X89521048Y-104573997D01*
X89521048Y-104564603D01*
X89501752Y-104307115D01*
X89500349Y-104297809D01*
X89442894Y-104046082D01*
X89440120Y-104037088D01*
X89345789Y-103796736D01*
X89341705Y-103788257D01*
X89212602Y-103564643D01*
X89207311Y-103556882D01*
X89046311Y-103354995D01*
X89039923Y-103348111D01*
X88850645Y-103172486D01*
X88843281Y-103166613D01*
X88629946Y-103021164D01*
X88621801Y-103016462D01*
X88389165Y-102904430D01*
X88380409Y-102900994D01*
X88133675Y-102824887D01*
X88124509Y-102822795D01*
X87869179Y-102784309D01*
X87859803Y-102783607D01*
X87601597Y-102783607D01*
X87592221Y-102784309D01*
X87336891Y-102822795D01*
X87327725Y-102824887D01*
X87080991Y-102900994D01*
X87072235Y-102904430D01*
X86839599Y-103016462D01*
X86831454Y-103021164D01*
X86618119Y-103166613D01*
X86610755Y-103172486D01*
X86421477Y-103348111D01*
X86415089Y-103354995D01*
X86254089Y-103556882D01*
X86248798Y-103564643D01*
X86119695Y-103788257D01*
X86115611Y-103796736D01*
X86021280Y-104037088D01*
X86018506Y-104046082D01*
X85961051Y-104297809D01*
X85959648Y-104307115D01*
X85940352Y-104564603D01*
X85940352Y-104573997D01*
X83774109Y-104573997D01*
X83774109Y-104265215D01*
X83777871Y-104234656D01*
X84086411Y-103000496D01*
X84103386Y-102961803D01*
X84715642Y-102031174D01*
X84742193Y-102002037D01*
X85417435Y-101461843D01*
X85433633Y-101450833D01*
X86298243Y-100956770D01*
X86331898Y-100943518D01*
X87374815Y-100698126D01*
X87412869Y-100695113D01*
X88733670Y-100791757D01*
G37*
G36*
X35139670Y-100728257D02*
G01*
X35181400Y-100738670D01*
X36068519Y-101130652D01*
X36099774Y-101150391D01*
X36928334Y-101863295D01*
X36948055Y-101884697D01*
X37440140Y-102561313D01*
X37452642Y-102582622D01*
X37822428Y-103383825D01*
X37831369Y-103410890D01*
X38032540Y-104375020D01*
X38034571Y-104413294D01*
X37973727Y-105021732D01*
X37971435Y-105036147D01*
X37741242Y-106087341D01*
X37725176Y-106126897D01*
X37155052Y-107044255D01*
X37137422Y-107066549D01*
X36462182Y-107746232D01*
X36432531Y-107768368D01*
X35629798Y-108200608D01*
X35616857Y-108206657D01*
X35007016Y-108450594D01*
X34968602Y-108459327D01*
X34049596Y-108520594D01*
X34022524Y-108519479D01*
X32790219Y-108334633D01*
X32744904Y-108318559D01*
X31774890Y-107746498D01*
X31760969Y-107736978D01*
X31316900Y-107387472D01*
X31296438Y-107367172D01*
X30804067Y-106751709D01*
X30792384Y-106734317D01*
X30441191Y-106103917D01*
X30430111Y-106077212D01*
X30184957Y-105219172D01*
X30180109Y-105184557D01*
X30180109Y-104573997D01*
X32270152Y-104573997D01*
X32289448Y-104831485D01*
X32290851Y-104840791D01*
X32348306Y-105092518D01*
X32351080Y-105101512D01*
X32445411Y-105341864D01*
X32449495Y-105350343D01*
X32578598Y-105573957D01*
X32583889Y-105581718D01*
X32744889Y-105783605D01*
X32751277Y-105790489D01*
X32940555Y-105966114D01*
X32947919Y-105971987D01*
X33161254Y-106117436D01*
X33169399Y-106122138D01*
X33402035Y-106234170D01*
X33410791Y-106237606D01*
X33657525Y-106313713D01*
X33666691Y-106315805D01*
X33922021Y-106354291D01*
X33931397Y-106354993D01*
X34189603Y-106354993D01*
X34198979Y-106354291D01*
X34454309Y-106315805D01*
X34463475Y-106313713D01*
X34710209Y-106237606D01*
X34718965Y-106234170D01*
X34951601Y-106122138D01*
X34959746Y-106117436D01*
X35173081Y-105971987D01*
X35180445Y-105966114D01*
X35369723Y-105790489D01*
X35376111Y-105783605D01*
X35537111Y-105581718D01*
X35542402Y-105573957D01*
X35671505Y-105350343D01*
X35675589Y-105341864D01*
X35769920Y-105101512D01*
X35772694Y-105092518D01*
X35830149Y-104840791D01*
X35831552Y-104831485D01*
X35850848Y-104573997D01*
X35850848Y-104564603D01*
X35831552Y-104307115D01*
X35830149Y-104297809D01*
X35772694Y-104046082D01*
X35769920Y-104037088D01*
X35675589Y-103796736D01*
X35671505Y-103788257D01*
X35542402Y-103564643D01*
X35537111Y-103556882D01*
X35376111Y-103354995D01*
X35369723Y-103348111D01*
X35180445Y-103172486D01*
X35173081Y-103166613D01*
X34959746Y-103021164D01*
X34951601Y-103016462D01*
X34718965Y-102904430D01*
X34710209Y-102900994D01*
X34463475Y-102824887D01*
X34454309Y-102822795D01*
X34198979Y-102784309D01*
X34189603Y-102783607D01*
X33931397Y-102783607D01*
X33922021Y-102784309D01*
X33666691Y-102822795D01*
X33657525Y-102824887D01*
X33410791Y-102900994D01*
X33402035Y-102904430D01*
X33169399Y-103016462D01*
X33161254Y-103021164D01*
X32947919Y-103166613D01*
X32940555Y-103172486D01*
X32751277Y-103348111D01*
X32744889Y-103354995D01*
X32583889Y-103556882D01*
X32578598Y-103564643D01*
X32449495Y-103788257D01*
X32445411Y-103796736D01*
X32351080Y-104037088D01*
X32348306Y-104046082D01*
X32290851Y-104297809D01*
X32289448Y-104307115D01*
X32270152Y-104564603D01*
X32270152Y-104573997D01*
X30180109Y-104573997D01*
X30180109Y-104201715D01*
X30183871Y-104171156D01*
X30492411Y-102936996D01*
X30509386Y-102898303D01*
X31121642Y-101967674D01*
X31148193Y-101938537D01*
X31823435Y-101398343D01*
X31839633Y-101387333D01*
X32704243Y-100893270D01*
X32737898Y-100880018D01*
X33780815Y-100634626D01*
X33818869Y-100631613D01*
X35139670Y-100728257D01*
G37*
G36*
X29613941Y-38409849D02*
G01*
X29655671Y-38420262D01*
X30119373Y-38625153D01*
X30163335Y-38657504D01*
X30208227Y-38708888D01*
X30216371Y-38716675D01*
X30385540Y-38851583D01*
X30394943Y-38857789D01*
X30585478Y-38960320D01*
X30595836Y-38964747D01*
X30784687Y-39026109D01*
X30827931Y-39050430D01*
X31402605Y-39544887D01*
X31422326Y-39566289D01*
X31914411Y-40242905D01*
X31926913Y-40264214D01*
X32296699Y-41065417D01*
X32305640Y-41092482D01*
X32506811Y-42056612D01*
X32508842Y-42094886D01*
X32447998Y-42703324D01*
X32445706Y-42717739D01*
X32215513Y-43768933D01*
X32199447Y-43808489D01*
X31629323Y-44725847D01*
X31611693Y-44748141D01*
X30936453Y-45427824D01*
X30906802Y-45449960D01*
X30104069Y-45882200D01*
X30091128Y-45888249D01*
X29481287Y-46132186D01*
X29442873Y-46140919D01*
X28523867Y-46202186D01*
X28496795Y-46201071D01*
X27264490Y-46016225D01*
X27219175Y-46000151D01*
X26249161Y-45428090D01*
X26235240Y-45418570D01*
X25791171Y-45069064D01*
X25770709Y-45048764D01*
X25278338Y-44433301D01*
X25266655Y-44415909D01*
X24915462Y-43785509D01*
X24904382Y-43758804D01*
X24659228Y-42900764D01*
X24654380Y-42866149D01*
X24654380Y-42305897D01*
X26771053Y-42305897D01*
X26790349Y-42563385D01*
X26791752Y-42572691D01*
X26849207Y-42824418D01*
X26851981Y-42833412D01*
X26946312Y-43073764D01*
X26950396Y-43082243D01*
X27079499Y-43305857D01*
X27084790Y-43313618D01*
X27245790Y-43515505D01*
X27252178Y-43522389D01*
X27441456Y-43698014D01*
X27448820Y-43703887D01*
X27662155Y-43849336D01*
X27670300Y-43854038D01*
X27902936Y-43966070D01*
X27911692Y-43969506D01*
X28158426Y-44045613D01*
X28167592Y-44047705D01*
X28422922Y-44086191D01*
X28432298Y-44086893D01*
X28690504Y-44086893D01*
X28699880Y-44086191D01*
X28955210Y-44047705D01*
X28964376Y-44045613D01*
X29211110Y-43969506D01*
X29219866Y-43966070D01*
X29452502Y-43854038D01*
X29460647Y-43849336D01*
X29673982Y-43703887D01*
X29681346Y-43698014D01*
X29870624Y-43522389D01*
X29877012Y-43515505D01*
X30038012Y-43313618D01*
X30043303Y-43305857D01*
X30172406Y-43082243D01*
X30176490Y-43073764D01*
X30270821Y-42833412D01*
X30273595Y-42824418D01*
X30331050Y-42572691D01*
X30332453Y-42563385D01*
X30351749Y-42305897D01*
X30351749Y-42296503D01*
X30332453Y-42039015D01*
X30331050Y-42029709D01*
X30273595Y-41777982D01*
X30270821Y-41768988D01*
X30176490Y-41528636D01*
X30172406Y-41520157D01*
X30043303Y-41296543D01*
X30038012Y-41288782D01*
X29877012Y-41086895D01*
X29870624Y-41080011D01*
X29681346Y-40904386D01*
X29673982Y-40898513D01*
X29460647Y-40753064D01*
X29452502Y-40748362D01*
X29219866Y-40636330D01*
X29211110Y-40632894D01*
X28964376Y-40556787D01*
X28955210Y-40554695D01*
X28699880Y-40516209D01*
X28690504Y-40515507D01*
X28432298Y-40515507D01*
X28422922Y-40516209D01*
X28167592Y-40554695D01*
X28158426Y-40556787D01*
X27911692Y-40632894D01*
X27902936Y-40636330D01*
X27670300Y-40748362D01*
X27662155Y-40753064D01*
X27448820Y-40898513D01*
X27441456Y-40904386D01*
X27252178Y-41080011D01*
X27245790Y-41086895D01*
X27084790Y-41288782D01*
X27079499Y-41296543D01*
X26950396Y-41520157D01*
X26946312Y-41528636D01*
X26851981Y-41768988D01*
X26849207Y-41777982D01*
X26791752Y-42029709D01*
X26790349Y-42039015D01*
X26771053Y-42296503D01*
X26771053Y-42305897D01*
X24654380Y-42305897D01*
X24654380Y-41883307D01*
X24658142Y-41852748D01*
X24966682Y-40618588D01*
X24983657Y-40579895D01*
X25595913Y-39649266D01*
X25622464Y-39620129D01*
X26297706Y-39079935D01*
X26313904Y-39068925D01*
X27178514Y-38574862D01*
X27212169Y-38561610D01*
X28255086Y-38316218D01*
X28293140Y-38313205D01*
X29613941Y-38409849D01*
G37*
G36*
X94321670Y-38434757D02*
G01*
X94363400Y-38445170D01*
X95250519Y-38837152D01*
X95281774Y-38856891D01*
X96110334Y-39569795D01*
X96130055Y-39591197D01*
X96622140Y-40267813D01*
X96634642Y-40289122D01*
X97004428Y-41090325D01*
X97013369Y-41117390D01*
X97214540Y-42081520D01*
X97216571Y-42119794D01*
X97155727Y-42728232D01*
X97153435Y-42742647D01*
X96923242Y-43793841D01*
X96907176Y-43833397D01*
X96337052Y-44750755D01*
X96319422Y-44773049D01*
X95644182Y-45452732D01*
X95614531Y-45474868D01*
X94811798Y-45907108D01*
X94798857Y-45913157D01*
X94189016Y-46157094D01*
X94150602Y-46165827D01*
X93231596Y-46227094D01*
X93204524Y-46225979D01*
X91972219Y-46041133D01*
X91926904Y-46025059D01*
X90956890Y-45452998D01*
X90942969Y-45443478D01*
X90498900Y-45093972D01*
X90478438Y-45073672D01*
X89986067Y-44458209D01*
X89974384Y-44440817D01*
X89623191Y-43810417D01*
X89612111Y-43783712D01*
X89366957Y-42925672D01*
X89362109Y-42891057D01*
X89362109Y-42305897D01*
X91439451Y-42305897D01*
X91458747Y-42563385D01*
X91460150Y-42572691D01*
X91517605Y-42824418D01*
X91520379Y-42833412D01*
X91614710Y-43073764D01*
X91618794Y-43082243D01*
X91747897Y-43305857D01*
X91753188Y-43313618D01*
X91914188Y-43515505D01*
X91920576Y-43522389D01*
X92109854Y-43698014D01*
X92117218Y-43703887D01*
X92330553Y-43849336D01*
X92338698Y-43854038D01*
X92571334Y-43966070D01*
X92580090Y-43969506D01*
X92826824Y-44045613D01*
X92835990Y-44047705D01*
X93091320Y-44086191D01*
X93100696Y-44086893D01*
X93358902Y-44086893D01*
X93368278Y-44086191D01*
X93623608Y-44047705D01*
X93632774Y-44045613D01*
X93879508Y-43969506D01*
X93888264Y-43966070D01*
X94120900Y-43854038D01*
X94129045Y-43849336D01*
X94342380Y-43703887D01*
X94349744Y-43698014D01*
X94539022Y-43522389D01*
X94545410Y-43515505D01*
X94706410Y-43313618D01*
X94711701Y-43305857D01*
X94840804Y-43082243D01*
X94844888Y-43073764D01*
X94939219Y-42833412D01*
X94941993Y-42824418D01*
X94999448Y-42572691D01*
X95000851Y-42563385D01*
X95020147Y-42305897D01*
X95020147Y-42296503D01*
X95000851Y-42039015D01*
X94999448Y-42029709D01*
X94941993Y-41777982D01*
X94939219Y-41768988D01*
X94844888Y-41528636D01*
X94840804Y-41520157D01*
X94711701Y-41296543D01*
X94706410Y-41288782D01*
X94545410Y-41086895D01*
X94539022Y-41080011D01*
X94349744Y-40904386D01*
X94342380Y-40898513D01*
X94129045Y-40753064D01*
X94120900Y-40748362D01*
X93888264Y-40636330D01*
X93879508Y-40632894D01*
X93632774Y-40556787D01*
X93623608Y-40554695D01*
X93368278Y-40516209D01*
X93358902Y-40515507D01*
X93100696Y-40515507D01*
X93091320Y-40516209D01*
X92835990Y-40554695D01*
X92826824Y-40556787D01*
X92580090Y-40632894D01*
X92571334Y-40636330D01*
X92338698Y-40748362D01*
X92330553Y-40753064D01*
X92117218Y-40898513D01*
X92109854Y-40904386D01*
X91920576Y-41080011D01*
X91914188Y-41086895D01*
X91753188Y-41288782D01*
X91747897Y-41296543D01*
X91618794Y-41520157D01*
X91614710Y-41528636D01*
X91520379Y-41768988D01*
X91517605Y-41777982D01*
X91460150Y-42029709D01*
X91458747Y-42039015D01*
X91439451Y-42296503D01*
X91439451Y-42305897D01*
X89362109Y-42305897D01*
X89362109Y-41908215D01*
X89365871Y-41877656D01*
X89674411Y-40643496D01*
X89691386Y-40604803D01*
X90303642Y-39674174D01*
X90330193Y-39645037D01*
X91005435Y-39104843D01*
X91021633Y-39093833D01*
X91886243Y-38599770D01*
X91919898Y-38586518D01*
X92962815Y-38341126D01*
X93000869Y-38338113D01*
X94321670Y-38434757D01*
G37*
M02*
