%TF.GenerationSoftware,KiCad,Pcbnew,6.0.11-2627ca5db0~126~ubuntu22.04.1*%
%TF.CreationDate,2023-04-02T21:06:25+02:00*%
%TF.ProjectId,micro_rusEFI,6d696372-6f5f-4727-9573-4546492e6b69,R0.6.1rc*%
%TF.SameCoordinates,Original*%
%TF.FileFunction,Paste,Top*%
%TF.FilePolarity,Positive*%
%FSLAX46Y46*%
G04 Gerber Fmt 4.6, Leading zero omitted, Abs format (unit mm)*
G04 Created by KiCad (PCBNEW 6.0.11-2627ca5db0~126~ubuntu22.04.1) date 2023-04-02 21:06:25*
%MOMM*%
%LPD*%
G01*
G04 APERTURE LIST*
G04 Aperture macros list*
%AMRoundRect*
0 Rectangle with rounded corners*
0 $1 Rounding radius*
0 $2 $3 $4 $5 $6 $7 $8 $9 X,Y pos of 4 corners*
0 Add a 4 corners polygon primitive as box body*
4,1,4,$2,$3,$4,$5,$6,$7,$8,$9,$2,$3,0*
0 Add four circle primitives for the rounded corners*
1,1,$1+$1,$2,$3*
1,1,$1+$1,$4,$5*
1,1,$1+$1,$6,$7*
1,1,$1+$1,$8,$9*
0 Add four rect primitives between the rounded corners*
20,1,$1+$1,$2,$3,$4,$5,0*
20,1,$1+$1,$4,$5,$6,$7,0*
20,1,$1+$1,$6,$7,$8,$9,0*
20,1,$1+$1,$8,$9,$2,$3,0*%
G04 Aperture macros list end*
%ADD10RoundRect,0.218750X0.026517X-0.335876X0.335876X-0.026517X-0.026517X0.335876X-0.335876X0.026517X0*%
%ADD11RoundRect,0.218750X-0.218750X-0.256250X0.218750X-0.256250X0.218750X0.256250X-0.218750X0.256250X0*%
%ADD12RoundRect,0.218750X0.218750X0.256250X-0.218750X0.256250X-0.218750X-0.256250X0.218750X-0.256250X0*%
%ADD13RoundRect,0.243750X-0.243750X-0.456250X0.243750X-0.456250X0.243750X0.456250X-0.243750X0.456250X0*%
%ADD14RoundRect,0.218750X0.256250X-0.218750X0.256250X0.218750X-0.256250X0.218750X-0.256250X-0.218750X0*%
%ADD15RoundRect,0.218750X-0.256250X0.218750X-0.256250X-0.218750X0.256250X-0.218750X0.256250X0.218750X0*%
%ADD16R,0.900000X1.200000*%
%ADD17R,1.060000X0.650000*%
%ADD18R,1.450000X0.450000*%
%ADD19R,0.500000X0.800000*%
%ADD20R,0.400000X0.800000*%
%ADD21R,0.800000X0.500000*%
%ADD22R,0.800000X0.400000*%
%ADD23R,2.000000X2.400000*%
%ADD24RoundRect,0.250000X-0.625000X0.375000X-0.625000X-0.375000X0.625000X-0.375000X0.625000X0.375000X0*%
%ADD25RoundRect,0.147500X0.172500X-0.147500X0.172500X0.147500X-0.172500X0.147500X-0.172500X-0.147500X0*%
%ADD26R,0.900000X0.800000*%
%ADD27R,1.800000X2.500000*%
%ADD28RoundRect,0.150000X0.150000X-0.825000X0.150000X0.825000X-0.150000X0.825000X-0.150000X-0.825000X0*%
%ADD29R,1.000000X1.800000*%
%ADD30R,1.500000X2.000000*%
%ADD31R,3.800000X2.000000*%
%ADD32R,3.050000X2.750000*%
%ADD33R,2.200000X1.200000*%
%ADD34R,0.800000X0.900000*%
%ADD35R,1.500000X1.500000*%
%ADD36RoundRect,0.243750X-0.456250X0.243750X-0.456250X-0.243750X0.456250X-0.243750X0.456250X0.243750X0*%
%ADD37R,0.450000X0.600000*%
%ADD38RoundRect,0.200000X0.200000X0.800000X-0.200000X0.800000X-0.200000X-0.800000X0.200000X-0.800000X0*%
%ADD39RoundRect,0.200000X-0.200000X-0.800000X0.200000X-0.800000X0.200000X0.800000X-0.200000X0.800000X0*%
%ADD40RoundRect,0.150000X0.150000X-0.725000X0.150000X0.725000X-0.150000X0.725000X-0.150000X-0.725000X0*%
%ADD41R,1.950000X1.160000*%
%ADD42R,2.000000X0.650000*%
%ADD43RoundRect,0.075000X-0.550000X-0.075000X0.550000X-0.075000X0.550000X0.075000X-0.550000X0.075000X0*%
%ADD44RoundRect,0.075000X-0.075000X-0.550000X0.075000X-0.550000X0.075000X0.550000X-0.075000X0.550000X0*%
%ADD45R,8.500000X8.500000*%
%ADD46RoundRect,0.250000X1.950000X1.000000X-1.950000X1.000000X-1.950000X-1.000000X1.950000X-1.000000X0*%
%ADD47RoundRect,0.075000X0.075000X-0.725000X0.075000X0.725000X-0.075000X0.725000X-0.075000X-0.725000X0*%
%ADD48RoundRect,0.075000X0.725000X-0.075000X0.725000X0.075000X-0.725000X0.075000X-0.725000X-0.075000X0*%
%ADD49RoundRect,0.200000X0.200000X0.275000X-0.200000X0.275000X-0.200000X-0.275000X0.200000X-0.275000X0*%
%ADD50R,1.200000X0.900000*%
%ADD51R,1.000000X3.000000*%
%ADD52RoundRect,0.237500X-0.287500X-0.237500X0.287500X-0.237500X0.287500X0.237500X-0.287500X0.237500X0*%
%ADD53RoundRect,0.147500X0.147500X0.172500X-0.147500X0.172500X-0.147500X-0.172500X0.147500X-0.172500X0*%
%ADD54RoundRect,0.218750X-0.026517X0.335876X-0.335876X0.026517X0.026517X-0.335876X0.335876X-0.026517X0*%
%ADD55RoundRect,0.200000X-0.053033X0.335876X-0.335876X0.053033X0.053033X-0.335876X0.335876X-0.053033X0*%
%ADD56R,1.000000X3.150000*%
%ADD57R,0.600000X0.450000*%
%ADD58R,1.500000X0.800000*%
%ADD59R,2.000000X1.450000*%
%ADD60R,2.500000X3.300000*%
%ADD61R,1.100000X0.850000*%
%ADD62R,1.100000X0.750000*%
%ADD63R,1.000000X1.200000*%
%ADD64R,1.350000X1.900000*%
%ADD65R,1.800000X1.170000*%
%ADD66R,1.350000X1.550000*%
%ADD67R,2.500000X1.800000*%
G04 APERTURE END LIST*
D10*
X83743153Y-58556847D03*
X84856847Y-57443153D03*
D11*
X69812500Y-58100000D03*
X71387500Y-58100000D03*
D12*
X85087500Y-92500000D03*
X83512500Y-92500000D03*
X85116300Y-97030500D03*
X83541300Y-97030500D03*
D11*
X69812500Y-51850000D03*
X71387500Y-51850000D03*
X51053900Y-101031040D03*
X52628900Y-101031040D03*
D13*
X25859500Y-101790500D03*
X27734500Y-101790500D03*
D14*
X73800000Y-77500000D03*
X73800000Y-75925000D03*
D11*
X69812500Y-50292000D03*
X71387500Y-50292000D03*
X76812500Y-42400000D03*
X78387500Y-42400000D03*
D15*
X71374000Y-47212500D03*
X71374000Y-48787500D03*
D12*
X55859780Y-101031040D03*
X54284780Y-101031040D03*
X28473500Y-104203500D03*
X26898500Y-104203500D03*
D15*
X64389000Y-111099500D03*
X64389000Y-112674500D03*
D16*
X53750000Y-104250000D03*
X57050000Y-104250000D03*
D17*
X59733000Y-111318000D03*
X59733000Y-112268000D03*
X59733000Y-113218000D03*
X61933000Y-113218000D03*
X61933000Y-112268000D03*
X61933000Y-111318000D03*
D15*
X57277000Y-111099500D03*
X57277000Y-112674500D03*
D14*
X66675000Y-108483500D03*
X66675000Y-106908500D03*
X71450000Y-94612500D03*
X71450000Y-93037500D03*
D15*
X63601600Y-78612900D03*
X63601600Y-80187900D03*
D11*
X45112500Y-76800000D03*
X46687500Y-76800000D03*
D12*
X26187500Y-87884000D03*
X24612500Y-87884000D03*
D18*
X57306000Y-64942000D03*
X57306000Y-64292000D03*
X57306000Y-63642000D03*
X57306000Y-62992000D03*
X57306000Y-62342000D03*
X57306000Y-61692000D03*
X57306000Y-61042000D03*
X51406000Y-61042000D03*
X51406000Y-61692000D03*
X51406000Y-62342000D03*
X51406000Y-62992000D03*
X51406000Y-63642000D03*
X51406000Y-64292000D03*
X51406000Y-64942000D03*
D14*
X40640000Y-61341100D03*
X40640000Y-59766100D03*
D12*
X44092000Y-89281800D03*
X42517000Y-89281800D03*
D14*
X65125600Y-80187900D03*
X65125600Y-78612900D03*
D15*
X64790320Y-90271500D03*
X64790320Y-91846500D03*
D11*
X38785700Y-42418000D03*
X40360700Y-42418000D03*
X38785700Y-40894000D03*
X40360700Y-40894000D03*
D15*
X40665400Y-63347500D03*
X40665400Y-64922500D03*
D12*
X26187500Y-84734400D03*
X24612500Y-84734400D03*
D19*
X58921500Y-42407000D03*
D20*
X58121500Y-42407000D03*
X57321500Y-42407000D03*
D19*
X56521500Y-42407000D03*
X56521500Y-44207000D03*
D20*
X57321500Y-44207000D03*
X58121500Y-44207000D03*
D19*
X58921500Y-44207000D03*
D11*
X69387500Y-42500000D03*
X70962500Y-42500000D03*
D18*
X67720000Y-64942000D03*
X67720000Y-64292000D03*
X67720000Y-63642000D03*
X67720000Y-62992000D03*
X67720000Y-62342000D03*
X67720000Y-61692000D03*
X67720000Y-61042000D03*
X61820000Y-61042000D03*
X61820000Y-61692000D03*
X61820000Y-62342000D03*
X61820000Y-62992000D03*
X61820000Y-63642000D03*
X61820000Y-64292000D03*
X61820000Y-64942000D03*
D11*
X73612500Y-40925000D03*
X75187500Y-40925000D03*
X26898500Y-105727500D03*
X28473500Y-105727500D03*
D12*
X54987500Y-42500000D03*
X53412500Y-42500000D03*
X71387500Y-55000000D03*
X69812500Y-55000000D03*
D13*
X37712500Y-97050000D03*
X39587500Y-97050000D03*
X37696000Y-98950000D03*
X39571000Y-98950000D03*
X37696000Y-95150000D03*
X39571000Y-95150000D03*
X37696000Y-93250000D03*
X39571000Y-93250000D03*
D15*
X94600000Y-51362500D03*
X94600000Y-52937500D03*
D14*
X23550000Y-37237500D03*
X23550000Y-35662500D03*
D21*
X35963000Y-96831000D03*
D22*
X35963000Y-96031000D03*
X35963000Y-95231000D03*
D21*
X35963000Y-94431000D03*
X34163000Y-94431000D03*
D22*
X34163000Y-95231000D03*
X34163000Y-96031000D03*
D21*
X34163000Y-96831000D03*
D23*
X55306840Y-98348800D03*
X51606840Y-98348800D03*
D11*
X63612500Y-74400000D03*
X65187500Y-74400000D03*
D12*
X85116300Y-93982500D03*
X83541300Y-93982500D03*
X85116300Y-95506500D03*
X83541300Y-95506500D03*
X44547500Y-42500000D03*
X42972500Y-42500000D03*
X37998500Y-109855000D03*
X36423500Y-109855000D03*
D14*
X40081200Y-56108700D03*
X40081200Y-54533700D03*
D24*
X24658800Y-54900000D03*
X24658800Y-57700000D03*
D15*
X38582600Y-54533700D03*
X38582600Y-56108700D03*
X25050000Y-35662500D03*
X25050000Y-37237500D03*
D25*
X53525000Y-41135000D03*
X53525000Y-40165000D03*
D11*
X76812500Y-40900000D03*
X78387500Y-40900000D03*
D12*
X46685300Y-75311000D03*
X45110300Y-75311000D03*
D14*
X67797680Y-94612500D03*
X67797680Y-93037500D03*
D11*
X69812500Y-56550000D03*
X71387500Y-56550000D03*
D14*
X97600000Y-49887500D03*
X97600000Y-48312500D03*
D18*
X57943960Y-53168000D03*
X57943960Y-53818000D03*
X57943960Y-54468000D03*
X57943960Y-55118000D03*
X57943960Y-55768000D03*
X57943960Y-56418000D03*
X57943960Y-57068000D03*
X63843960Y-57068000D03*
X63843960Y-56418000D03*
X63843960Y-55768000D03*
X63843960Y-55118000D03*
X63843960Y-54468000D03*
X63843960Y-53818000D03*
X63843960Y-53168000D03*
D26*
X96186500Y-81150500D03*
X96186500Y-79250500D03*
X94186500Y-80200500D03*
D27*
X96000000Y-89250000D03*
X96000000Y-85250000D03*
D28*
X24358600Y-65009800D03*
X25628600Y-65009800D03*
X26898600Y-65009800D03*
X28168600Y-65009800D03*
X28168600Y-60059800D03*
X26898600Y-60059800D03*
X25628600Y-60059800D03*
X24358600Y-60059800D03*
D15*
X46990000Y-100050000D03*
X46990000Y-101625000D03*
D29*
X47010000Y-98100000D03*
X49510000Y-98100000D03*
D11*
X33375500Y-109855000D03*
X34950500Y-109855000D03*
D30*
X25300000Y-99050000D03*
X27600000Y-99050000D03*
D31*
X27600000Y-92750000D03*
D30*
X29900000Y-99050000D03*
D17*
X64152600Y-49545200D03*
X64152600Y-50495200D03*
X64152600Y-51445200D03*
X66352600Y-51445200D03*
X66352600Y-50495200D03*
X66352600Y-49545200D03*
X51051640Y-51394400D03*
X51051640Y-50444400D03*
X51051640Y-49494400D03*
X48851640Y-49494400D03*
X48851640Y-50444400D03*
X48851640Y-51394400D03*
D14*
X49530000Y-101625000D03*
X49530000Y-100050000D03*
D11*
X56112500Y-74400000D03*
X57687500Y-74400000D03*
D17*
X61460000Y-51445200D03*
X61460000Y-50495200D03*
X61460000Y-49545200D03*
X59260000Y-49545200D03*
X59260000Y-50495200D03*
X59260000Y-51445200D03*
D19*
X31400000Y-67050000D03*
D20*
X30600000Y-67050000D03*
X29800000Y-67050000D03*
D19*
X29000000Y-67050000D03*
X29000000Y-68850000D03*
D20*
X29800000Y-68850000D03*
X30600000Y-68850000D03*
D19*
X31400000Y-68850000D03*
D12*
X56032500Y-59436000D03*
X54457500Y-59436000D03*
D24*
X26958800Y-54900000D03*
X26958800Y-57700000D03*
X29258800Y-54900000D03*
X29258800Y-57700000D03*
X31558800Y-54900000D03*
X31558800Y-57700000D03*
X33858800Y-54900000D03*
X33858800Y-57700000D03*
X36158800Y-54900000D03*
X36158800Y-57700000D03*
D28*
X29794200Y-65009800D03*
X31064200Y-65009800D03*
X32334200Y-65009800D03*
X33604200Y-65009800D03*
X33604200Y-60059800D03*
X32334200Y-60059800D03*
X31064200Y-60059800D03*
X29794200Y-60059800D03*
X35229800Y-65009800D03*
X36499800Y-65009800D03*
X37769800Y-65009800D03*
X39039800Y-65009800D03*
X39039800Y-60059800D03*
X37769800Y-60059800D03*
X36499800Y-60059800D03*
X35229800Y-60059800D03*
D12*
X66637000Y-59436000D03*
X65062000Y-59436000D03*
D17*
X53891000Y-49469000D03*
X53891000Y-50419000D03*
X53891000Y-51369000D03*
X56091000Y-51369000D03*
X56091000Y-50419000D03*
X56091000Y-49469000D03*
D19*
X51873000Y-42407000D03*
D20*
X51073000Y-42407000D03*
X50273000Y-42407000D03*
D19*
X49473000Y-42407000D03*
X49473000Y-44207000D03*
D20*
X50273000Y-44207000D03*
X51073000Y-44207000D03*
D19*
X51873000Y-44207000D03*
D18*
X46902580Y-53226420D03*
X46902580Y-53876420D03*
X46902580Y-54526420D03*
X46902580Y-55176420D03*
X46902580Y-55826420D03*
X46902580Y-56476420D03*
X46902580Y-57126420D03*
X52802580Y-57126420D03*
X52802580Y-56476420D03*
X52802580Y-55826420D03*
X52802580Y-55176420D03*
X52802580Y-54526420D03*
X52802580Y-53876420D03*
X52802580Y-53226420D03*
D14*
X60900000Y-68187500D03*
X60900000Y-66612500D03*
X59400000Y-68187500D03*
X59400000Y-66612500D03*
X57900000Y-68187500D03*
X57900000Y-66612500D03*
X62400000Y-71187500D03*
X62400000Y-69612500D03*
X60900000Y-71187500D03*
X60900000Y-69612500D03*
X57900000Y-71187500D03*
X57900000Y-69612500D03*
X59400000Y-71187500D03*
X59400000Y-69612500D03*
X62400000Y-68187500D03*
X62400000Y-66612500D03*
D32*
X96231000Y-98045000D03*
X96231000Y-94995000D03*
X92881000Y-98045000D03*
X92881000Y-94995000D03*
D33*
X88256000Y-94240000D03*
X88256000Y-98800000D03*
D14*
X66900000Y-68187500D03*
X66900000Y-66612500D03*
X65400000Y-68187500D03*
X65400000Y-66612500D03*
X63900000Y-68187500D03*
X63900000Y-66612500D03*
X68400000Y-71187500D03*
X68400000Y-69612500D03*
X66900000Y-71187500D03*
X66900000Y-69612500D03*
X65400000Y-71187500D03*
X65400000Y-69612500D03*
X63900000Y-71187500D03*
X63900000Y-69612500D03*
X68400000Y-68187500D03*
X68400000Y-66612500D03*
D12*
X26187500Y-86309200D03*
X24612500Y-86309200D03*
D14*
X56400000Y-68187500D03*
X56400000Y-66612500D03*
X54900000Y-68187500D03*
X54900000Y-66612500D03*
X53400000Y-68187500D03*
X53400000Y-66612500D03*
X51900000Y-68187500D03*
X51900000Y-66612500D03*
X56400000Y-71187500D03*
X56400000Y-69612500D03*
X54900000Y-71187500D03*
X54900000Y-69612500D03*
X53400000Y-71187500D03*
X53400000Y-69612500D03*
X51900000Y-71187500D03*
X51900000Y-69612500D03*
X50400000Y-68187500D03*
X50400000Y-66612500D03*
X45900000Y-68187500D03*
X45900000Y-66612500D03*
X50400000Y-71187500D03*
X50400000Y-69612500D03*
X48900000Y-71187500D03*
X48900000Y-69612500D03*
X47400000Y-71187500D03*
X47400000Y-69612500D03*
X45900000Y-71187500D03*
X45900000Y-69612500D03*
D11*
X59283500Y-58801000D03*
X60858500Y-58801000D03*
D15*
X46200000Y-44337500D03*
X46200000Y-45912500D03*
D34*
X88798440Y-84450680D03*
X86898440Y-84450680D03*
X87848440Y-86450680D03*
D27*
X91789200Y-89250000D03*
X91789200Y-85250000D03*
D15*
X86900000Y-79095500D03*
X86900000Y-80670500D03*
X83566000Y-79095500D03*
X83566000Y-80670500D03*
X91998800Y-79095500D03*
X91998800Y-80670500D03*
X90512900Y-79095500D03*
X90512900Y-80670500D03*
D13*
X86939120Y-82677000D03*
X88814120Y-82677000D03*
D14*
X89027000Y-80670500D03*
X89027000Y-79095500D03*
X85100000Y-80687500D03*
X85100000Y-79112500D03*
D34*
X68270160Y-89611960D03*
X66370160Y-89611960D03*
X67320160Y-91611960D03*
D35*
X32828400Y-88442800D03*
X40628400Y-88442800D03*
D34*
X71816000Y-89611960D03*
X69916000Y-89611960D03*
X70866000Y-91611960D03*
D36*
X93700000Y-75700000D03*
X93700000Y-77575000D03*
D19*
X26900000Y-67050000D03*
D20*
X26100000Y-67050000D03*
X25300000Y-67050000D03*
D19*
X24500000Y-67050000D03*
X24500000Y-68850000D03*
D20*
X25300000Y-68850000D03*
X26100000Y-68850000D03*
D19*
X26900000Y-68850000D03*
D14*
X94600000Y-49887500D03*
X94600000Y-48312500D03*
D12*
X44170700Y-91897200D03*
X42595700Y-91897200D03*
D14*
X41554400Y-56108700D03*
X41554400Y-54533700D03*
D37*
X90400000Y-51200000D03*
X90400000Y-49100000D03*
D38*
X38828400Y-83900000D03*
X34628400Y-83900000D03*
D39*
X34628400Y-88700000D03*
X38828400Y-88700000D03*
D14*
X47244000Y-51206500D03*
X47244000Y-49631500D03*
X47400000Y-68187500D03*
X47400000Y-66612500D03*
X48900000Y-68187500D03*
X48900000Y-66612500D03*
D40*
X78595000Y-52875000D03*
X79865000Y-52875000D03*
X81135000Y-52875000D03*
X82405000Y-52875000D03*
X82405000Y-47725000D03*
X81135000Y-47725000D03*
X79865000Y-47725000D03*
X78595000Y-47725000D03*
D12*
X71387500Y-53450000D03*
X69812500Y-53450000D03*
D15*
X97600000Y-51412500D03*
X97600000Y-52987500D03*
D40*
X84195000Y-52875000D03*
X85465000Y-52875000D03*
X86735000Y-52875000D03*
X88005000Y-52875000D03*
X88005000Y-47725000D03*
X86735000Y-47725000D03*
X85465000Y-47725000D03*
X84195000Y-47725000D03*
D14*
X69895720Y-94612500D03*
X69895720Y-93037500D03*
D15*
X69850000Y-47212500D03*
X69850000Y-48787500D03*
D41*
X36975000Y-45721000D03*
X36975000Y-47181000D03*
X36975000Y-48641000D03*
X39225000Y-47181000D03*
X39225000Y-50101000D03*
X36975000Y-51561000D03*
X36975000Y-50101000D03*
X39225000Y-48641000D03*
X39225000Y-51561000D03*
X39225000Y-45721000D03*
D42*
X42900000Y-51141000D03*
X42900000Y-50141000D03*
X42900000Y-49141000D03*
X42900000Y-48141000D03*
X42900000Y-47141000D03*
X42900000Y-46141000D03*
X33300000Y-46141000D03*
X33300000Y-47141000D03*
X33300000Y-48141000D03*
X33300000Y-49141000D03*
X33300000Y-50141000D03*
X33300000Y-51141000D03*
D43*
X75600000Y-62403000D03*
X75600000Y-62903000D03*
X75600000Y-63403000D03*
X75600000Y-63903000D03*
X75600000Y-64403000D03*
X75600000Y-64903000D03*
X75600000Y-65403000D03*
X75600000Y-65903000D03*
X75600000Y-66403000D03*
X75600000Y-66903000D03*
X75600000Y-67403000D03*
X75600000Y-67903000D03*
X75600000Y-68403000D03*
X75600000Y-68903000D03*
X75600000Y-69403000D03*
X75600000Y-69903000D03*
X75600000Y-70403000D03*
X75600000Y-70903000D03*
X75600000Y-71403000D03*
X75600000Y-71903000D03*
X75600000Y-72403000D03*
X75600000Y-72903000D03*
X75600000Y-73403000D03*
X75600000Y-73903000D03*
X75600000Y-74403000D03*
D44*
X77500000Y-76303000D03*
X78000000Y-76303000D03*
X78500000Y-76303000D03*
X79000000Y-76303000D03*
X79500000Y-76303000D03*
X80000000Y-76303000D03*
X80500000Y-76303000D03*
X81000000Y-76303000D03*
X81500000Y-76303000D03*
X82000000Y-76303000D03*
X82500000Y-76303000D03*
X83000000Y-76303000D03*
X83500000Y-76303000D03*
X84000000Y-76303000D03*
X84500000Y-76303000D03*
X85000000Y-76303000D03*
X85500000Y-76303000D03*
X86000000Y-76303000D03*
X86500000Y-76303000D03*
X87000000Y-76303000D03*
X87500000Y-76303000D03*
X88000000Y-76303000D03*
X88500000Y-76303000D03*
X89000000Y-76303000D03*
X89500000Y-76303000D03*
D43*
X91400000Y-74403000D03*
X91400000Y-73903000D03*
X91400000Y-73403000D03*
X91400000Y-72903000D03*
X91400000Y-72403000D03*
X91400000Y-71903000D03*
X91400000Y-71403000D03*
X91400000Y-70903000D03*
X91400000Y-70403000D03*
X91400000Y-69903000D03*
X91400000Y-69403000D03*
X91400000Y-68903000D03*
X91400000Y-68403000D03*
X91400000Y-67903000D03*
X91400000Y-67403000D03*
X91400000Y-66903000D03*
X91400000Y-66403000D03*
X91400000Y-65903000D03*
X91400000Y-65403000D03*
X91400000Y-64903000D03*
X91400000Y-64403000D03*
X91400000Y-63903000D03*
X91400000Y-63403000D03*
X91400000Y-62903000D03*
X91400000Y-62403000D03*
D44*
X89500000Y-60503000D03*
X89000000Y-60503000D03*
X88500000Y-60503000D03*
X88000000Y-60503000D03*
X87500000Y-60503000D03*
X87000000Y-60503000D03*
X86500000Y-60503000D03*
X86000000Y-60503000D03*
X85500000Y-60503000D03*
X85000000Y-60503000D03*
X84500000Y-60503000D03*
X84000000Y-60503000D03*
X83500000Y-60503000D03*
X83000000Y-60503000D03*
X82500000Y-60503000D03*
X82000000Y-60503000D03*
X81500000Y-60503000D03*
X81000000Y-60503000D03*
X80500000Y-60503000D03*
X80000000Y-60503000D03*
X79500000Y-60503000D03*
X79000000Y-60503000D03*
X78500000Y-60503000D03*
X78000000Y-60503000D03*
X77500000Y-60503000D03*
D45*
X83500000Y-68403000D03*
D37*
X94600000Y-54300000D03*
X94600000Y-56400000D03*
D46*
X82948000Y-86741000D03*
X75548000Y-86741000D03*
D47*
X48086800Y-93959600D03*
X48586800Y-93959600D03*
X49086800Y-93959600D03*
X49586800Y-93959600D03*
X50086800Y-93959600D03*
X50586800Y-93959600D03*
X51086800Y-93959600D03*
X51586800Y-93959600D03*
X52086800Y-93959600D03*
X52586800Y-93959600D03*
X53086800Y-93959600D03*
X53586800Y-93959600D03*
X54086800Y-93959600D03*
X54586800Y-93959600D03*
X55086800Y-93959600D03*
X55586800Y-93959600D03*
X56086800Y-93959600D03*
X56586800Y-93959600D03*
X57086800Y-93959600D03*
X57586800Y-93959600D03*
X58086800Y-93959600D03*
X58586800Y-93959600D03*
X59086800Y-93959600D03*
X59586800Y-93959600D03*
X60086800Y-93959600D03*
D48*
X61761800Y-92284600D03*
X61761800Y-91784600D03*
X61761800Y-91284600D03*
X61761800Y-90784600D03*
X61761800Y-90284600D03*
X61761800Y-89784600D03*
X61761800Y-89284600D03*
X61761800Y-88784600D03*
X61761800Y-88284600D03*
X61761800Y-87784600D03*
X61761800Y-87284600D03*
X61761800Y-86784600D03*
X61761800Y-86284600D03*
X61761800Y-85784600D03*
X61761800Y-85284600D03*
X61761800Y-84784600D03*
X61761800Y-84284600D03*
X61761800Y-83784600D03*
X61761800Y-83284600D03*
X61761800Y-82784600D03*
X61761800Y-82284600D03*
X61761800Y-81784600D03*
X61761800Y-81284600D03*
X61761800Y-80784600D03*
X61761800Y-80284600D03*
D47*
X60086800Y-78609600D03*
X59586800Y-78609600D03*
X59086800Y-78609600D03*
X58586800Y-78609600D03*
X58086800Y-78609600D03*
X57586800Y-78609600D03*
X57086800Y-78609600D03*
X56586800Y-78609600D03*
X56086800Y-78609600D03*
X55586800Y-78609600D03*
X55086800Y-78609600D03*
X54586800Y-78609600D03*
X54086800Y-78609600D03*
X53586800Y-78609600D03*
X53086800Y-78609600D03*
X52586800Y-78609600D03*
X52086800Y-78609600D03*
X51586800Y-78609600D03*
X51086800Y-78609600D03*
X50586800Y-78609600D03*
X50086800Y-78609600D03*
X49586800Y-78609600D03*
X49086800Y-78609600D03*
X48586800Y-78609600D03*
X48086800Y-78609600D03*
D48*
X46411800Y-80284600D03*
X46411800Y-80784600D03*
X46411800Y-81284600D03*
X46411800Y-81784600D03*
X46411800Y-82284600D03*
X46411800Y-82784600D03*
X46411800Y-83284600D03*
X46411800Y-83784600D03*
X46411800Y-84284600D03*
X46411800Y-84784600D03*
X46411800Y-85284600D03*
X46411800Y-85784600D03*
X46411800Y-86284600D03*
X46411800Y-86784600D03*
X46411800Y-87284600D03*
X46411800Y-87784600D03*
X46411800Y-88284600D03*
X46411800Y-88784600D03*
X46411800Y-89284600D03*
X46411800Y-89784600D03*
X46411800Y-90284600D03*
X46411800Y-90784600D03*
X46411800Y-91284600D03*
X46411800Y-91784600D03*
X46411800Y-92284600D03*
D12*
X62087500Y-74400000D03*
X60512500Y-74400000D03*
D49*
X71425000Y-59650000D03*
X69775000Y-59650000D03*
D14*
X77300000Y-80670500D03*
X77300000Y-79095500D03*
D24*
X90600000Y-52700000D03*
X90600000Y-55500000D03*
D15*
X47700000Y-44337500D03*
X47700000Y-45912500D03*
D50*
X54483000Y-110108000D03*
X54483000Y-106808000D03*
D14*
X75400000Y-77487500D03*
X75400000Y-75912500D03*
D15*
X75400000Y-79100000D03*
X75400000Y-80675000D03*
D35*
X40628400Y-84124800D03*
X32828400Y-84124800D03*
D11*
X76812500Y-39400000D03*
X78387500Y-39400000D03*
D37*
X97100000Y-54250000D03*
X97100000Y-56350000D03*
D51*
X51231800Y-111486000D03*
X51231800Y-106446000D03*
X48691800Y-111486000D03*
X48691800Y-106446000D03*
X46151800Y-111486000D03*
X46151800Y-106446000D03*
X43611800Y-111486000D03*
X43611800Y-106446000D03*
X41071800Y-111486000D03*
X41071800Y-106446000D03*
D14*
X66268600Y-94612500D03*
X66268600Y-93037500D03*
D52*
X62410400Y-94167960D03*
X64160400Y-94167960D03*
D11*
X78308000Y-99314000D03*
X79883000Y-99314000D03*
X55287500Y-39375000D03*
X56862500Y-39375000D03*
D53*
X70410000Y-45425000D03*
X69440000Y-45425000D03*
D19*
X67951000Y-42407000D03*
D20*
X67151000Y-42407000D03*
X66351000Y-42407000D03*
D19*
X65551000Y-42407000D03*
X65551000Y-44207000D03*
D20*
X66351000Y-44207000D03*
X67151000Y-44207000D03*
D19*
X67951000Y-44207000D03*
X63442500Y-42407000D03*
D20*
X62642500Y-42407000D03*
X61842500Y-42407000D03*
D19*
X61042500Y-42407000D03*
X61042500Y-44207000D03*
D20*
X61842500Y-44207000D03*
X62642500Y-44207000D03*
D19*
X63442500Y-44207000D03*
D25*
X51900000Y-41135000D03*
X51900000Y-40165000D03*
D12*
X56862500Y-40900000D03*
X55287500Y-40900000D03*
D15*
X69900800Y-69621300D03*
X69900800Y-71196300D03*
D11*
X89252500Y-58720000D03*
X90827500Y-58720000D03*
D54*
X78280847Y-55069153D03*
X77167153Y-56182847D03*
X81056847Y-57443153D03*
X79943153Y-58556847D03*
D55*
X81033363Y-55066637D03*
X79866637Y-56233363D03*
D56*
X30683200Y-78496400D03*
X30683200Y-73446400D03*
X33223200Y-78496400D03*
X33223200Y-73446400D03*
X35763200Y-78496400D03*
X35763200Y-73446400D03*
X38303200Y-78496400D03*
X38303200Y-73446400D03*
X40843200Y-78496400D03*
X40843200Y-73446400D03*
D11*
X73612500Y-39400000D03*
X75187500Y-39400000D03*
D12*
X54987500Y-44050000D03*
X53412500Y-44050000D03*
X61747500Y-104140000D03*
X60172500Y-104140000D03*
D57*
X25400000Y-33950000D03*
X23300000Y-33950000D03*
D11*
X66012500Y-39400000D03*
X67587500Y-39400000D03*
X59410500Y-39400000D03*
X60985500Y-39400000D03*
X59412500Y-40925000D03*
X60987500Y-40925000D03*
X62712500Y-39400000D03*
X64287500Y-39400000D03*
X66012500Y-40925000D03*
X67587500Y-40925000D03*
X62712500Y-40925000D03*
X64287500Y-40925000D03*
X69387500Y-40925000D03*
X70962500Y-40925000D03*
X69387500Y-39400000D03*
X70962500Y-39400000D03*
X69387500Y-44025000D03*
X70962500Y-44025000D03*
D12*
X47737500Y-42500000D03*
X46162500Y-42500000D03*
D58*
X77500000Y-104950000D03*
X77500000Y-106050000D03*
X77500000Y-107150000D03*
X77500000Y-108250000D03*
X77500000Y-109350000D03*
X77500000Y-110450000D03*
X77500000Y-111550000D03*
X77500000Y-112650000D03*
D59*
X80100000Y-101275000D03*
X80100000Y-115025000D03*
X71800000Y-115025000D03*
X71800000Y-101275000D03*
D60*
X81124000Y-94600000D03*
X74324000Y-94600000D03*
D61*
X79475000Y-104995000D03*
X79475000Y-106095000D03*
X79475000Y-107195000D03*
X79475000Y-108295000D03*
X79475000Y-109395000D03*
X79475000Y-110495000D03*
X79475000Y-111595000D03*
D62*
X79475000Y-112645000D03*
D63*
X73325000Y-102360000D03*
X69625000Y-102360000D03*
D64*
X68650000Y-111830000D03*
D65*
X79125000Y-113855000D03*
D66*
X79350000Y-102535000D03*
D64*
X68650000Y-105860000D03*
D57*
X74100000Y-99050000D03*
X76200000Y-99050000D03*
D19*
X51875000Y-46050000D03*
D20*
X51075000Y-46050000D03*
X50275000Y-46050000D03*
D19*
X49475000Y-46050000D03*
X49475000Y-47850000D03*
D20*
X50275000Y-47850000D03*
X51075000Y-47850000D03*
D19*
X51875000Y-47850000D03*
X67950000Y-46050000D03*
D20*
X67150000Y-46050000D03*
X66350000Y-46050000D03*
D19*
X65550000Y-46050000D03*
X65550000Y-47850000D03*
D20*
X66350000Y-47850000D03*
X67150000Y-47850000D03*
D19*
X67950000Y-47850000D03*
D67*
X39600000Y-68150000D03*
X35600000Y-68150000D03*
D19*
X58925000Y-46050000D03*
D20*
X58125000Y-46050000D03*
X57325000Y-46050000D03*
D19*
X56525000Y-46050000D03*
X56525000Y-47850000D03*
D20*
X57325000Y-47850000D03*
X58125000Y-47850000D03*
D19*
X58925000Y-47850000D03*
X63450000Y-46050000D03*
D20*
X62650000Y-46050000D03*
X61850000Y-46050000D03*
D19*
X61050000Y-46050000D03*
X61050000Y-47850000D03*
D20*
X61850000Y-47850000D03*
X62650000Y-47850000D03*
D19*
X63450000Y-47850000D03*
M02*
