%TF.GenerationSoftware,KiCad,Pcbnew,6.0.10-86aedd382b~118~ubuntu22.04.1*%
%TF.CreationDate,2023-01-19T22:03:15+01:00*%
%TF.ProjectId,micro_rusEFI,6d696372-6f5f-4727-9573-4546492e6b69,R0.6.1rc*%
%TF.SameCoordinates,Original*%
%TF.FileFunction,Soldermask,Bot*%
%TF.FilePolarity,Negative*%
%FSLAX46Y46*%
G04 Gerber Fmt 4.6, Leading zero omitted, Abs format (unit mm)*
G04 Created by KiCad (PCBNEW 6.0.10-86aedd382b~118~ubuntu22.04.1) date 2023-01-19 22:03:15*
%MOMM*%
%LPD*%
G01*
G04 APERTURE LIST*
G04 Aperture macros list*
%AMRoundRect*
0 Rectangle with rounded corners*
0 $1 Rounding radius*
0 $2 $3 $4 $5 $6 $7 $8 $9 X,Y pos of 4 corners*
0 Add a 4 corners polygon primitive as box body*
4,1,4,$2,$3,$4,$5,$6,$7,$8,$9,$2,$3,0*
0 Add four circle primitives for the rounded corners*
1,1,$1+$1,$2,$3*
1,1,$1+$1,$4,$5*
1,1,$1+$1,$6,$7*
1,1,$1+$1,$8,$9*
0 Add four rect primitives between the rounded corners*
20,1,$1+$1,$2,$3,$4,$5,0*
20,1,$1+$1,$4,$5,$6,$7,0*
20,1,$1+$1,$6,$7,$8,$9,0*
20,1,$1+$1,$8,$9,$2,$3,0*%
%AMRotRect*
0 Rectangle, with rotation*
0 The origin of the aperture is its center*
0 $1 length*
0 $2 width*
0 $3 Rotation angle, in degrees counterclockwise*
0 Add horizontal line*
21,1,$1,$2,0,0,$3*%
G04 Aperture macros list end*
%ADD10C,0.889000*%
%ADD11O,1.500000X2.380000*%
%ADD12O,2.616200X1.016000*%
%ADD13C,0.990600*%
%ADD14C,4.000000*%
%ADD15C,2.200000*%
%ADD16C,1.600000*%
%ADD17C,1.400000*%
%ADD18R,1.600000X1.600000*%
%ADD19R,1.524000X1.524000*%
%ADD20R,1.300000X0.800000*%
%ADD21O,1.300000X0.800000*%
%ADD22RoundRect,0.249900X-0.600100X-0.725100X0.600100X-0.725100X0.600100X0.725100X-0.600100X0.725100X0*%
%ADD23O,1.700000X1.950000*%
%ADD24C,0.800000*%
%ADD25C,6.400000*%
%ADD26RotRect,2.500000X1.800000X225.000000*%
%ADD27C,1.000000*%
%ADD28C,2.000000*%
%ADD29R,1.800000X2.500000*%
%ADD30RoundRect,0.218750X0.026517X-0.335876X0.335876X-0.026517X-0.026517X0.335876X-0.335876X0.026517X0*%
G04 APERTURE END LIST*
D10*
X62534600Y-108221400D03*
X61734600Y-107221400D03*
X60934600Y-108221400D03*
X60134600Y-107221400D03*
X59334600Y-108221400D03*
D11*
X64634600Y-107721400D03*
D12*
X58534600Y-109471400D03*
X60934600Y-105971400D03*
X62834600Y-109471400D03*
D11*
X57234600Y-107721400D03*
D13*
X38100000Y-113919000D03*
X38100000Y-111887000D03*
X33020000Y-112903000D03*
D14*
X86224200Y-34317600D03*
X35424200Y-34317600D03*
D15*
X82124200Y-38167600D03*
X39524200Y-38167600D03*
D16*
X45974200Y-29567600D03*
X45974200Y-32067600D03*
X45974200Y-34567600D03*
X45974200Y-37067600D03*
X49674200Y-29567600D03*
X49674200Y-32067600D03*
X49674200Y-34567600D03*
X49674200Y-37067600D03*
X53174200Y-29567600D03*
X53174200Y-32067600D03*
X53174200Y-34567600D03*
X53174200Y-37067600D03*
X55674200Y-29567600D03*
X55674200Y-32067600D03*
X55674200Y-34567600D03*
X55674200Y-37067600D03*
X58174200Y-29567600D03*
X58174200Y-32067600D03*
X58174200Y-34567600D03*
X58174200Y-37067600D03*
X60674200Y-29567600D03*
X60674200Y-32067600D03*
X60674200Y-34567600D03*
X60674200Y-37067600D03*
X63174200Y-29567600D03*
X63174200Y-32067600D03*
X63174200Y-34567600D03*
X63174200Y-37067600D03*
X65674200Y-29567600D03*
X65674200Y-32067600D03*
X65674200Y-34567600D03*
X65674200Y-37067600D03*
X68174200Y-29567600D03*
X68174200Y-32067600D03*
X68174200Y-34567600D03*
X68174200Y-37067600D03*
X70674200Y-29567600D03*
X70674200Y-32067600D03*
X70674200Y-34567600D03*
X70674200Y-37067600D03*
X73174200Y-29567600D03*
X73174200Y-32067600D03*
X73174200Y-34567600D03*
X73174200Y-37067600D03*
X75674200Y-29567600D03*
X75674200Y-32067600D03*
X75674200Y-34567600D03*
X75674200Y-37067600D03*
D17*
X40093000Y-90550400D03*
X44792000Y-101091400D03*
X44792000Y-99313400D03*
X44792000Y-97535400D03*
D18*
X60811000Y-101240000D03*
X58311000Y-101240000D03*
D17*
X73900400Y-69999260D03*
X48475000Y-83819400D03*
X44030000Y-87629400D03*
D19*
X63311000Y-101240000D03*
X65811000Y-101240000D03*
D20*
X69557000Y-87934200D03*
D21*
X69557000Y-86689600D03*
D17*
X84851000Y-82651000D03*
X90851000Y-82651000D03*
D18*
X74103600Y-49145809D03*
D16*
X74103600Y-51685809D03*
X74103600Y-54225809D03*
X74103600Y-56765809D03*
D18*
X96525450Y-63499400D03*
D16*
X96525450Y-66039400D03*
X96525450Y-68579400D03*
X96525450Y-71119400D03*
X96525450Y-73659400D03*
D18*
X51238520Y-110258260D03*
D16*
X51238520Y-107718260D03*
X48698520Y-110258260D03*
X48698520Y-107718260D03*
X46158520Y-110258260D03*
X46158520Y-107718260D03*
X43618520Y-110258260D03*
X43618520Y-107718260D03*
X41078520Y-110258260D03*
X41078520Y-107718260D03*
D18*
X30733100Y-77215400D03*
D16*
X30733100Y-74675400D03*
X33273100Y-77215400D03*
X33273100Y-74675400D03*
X35813100Y-77215400D03*
X35813100Y-74675400D03*
X38353100Y-77215400D03*
X38353100Y-74675400D03*
X40893100Y-77215400D03*
X40893100Y-74675400D03*
D18*
X77558000Y-44246200D03*
X54596400Y-111759400D03*
X66661400Y-111759400D03*
X22211400Y-97789400D03*
D16*
X22211400Y-100329400D03*
X22211400Y-102869400D03*
D18*
X99681400Y-97789400D03*
D16*
X99681400Y-100329400D03*
X99681400Y-102869400D03*
D18*
X99681400Y-90169400D03*
D16*
X99681400Y-92709400D03*
X99681400Y-95249400D03*
D18*
X97014400Y-101091400D03*
D16*
X94474400Y-101091400D03*
X91934400Y-101091400D03*
D18*
X97014400Y-91820400D03*
D16*
X94474400Y-91820400D03*
X91934400Y-91820400D03*
D17*
X30700000Y-24100000D03*
X34200000Y-24100000D03*
X41200000Y-24100000D03*
X37700000Y-24100000D03*
D22*
X59625000Y-97425000D03*
D23*
X62125000Y-97425000D03*
X64625000Y-97425000D03*
X67125000Y-97425000D03*
X69625000Y-97425000D03*
D24*
X26110600Y-42300600D03*
D25*
X28510600Y-42300600D03*
D24*
X30910600Y-42300600D03*
X26813544Y-40603544D03*
X30207656Y-43997656D03*
X30207656Y-40603544D03*
X28510600Y-44700600D03*
X26813544Y-43997656D03*
X28510600Y-39900600D03*
X90100000Y-104568700D03*
X86002944Y-106265756D03*
D25*
X87700000Y-104568700D03*
D24*
X87700000Y-106968700D03*
X86002944Y-102871644D03*
X87700000Y-102168700D03*
X89397056Y-102871644D03*
X89397056Y-106265756D03*
X85300000Y-104568700D03*
X93150000Y-44700000D03*
X94847056Y-43997056D03*
X90750000Y-42300000D03*
X91452944Y-40602944D03*
D25*
X93150000Y-42300000D03*
D24*
X91452944Y-43997056D03*
X94847056Y-40602944D03*
X93150000Y-39900000D03*
X95550000Y-42300000D03*
D25*
X34021500Y-104568700D03*
D24*
X34021500Y-102168700D03*
X35718556Y-106265756D03*
X36421500Y-104568700D03*
X32324444Y-106265756D03*
X31621500Y-104568700D03*
X35718556Y-102871644D03*
X34021500Y-106968700D03*
X32324444Y-102871644D03*
D26*
X93414214Y-28485786D03*
X90585786Y-31314214D03*
X91614214Y-25285786D03*
X88785786Y-28114214D03*
D27*
X91084400Y-58648600D03*
X60350000Y-65450000D03*
D28*
X47879000Y-67183000D03*
D29*
X41200000Y-30500000D03*
X41200000Y-26500000D03*
X34200000Y-30500000D03*
X34200000Y-26500000D03*
X30700000Y-30500000D03*
X30700000Y-26500000D03*
X37700000Y-30500000D03*
X37700000Y-26500000D03*
D17*
X91350000Y-76400000D03*
X75650000Y-60400000D03*
D30*
X59443153Y-27856847D03*
X60556847Y-26743153D03*
X55043153Y-27556847D03*
X56156847Y-26443153D03*
X57243153Y-27656847D03*
X58356847Y-26543153D03*
X53086306Y-27413694D03*
X54200000Y-26300000D03*
M02*
