G04 #@! TF.GenerationSoftware,KiCad,Pcbnew,(5.1.0-rc2-21-g16b3c80a7)*
G04 #@! TF.CreationDate,2019-06-05T23:58:20+02:00*
G04 #@! TF.ProjectId,microRusEfi,6d696372-6f52-4757-9345-66692e6b6963,R0.1*
G04 #@! TF.SameCoordinates,Original*
G04 #@! TF.FileFunction,Legend,Top*
G04 #@! TF.FilePolarity,Positive*
%FSLAX46Y46*%
G04 Gerber Fmt 4.6, Leading zero omitted, Abs format (unit mm)*
G04 Created by KiCad (PCBNEW (5.1.0-rc2-21-g16b3c80a7)) date 2019-06-05 23:58:20*
%MOMM*%
%LPD*%
G04 APERTURE LIST*
%ADD10C,0.130000*%
%ADD11C,0.200000*%
%ADD12C,0.160000*%
%ADD13C,0.250000*%
%ADD14C,0.100000*%
%ADD15C,0.120000*%
%ADD16C,0.150000*%
G04 APERTURE END LIST*
D10*
X65043119Y-64547714D02*
X65005023Y-64585809D01*
X64890738Y-64623904D01*
X64814547Y-64623904D01*
X64700261Y-64585809D01*
X64624071Y-64509619D01*
X64585976Y-64433428D01*
X64547880Y-64281047D01*
X64547880Y-64166761D01*
X64585976Y-64014380D01*
X64624071Y-63938190D01*
X64700261Y-63862000D01*
X64814547Y-63823904D01*
X64890738Y-63823904D01*
X65005023Y-63862000D01*
X65043119Y-63900095D01*
X65347880Y-64395333D02*
X65728833Y-64395333D01*
X65271690Y-64623904D02*
X65538357Y-63823904D01*
X65805023Y-64623904D01*
X66071690Y-64623904D02*
X66071690Y-63823904D01*
X66338357Y-64395333D01*
X66605023Y-63823904D01*
X66605023Y-64623904D01*
X64420914Y-72675714D02*
X64382819Y-72713809D01*
X64268533Y-72751904D01*
X64192342Y-72751904D01*
X64078057Y-72713809D01*
X64001866Y-72637619D01*
X63963771Y-72561428D01*
X63925676Y-72409047D01*
X63925676Y-72294761D01*
X63963771Y-72142380D01*
X64001866Y-72066190D01*
X64078057Y-71990000D01*
X64192342Y-71951904D01*
X64268533Y-71951904D01*
X64382819Y-71990000D01*
X64420914Y-72028095D01*
X65220914Y-72751904D02*
X64954247Y-72370952D01*
X64763771Y-72751904D02*
X64763771Y-71951904D01*
X65068533Y-71951904D01*
X65144723Y-71990000D01*
X65182819Y-72028095D01*
X65220914Y-72104285D01*
X65220914Y-72218571D01*
X65182819Y-72294761D01*
X65144723Y-72332857D01*
X65068533Y-72370952D01*
X64763771Y-72370952D01*
X65525676Y-72523333D02*
X65906628Y-72523333D01*
X65449485Y-72751904D02*
X65716152Y-71951904D01*
X65982819Y-72751904D01*
X66249485Y-72751904D02*
X66249485Y-71951904D01*
X66706628Y-72751904D01*
X66706628Y-71951904D01*
X67087580Y-72751904D02*
X67087580Y-71951904D01*
X67544723Y-72751904D02*
X67201866Y-72294761D01*
X67544723Y-71951904D02*
X67087580Y-72409047D01*
D11*
X20600000Y-35538500D02*
X25895900Y-20600000D01*
X32844596Y-116072400D02*
X20601600Y-104381342D01*
X101188000Y-35538500D02*
X95841300Y-20600000D01*
X101189600Y-104381342D02*
X88946604Y-116072400D01*
D10*
X33833866Y-115119104D02*
X33567200Y-114738152D01*
X33376723Y-115119104D02*
X33376723Y-114319104D01*
X33681485Y-114319104D01*
X33757676Y-114357200D01*
X33795771Y-114395295D01*
X33833866Y-114471485D01*
X33833866Y-114585771D01*
X33795771Y-114661961D01*
X33757676Y-114700057D01*
X33681485Y-114738152D01*
X33376723Y-114738152D01*
X34176723Y-114319104D02*
X34176723Y-114966723D01*
X34214819Y-115042914D01*
X34252914Y-115081009D01*
X34329104Y-115119104D01*
X34481485Y-115119104D01*
X34557676Y-115081009D01*
X34595771Y-115042914D01*
X34633866Y-114966723D01*
X34633866Y-114319104D01*
X35014819Y-114319104D02*
X35014819Y-114966723D01*
X35052914Y-115042914D01*
X35091009Y-115081009D01*
X35167200Y-115119104D01*
X35319580Y-115119104D01*
X35395771Y-115081009D01*
X35433866Y-115042914D01*
X35471961Y-114966723D01*
X35471961Y-114319104D01*
X35852914Y-115119104D02*
X35852914Y-114319104D01*
X36043390Y-114319104D01*
X36157676Y-114357200D01*
X36233866Y-114433390D01*
X36271961Y-114509580D01*
X36310057Y-114661961D01*
X36310057Y-114776247D01*
X36271961Y-114928628D01*
X36233866Y-115004819D01*
X36157676Y-115081009D01*
X36043390Y-115119104D01*
X35852914Y-115119104D01*
X37719580Y-115042914D02*
X37681485Y-115081009D01*
X37567200Y-115119104D01*
X37491009Y-115119104D01*
X37376723Y-115081009D01*
X37300533Y-115004819D01*
X37262438Y-114928628D01*
X37224342Y-114776247D01*
X37224342Y-114661961D01*
X37262438Y-114509580D01*
X37300533Y-114433390D01*
X37376723Y-114357200D01*
X37491009Y-114319104D01*
X37567200Y-114319104D01*
X37681485Y-114357200D01*
X37719580Y-114395295D01*
X38024342Y-114890533D02*
X38405295Y-114890533D01*
X37948152Y-115119104D02*
X38214819Y-114319104D01*
X38481485Y-115119104D01*
X39205295Y-115119104D02*
X38938628Y-114738152D01*
X38748152Y-115119104D02*
X38748152Y-114319104D01*
X39052914Y-114319104D01*
X39129104Y-114357200D01*
X39167200Y-114395295D01*
X39205295Y-114471485D01*
X39205295Y-114585771D01*
X39167200Y-114661961D01*
X39129104Y-114700057D01*
X39052914Y-114738152D01*
X38748152Y-114738152D01*
X40157676Y-114700057D02*
X40424342Y-114700057D01*
X40538628Y-115119104D02*
X40157676Y-115119104D01*
X40157676Y-114319104D01*
X40538628Y-114319104D01*
X41262438Y-115119104D02*
X40881485Y-115119104D01*
X40881485Y-114319104D01*
X41529104Y-114700057D02*
X41795771Y-114700057D01*
X41910057Y-115119104D02*
X41529104Y-115119104D01*
X41529104Y-114319104D01*
X41910057Y-114319104D01*
X42710057Y-115042914D02*
X42671961Y-115081009D01*
X42557676Y-115119104D01*
X42481485Y-115119104D01*
X42367200Y-115081009D01*
X42291009Y-115004819D01*
X42252914Y-114928628D01*
X42214819Y-114776247D01*
X42214819Y-114661961D01*
X42252914Y-114509580D01*
X42291009Y-114433390D01*
X42367200Y-114357200D01*
X42481485Y-114319104D01*
X42557676Y-114319104D01*
X42671961Y-114357200D01*
X42710057Y-114395295D01*
X42938628Y-114319104D02*
X43395771Y-114319104D01*
X43167200Y-115119104D02*
X43167200Y-114319104D01*
X44119580Y-115119104D02*
X43852914Y-114738152D01*
X43662438Y-115119104D02*
X43662438Y-114319104D01*
X43967200Y-114319104D01*
X44043390Y-114357200D01*
X44081485Y-114395295D01*
X44119580Y-114471485D01*
X44119580Y-114585771D01*
X44081485Y-114661961D01*
X44043390Y-114700057D01*
X43967200Y-114738152D01*
X43662438Y-114738152D01*
X44614819Y-114319104D02*
X44767200Y-114319104D01*
X44843390Y-114357200D01*
X44919580Y-114433390D01*
X44957676Y-114585771D01*
X44957676Y-114852438D01*
X44919580Y-115004819D01*
X44843390Y-115081009D01*
X44767200Y-115119104D01*
X44614819Y-115119104D01*
X44538628Y-115081009D01*
X44462438Y-115004819D01*
X44424342Y-114852438D01*
X44424342Y-114585771D01*
X44462438Y-114433390D01*
X44538628Y-114357200D01*
X44614819Y-114319104D01*
X45300533Y-115119104D02*
X45300533Y-114319104D01*
X45757676Y-115119104D01*
X45757676Y-114319104D01*
X46138628Y-115119104D02*
X46138628Y-114319104D01*
X46976723Y-115042914D02*
X46938628Y-115081009D01*
X46824342Y-115119104D01*
X46748152Y-115119104D01*
X46633866Y-115081009D01*
X46557676Y-115004819D01*
X46519580Y-114928628D01*
X46481485Y-114776247D01*
X46481485Y-114661961D01*
X46519580Y-114509580D01*
X46557676Y-114433390D01*
X46633866Y-114357200D01*
X46748152Y-114319104D01*
X46824342Y-114319104D01*
X46938628Y-114357200D01*
X46976723Y-114395295D01*
X47281485Y-115081009D02*
X47395771Y-115119104D01*
X47586247Y-115119104D01*
X47662438Y-115081009D01*
X47700533Y-115042914D01*
X47738628Y-114966723D01*
X47738628Y-114890533D01*
X47700533Y-114814342D01*
X47662438Y-114776247D01*
X47586247Y-114738152D01*
X47433866Y-114700057D01*
X47357676Y-114661961D01*
X47319580Y-114623866D01*
X47281485Y-114547676D01*
X47281485Y-114471485D01*
X47319580Y-114395295D01*
X47357676Y-114357200D01*
X47433866Y-114319104D01*
X47624342Y-114319104D01*
X47738628Y-114357200D01*
X48652914Y-114395295D02*
X48691009Y-114357200D01*
X48767200Y-114319104D01*
X48957676Y-114319104D01*
X49033866Y-114357200D01*
X49071961Y-114395295D01*
X49110057Y-114471485D01*
X49110057Y-114547676D01*
X49071961Y-114661961D01*
X48614819Y-115119104D01*
X49110057Y-115119104D01*
X49605295Y-114319104D02*
X49681485Y-114319104D01*
X49757676Y-114357200D01*
X49795771Y-114395295D01*
X49833866Y-114471485D01*
X49871961Y-114623866D01*
X49871961Y-114814342D01*
X49833866Y-114966723D01*
X49795771Y-115042914D01*
X49757676Y-115081009D01*
X49681485Y-115119104D01*
X49605295Y-115119104D01*
X49529104Y-115081009D01*
X49491009Y-115042914D01*
X49452914Y-114966723D01*
X49414819Y-114814342D01*
X49414819Y-114623866D01*
X49452914Y-114471485D01*
X49491009Y-114395295D01*
X49529104Y-114357200D01*
X49605295Y-114319104D01*
X50633866Y-115119104D02*
X50176723Y-115119104D01*
X50405295Y-115119104D02*
X50405295Y-114319104D01*
X50329104Y-114433390D01*
X50252914Y-114509580D01*
X50176723Y-114547676D01*
X51014819Y-115119104D02*
X51167200Y-115119104D01*
X51243390Y-115081009D01*
X51281485Y-115042914D01*
X51357676Y-114928628D01*
X51395771Y-114776247D01*
X51395771Y-114471485D01*
X51357676Y-114395295D01*
X51319580Y-114357200D01*
X51243390Y-114319104D01*
X51091009Y-114319104D01*
X51014819Y-114357200D01*
X50976723Y-114395295D01*
X50938628Y-114471485D01*
X50938628Y-114661961D01*
X50976723Y-114738152D01*
X51014819Y-114776247D01*
X51091009Y-114814342D01*
X51243390Y-114814342D01*
X51319580Y-114776247D01*
X51357676Y-114738152D01*
X51395771Y-114661961D01*
D11*
X69912238Y-114262609D02*
X69912238Y-113195942D01*
X69912238Y-113348323D02*
X69988428Y-113272133D01*
X70140809Y-113195942D01*
X70369380Y-113195942D01*
X70521761Y-113272133D01*
X70597952Y-113424514D01*
X70597952Y-114262609D01*
X70597952Y-113424514D02*
X70674142Y-113272133D01*
X70826523Y-113195942D01*
X71055095Y-113195942D01*
X71207476Y-113272133D01*
X71283666Y-113424514D01*
X71283666Y-114262609D01*
X72045571Y-114262609D02*
X72045571Y-113195942D01*
X72045571Y-112662609D02*
X71969380Y-112738800D01*
X72045571Y-112814990D01*
X72121761Y-112738800D01*
X72045571Y-112662609D01*
X72045571Y-112814990D01*
X73493190Y-114186419D02*
X73340809Y-114262609D01*
X73036047Y-114262609D01*
X72883666Y-114186419D01*
X72807476Y-114110228D01*
X72731285Y-113957847D01*
X72731285Y-113500704D01*
X72807476Y-113348323D01*
X72883666Y-113272133D01*
X73036047Y-113195942D01*
X73340809Y-113195942D01*
X73493190Y-113272133D01*
X74178904Y-114262609D02*
X74178904Y-113195942D01*
X74178904Y-113500704D02*
X74255095Y-113348323D01*
X74331285Y-113272133D01*
X74483666Y-113195942D01*
X74636047Y-113195942D01*
X75397952Y-114262609D02*
X75245571Y-114186419D01*
X75169380Y-114110228D01*
X75093190Y-113957847D01*
X75093190Y-113500704D01*
X75169380Y-113348323D01*
X75245571Y-113272133D01*
X75397952Y-113195942D01*
X75626523Y-113195942D01*
X75778904Y-113272133D01*
X75855095Y-113348323D01*
X75931285Y-113500704D01*
X75931285Y-113957847D01*
X75855095Y-114110228D01*
X75778904Y-114186419D01*
X75626523Y-114262609D01*
X75397952Y-114262609D01*
X77531285Y-114262609D02*
X76997952Y-113500704D01*
X76617000Y-114262609D02*
X76617000Y-112662609D01*
X77226523Y-112662609D01*
X77378904Y-112738800D01*
X77455095Y-112814990D01*
X77531285Y-112967371D01*
X77531285Y-113195942D01*
X77455095Y-113348323D01*
X77378904Y-113424514D01*
X77226523Y-113500704D01*
X76617000Y-113500704D01*
X78902714Y-113195942D02*
X78902714Y-114262609D01*
X78217000Y-113195942D02*
X78217000Y-114034038D01*
X78293190Y-114186419D01*
X78445571Y-114262609D01*
X78674142Y-114262609D01*
X78826523Y-114186419D01*
X78902714Y-114110228D01*
X79588428Y-114186419D02*
X79740809Y-114262609D01*
X80045571Y-114262609D01*
X80197952Y-114186419D01*
X80274142Y-114034038D01*
X80274142Y-113957847D01*
X80197952Y-113805466D01*
X80045571Y-113729276D01*
X79817000Y-113729276D01*
X79664619Y-113653085D01*
X79588428Y-113500704D01*
X79588428Y-113424514D01*
X79664619Y-113272133D01*
X79817000Y-113195942D01*
X80045571Y-113195942D01*
X80197952Y-113272133D01*
X80959857Y-113424514D02*
X81493190Y-113424514D01*
X81721761Y-114262609D02*
X80959857Y-114262609D01*
X80959857Y-112662609D01*
X81721761Y-112662609D01*
X82178904Y-113195942D02*
X82788428Y-113195942D01*
X82407476Y-114262609D02*
X82407476Y-112891180D01*
X82483666Y-112738800D01*
X82636047Y-112662609D01*
X82788428Y-112662609D01*
X83321761Y-114262609D02*
X83321761Y-113195942D01*
X83321761Y-112662609D02*
X83245571Y-112738800D01*
X83321761Y-112814990D01*
X83397952Y-112738800D01*
X83321761Y-112662609D01*
X83321761Y-112814990D01*
X85074142Y-112662609D02*
X85607476Y-114262609D01*
X86140809Y-112662609D01*
X86978904Y-112662609D02*
X87131285Y-112662609D01*
X87283666Y-112738800D01*
X87359857Y-112814990D01*
X87436047Y-112967371D01*
X87512238Y-113272133D01*
X87512238Y-113653085D01*
X87436047Y-113957847D01*
X87359857Y-114110228D01*
X87283666Y-114186419D01*
X87131285Y-114262609D01*
X86978904Y-114262609D01*
X86826523Y-114186419D01*
X86750333Y-114110228D01*
X86674142Y-113957847D01*
X86597952Y-113653085D01*
X86597952Y-113272133D01*
X86674142Y-112967371D01*
X86750333Y-112814990D01*
X86826523Y-112738800D01*
X86978904Y-112662609D01*
X88197952Y-114110228D02*
X88274142Y-114186419D01*
X88197952Y-114262609D01*
X88121761Y-114186419D01*
X88197952Y-114110228D01*
X88197952Y-114262609D01*
X89797952Y-114262609D02*
X88883666Y-114262609D01*
X89340809Y-114262609D02*
X89340809Y-112662609D01*
X89188428Y-112891180D01*
X89036047Y-113043561D01*
X88883666Y-113119752D01*
X25895900Y-20600000D02*
X95841300Y-20600000D01*
D12*
X78242228Y-103140757D02*
X77670800Y-103140757D01*
X77613657Y-103712185D01*
X77670800Y-103655042D01*
X77785085Y-103597900D01*
X78070800Y-103597900D01*
X78185085Y-103655042D01*
X78242228Y-103712185D01*
X78299371Y-103826471D01*
X78299371Y-104112185D01*
X78242228Y-104226471D01*
X78185085Y-104283614D01*
X78070800Y-104340757D01*
X77785085Y-104340757D01*
X77670800Y-104283614D01*
X77613657Y-104226471D01*
X78642228Y-103140757D02*
X79042228Y-104340757D01*
X79442228Y-103140757D01*
D13*
X91501000Y-55499800D02*
X91501000Y-45974800D01*
X78801000Y-55499800D02*
X91501000Y-55499800D01*
X78801000Y-44577800D02*
X78801000Y-55499800D01*
X78801000Y-44577800D02*
X89850000Y-44577800D01*
D11*
X101188000Y-35538500D02*
X101189600Y-104381342D01*
X20600000Y-35538500D02*
X20601600Y-104381342D01*
D10*
X30784819Y-59213804D02*
X30403866Y-59213804D01*
X30365771Y-59594757D01*
X30403866Y-59556661D01*
X30480057Y-59518566D01*
X30670533Y-59518566D01*
X30746723Y-59556661D01*
X30784819Y-59594757D01*
X30822914Y-59670947D01*
X30822914Y-59861423D01*
X30784819Y-59937614D01*
X30746723Y-59975709D01*
X30670533Y-60013804D01*
X30480057Y-60013804D01*
X30403866Y-59975709D01*
X30365771Y-59937614D01*
X31051485Y-59213804D02*
X31318152Y-60013804D01*
X31584819Y-59213804D01*
D11*
X84085800Y-99870300D02*
G75*
G03X84085800Y-99870300I-1638300J0D01*
G01*
X32844596Y-116072400D02*
X88946604Y-116072400D01*
X27926400Y-49959301D02*
G75*
G03X27926400Y-49959301I-1638300J0D01*
G01*
X89521400Y-104569300D02*
G75*
G03X89521400Y-104569300I-1790700J0D01*
G01*
X95020499Y-42301200D02*
G75*
G03X95020499Y-42301200I-1790700J0D01*
G01*
X30352101Y-42301200D02*
G75*
G03X30352101Y-42301200I-1790700J0D01*
G01*
X35851200Y-104569300D02*
G75*
G03X35851200Y-104569300I-1790700J0D01*
G01*
D12*
X71638314Y-103096300D02*
X71524028Y-103039157D01*
X71352600Y-103039157D01*
X71181171Y-103096300D01*
X71066885Y-103210585D01*
X71009742Y-103324871D01*
X70952600Y-103553442D01*
X70952600Y-103724871D01*
X71009742Y-103953442D01*
X71066885Y-104067728D01*
X71181171Y-104182014D01*
X71352600Y-104239157D01*
X71466885Y-104239157D01*
X71638314Y-104182014D01*
X71695457Y-104124871D01*
X71695457Y-103724871D01*
X71466885Y-103724871D01*
X72209742Y-104239157D02*
X72209742Y-103039157D01*
X72895457Y-104239157D01*
X72895457Y-103039157D01*
X73466885Y-104239157D02*
X73466885Y-103039157D01*
X73752600Y-103039157D01*
X73924028Y-103096300D01*
X74038314Y-103210585D01*
X74095457Y-103324871D01*
X74152600Y-103553442D01*
X74152600Y-103724871D01*
X74095457Y-103953442D01*
X74038314Y-104067728D01*
X73924028Y-104182014D01*
X73752600Y-104239157D01*
X73466885Y-104239157D01*
D13*
X33729116Y-47765916D02*
G75*
G03X33729116Y-47765916I-775116J0D01*
G01*
X46885901Y-94044300D02*
G75*
G03X46885901Y-94044300I-546248J0D01*
G01*
X25004451Y-74232300D02*
G75*
G03X25004451Y-74232300I-495951J0D01*
G01*
X76225058Y-60416857D02*
G75*
G03X76225058Y-60416857I-599058J0D01*
G01*
D10*
X78515857Y-43123704D02*
X78973000Y-43123704D01*
X78744428Y-43923704D02*
X78744428Y-43123704D01*
X79696809Y-43923704D02*
X79430142Y-43542752D01*
X79239666Y-43923704D02*
X79239666Y-43123704D01*
X79544428Y-43123704D01*
X79620619Y-43161800D01*
X79658714Y-43199895D01*
X79696809Y-43276085D01*
X79696809Y-43390371D01*
X79658714Y-43466561D01*
X79620619Y-43504657D01*
X79544428Y-43542752D01*
X79239666Y-43542752D01*
X80039666Y-43923704D02*
X80039666Y-43123704D01*
X80839666Y-43161800D02*
X80763476Y-43123704D01*
X80649190Y-43123704D01*
X80534904Y-43161800D01*
X80458714Y-43237990D01*
X80420619Y-43314180D01*
X80382523Y-43466561D01*
X80382523Y-43580847D01*
X80420619Y-43733228D01*
X80458714Y-43809419D01*
X80534904Y-43885609D01*
X80649190Y-43923704D01*
X80725380Y-43923704D01*
X80839666Y-43885609D01*
X80877761Y-43847514D01*
X80877761Y-43580847D01*
X80725380Y-43580847D01*
X81639666Y-43161800D02*
X81563476Y-43123704D01*
X81449190Y-43123704D01*
X81334904Y-43161800D01*
X81258714Y-43237990D01*
X81220619Y-43314180D01*
X81182523Y-43466561D01*
X81182523Y-43580847D01*
X81220619Y-43733228D01*
X81258714Y-43809419D01*
X81334904Y-43885609D01*
X81449190Y-43923704D01*
X81525380Y-43923704D01*
X81639666Y-43885609D01*
X81677761Y-43847514D01*
X81677761Y-43580847D01*
X81525380Y-43580847D01*
X82020619Y-43504657D02*
X82287285Y-43504657D01*
X82401571Y-43923704D02*
X82020619Y-43923704D01*
X82020619Y-43123704D01*
X82401571Y-43123704D01*
X83201571Y-43923704D02*
X82934904Y-43542752D01*
X82744428Y-43923704D02*
X82744428Y-43123704D01*
X83049190Y-43123704D01*
X83125380Y-43161800D01*
X83163476Y-43199895D01*
X83201571Y-43276085D01*
X83201571Y-43390371D01*
X83163476Y-43466561D01*
X83125380Y-43504657D01*
X83049190Y-43542752D01*
X82744428Y-43542752D01*
X84611095Y-43847514D02*
X84573000Y-43885609D01*
X84458714Y-43923704D01*
X84382523Y-43923704D01*
X84268238Y-43885609D01*
X84192047Y-43809419D01*
X84153952Y-43733228D01*
X84115857Y-43580847D01*
X84115857Y-43466561D01*
X84153952Y-43314180D01*
X84192047Y-43237990D01*
X84268238Y-43161800D01*
X84382523Y-43123704D01*
X84458714Y-43123704D01*
X84573000Y-43161800D01*
X84611095Y-43199895D01*
X85106333Y-43123704D02*
X85258714Y-43123704D01*
X85334904Y-43161800D01*
X85411095Y-43237990D01*
X85449190Y-43390371D01*
X85449190Y-43657038D01*
X85411095Y-43809419D01*
X85334904Y-43885609D01*
X85258714Y-43923704D01*
X85106333Y-43923704D01*
X85030142Y-43885609D01*
X84953952Y-43809419D01*
X84915857Y-43657038D01*
X84915857Y-43390371D01*
X84953952Y-43237990D01*
X85030142Y-43161800D01*
X85106333Y-43123704D01*
X85792047Y-43923704D02*
X85792047Y-43123704D01*
X86249190Y-43923704D01*
X86249190Y-43123704D01*
X86896809Y-43504657D02*
X86630142Y-43504657D01*
X86630142Y-43923704D02*
X86630142Y-43123704D01*
X87011095Y-43123704D01*
X87315857Y-43923704D02*
X87315857Y-43123704D01*
X88115857Y-43161800D02*
X88039666Y-43123704D01*
X87925380Y-43123704D01*
X87811095Y-43161800D01*
X87734904Y-43237990D01*
X87696809Y-43314180D01*
X87658714Y-43466561D01*
X87658714Y-43580847D01*
X87696809Y-43733228D01*
X87734904Y-43809419D01*
X87811095Y-43885609D01*
X87925380Y-43923704D01*
X88001571Y-43923704D01*
X88115857Y-43885609D01*
X88153952Y-43847514D01*
X88153952Y-43580847D01*
X88001571Y-43580847D01*
X24115476Y-56911204D02*
X24115476Y-56111204D01*
X24115476Y-56492157D02*
X24572619Y-56492157D01*
X24572619Y-56911204D02*
X24572619Y-56111204D01*
X24953571Y-56911204D02*
X24953571Y-56111204D01*
X25753571Y-56149300D02*
X25677380Y-56111204D01*
X25563095Y-56111204D01*
X25448809Y-56149300D01*
X25372619Y-56225490D01*
X25334523Y-56301680D01*
X25296428Y-56454061D01*
X25296428Y-56568347D01*
X25334523Y-56720728D01*
X25372619Y-56796919D01*
X25448809Y-56873109D01*
X25563095Y-56911204D01*
X25639285Y-56911204D01*
X25753571Y-56873109D01*
X25791666Y-56835014D01*
X25791666Y-56568347D01*
X25639285Y-56568347D01*
X26134523Y-56911204D02*
X26134523Y-56111204D01*
X26134523Y-56492157D02*
X26591666Y-56492157D01*
X26591666Y-56911204D02*
X26591666Y-56111204D01*
X26972619Y-56606442D02*
X27582142Y-56606442D01*
X27925000Y-56873109D02*
X28039285Y-56911204D01*
X28229761Y-56911204D01*
X28305952Y-56873109D01*
X28344047Y-56835014D01*
X28382142Y-56758823D01*
X28382142Y-56682633D01*
X28344047Y-56606442D01*
X28305952Y-56568347D01*
X28229761Y-56530252D01*
X28077380Y-56492157D01*
X28001190Y-56454061D01*
X27963095Y-56415966D01*
X27925000Y-56339776D01*
X27925000Y-56263585D01*
X27963095Y-56187395D01*
X28001190Y-56149300D01*
X28077380Y-56111204D01*
X28267857Y-56111204D01*
X28382142Y-56149300D01*
X28725000Y-56911204D02*
X28725000Y-56111204D01*
X29105952Y-56911204D02*
X29105952Y-56111204D01*
X29296428Y-56111204D01*
X29410714Y-56149300D01*
X29486904Y-56225490D01*
X29525000Y-56301680D01*
X29563095Y-56454061D01*
X29563095Y-56568347D01*
X29525000Y-56720728D01*
X29486904Y-56796919D01*
X29410714Y-56873109D01*
X29296428Y-56911204D01*
X29105952Y-56911204D01*
X29905952Y-56492157D02*
X30172619Y-56492157D01*
X30286904Y-56911204D02*
X29905952Y-56911204D01*
X29905952Y-56111204D01*
X30286904Y-56111204D01*
X31620238Y-56911204D02*
X31239285Y-56911204D01*
X31239285Y-56111204D01*
X32039285Y-56111204D02*
X32191666Y-56111204D01*
X32267857Y-56149300D01*
X32344047Y-56225490D01*
X32382142Y-56377871D01*
X32382142Y-56644538D01*
X32344047Y-56796919D01*
X32267857Y-56873109D01*
X32191666Y-56911204D01*
X32039285Y-56911204D01*
X31963095Y-56873109D01*
X31886904Y-56796919D01*
X31848809Y-56644538D01*
X31848809Y-56377871D01*
X31886904Y-56225490D01*
X31963095Y-56149300D01*
X32039285Y-56111204D01*
X33144047Y-56149300D02*
X33067857Y-56111204D01*
X32953571Y-56111204D01*
X32839285Y-56149300D01*
X32763095Y-56225490D01*
X32725000Y-56301680D01*
X32686904Y-56454061D01*
X32686904Y-56568347D01*
X32725000Y-56720728D01*
X32763095Y-56796919D01*
X32839285Y-56873109D01*
X32953571Y-56911204D01*
X33029761Y-56911204D01*
X33144047Y-56873109D01*
X33182142Y-56835014D01*
X33182142Y-56568347D01*
X33029761Y-56568347D01*
X33525000Y-56911204D02*
X33525000Y-56111204D01*
X34363095Y-56835014D02*
X34325000Y-56873109D01*
X34210714Y-56911204D01*
X34134523Y-56911204D01*
X34020238Y-56873109D01*
X33944047Y-56796919D01*
X33905952Y-56720728D01*
X33867857Y-56568347D01*
X33867857Y-56454061D01*
X33905952Y-56301680D01*
X33944047Y-56225490D01*
X34020238Y-56149300D01*
X34134523Y-56111204D01*
X34210714Y-56111204D01*
X34325000Y-56149300D01*
X34363095Y-56187395D01*
X28382142Y-58241204D02*
X28001190Y-58241204D01*
X28001190Y-57441204D01*
X28648809Y-57822157D02*
X28915476Y-57822157D01*
X29029761Y-58241204D02*
X28648809Y-58241204D01*
X28648809Y-57441204D01*
X29029761Y-57441204D01*
X29258333Y-57441204D02*
X29525000Y-58241204D01*
X29791666Y-57441204D01*
X30058333Y-57822157D02*
X30325000Y-57822157D01*
X30439285Y-58241204D02*
X30058333Y-58241204D01*
X30058333Y-57441204D01*
X30439285Y-57441204D01*
X31163095Y-58241204D02*
X30782142Y-58241204D01*
X30782142Y-57441204D01*
X27355861Y-59988404D02*
X26898719Y-59988404D01*
X27127290Y-59988404D02*
X27127290Y-59188404D01*
X27051100Y-59302690D01*
X26974909Y-59378880D01*
X26898719Y-59416976D01*
X27660623Y-59264595D02*
X27698719Y-59226500D01*
X27774909Y-59188404D01*
X27965385Y-59188404D01*
X28041576Y-59226500D01*
X28079671Y-59264595D01*
X28117766Y-59340785D01*
X28117766Y-59416976D01*
X28079671Y-59531261D01*
X27622528Y-59988404D01*
X28117766Y-59988404D01*
X28346338Y-59188404D02*
X28613004Y-59988404D01*
X28879671Y-59188404D01*
D13*
X91661533Y-104615268D02*
G75*
G03X91661533Y-104615268I-3970533J0D01*
G01*
X37584301Y-104590500D02*
G75*
G03X37584301Y-104590500I-3487301J0D01*
G01*
X32570963Y-42293837D02*
G75*
G03X32570963Y-42293837I-3998463J0D01*
G01*
X97322709Y-42306308D02*
G75*
G03X97322709Y-42306308I-4043709J0D01*
G01*
D14*
X38139500Y-96456500D02*
G75*
G03X38139500Y-96456500I-50000J0D01*
G01*
X38139500Y-95440500D02*
G75*
G03X38139500Y-95440500I-50000J0D01*
G01*
X38139500Y-93408500D02*
G75*
G03X38139500Y-93408500I-50000J0D01*
G01*
X38139500Y-94424500D02*
G75*
G03X38139500Y-94424500I-50000J0D01*
G01*
D15*
X40049267Y-88136000D02*
X39706733Y-88136000D01*
X40049267Y-89156000D02*
X39706733Y-89156000D01*
X66732000Y-66230500D02*
G75*
G03X66732000Y-66230500I-1200000J0D01*
G01*
X67022800Y-74345800D02*
G75*
G03X67022800Y-74345800I-1200000J0D01*
G01*
D16*
X70407300Y-90314300D02*
X68882300Y-90314300D01*
X70407300Y-100689300D02*
X78157300Y-100689300D01*
X70407300Y-90039300D02*
X78157300Y-90039300D01*
X70407300Y-100689300D02*
X70407300Y-100334300D01*
X78157300Y-100689300D02*
X78157300Y-100334300D01*
X78157300Y-90039300D02*
X78157300Y-90394300D01*
X70407300Y-90039300D02*
X70407300Y-90314300D01*
D15*
X27438533Y-61597000D02*
X27781067Y-61597000D01*
X27438533Y-60577000D02*
X27781067Y-60577000D01*
X30791333Y-61597000D02*
X31133867Y-61597000D01*
X30791333Y-60577000D02*
X31133867Y-60577000D01*
X25760800Y-90901000D02*
X25760800Y-92161000D01*
X25760800Y-97721000D02*
X25760800Y-96461000D01*
X29520800Y-90901000D02*
X25760800Y-90901000D01*
X31770800Y-97721000D02*
X25760800Y-97721000D01*
X62782267Y-42822400D02*
X62439733Y-42822400D01*
X62782267Y-43842400D02*
X62439733Y-43842400D01*
X62414333Y-42318400D02*
X62756867Y-42318400D01*
X62414333Y-41298400D02*
X62756867Y-41298400D01*
X62782267Y-44346400D02*
X62439733Y-44346400D01*
X62782267Y-45366400D02*
X62439733Y-45366400D01*
X37974000Y-111592200D02*
X37974000Y-106392200D01*
X37974000Y-106392200D02*
X38544000Y-106392200D01*
X40064000Y-106392200D02*
X41084000Y-106392200D01*
X42604000Y-106392200D02*
X43624000Y-106392200D01*
X45144000Y-106392200D02*
X46164000Y-106392200D01*
X47684000Y-106392200D02*
X48704000Y-106392200D01*
X50224000Y-106392200D02*
X50794000Y-106392200D01*
X50794000Y-111592200D02*
X50794000Y-106392200D01*
X37974000Y-111592200D02*
X38544000Y-111592200D01*
X40064000Y-111592200D02*
X41084000Y-111592200D01*
X42604000Y-111592200D02*
X43624000Y-111592200D01*
X45144000Y-111592200D02*
X46164000Y-111592200D01*
X47684000Y-111592200D02*
X48704000Y-111592200D01*
X50224000Y-111592200D02*
X50794000Y-111592200D01*
X38544000Y-106392200D02*
X38544000Y-105032200D01*
D11*
X95832000Y-16372200D02*
X95832000Y-28855200D01*
X25832000Y-16372200D02*
X25832000Y-28855200D01*
X95832000Y-16372200D02*
X25832000Y-16372200D01*
D15*
X27525936Y-100148600D02*
X28730064Y-100148600D01*
X27525936Y-98328600D02*
X28730064Y-98328600D01*
X27387733Y-103888000D02*
X27730267Y-103888000D01*
X27387733Y-102868000D02*
X27730267Y-102868000D01*
X85131767Y-46675300D02*
X84789233Y-46675300D01*
X85131767Y-45655300D02*
X84789233Y-45655300D01*
X85131767Y-48199300D02*
X84789233Y-48199300D01*
X85131767Y-47179300D02*
X84789233Y-47179300D01*
X61196800Y-79874600D02*
X61196800Y-79174600D01*
X61196800Y-79174600D02*
X60496800Y-79174600D01*
X61196800Y-92694600D02*
X61196800Y-93394600D01*
X61196800Y-93394600D02*
X60496800Y-93394600D01*
X46976800Y-79874600D02*
X46976800Y-79174600D01*
X46976800Y-79174600D02*
X47676800Y-79174600D01*
X46976800Y-92694600D02*
X46976800Y-93394600D01*
X46976800Y-93394600D02*
X47676800Y-93394600D01*
X47676800Y-93394600D02*
X47676800Y-94759600D01*
X65129267Y-102555300D02*
X64786733Y-102555300D01*
X65129267Y-101535300D02*
X64786733Y-101535300D01*
X67944500Y-102636033D02*
X67944500Y-102978567D01*
X66924500Y-102636033D02*
X66924500Y-102978567D01*
X59287267Y-112397800D02*
X58944733Y-112397800D01*
X59287267Y-111377800D02*
X58944733Y-111377800D01*
X43475767Y-89791800D02*
X43133233Y-89791800D01*
X43475767Y-88771800D02*
X43133233Y-88771800D01*
X40148733Y-101471800D02*
X40491267Y-101471800D01*
X40148733Y-102491800D02*
X40491267Y-102491800D01*
X39170267Y-45278300D02*
X38827733Y-45278300D01*
X39170267Y-44258300D02*
X38827733Y-44258300D01*
X29487000Y-89508800D02*
X31947000Y-89508800D01*
X31947000Y-89508800D02*
X31947000Y-88038800D01*
X31947000Y-88038800D02*
X29487000Y-88038800D01*
X65129267Y-104142800D02*
X64786733Y-104142800D01*
X65129267Y-103122800D02*
X64786733Y-103122800D01*
X27730267Y-102364000D02*
X27387733Y-102364000D01*
X27730267Y-101344000D02*
X27387733Y-101344000D01*
X62373733Y-111377800D02*
X62716267Y-111377800D01*
X62373733Y-112397800D02*
X62716267Y-112397800D01*
X50163000Y-97300867D02*
X50163000Y-96958333D01*
X51183000Y-97300867D02*
X51183000Y-96958333D01*
X64748267Y-80774800D02*
X64405733Y-80774800D01*
X64748267Y-79754800D02*
X64405733Y-79754800D01*
X64926067Y-94008200D02*
X64583533Y-94008200D01*
X64926067Y-92988200D02*
X64583533Y-92988200D01*
X48588200Y-97300867D02*
X48588200Y-96958333D01*
X49608200Y-97300867D02*
X49608200Y-96958333D01*
X43715400Y-92589533D02*
X43715400Y-92932067D01*
X42695400Y-92589533D02*
X42695400Y-92932067D01*
X45673233Y-77405300D02*
X46015767Y-77405300D01*
X45673233Y-78425300D02*
X46015767Y-78425300D01*
X48636500Y-75864067D02*
X48636500Y-75521533D01*
X49656500Y-75864067D02*
X49656500Y-75521533D01*
X64659733Y-81532800D02*
X65002267Y-81532800D01*
X64659733Y-82552800D02*
X65002267Y-82552800D01*
X60758800Y-98380733D02*
X60758800Y-98723267D01*
X59738800Y-98380733D02*
X59738800Y-98723267D01*
X52935600Y-98380733D02*
X52935600Y-98723267D01*
X51915600Y-98380733D02*
X51915600Y-98723267D01*
X40148733Y-99947800D02*
X40491267Y-99947800D01*
X40148733Y-100967800D02*
X40491267Y-100967800D01*
X39157767Y-46865800D02*
X38815233Y-46865800D01*
X39157767Y-45845800D02*
X38815233Y-45845800D01*
X73813500Y-50745300D02*
X73813500Y-51745300D01*
X70453500Y-50745300D02*
X70453500Y-51745300D01*
X68231000Y-45204800D02*
X68231000Y-44204800D01*
X71591000Y-45204800D02*
X71591000Y-44204800D01*
X66988000Y-47364300D02*
X66988000Y-46434300D01*
X66988000Y-44204300D02*
X66988000Y-45134300D01*
X66988000Y-44204300D02*
X64828000Y-44204300D01*
X66988000Y-47364300D02*
X65528000Y-47364300D01*
X66988000Y-43744800D02*
X66988000Y-42814800D01*
X66988000Y-40584800D02*
X66988000Y-41514800D01*
X66988000Y-40584800D02*
X64828000Y-40584800D01*
X66988000Y-43744800D02*
X65528000Y-43744800D01*
X72834000Y-40584800D02*
X72834000Y-41514800D01*
X72834000Y-43744800D02*
X72834000Y-42814800D01*
X72834000Y-43744800D02*
X74994000Y-43744800D01*
X72834000Y-40584800D02*
X74294000Y-40584800D01*
X72834000Y-44204300D02*
X72834000Y-45134300D01*
X72834000Y-47364300D02*
X72834000Y-46434300D01*
X72834000Y-47364300D02*
X74994000Y-47364300D01*
X72834000Y-44204300D02*
X74294000Y-44204300D01*
X67478767Y-48897800D02*
X67136233Y-48897800D01*
X67478767Y-47877800D02*
X67136233Y-47877800D01*
X54382500Y-59000300D02*
X54382500Y-60000300D01*
X51022500Y-59000300D02*
X51022500Y-60000300D01*
X50959000Y-55860100D02*
X50959000Y-54860100D01*
X54319000Y-55860100D02*
X54319000Y-54860100D01*
X65876000Y-58365300D02*
X65876000Y-59365300D01*
X62516000Y-58365300D02*
X62516000Y-59365300D01*
X59627600Y-71078000D02*
X59627600Y-72078000D01*
X56267600Y-71078000D02*
X56267600Y-72078000D01*
X62516000Y-55047300D02*
X62516000Y-54047300D01*
X65876000Y-55047300D02*
X65876000Y-54047300D01*
X56305700Y-67810800D02*
X56305700Y-66810800D01*
X59665700Y-67810800D02*
X59665700Y-66810800D01*
X33887267Y-89283800D02*
X33544733Y-89283800D01*
X33887267Y-88263800D02*
X33544733Y-88263800D01*
X59130500Y-107256800D02*
X59130500Y-106506800D01*
X59130500Y-106506800D02*
X59730500Y-106506800D01*
X58830500Y-106546800D02*
X56520500Y-106546800D01*
X65140500Y-106546800D02*
X65140500Y-110466800D01*
X56520500Y-110466800D02*
X58790500Y-110466800D01*
X56520500Y-106546800D02*
X56520500Y-110466800D01*
X65140500Y-110466800D02*
X62870500Y-110466800D01*
X62830500Y-106546800D02*
X65140500Y-106546800D01*
X62870500Y-109636800D02*
X62870500Y-110466800D01*
X58790500Y-109636800D02*
X58790500Y-110466800D01*
X58790500Y-109636800D02*
X59620500Y-109636800D01*
X62870500Y-109636800D02*
X62040500Y-109636800D01*
X39006500Y-69977800D02*
X39006500Y-68027800D01*
X39006500Y-69977800D02*
X39006500Y-71927800D01*
X33886500Y-69977800D02*
X33886500Y-68027800D01*
X33886500Y-69977800D02*
X33886500Y-73427800D01*
X37972500Y-64383633D02*
X37972500Y-64726167D01*
X36952500Y-64383633D02*
X36952500Y-64726167D01*
X36321500Y-64358233D02*
X36321500Y-64700767D01*
X35301500Y-64358233D02*
X35301500Y-64700767D01*
X39746500Y-76460967D02*
X39746500Y-76118433D01*
X40766500Y-76460967D02*
X40766500Y-76118433D01*
X36698500Y-76460967D02*
X36698500Y-76118433D01*
X37718500Y-76460967D02*
X37718500Y-76118433D01*
X39267900Y-76118433D02*
X39267900Y-76460967D01*
X38247900Y-76118433D02*
X38247900Y-76460967D01*
X36219900Y-76118433D02*
X36219900Y-76460967D01*
X35199900Y-76118433D02*
X35199900Y-76460967D01*
X24447000Y-69616033D02*
X24447000Y-69958567D01*
X23427000Y-69616033D02*
X23427000Y-69958567D01*
X92893200Y-91775400D02*
X91393200Y-91775400D01*
X91393200Y-91775400D02*
X91393200Y-92045400D01*
X91393200Y-92045400D02*
X88563200Y-92045400D01*
X92893200Y-98675400D02*
X91393200Y-98675400D01*
X91393200Y-98675400D02*
X91393200Y-98405400D01*
X91393200Y-98405400D02*
X90293200Y-98405400D01*
X74802600Y-107671400D02*
G75*
G03X74802600Y-107671400I-2250000J0D01*
G01*
X52674000Y-48035067D02*
X52674000Y-47692533D01*
X53694000Y-48035067D02*
X53694000Y-47692533D01*
X51176500Y-48051067D02*
X51176500Y-47708533D01*
X52196500Y-48051067D02*
X52196500Y-47708533D01*
X49735200Y-43746133D02*
X49735200Y-44088667D01*
X48715200Y-43746133D02*
X48715200Y-44088667D01*
X51737800Y-43745333D02*
X51737800Y-44087867D01*
X52757800Y-43745333D02*
X52757800Y-44087867D01*
X54224500Y-48051067D02*
X54224500Y-47708533D01*
X55244500Y-48051067D02*
X55244500Y-47708533D01*
X54792500Y-43745333D02*
X54792500Y-44087867D01*
X55812500Y-43745333D02*
X55812500Y-44087867D01*
X55748500Y-48051067D02*
X55748500Y-47708533D01*
X56768500Y-48051067D02*
X56768500Y-47708533D01*
X58864000Y-43758833D02*
X58864000Y-44101367D01*
X57844000Y-43758833D02*
X57844000Y-44101367D01*
X58799000Y-48024867D02*
X58799000Y-47682333D01*
X59819000Y-48024867D02*
X59819000Y-47682333D01*
X60323000Y-48024867D02*
X60323000Y-47682333D01*
X61343000Y-48024867D02*
X61343000Y-47682333D01*
X29523000Y-50019567D02*
X29523000Y-49677033D01*
X30543000Y-50019567D02*
X30543000Y-49677033D01*
X43768233Y-57021800D02*
X44110767Y-57021800D01*
X43768233Y-58041800D02*
X44110767Y-58041800D01*
X28680267Y-53406300D02*
X28337733Y-53406300D01*
X28680267Y-52386300D02*
X28337733Y-52386300D01*
X51259200Y-43745333D02*
X51259200Y-44087867D01*
X50239200Y-43745333D02*
X50239200Y-44087867D01*
X53261800Y-43745333D02*
X53261800Y-44087867D01*
X54281800Y-43745333D02*
X54281800Y-44087867D01*
X56320000Y-43746133D02*
X56320000Y-44088667D01*
X57340000Y-43746133D02*
X57340000Y-44088667D01*
X60388000Y-43758833D02*
X60388000Y-44101367D01*
X59368000Y-43758833D02*
X59368000Y-44101367D01*
X48128500Y-48051067D02*
X48128500Y-47708533D01*
X49148500Y-48051067D02*
X49148500Y-47708533D01*
X89910000Y-75513000D02*
X90610000Y-75513000D01*
X90610000Y-75513000D02*
X90610000Y-74813000D01*
X77090000Y-75513000D02*
X76390000Y-75513000D01*
X76390000Y-75513000D02*
X76390000Y-74813000D01*
X89910000Y-61293000D02*
X90610000Y-61293000D01*
X90610000Y-61293000D02*
X90610000Y-61993000D01*
X77090000Y-61293000D02*
X76390000Y-61293000D01*
X76390000Y-61293000D02*
X76390000Y-61993000D01*
X76390000Y-61993000D02*
X75025000Y-61993000D01*
X91898600Y-30669600D02*
X91898600Y-28969600D01*
X91898600Y-28969600D02*
X89348600Y-28969600D01*
X91898600Y-30669600D02*
X89348600Y-30669600D01*
X91111200Y-28688400D02*
X91111200Y-26988400D01*
X91111200Y-26988400D02*
X88561200Y-26988400D01*
X91111200Y-28688400D02*
X88561200Y-28688400D01*
X55625500Y-52078300D02*
X55625500Y-53008300D01*
X55625500Y-55238300D02*
X55625500Y-54308300D01*
X55625500Y-55238300D02*
X57785500Y-55238300D01*
X55625500Y-52078300D02*
X57085500Y-52078300D01*
X55625500Y-55888300D02*
X55625500Y-56818300D01*
X55625500Y-59048300D02*
X55625500Y-58118300D01*
X55625500Y-59048300D02*
X57785500Y-59048300D01*
X55625500Y-55888300D02*
X57085500Y-55888300D01*
X55088100Y-70618000D02*
X55088100Y-69688000D01*
X55088100Y-67458000D02*
X55088100Y-68388000D01*
X55088100Y-67458000D02*
X52928100Y-67458000D01*
X55088100Y-70618000D02*
X53628100Y-70618000D01*
X61336500Y-57714800D02*
X61336500Y-56784800D01*
X61336500Y-54554800D02*
X61336500Y-55484800D01*
X61336500Y-54554800D02*
X59176500Y-54554800D01*
X61336500Y-57714800D02*
X59876500Y-57714800D01*
X54858800Y-64234600D02*
X55788800Y-64234600D01*
X58018800Y-64234600D02*
X57088800Y-64234600D01*
X58018800Y-64234600D02*
X58018800Y-62074600D01*
X54858800Y-64234600D02*
X54858800Y-62774600D01*
X61336500Y-54095300D02*
X61336500Y-53165300D01*
X61336500Y-50935300D02*
X61336500Y-51865300D01*
X61336500Y-50935300D02*
X59176500Y-50935300D01*
X61336500Y-54095300D02*
X59876500Y-54095300D01*
X60870600Y-63838500D02*
X60870600Y-64768500D01*
X60870600Y-66998500D02*
X60870600Y-66068500D01*
X60870600Y-66998500D02*
X63030600Y-66998500D01*
X60870600Y-63838500D02*
X62330600Y-63838500D01*
X67055500Y-51125800D02*
X67055500Y-52055800D01*
X67055500Y-54285800D02*
X67055500Y-53355800D01*
X67055500Y-54285800D02*
X69215500Y-54285800D01*
X67055500Y-51125800D02*
X68515500Y-51125800D01*
X60870600Y-67458000D02*
X60870600Y-68388000D01*
X60870600Y-70618000D02*
X60870600Y-69688000D01*
X60870600Y-70618000D02*
X63030600Y-70618000D01*
X60870600Y-67458000D02*
X62330600Y-67458000D01*
X67055500Y-54745300D02*
X67055500Y-55675300D01*
X67055500Y-57905300D02*
X67055500Y-56975300D01*
X67055500Y-57905300D02*
X69215500Y-57905300D01*
X67055500Y-54745300D02*
X68515500Y-54745300D01*
X82188000Y-82635800D02*
X82188000Y-85485800D01*
X82188000Y-91355800D02*
X82188000Y-88505800D01*
X89843563Y-91355800D02*
X82188000Y-91355800D01*
X89843563Y-82635800D02*
X82188000Y-82635800D01*
X90908000Y-83700237D02*
X90908000Y-85485800D01*
X90908000Y-90291363D02*
X90908000Y-88505800D01*
X90908000Y-90291363D02*
X89843563Y-91355800D01*
X90908000Y-83700237D02*
X89843563Y-82635800D01*
X92148000Y-89505800D02*
X91148000Y-89505800D01*
X91648000Y-90005800D02*
X91648000Y-89005800D01*
D16*
X41908600Y-48987500D02*
X40358600Y-48987500D01*
X41908600Y-49337500D02*
X41908600Y-48987500D01*
X41908600Y-55687500D02*
X40358600Y-55687500D01*
X41908600Y-55337500D02*
X41908600Y-55687500D01*
X34108600Y-55687500D02*
X35658600Y-55687500D01*
X34108600Y-55337500D02*
X34108600Y-55687500D01*
X32208600Y-48987500D02*
X35608600Y-48987500D01*
D15*
X49652500Y-48051067D02*
X49652500Y-47708533D01*
X50672500Y-48051067D02*
X50672500Y-47708533D01*
X33337000Y-71838533D02*
X33337000Y-72181067D01*
X32317000Y-71838533D02*
X32317000Y-72181067D01*
X31749500Y-71838533D02*
X31749500Y-72181067D01*
X30729500Y-71838533D02*
X30729500Y-72181067D01*
X28828500Y-64282033D02*
X28828500Y-64624567D01*
X27808500Y-64282033D02*
X27808500Y-64624567D01*
X27304500Y-64282033D02*
X27304500Y-64624567D01*
X26284500Y-64282033D02*
X26284500Y-64624567D01*
X33955300Y-83268167D02*
X33955300Y-82925633D01*
X34975300Y-83268167D02*
X34975300Y-82925633D01*
X30907300Y-83293567D02*
X30907300Y-82951033D01*
X31927300Y-83293567D02*
X31927300Y-82951033D01*
X27999000Y-76499067D02*
X27999000Y-76156533D01*
X29019000Y-76499067D02*
X29019000Y-76156533D01*
X26665500Y-81325067D02*
X26665500Y-80982533D01*
X27685500Y-81325067D02*
X27685500Y-80982533D01*
X33451300Y-82951033D02*
X33451300Y-83293567D01*
X32431300Y-82951033D02*
X32431300Y-83293567D01*
X30403300Y-82951033D02*
X30403300Y-83293567D01*
X29383300Y-82951033D02*
X29383300Y-83293567D01*
X27495000Y-76156533D02*
X27495000Y-76499067D01*
X26475000Y-76156533D02*
X26475000Y-76499067D01*
X26098000Y-80982533D02*
X26098000Y-81325067D01*
X25078000Y-80982533D02*
X25078000Y-81325067D01*
X76470733Y-54037300D02*
X76813267Y-54037300D01*
X76470733Y-55057300D02*
X76813267Y-55057300D01*
X91071200Y-80423733D02*
X91071200Y-80766267D01*
X90051200Y-80423733D02*
X90051200Y-80766267D01*
X93086500Y-80753567D02*
X93086500Y-80411033D01*
X94106500Y-80753567D02*
X94106500Y-80411033D01*
X80958000Y-50337067D02*
X80958000Y-49994533D01*
X81978000Y-50337067D02*
X81978000Y-49994533D01*
X79434000Y-50337067D02*
X79434000Y-49994533D01*
X80454000Y-50337067D02*
X80454000Y-49994533D01*
X86840600Y-50336267D02*
X86840600Y-49993733D01*
X87860600Y-50336267D02*
X87860600Y-49993733D01*
X84645000Y-49994533D02*
X84645000Y-50337067D01*
X83625000Y-49994533D02*
X83625000Y-50337067D01*
X86321400Y-49994533D02*
X86321400Y-50337067D01*
X85301400Y-49994533D02*
X85301400Y-50337067D01*
X76115133Y-77646600D02*
X76457667Y-77646600D01*
X76115133Y-78666600D02*
X76457667Y-78666600D01*
X85082267Y-53139600D02*
X84739733Y-53139600D01*
X85082267Y-52119600D02*
X84739733Y-52119600D01*
X72787733Y-73404800D02*
X73130267Y-73404800D01*
X72787733Y-74424800D02*
X73130267Y-74424800D01*
X72787733Y-71753800D02*
X73130267Y-71753800D01*
X72787733Y-72773800D02*
X73130267Y-72773800D01*
X87003200Y-80766267D02*
X87003200Y-80423733D01*
X88023200Y-80766267D02*
X88023200Y-80423733D01*
X88578000Y-80766267D02*
X88578000Y-80423733D01*
X89598000Y-80766267D02*
X89598000Y-80423733D01*
X71669767Y-60772300D02*
X71327233Y-60772300D01*
X71669767Y-59752300D02*
X71327233Y-59752300D01*
X71669767Y-62296300D02*
X71327233Y-62296300D01*
X71669767Y-61276300D02*
X71327233Y-61276300D01*
X71669767Y-63820300D02*
X71327233Y-63820300D01*
X71669767Y-62800300D02*
X71327233Y-62800300D01*
X55727100Y-72295733D02*
X55727100Y-72638267D01*
X54707100Y-72295733D02*
X54707100Y-72638267D01*
X50418500Y-59773533D02*
X50418500Y-60116067D01*
X49398500Y-59773533D02*
X49398500Y-60116067D01*
X62039000Y-59456033D02*
X62039000Y-59798567D01*
X61019000Y-59456033D02*
X61019000Y-59798567D01*
X30808200Y-67659067D02*
X30808200Y-67316533D01*
X31828200Y-67659067D02*
X31828200Y-67316533D01*
X94885733Y-73531800D02*
X95228267Y-73531800D01*
X94885733Y-74551800D02*
X95228267Y-74551800D01*
X91562500Y-80753567D02*
X91562500Y-80411033D01*
X92582500Y-80753567D02*
X92582500Y-80411033D01*
X85534000Y-79331533D02*
X85534000Y-79674067D01*
X84514000Y-79331533D02*
X84514000Y-79674067D01*
X85068267Y-54739800D02*
X84725733Y-54739800D01*
X85068267Y-53719800D02*
X84725733Y-53719800D01*
X86465267Y-93474800D02*
X86122733Y-93474800D01*
X86465267Y-92454800D02*
X86122733Y-92454800D01*
X83434500Y-95866567D02*
X83434500Y-95524033D01*
X84454500Y-95866567D02*
X84454500Y-95524033D01*
X84958500Y-95866567D02*
X84958500Y-95524033D01*
X85978500Y-95866567D02*
X85978500Y-95524033D01*
X86482500Y-95866567D02*
X86482500Y-95524033D01*
X87502500Y-95866567D02*
X87502500Y-95524033D01*
X68090867Y-70170300D02*
X67748333Y-70170300D01*
X68090867Y-69150300D02*
X67748333Y-69150300D01*
X69383767Y-68646300D02*
X69041233Y-68646300D01*
X69383767Y-67626300D02*
X69041233Y-67626300D01*
X75962733Y-58291800D02*
X76305267Y-58291800D01*
X75962733Y-59311800D02*
X76305267Y-59311800D01*
X76305267Y-57787800D02*
X75962733Y-57787800D01*
X76305267Y-56767800D02*
X75962733Y-56767800D01*
X79819000Y-57741533D02*
X79819000Y-58084067D01*
X78799000Y-57741533D02*
X78799000Y-58084067D01*
X82040000Y-57957067D02*
X82040000Y-57614533D01*
X83060000Y-57957067D02*
X83060000Y-57614533D01*
X34625000Y-77534300D02*
X34625000Y-75584300D01*
X34625000Y-77534300D02*
X34625000Y-79484300D01*
X29505000Y-77534300D02*
X29505000Y-75584300D01*
X29505000Y-77534300D02*
X29505000Y-80984300D01*
X30256200Y-69977800D02*
X30256200Y-68027800D01*
X30256200Y-69977800D02*
X30256200Y-71927800D01*
X25136200Y-69977800D02*
X25136200Y-68027800D01*
X25136200Y-69977800D02*
X25136200Y-73427800D01*
X61479000Y-101895000D02*
X59029000Y-101895000D01*
X59679000Y-105115000D02*
X61479000Y-105115000D01*
X94240500Y-90672800D02*
X98540500Y-90672800D01*
X98540500Y-90672800D02*
X98540500Y-84972800D01*
X94240500Y-90672800D02*
X94240500Y-84972800D01*
X80619200Y-107773000D02*
G75*
G03X80619200Y-107773000I-2250000J0D01*
G01*
X53637200Y-100174200D02*
X59387200Y-100174200D01*
X59387200Y-100174200D02*
X59387200Y-96574200D01*
X59387200Y-96574200D02*
X53637200Y-96574200D01*
X76205500Y-51853300D02*
X75545500Y-51853300D01*
X77875500Y-51853300D02*
X77205500Y-51853300D01*
X77865500Y-51853300D02*
X77865500Y-49118300D01*
X75545500Y-50443300D02*
X75545500Y-51853300D01*
D10*
X34601214Y-96818404D02*
X34334547Y-96437452D01*
X34144071Y-96818404D02*
X34144071Y-96018404D01*
X34448833Y-96018404D01*
X34525023Y-96056500D01*
X34563119Y-96094595D01*
X34601214Y-96170785D01*
X34601214Y-96285071D01*
X34563119Y-96361261D01*
X34525023Y-96399357D01*
X34448833Y-96437452D01*
X34144071Y-96437452D01*
X35325023Y-96018404D02*
X34944071Y-96018404D01*
X34905976Y-96399357D01*
X34944071Y-96361261D01*
X35020261Y-96323166D01*
X35210738Y-96323166D01*
X35286928Y-96361261D01*
X35325023Y-96399357D01*
X35363119Y-96475547D01*
X35363119Y-96666023D01*
X35325023Y-96742214D01*
X35286928Y-96780309D01*
X35210738Y-96818404D01*
X35020261Y-96818404D01*
X34944071Y-96780309D01*
X34905976Y-96742214D01*
X36125023Y-96818404D02*
X35667880Y-96818404D01*
X35896452Y-96818404D02*
X35896452Y-96018404D01*
X35820261Y-96132690D01*
X35744071Y-96208880D01*
X35667880Y-96246976D01*
X34601214Y-95802404D02*
X34334547Y-95421452D01*
X34144071Y-95802404D02*
X34144071Y-95002404D01*
X34448833Y-95002404D01*
X34525023Y-95040500D01*
X34563119Y-95078595D01*
X34601214Y-95154785D01*
X34601214Y-95269071D01*
X34563119Y-95345261D01*
X34525023Y-95383357D01*
X34448833Y-95421452D01*
X34144071Y-95421452D01*
X35286928Y-95269071D02*
X35286928Y-95802404D01*
X35096452Y-94964309D02*
X34905976Y-95535738D01*
X35401214Y-95535738D01*
X35744071Y-95802404D02*
X35896452Y-95802404D01*
X35972642Y-95764309D01*
X36010738Y-95726214D01*
X36086928Y-95611928D01*
X36125023Y-95459547D01*
X36125023Y-95154785D01*
X36086928Y-95078595D01*
X36048833Y-95040500D01*
X35972642Y-95002404D01*
X35820261Y-95002404D01*
X35744071Y-95040500D01*
X35705976Y-95078595D01*
X35667880Y-95154785D01*
X35667880Y-95345261D01*
X35705976Y-95421452D01*
X35744071Y-95459547D01*
X35820261Y-95497642D01*
X35972642Y-95497642D01*
X36048833Y-95459547D01*
X36086928Y-95421452D01*
X36125023Y-95345261D01*
X34537714Y-94786404D02*
X34271047Y-94405452D01*
X34080571Y-94786404D02*
X34080571Y-93986404D01*
X34385333Y-93986404D01*
X34461523Y-94024500D01*
X34499619Y-94062595D01*
X34537714Y-94138785D01*
X34537714Y-94253071D01*
X34499619Y-94329261D01*
X34461523Y-94367357D01*
X34385333Y-94405452D01*
X34080571Y-94405452D01*
X34804380Y-93986404D02*
X35299619Y-93986404D01*
X35032952Y-94291166D01*
X35147238Y-94291166D01*
X35223428Y-94329261D01*
X35261523Y-94367357D01*
X35299619Y-94443547D01*
X35299619Y-94634023D01*
X35261523Y-94710214D01*
X35223428Y-94748309D01*
X35147238Y-94786404D01*
X34918666Y-94786404D01*
X34842476Y-94748309D01*
X34804380Y-94710214D01*
X35985333Y-93986404D02*
X35832952Y-93986404D01*
X35756761Y-94024500D01*
X35718666Y-94062595D01*
X35642476Y-94176880D01*
X35604380Y-94329261D01*
X35604380Y-94634023D01*
X35642476Y-94710214D01*
X35680571Y-94748309D01*
X35756761Y-94786404D01*
X35909142Y-94786404D01*
X35985333Y-94748309D01*
X36023428Y-94710214D01*
X36061523Y-94634023D01*
X36061523Y-94443547D01*
X36023428Y-94367357D01*
X35985333Y-94329261D01*
X35909142Y-94291166D01*
X35756761Y-94291166D01*
X35680571Y-94329261D01*
X35642476Y-94367357D01*
X35604380Y-94443547D01*
X34537714Y-93770404D02*
X34271047Y-93389452D01*
X34080571Y-93770404D02*
X34080571Y-92970404D01*
X34385333Y-92970404D01*
X34461523Y-93008500D01*
X34499619Y-93046595D01*
X34537714Y-93122785D01*
X34537714Y-93237071D01*
X34499619Y-93313261D01*
X34461523Y-93351357D01*
X34385333Y-93389452D01*
X34080571Y-93389452D01*
X34842476Y-93046595D02*
X34880571Y-93008500D01*
X34956761Y-92970404D01*
X35147238Y-92970404D01*
X35223428Y-93008500D01*
X35261523Y-93046595D01*
X35299619Y-93122785D01*
X35299619Y-93198976D01*
X35261523Y-93313261D01*
X34804380Y-93770404D01*
X35299619Y-93770404D01*
X35680571Y-93770404D02*
X35832952Y-93770404D01*
X35909142Y-93732309D01*
X35947238Y-93694214D01*
X36023428Y-93579928D01*
X36061523Y-93427547D01*
X36061523Y-93122785D01*
X36023428Y-93046595D01*
X35985333Y-93008500D01*
X35909142Y-92970404D01*
X35756761Y-92970404D01*
X35680571Y-93008500D01*
X35642476Y-93046595D01*
X35604380Y-93122785D01*
X35604380Y-93313261D01*
X35642476Y-93389452D01*
X35680571Y-93427547D01*
X35756761Y-93465642D01*
X35909142Y-93465642D01*
X35985333Y-93427547D01*
X36023428Y-93389452D01*
X36061523Y-93313261D01*
X40303571Y-96881904D02*
X40303571Y-96081904D01*
X40494047Y-96081904D01*
X40608333Y-96120000D01*
X40684523Y-96196190D01*
X40722619Y-96272380D01*
X40760714Y-96424761D01*
X40760714Y-96539047D01*
X40722619Y-96691428D01*
X40684523Y-96767619D01*
X40608333Y-96843809D01*
X40494047Y-96881904D01*
X40303571Y-96881904D01*
X41065476Y-96158095D02*
X41103571Y-96120000D01*
X41179761Y-96081904D01*
X41370238Y-96081904D01*
X41446428Y-96120000D01*
X41484523Y-96158095D01*
X41522619Y-96234285D01*
X41522619Y-96310476D01*
X41484523Y-96424761D01*
X41027380Y-96881904D01*
X41522619Y-96881904D01*
X41789285Y-96081904D02*
X42322619Y-96081904D01*
X41979761Y-96881904D01*
X40303571Y-95802404D02*
X40303571Y-95002404D01*
X40494047Y-95002404D01*
X40608333Y-95040500D01*
X40684523Y-95116690D01*
X40722619Y-95192880D01*
X40760714Y-95345261D01*
X40760714Y-95459547D01*
X40722619Y-95611928D01*
X40684523Y-95688119D01*
X40608333Y-95764309D01*
X40494047Y-95802404D01*
X40303571Y-95802404D01*
X41065476Y-95078595D02*
X41103571Y-95040500D01*
X41179761Y-95002404D01*
X41370238Y-95002404D01*
X41446428Y-95040500D01*
X41484523Y-95078595D01*
X41522619Y-95154785D01*
X41522619Y-95230976D01*
X41484523Y-95345261D01*
X41027380Y-95802404D01*
X41522619Y-95802404D01*
X41789285Y-95002404D02*
X42284523Y-95002404D01*
X42017857Y-95307166D01*
X42132142Y-95307166D01*
X42208333Y-95345261D01*
X42246428Y-95383357D01*
X42284523Y-95459547D01*
X42284523Y-95650023D01*
X42246428Y-95726214D01*
X42208333Y-95764309D01*
X42132142Y-95802404D01*
X41903571Y-95802404D01*
X41827380Y-95764309D01*
X41789285Y-95726214D01*
X40303571Y-93833904D02*
X40303571Y-93033904D01*
X40494047Y-93033904D01*
X40608333Y-93072000D01*
X40684523Y-93148190D01*
X40722619Y-93224380D01*
X40760714Y-93376761D01*
X40760714Y-93491047D01*
X40722619Y-93643428D01*
X40684523Y-93719619D01*
X40608333Y-93795809D01*
X40494047Y-93833904D01*
X40303571Y-93833904D01*
X41065476Y-93110095D02*
X41103571Y-93072000D01*
X41179761Y-93033904D01*
X41370238Y-93033904D01*
X41446428Y-93072000D01*
X41484523Y-93110095D01*
X41522619Y-93186285D01*
X41522619Y-93262476D01*
X41484523Y-93376761D01*
X41027380Y-93833904D01*
X41522619Y-93833904D01*
X41827380Y-93110095D02*
X41865476Y-93072000D01*
X41941666Y-93033904D01*
X42132142Y-93033904D01*
X42208333Y-93072000D01*
X42246428Y-93110095D01*
X42284523Y-93186285D01*
X42284523Y-93262476D01*
X42246428Y-93376761D01*
X41789285Y-93833904D01*
X42284523Y-93833904D01*
X40303571Y-94786404D02*
X40303571Y-93986404D01*
X40494047Y-93986404D01*
X40608333Y-94024500D01*
X40684523Y-94100690D01*
X40722619Y-94176880D01*
X40760714Y-94329261D01*
X40760714Y-94443547D01*
X40722619Y-94595928D01*
X40684523Y-94672119D01*
X40608333Y-94748309D01*
X40494047Y-94786404D01*
X40303571Y-94786404D01*
X41065476Y-94062595D02*
X41103571Y-94024500D01*
X41179761Y-93986404D01*
X41370238Y-93986404D01*
X41446428Y-94024500D01*
X41484523Y-94062595D01*
X41522619Y-94138785D01*
X41522619Y-94214976D01*
X41484523Y-94329261D01*
X41027380Y-94786404D01*
X41522619Y-94786404D01*
X42284523Y-94786404D02*
X41827380Y-94786404D01*
X42055952Y-94786404D02*
X42055952Y-93986404D01*
X41979761Y-94100690D01*
X41903571Y-94176880D01*
X41827380Y-94214976D01*
X39173214Y-87420404D02*
X38906547Y-87039452D01*
X38716071Y-87420404D02*
X38716071Y-86620404D01*
X39020833Y-86620404D01*
X39097023Y-86658500D01*
X39135119Y-86696595D01*
X39173214Y-86772785D01*
X39173214Y-86887071D01*
X39135119Y-86963261D01*
X39097023Y-87001357D01*
X39020833Y-87039452D01*
X38716071Y-87039452D01*
X39477976Y-86696595D02*
X39516071Y-86658500D01*
X39592261Y-86620404D01*
X39782738Y-86620404D01*
X39858928Y-86658500D01*
X39897023Y-86696595D01*
X39935119Y-86772785D01*
X39935119Y-86848976D01*
X39897023Y-86963261D01*
X39439880Y-87420404D01*
X39935119Y-87420404D01*
X40620833Y-86620404D02*
X40468452Y-86620404D01*
X40392261Y-86658500D01*
X40354166Y-86696595D01*
X40277976Y-86810880D01*
X40239880Y-86963261D01*
X40239880Y-87268023D01*
X40277976Y-87344214D01*
X40316071Y-87382309D01*
X40392261Y-87420404D01*
X40544642Y-87420404D01*
X40620833Y-87382309D01*
X40658928Y-87344214D01*
X40697023Y-87268023D01*
X40697023Y-87077547D01*
X40658928Y-87001357D01*
X40620833Y-86963261D01*
X40544642Y-86925166D01*
X40392261Y-86925166D01*
X40316071Y-86963261D01*
X40277976Y-87001357D01*
X40239880Y-87077547D01*
X73291823Y-88676204D02*
X73291823Y-89323823D01*
X73329919Y-89400014D01*
X73368014Y-89438109D01*
X73444204Y-89476204D01*
X73596585Y-89476204D01*
X73672776Y-89438109D01*
X73710871Y-89400014D01*
X73748966Y-89323823D01*
X73748966Y-88676204D01*
X74548966Y-89476204D02*
X74091823Y-89476204D01*
X74320395Y-89476204D02*
X74320395Y-88676204D01*
X74244204Y-88790490D01*
X74168014Y-88866680D01*
X74091823Y-88904776D01*
X75310871Y-89476204D02*
X74853728Y-89476204D01*
X75082300Y-89476204D02*
X75082300Y-88676204D01*
X75006109Y-88790490D01*
X74929919Y-88866680D01*
X74853728Y-88904776D01*
X23907814Y-61461604D02*
X23641147Y-61080652D01*
X23450671Y-61461604D02*
X23450671Y-60661604D01*
X23755433Y-60661604D01*
X23831623Y-60699700D01*
X23869719Y-60737795D01*
X23907814Y-60813985D01*
X23907814Y-60928271D01*
X23869719Y-61004461D01*
X23831623Y-61042557D01*
X23755433Y-61080652D01*
X23450671Y-61080652D01*
X24631623Y-60661604D02*
X24250671Y-60661604D01*
X24212576Y-61042557D01*
X24250671Y-61004461D01*
X24326861Y-60966366D01*
X24517338Y-60966366D01*
X24593528Y-61004461D01*
X24631623Y-61042557D01*
X24669719Y-61118747D01*
X24669719Y-61309223D01*
X24631623Y-61385414D01*
X24593528Y-61423509D01*
X24517338Y-61461604D01*
X24326861Y-61461604D01*
X24250671Y-61423509D01*
X24212576Y-61385414D01*
X25050671Y-61461604D02*
X25203052Y-61461604D01*
X25279242Y-61423509D01*
X25317338Y-61385414D01*
X25393528Y-61271128D01*
X25431623Y-61118747D01*
X25431623Y-60813985D01*
X25393528Y-60737795D01*
X25355433Y-60699700D01*
X25279242Y-60661604D01*
X25126861Y-60661604D01*
X25050671Y-60699700D01*
X25012576Y-60737795D01*
X24974480Y-60813985D01*
X24974480Y-61004461D01*
X25012576Y-61080652D01*
X25050671Y-61118747D01*
X25126861Y-61156842D01*
X25279242Y-61156842D01*
X25355433Y-61118747D01*
X25393528Y-61080652D01*
X25431623Y-61004461D01*
X33648714Y-61398104D02*
X33382047Y-61017152D01*
X33191571Y-61398104D02*
X33191571Y-60598104D01*
X33496333Y-60598104D01*
X33572523Y-60636200D01*
X33610619Y-60674295D01*
X33648714Y-60750485D01*
X33648714Y-60864771D01*
X33610619Y-60940961D01*
X33572523Y-60979057D01*
X33496333Y-61017152D01*
X33191571Y-61017152D01*
X34372523Y-60598104D02*
X33991571Y-60598104D01*
X33953476Y-60979057D01*
X33991571Y-60940961D01*
X34067761Y-60902866D01*
X34258238Y-60902866D01*
X34334428Y-60940961D01*
X34372523Y-60979057D01*
X34410619Y-61055247D01*
X34410619Y-61245723D01*
X34372523Y-61321914D01*
X34334428Y-61360009D01*
X34258238Y-61398104D01*
X34067761Y-61398104D01*
X33991571Y-61360009D01*
X33953476Y-61321914D01*
X34677285Y-60598104D02*
X35210619Y-60598104D01*
X34867761Y-61398104D01*
X26403544Y-94993703D02*
X27051163Y-94993703D01*
X27127354Y-94955608D01*
X27165449Y-94917513D01*
X27203544Y-94841322D01*
X27203544Y-94688941D01*
X27165449Y-94612751D01*
X27127354Y-94574656D01*
X27051163Y-94536560D01*
X26403544Y-94536560D01*
X26403544Y-93774656D02*
X26403544Y-94155608D01*
X26784497Y-94193703D01*
X26746401Y-94155608D01*
X26708306Y-94079418D01*
X26708306Y-93888941D01*
X26746401Y-93812751D01*
X26784497Y-93774656D01*
X26860687Y-93736560D01*
X27051163Y-93736560D01*
X27127354Y-93774656D01*
X27165449Y-93812751D01*
X27203544Y-93888941D01*
X27203544Y-94079418D01*
X27165449Y-94155608D01*
X27127354Y-94193703D01*
X61969714Y-40798704D02*
X61703047Y-40417752D01*
X61512571Y-40798704D02*
X61512571Y-39998704D01*
X61817333Y-39998704D01*
X61893523Y-40036800D01*
X61931619Y-40074895D01*
X61969714Y-40151085D01*
X61969714Y-40265371D01*
X61931619Y-40341561D01*
X61893523Y-40379657D01*
X61817333Y-40417752D01*
X61512571Y-40417752D01*
X62236380Y-39998704D02*
X62731619Y-39998704D01*
X62464952Y-40303466D01*
X62579238Y-40303466D01*
X62655428Y-40341561D01*
X62693523Y-40379657D01*
X62731619Y-40455847D01*
X62731619Y-40646323D01*
X62693523Y-40722514D01*
X62655428Y-40760609D01*
X62579238Y-40798704D01*
X62350666Y-40798704D01*
X62274476Y-40760609D01*
X62236380Y-40722514D01*
X63226857Y-39998704D02*
X63303047Y-39998704D01*
X63379238Y-40036800D01*
X63417333Y-40074895D01*
X63455428Y-40151085D01*
X63493523Y-40303466D01*
X63493523Y-40493942D01*
X63455428Y-40646323D01*
X63417333Y-40722514D01*
X63379238Y-40760609D01*
X63303047Y-40798704D01*
X63226857Y-40798704D01*
X63150666Y-40760609D01*
X63112571Y-40722514D01*
X63074476Y-40646323D01*
X63036380Y-40493942D01*
X63036380Y-40303466D01*
X63074476Y-40151085D01*
X63112571Y-40074895D01*
X63150666Y-40036800D01*
X63226857Y-39998704D01*
X62020514Y-39757304D02*
X61753847Y-39376352D01*
X61563371Y-39757304D02*
X61563371Y-38957304D01*
X61868133Y-38957304D01*
X61944323Y-38995400D01*
X61982419Y-39033495D01*
X62020514Y-39109685D01*
X62020514Y-39223971D01*
X61982419Y-39300161D01*
X61944323Y-39338257D01*
X61868133Y-39376352D01*
X61563371Y-39376352D01*
X62325276Y-39033495D02*
X62363371Y-38995400D01*
X62439561Y-38957304D01*
X62630038Y-38957304D01*
X62706228Y-38995400D01*
X62744323Y-39033495D01*
X62782419Y-39109685D01*
X62782419Y-39185876D01*
X62744323Y-39300161D01*
X62287180Y-39757304D01*
X62782419Y-39757304D01*
X63239561Y-39300161D02*
X63163371Y-39262066D01*
X63125276Y-39223971D01*
X63087180Y-39147780D01*
X63087180Y-39109685D01*
X63125276Y-39033495D01*
X63163371Y-38995400D01*
X63239561Y-38957304D01*
X63391942Y-38957304D01*
X63468133Y-38995400D01*
X63506228Y-39033495D01*
X63544323Y-39109685D01*
X63544323Y-39147780D01*
X63506228Y-39223971D01*
X63468133Y-39262066D01*
X63391942Y-39300161D01*
X63239561Y-39300161D01*
X63163371Y-39338257D01*
X63125276Y-39376352D01*
X63087180Y-39452542D01*
X63087180Y-39604923D01*
X63125276Y-39681114D01*
X63163371Y-39719209D01*
X63239561Y-39757304D01*
X63391942Y-39757304D01*
X63468133Y-39719209D01*
X63506228Y-39681114D01*
X63544323Y-39604923D01*
X63544323Y-39452542D01*
X63506228Y-39376352D01*
X63468133Y-39338257D01*
X63391942Y-39300161D01*
X62630114Y-46488314D02*
X62592019Y-46526409D01*
X62477733Y-46564504D01*
X62401542Y-46564504D01*
X62287257Y-46526409D01*
X62211066Y-46450219D01*
X62172971Y-46374028D01*
X62134876Y-46221647D01*
X62134876Y-46107361D01*
X62172971Y-45954980D01*
X62211066Y-45878790D01*
X62287257Y-45802600D01*
X62401542Y-45764504D01*
X62477733Y-45764504D01*
X62592019Y-45802600D01*
X62630114Y-45840695D01*
X63315828Y-46031171D02*
X63315828Y-46564504D01*
X63125352Y-45726409D02*
X62934876Y-46297838D01*
X63430114Y-46297838D01*
X64153923Y-46564504D02*
X63696780Y-46564504D01*
X63925352Y-46564504D02*
X63925352Y-45764504D01*
X63849161Y-45878790D01*
X63772971Y-45954980D01*
X63696780Y-45993076D01*
X44117333Y-108528704D02*
X44117333Y-109100133D01*
X44079238Y-109214419D01*
X44003047Y-109290609D01*
X43888761Y-109328704D01*
X43812571Y-109328704D01*
X44460190Y-108604895D02*
X44498285Y-108566800D01*
X44574476Y-108528704D01*
X44764952Y-108528704D01*
X44841142Y-108566800D01*
X44879238Y-108604895D01*
X44917333Y-108681085D01*
X44917333Y-108757276D01*
X44879238Y-108871561D01*
X44422095Y-109328704D01*
X44917333Y-109328704D01*
X68318704Y-21832023D02*
X68966323Y-21832023D01*
X69042514Y-21793928D01*
X69080609Y-21755833D01*
X69118704Y-21679642D01*
X69118704Y-21527261D01*
X69080609Y-21451071D01*
X69042514Y-21412976D01*
X68966323Y-21374880D01*
X68318704Y-21374880D01*
X68318704Y-21070119D02*
X68318704Y-20574880D01*
X68623466Y-20841547D01*
X68623466Y-20727261D01*
X68661561Y-20651071D01*
X68699657Y-20612976D01*
X68775847Y-20574880D01*
X68966323Y-20574880D01*
X69042514Y-20612976D01*
X69080609Y-20651071D01*
X69118704Y-20727261D01*
X69118704Y-20955833D01*
X69080609Y-21032023D01*
X69042514Y-21070119D01*
X31362714Y-99574314D02*
X31324619Y-99612409D01*
X31210333Y-99650504D01*
X31134142Y-99650504D01*
X31019857Y-99612409D01*
X30943666Y-99536219D01*
X30905571Y-99460028D01*
X30867476Y-99307647D01*
X30867476Y-99193361D01*
X30905571Y-99040980D01*
X30943666Y-98964790D01*
X31019857Y-98888600D01*
X31134142Y-98850504D01*
X31210333Y-98850504D01*
X31324619Y-98888600D01*
X31362714Y-98926695D01*
X31629380Y-98850504D02*
X32124619Y-98850504D01*
X31857952Y-99155266D01*
X31972238Y-99155266D01*
X32048428Y-99193361D01*
X32086523Y-99231457D01*
X32124619Y-99307647D01*
X32124619Y-99498123D01*
X32086523Y-99574314D01*
X32048428Y-99612409D01*
X31972238Y-99650504D01*
X31743666Y-99650504D01*
X31667476Y-99612409D01*
X31629380Y-99574314D01*
X32505571Y-99650504D02*
X32657952Y-99650504D01*
X32734142Y-99612409D01*
X32772238Y-99574314D01*
X32848428Y-99460028D01*
X32886523Y-99307647D01*
X32886523Y-99002885D01*
X32848428Y-98926695D01*
X32810333Y-98888600D01*
X32734142Y-98850504D01*
X32581761Y-98850504D01*
X32505571Y-98888600D01*
X32467476Y-98926695D01*
X32429380Y-99002885D01*
X32429380Y-99193361D01*
X32467476Y-99269552D01*
X32505571Y-99307647D01*
X32581761Y-99345742D01*
X32734142Y-99345742D01*
X32810333Y-99307647D01*
X32848428Y-99269552D01*
X32886523Y-99193361D01*
X26993914Y-105136914D02*
X26955819Y-105175009D01*
X26841533Y-105213104D01*
X26765342Y-105213104D01*
X26651057Y-105175009D01*
X26574866Y-105098819D01*
X26536771Y-105022628D01*
X26498676Y-104870247D01*
X26498676Y-104755961D01*
X26536771Y-104603580D01*
X26574866Y-104527390D01*
X26651057Y-104451200D01*
X26765342Y-104413104D01*
X26841533Y-104413104D01*
X26955819Y-104451200D01*
X26993914Y-104489295D01*
X27260580Y-104413104D02*
X27755819Y-104413104D01*
X27489152Y-104717866D01*
X27603438Y-104717866D01*
X27679628Y-104755961D01*
X27717723Y-104794057D01*
X27755819Y-104870247D01*
X27755819Y-105060723D01*
X27717723Y-105136914D01*
X27679628Y-105175009D01*
X27603438Y-105213104D01*
X27374866Y-105213104D01*
X27298676Y-105175009D01*
X27260580Y-105136914D01*
X28441533Y-104413104D02*
X28289152Y-104413104D01*
X28212961Y-104451200D01*
X28174866Y-104489295D01*
X28098676Y-104603580D01*
X28060580Y-104755961D01*
X28060580Y-105060723D01*
X28098676Y-105136914D01*
X28136771Y-105175009D01*
X28212961Y-105213104D01*
X28365342Y-105213104D01*
X28441533Y-105175009D01*
X28479628Y-105136914D01*
X28517723Y-105060723D01*
X28517723Y-104870247D01*
X28479628Y-104794057D01*
X28441533Y-104755961D01*
X28365342Y-104717866D01*
X28212961Y-104717866D01*
X28136771Y-104755961D01*
X28098676Y-104794057D01*
X28060580Y-104870247D01*
X87303714Y-46590704D02*
X87037047Y-46209752D01*
X86846571Y-46590704D02*
X86846571Y-45790704D01*
X87151333Y-45790704D01*
X87227523Y-45828800D01*
X87265619Y-45866895D01*
X87303714Y-45943085D01*
X87303714Y-46057371D01*
X87265619Y-46133561D01*
X87227523Y-46171657D01*
X87151333Y-46209752D01*
X86846571Y-46209752D01*
X88065619Y-46590704D02*
X87608476Y-46590704D01*
X87837047Y-46590704D02*
X87837047Y-45790704D01*
X87760857Y-45904990D01*
X87684666Y-45981180D01*
X87608476Y-46019276D01*
X88789428Y-45790704D02*
X88408476Y-45790704D01*
X88370380Y-46171657D01*
X88408476Y-46133561D01*
X88484666Y-46095466D01*
X88675142Y-46095466D01*
X88751333Y-46133561D01*
X88789428Y-46171657D01*
X88827523Y-46247847D01*
X88827523Y-46438323D01*
X88789428Y-46514514D01*
X88751333Y-46552609D01*
X88675142Y-46590704D01*
X88484666Y-46590704D01*
X88408476Y-46552609D01*
X88370380Y-46514514D01*
X87303714Y-48038514D02*
X87265619Y-48076609D01*
X87151333Y-48114704D01*
X87075142Y-48114704D01*
X86960857Y-48076609D01*
X86884666Y-48000419D01*
X86846571Y-47924228D01*
X86808476Y-47771847D01*
X86808476Y-47657561D01*
X86846571Y-47505180D01*
X86884666Y-47428990D01*
X86960857Y-47352800D01*
X87075142Y-47314704D01*
X87151333Y-47314704D01*
X87265619Y-47352800D01*
X87303714Y-47390895D01*
X87570380Y-47314704D02*
X88065619Y-47314704D01*
X87798952Y-47619466D01*
X87913238Y-47619466D01*
X87989428Y-47657561D01*
X88027523Y-47695657D01*
X88065619Y-47771847D01*
X88065619Y-47962323D01*
X88027523Y-48038514D01*
X87989428Y-48076609D01*
X87913238Y-48114704D01*
X87684666Y-48114704D01*
X87608476Y-48076609D01*
X87570380Y-48038514D01*
X88789428Y-47314704D02*
X88408476Y-47314704D01*
X88370380Y-47695657D01*
X88408476Y-47657561D01*
X88484666Y-47619466D01*
X88675142Y-47619466D01*
X88751333Y-47657561D01*
X88789428Y-47695657D01*
X88827523Y-47771847D01*
X88827523Y-47962323D01*
X88789428Y-48038514D01*
X88751333Y-48076609D01*
X88675142Y-48114704D01*
X88484666Y-48114704D01*
X88408476Y-48076609D01*
X88370380Y-48038514D01*
X44228704Y-86894123D02*
X44876323Y-86894123D01*
X44952514Y-86856028D01*
X44990609Y-86817933D01*
X45028704Y-86741742D01*
X45028704Y-86589361D01*
X44990609Y-86513171D01*
X44952514Y-86475076D01*
X44876323Y-86436980D01*
X44228704Y-86436980D01*
X45028704Y-85636980D02*
X45028704Y-86094123D01*
X45028704Y-85865552D02*
X44228704Y-85865552D01*
X44342990Y-85941742D01*
X44419180Y-86017933D01*
X44457276Y-86094123D01*
X64304071Y-101010204D02*
X64304071Y-100210204D01*
X64494547Y-100210204D01*
X64608833Y-100248300D01*
X64685023Y-100324490D01*
X64723119Y-100400680D01*
X64761214Y-100553061D01*
X64761214Y-100667347D01*
X64723119Y-100819728D01*
X64685023Y-100895919D01*
X64608833Y-100972109D01*
X64494547Y-101010204D01*
X64304071Y-101010204D01*
X65523119Y-101010204D02*
X65065976Y-101010204D01*
X65294547Y-101010204D02*
X65294547Y-100210204D01*
X65218357Y-100324490D01*
X65142166Y-100400680D01*
X65065976Y-100438776D01*
X65789785Y-100210204D02*
X66323119Y-100210204D01*
X65980261Y-101010204D01*
X69193404Y-103194585D02*
X68812452Y-103461252D01*
X69193404Y-103651728D02*
X68393404Y-103651728D01*
X68393404Y-103346966D01*
X68431500Y-103270776D01*
X68469595Y-103232680D01*
X68545785Y-103194585D01*
X68660071Y-103194585D01*
X68736261Y-103232680D01*
X68774357Y-103270776D01*
X68812452Y-103346966D01*
X68812452Y-103651728D01*
X68660071Y-102508871D02*
X69193404Y-102508871D01*
X68355309Y-102699347D02*
X68926738Y-102889823D01*
X68926738Y-102394585D01*
X68736261Y-101975538D02*
X68698166Y-102051728D01*
X68660071Y-102089823D01*
X68583880Y-102127919D01*
X68545785Y-102127919D01*
X68469595Y-102089823D01*
X68431500Y-102051728D01*
X68393404Y-101975538D01*
X68393404Y-101823157D01*
X68431500Y-101746966D01*
X68469595Y-101708871D01*
X68545785Y-101670776D01*
X68583880Y-101670776D01*
X68660071Y-101708871D01*
X68698166Y-101746966D01*
X68736261Y-101823157D01*
X68736261Y-101975538D01*
X68774357Y-102051728D01*
X68812452Y-102089823D01*
X68888642Y-102127919D01*
X69041023Y-102127919D01*
X69117214Y-102089823D01*
X69155309Y-102051728D01*
X69193404Y-101975538D01*
X69193404Y-101823157D01*
X69155309Y-101746966D01*
X69117214Y-101708871D01*
X69041023Y-101670776D01*
X68888642Y-101670776D01*
X68812452Y-101708871D01*
X68774357Y-101746966D01*
X68736261Y-101823157D01*
X58601714Y-113679704D02*
X58335047Y-113298752D01*
X58144571Y-113679704D02*
X58144571Y-112879704D01*
X58449333Y-112879704D01*
X58525523Y-112917800D01*
X58563619Y-112955895D01*
X58601714Y-113032085D01*
X58601714Y-113146371D01*
X58563619Y-113222561D01*
X58525523Y-113260657D01*
X58449333Y-113298752D01*
X58144571Y-113298752D01*
X59287428Y-113146371D02*
X59287428Y-113679704D01*
X59096952Y-112841609D02*
X58906476Y-113413038D01*
X59401714Y-113413038D01*
X59630285Y-112879704D02*
X60163619Y-112879704D01*
X59820761Y-113679704D01*
X42701314Y-88424504D02*
X42434647Y-88043552D01*
X42244171Y-88424504D02*
X42244171Y-87624504D01*
X42548933Y-87624504D01*
X42625123Y-87662600D01*
X42663219Y-87700695D01*
X42701314Y-87776885D01*
X42701314Y-87891171D01*
X42663219Y-87967361D01*
X42625123Y-88005457D01*
X42548933Y-88043552D01*
X42244171Y-88043552D01*
X43387028Y-87891171D02*
X43387028Y-88424504D01*
X43196552Y-87586409D02*
X43006076Y-88157838D01*
X43501314Y-88157838D01*
X44187028Y-87624504D02*
X43806076Y-87624504D01*
X43767980Y-88005457D01*
X43806076Y-87967361D01*
X43882266Y-87929266D01*
X44072742Y-87929266D01*
X44148933Y-87967361D01*
X44187028Y-88005457D01*
X44225123Y-88081647D01*
X44225123Y-88272123D01*
X44187028Y-88348314D01*
X44148933Y-88386409D01*
X44072742Y-88424504D01*
X43882266Y-88424504D01*
X43806076Y-88386409D01*
X43767980Y-88348314D01*
X39805714Y-103740704D02*
X39539047Y-103359752D01*
X39348571Y-103740704D02*
X39348571Y-102940704D01*
X39653333Y-102940704D01*
X39729523Y-102978800D01*
X39767619Y-103016895D01*
X39805714Y-103093085D01*
X39805714Y-103207371D01*
X39767619Y-103283561D01*
X39729523Y-103321657D01*
X39653333Y-103359752D01*
X39348571Y-103359752D01*
X40491428Y-103207371D02*
X40491428Y-103740704D01*
X40300952Y-102902609D02*
X40110476Y-103474038D01*
X40605714Y-103474038D01*
X40834285Y-102940704D02*
X41329523Y-102940704D01*
X41062857Y-103245466D01*
X41177142Y-103245466D01*
X41253333Y-103283561D01*
X41291428Y-103321657D01*
X41329523Y-103397847D01*
X41329523Y-103588323D01*
X41291428Y-103664514D01*
X41253333Y-103702609D01*
X41177142Y-103740704D01*
X40948571Y-103740704D01*
X40872380Y-103702609D01*
X40834285Y-103664514D01*
X35436914Y-45104804D02*
X35170247Y-44723852D01*
X34979771Y-45104804D02*
X34979771Y-44304804D01*
X35284533Y-44304804D01*
X35360723Y-44342900D01*
X35398819Y-44380995D01*
X35436914Y-44457185D01*
X35436914Y-44571471D01*
X35398819Y-44647661D01*
X35360723Y-44685757D01*
X35284533Y-44723852D01*
X34979771Y-44723852D01*
X36122628Y-44571471D02*
X36122628Y-45104804D01*
X35932152Y-44266709D02*
X35741676Y-44838138D01*
X36236914Y-44838138D01*
X36503580Y-44380995D02*
X36541676Y-44342900D01*
X36617866Y-44304804D01*
X36808342Y-44304804D01*
X36884533Y-44342900D01*
X36922628Y-44380995D01*
X36960723Y-44457185D01*
X36960723Y-44533376D01*
X36922628Y-44647661D01*
X36465485Y-45104804D01*
X36960723Y-45104804D01*
X29379071Y-90532704D02*
X29379071Y-89732704D01*
X29569547Y-89732704D01*
X29683833Y-89770800D01*
X29760023Y-89846990D01*
X29798119Y-89923180D01*
X29836214Y-90075561D01*
X29836214Y-90189847D01*
X29798119Y-90342228D01*
X29760023Y-90418419D01*
X29683833Y-90494609D01*
X29569547Y-90532704D01*
X29379071Y-90532704D01*
X30598119Y-90532704D02*
X30140976Y-90532704D01*
X30369547Y-90532704D02*
X30369547Y-89732704D01*
X30293357Y-89846990D01*
X30217166Y-89923180D01*
X30140976Y-89961276D01*
X30979071Y-90532704D02*
X31131452Y-90532704D01*
X31207642Y-90494609D01*
X31245738Y-90456514D01*
X31321928Y-90342228D01*
X31360023Y-90189847D01*
X31360023Y-89885085D01*
X31321928Y-89808895D01*
X31283833Y-89770800D01*
X31207642Y-89732704D01*
X31055261Y-89732704D01*
X30979071Y-89770800D01*
X30940976Y-89808895D01*
X30902880Y-89885085D01*
X30902880Y-90075561D01*
X30940976Y-90151752D01*
X30979071Y-90189847D01*
X31055261Y-90227942D01*
X31207642Y-90227942D01*
X31283833Y-90189847D01*
X31321928Y-90151752D01*
X31360023Y-90075561D01*
X64304071Y-105328204D02*
X64304071Y-104528204D01*
X64494547Y-104528204D01*
X64608833Y-104566300D01*
X64685023Y-104642490D01*
X64723119Y-104718680D01*
X64761214Y-104871061D01*
X64761214Y-104985347D01*
X64723119Y-105137728D01*
X64685023Y-105213919D01*
X64608833Y-105290109D01*
X64494547Y-105328204D01*
X64304071Y-105328204D01*
X65523119Y-105328204D02*
X65065976Y-105328204D01*
X65294547Y-105328204D02*
X65294547Y-104528204D01*
X65218357Y-104642490D01*
X65142166Y-104718680D01*
X65065976Y-104756776D01*
X66208833Y-104794871D02*
X66208833Y-105328204D01*
X66018357Y-104490109D02*
X65827880Y-105061538D01*
X66323119Y-105061538D01*
X29864114Y-101733314D02*
X29826019Y-101771409D01*
X29711733Y-101809504D01*
X29635542Y-101809504D01*
X29521257Y-101771409D01*
X29445066Y-101695219D01*
X29406971Y-101619028D01*
X29368876Y-101466647D01*
X29368876Y-101352361D01*
X29406971Y-101199980D01*
X29445066Y-101123790D01*
X29521257Y-101047600D01*
X29635542Y-101009504D01*
X29711733Y-101009504D01*
X29826019Y-101047600D01*
X29864114Y-101085695D01*
X30130780Y-101009504D02*
X30626019Y-101009504D01*
X30359352Y-101314266D01*
X30473638Y-101314266D01*
X30549828Y-101352361D01*
X30587923Y-101390457D01*
X30626019Y-101466647D01*
X30626019Y-101657123D01*
X30587923Y-101733314D01*
X30549828Y-101771409D01*
X30473638Y-101809504D01*
X30245066Y-101809504D01*
X30168876Y-101771409D01*
X30130780Y-101733314D01*
X31083161Y-101352361D02*
X31006971Y-101314266D01*
X30968876Y-101276171D01*
X30930780Y-101199980D01*
X30930780Y-101161885D01*
X30968876Y-101085695D01*
X31006971Y-101047600D01*
X31083161Y-101009504D01*
X31235542Y-101009504D01*
X31311733Y-101047600D01*
X31349828Y-101085695D01*
X31387923Y-101161885D01*
X31387923Y-101199980D01*
X31349828Y-101276171D01*
X31311733Y-101314266D01*
X31235542Y-101352361D01*
X31083161Y-101352361D01*
X31006971Y-101390457D01*
X30968876Y-101428552D01*
X30930780Y-101504742D01*
X30930780Y-101657123D01*
X30968876Y-101733314D01*
X31006971Y-101771409D01*
X31083161Y-101809504D01*
X31235542Y-101809504D01*
X31311733Y-101771409D01*
X31349828Y-101733314D01*
X31387923Y-101657123D01*
X31387923Y-101504742D01*
X31349828Y-101428552D01*
X31311733Y-101390457D01*
X31235542Y-101352361D01*
X62030714Y-113570514D02*
X61992619Y-113608609D01*
X61878333Y-113646704D01*
X61802142Y-113646704D01*
X61687857Y-113608609D01*
X61611666Y-113532419D01*
X61573571Y-113456228D01*
X61535476Y-113303847D01*
X61535476Y-113189561D01*
X61573571Y-113037180D01*
X61611666Y-112960990D01*
X61687857Y-112884800D01*
X61802142Y-112846704D01*
X61878333Y-112846704D01*
X61992619Y-112884800D01*
X62030714Y-112922895D01*
X62297380Y-112846704D02*
X62792619Y-112846704D01*
X62525952Y-113151466D01*
X62640238Y-113151466D01*
X62716428Y-113189561D01*
X62754523Y-113227657D01*
X62792619Y-113303847D01*
X62792619Y-113494323D01*
X62754523Y-113570514D01*
X62716428Y-113608609D01*
X62640238Y-113646704D01*
X62411666Y-113646704D01*
X62335476Y-113608609D01*
X62297380Y-113570514D01*
X63059285Y-112846704D02*
X63592619Y-112846704D01*
X63249761Y-113646704D01*
X50808814Y-100513285D02*
X50846909Y-100551380D01*
X50885004Y-100665666D01*
X50885004Y-100741857D01*
X50846909Y-100856142D01*
X50770719Y-100932333D01*
X50694528Y-100970428D01*
X50542147Y-101008523D01*
X50427861Y-101008523D01*
X50275480Y-100970428D01*
X50199290Y-100932333D01*
X50123100Y-100856142D01*
X50085004Y-100741857D01*
X50085004Y-100665666D01*
X50123100Y-100551380D01*
X50161195Y-100513285D01*
X50085004Y-100246619D02*
X50085004Y-99751380D01*
X50389766Y-100018047D01*
X50389766Y-99903761D01*
X50427861Y-99827571D01*
X50465957Y-99789476D01*
X50542147Y-99751380D01*
X50732623Y-99751380D01*
X50808814Y-99789476D01*
X50846909Y-99827571D01*
X50885004Y-99903761D01*
X50885004Y-100132333D01*
X50846909Y-100208523D01*
X50808814Y-100246619D01*
X50351671Y-99065666D02*
X50885004Y-99065666D01*
X50046909Y-99256142D02*
X50618338Y-99446619D01*
X50618338Y-98951380D01*
X64062714Y-79280514D02*
X64024619Y-79318609D01*
X63910333Y-79356704D01*
X63834142Y-79356704D01*
X63719857Y-79318609D01*
X63643666Y-79242419D01*
X63605571Y-79166228D01*
X63567476Y-79013847D01*
X63567476Y-78899561D01*
X63605571Y-78747180D01*
X63643666Y-78670990D01*
X63719857Y-78594800D01*
X63834142Y-78556704D01*
X63910333Y-78556704D01*
X64024619Y-78594800D01*
X64062714Y-78632895D01*
X64329380Y-78556704D02*
X64824619Y-78556704D01*
X64557952Y-78861466D01*
X64672238Y-78861466D01*
X64748428Y-78899561D01*
X64786523Y-78937657D01*
X64824619Y-79013847D01*
X64824619Y-79204323D01*
X64786523Y-79280514D01*
X64748428Y-79318609D01*
X64672238Y-79356704D01*
X64443666Y-79356704D01*
X64367476Y-79318609D01*
X64329380Y-79280514D01*
X65091285Y-78556704D02*
X65586523Y-78556704D01*
X65319857Y-78861466D01*
X65434142Y-78861466D01*
X65510333Y-78899561D01*
X65548428Y-78937657D01*
X65586523Y-79013847D01*
X65586523Y-79204323D01*
X65548428Y-79280514D01*
X65510333Y-79318609D01*
X65434142Y-79356704D01*
X65205571Y-79356704D01*
X65129380Y-79318609D01*
X65091285Y-79280514D01*
X64189714Y-92361514D02*
X64151619Y-92399609D01*
X64037333Y-92437704D01*
X63961142Y-92437704D01*
X63846857Y-92399609D01*
X63770666Y-92323419D01*
X63732571Y-92247228D01*
X63694476Y-92094847D01*
X63694476Y-91980561D01*
X63732571Y-91828180D01*
X63770666Y-91751990D01*
X63846857Y-91675800D01*
X63961142Y-91637704D01*
X64037333Y-91637704D01*
X64151619Y-91675800D01*
X64189714Y-91713895D01*
X64456380Y-91637704D02*
X64951619Y-91637704D01*
X64684952Y-91942466D01*
X64799238Y-91942466D01*
X64875428Y-91980561D01*
X64913523Y-92018657D01*
X64951619Y-92094847D01*
X64951619Y-92285323D01*
X64913523Y-92361514D01*
X64875428Y-92399609D01*
X64799238Y-92437704D01*
X64570666Y-92437704D01*
X64494476Y-92399609D01*
X64456380Y-92361514D01*
X65256380Y-91713895D02*
X65294476Y-91675800D01*
X65370666Y-91637704D01*
X65561142Y-91637704D01*
X65637333Y-91675800D01*
X65675428Y-91713895D01*
X65713523Y-91790085D01*
X65713523Y-91866276D01*
X65675428Y-91980561D01*
X65218285Y-92437704D01*
X65713523Y-92437704D01*
X49383914Y-100437885D02*
X49422009Y-100475980D01*
X49460104Y-100590266D01*
X49460104Y-100666457D01*
X49422009Y-100780742D01*
X49345819Y-100856933D01*
X49269628Y-100895028D01*
X49117247Y-100933123D01*
X49002961Y-100933123D01*
X48850580Y-100895028D01*
X48774390Y-100856933D01*
X48698200Y-100780742D01*
X48660104Y-100666457D01*
X48660104Y-100590266D01*
X48698200Y-100475980D01*
X48736295Y-100437885D01*
X48660104Y-100171219D02*
X48660104Y-99675980D01*
X48964866Y-99942647D01*
X48964866Y-99828361D01*
X49002961Y-99752171D01*
X49041057Y-99714076D01*
X49117247Y-99675980D01*
X49307723Y-99675980D01*
X49383914Y-99714076D01*
X49422009Y-99752171D01*
X49460104Y-99828361D01*
X49460104Y-100056933D01*
X49422009Y-100133123D01*
X49383914Y-100171219D01*
X49460104Y-98914076D02*
X49460104Y-99371219D01*
X49460104Y-99142647D02*
X48660104Y-99142647D01*
X48774390Y-99218838D01*
X48850580Y-99295028D01*
X48888676Y-99371219D01*
X44921114Y-93275085D02*
X44959209Y-93313180D01*
X44997304Y-93427466D01*
X44997304Y-93503657D01*
X44959209Y-93617942D01*
X44883019Y-93694133D01*
X44806828Y-93732228D01*
X44654447Y-93770323D01*
X44540161Y-93770323D01*
X44387780Y-93732228D01*
X44311590Y-93694133D01*
X44235400Y-93617942D01*
X44197304Y-93503657D01*
X44197304Y-93427466D01*
X44235400Y-93313180D01*
X44273495Y-93275085D01*
X44197304Y-93008419D02*
X44197304Y-92513180D01*
X44502066Y-92779847D01*
X44502066Y-92665561D01*
X44540161Y-92589371D01*
X44578257Y-92551276D01*
X44654447Y-92513180D01*
X44844923Y-92513180D01*
X44921114Y-92551276D01*
X44959209Y-92589371D01*
X44997304Y-92665561D01*
X44997304Y-92894133D01*
X44959209Y-92970323D01*
X44921114Y-93008419D01*
X44197304Y-92017942D02*
X44197304Y-91941752D01*
X44235400Y-91865561D01*
X44273495Y-91827466D01*
X44349685Y-91789371D01*
X44502066Y-91751276D01*
X44692542Y-91751276D01*
X44844923Y-91789371D01*
X44921114Y-91827466D01*
X44959209Y-91865561D01*
X44997304Y-91941752D01*
X44997304Y-92017942D01*
X44959209Y-92094133D01*
X44921114Y-92132228D01*
X44844923Y-92170323D01*
X44692542Y-92208419D01*
X44502066Y-92208419D01*
X44349685Y-92170323D01*
X44273495Y-92132228D01*
X44235400Y-92094133D01*
X44197304Y-92017942D01*
X45330214Y-76771014D02*
X45292119Y-76809109D01*
X45177833Y-76847204D01*
X45101642Y-76847204D01*
X44987357Y-76809109D01*
X44911166Y-76732919D01*
X44873071Y-76656728D01*
X44834976Y-76504347D01*
X44834976Y-76390061D01*
X44873071Y-76237680D01*
X44911166Y-76161490D01*
X44987357Y-76085300D01*
X45101642Y-76047204D01*
X45177833Y-76047204D01*
X45292119Y-76085300D01*
X45330214Y-76123395D01*
X45634976Y-76123395D02*
X45673071Y-76085300D01*
X45749261Y-76047204D01*
X45939738Y-76047204D01*
X46015928Y-76085300D01*
X46054023Y-76123395D01*
X46092119Y-76199585D01*
X46092119Y-76275776D01*
X46054023Y-76390061D01*
X45596880Y-76847204D01*
X46092119Y-76847204D01*
X46549261Y-76390061D02*
X46473071Y-76351966D01*
X46434976Y-76313871D01*
X46396880Y-76237680D01*
X46396880Y-76199585D01*
X46434976Y-76123395D01*
X46473071Y-76085300D01*
X46549261Y-76047204D01*
X46701642Y-76047204D01*
X46777833Y-76085300D01*
X46815928Y-76123395D01*
X46854023Y-76199585D01*
X46854023Y-76237680D01*
X46815928Y-76313871D01*
X46777833Y-76351966D01*
X46701642Y-76390061D01*
X46549261Y-76390061D01*
X46473071Y-76428157D01*
X46434976Y-76466252D01*
X46396880Y-76542442D01*
X46396880Y-76694823D01*
X46434976Y-76771014D01*
X46473071Y-76809109D01*
X46549261Y-76847204D01*
X46701642Y-76847204D01*
X46777833Y-76809109D01*
X46815928Y-76771014D01*
X46854023Y-76694823D01*
X46854023Y-76542442D01*
X46815928Y-76466252D01*
X46777833Y-76428157D01*
X46701642Y-76390061D01*
X48002214Y-76207085D02*
X48040309Y-76245180D01*
X48078404Y-76359466D01*
X48078404Y-76435657D01*
X48040309Y-76549942D01*
X47964119Y-76626133D01*
X47887928Y-76664228D01*
X47735547Y-76702323D01*
X47621261Y-76702323D01*
X47468880Y-76664228D01*
X47392690Y-76626133D01*
X47316500Y-76549942D01*
X47278404Y-76435657D01*
X47278404Y-76359466D01*
X47316500Y-76245180D01*
X47354595Y-76207085D01*
X47354595Y-75902323D02*
X47316500Y-75864228D01*
X47278404Y-75788038D01*
X47278404Y-75597561D01*
X47316500Y-75521371D01*
X47354595Y-75483276D01*
X47430785Y-75445180D01*
X47506976Y-75445180D01*
X47621261Y-75483276D01*
X48078404Y-75940419D01*
X48078404Y-75445180D01*
X47278404Y-74759466D02*
X47278404Y-74911847D01*
X47316500Y-74988038D01*
X47354595Y-75026133D01*
X47468880Y-75102323D01*
X47621261Y-75140419D01*
X47926023Y-75140419D01*
X48002214Y-75102323D01*
X48040309Y-75064228D01*
X48078404Y-74988038D01*
X48078404Y-74835657D01*
X48040309Y-74759466D01*
X48002214Y-74721371D01*
X47926023Y-74683276D01*
X47735547Y-74683276D01*
X47659357Y-74721371D01*
X47621261Y-74759466D01*
X47583166Y-74835657D01*
X47583166Y-74988038D01*
X47621261Y-75064228D01*
X47659357Y-75102323D01*
X47735547Y-75140419D01*
X64316714Y-83725514D02*
X64278619Y-83763609D01*
X64164333Y-83801704D01*
X64088142Y-83801704D01*
X63973857Y-83763609D01*
X63897666Y-83687419D01*
X63859571Y-83611228D01*
X63821476Y-83458847D01*
X63821476Y-83344561D01*
X63859571Y-83192180D01*
X63897666Y-83115990D01*
X63973857Y-83039800D01*
X64088142Y-83001704D01*
X64164333Y-83001704D01*
X64278619Y-83039800D01*
X64316714Y-83077895D01*
X64621476Y-83077895D02*
X64659571Y-83039800D01*
X64735761Y-83001704D01*
X64926238Y-83001704D01*
X65002428Y-83039800D01*
X65040523Y-83077895D01*
X65078619Y-83154085D01*
X65078619Y-83230276D01*
X65040523Y-83344561D01*
X64583380Y-83801704D01*
X65078619Y-83801704D01*
X65802428Y-83001704D02*
X65421476Y-83001704D01*
X65383380Y-83382657D01*
X65421476Y-83344561D01*
X65497666Y-83306466D01*
X65688142Y-83306466D01*
X65764333Y-83344561D01*
X65802428Y-83382657D01*
X65840523Y-83458847D01*
X65840523Y-83649323D01*
X65802428Y-83725514D01*
X65764333Y-83763609D01*
X65688142Y-83801704D01*
X65497666Y-83801704D01*
X65421476Y-83763609D01*
X65383380Y-83725514D01*
X61964514Y-99066285D02*
X62002609Y-99104380D01*
X62040704Y-99218666D01*
X62040704Y-99294857D01*
X62002609Y-99409142D01*
X61926419Y-99485333D01*
X61850228Y-99523428D01*
X61697847Y-99561523D01*
X61583561Y-99561523D01*
X61431180Y-99523428D01*
X61354990Y-99485333D01*
X61278800Y-99409142D01*
X61240704Y-99294857D01*
X61240704Y-99218666D01*
X61278800Y-99104380D01*
X61316895Y-99066285D01*
X61316895Y-98761523D02*
X61278800Y-98723428D01*
X61240704Y-98647238D01*
X61240704Y-98456761D01*
X61278800Y-98380571D01*
X61316895Y-98342476D01*
X61393085Y-98304380D01*
X61469276Y-98304380D01*
X61583561Y-98342476D01*
X62040704Y-98799619D01*
X62040704Y-98304380D01*
X61316895Y-97999619D02*
X61278800Y-97961523D01*
X61240704Y-97885333D01*
X61240704Y-97694857D01*
X61278800Y-97618666D01*
X61316895Y-97580571D01*
X61393085Y-97542476D01*
X61469276Y-97542476D01*
X61583561Y-97580571D01*
X62040704Y-98037714D01*
X62040704Y-97542476D01*
X52711314Y-101834885D02*
X52749409Y-101872980D01*
X52787504Y-101987266D01*
X52787504Y-102063457D01*
X52749409Y-102177742D01*
X52673219Y-102253933D01*
X52597028Y-102292028D01*
X52444647Y-102330123D01*
X52330361Y-102330123D01*
X52177980Y-102292028D01*
X52101790Y-102253933D01*
X52025600Y-102177742D01*
X51987504Y-102063457D01*
X51987504Y-101987266D01*
X52025600Y-101872980D01*
X52063695Y-101834885D01*
X52063695Y-101530123D02*
X52025600Y-101492028D01*
X51987504Y-101415838D01*
X51987504Y-101225361D01*
X52025600Y-101149171D01*
X52063695Y-101111076D01*
X52139885Y-101072980D01*
X52216076Y-101072980D01*
X52330361Y-101111076D01*
X52787504Y-101568219D01*
X52787504Y-101072980D01*
X52787504Y-100311076D02*
X52787504Y-100768219D01*
X52787504Y-100539647D02*
X51987504Y-100539647D01*
X52101790Y-100615838D01*
X52177980Y-100692028D01*
X52216076Y-100768219D01*
X39805714Y-99313514D02*
X39767619Y-99351609D01*
X39653333Y-99389704D01*
X39577142Y-99389704D01*
X39462857Y-99351609D01*
X39386666Y-99275419D01*
X39348571Y-99199228D01*
X39310476Y-99046847D01*
X39310476Y-98932561D01*
X39348571Y-98780180D01*
X39386666Y-98703990D01*
X39462857Y-98627800D01*
X39577142Y-98589704D01*
X39653333Y-98589704D01*
X39767619Y-98627800D01*
X39805714Y-98665895D01*
X40110476Y-98665895D02*
X40148571Y-98627800D01*
X40224761Y-98589704D01*
X40415238Y-98589704D01*
X40491428Y-98627800D01*
X40529523Y-98665895D01*
X40567619Y-98742085D01*
X40567619Y-98818276D01*
X40529523Y-98932561D01*
X40072380Y-99389704D01*
X40567619Y-99389704D01*
X41062857Y-98589704D02*
X41139047Y-98589704D01*
X41215238Y-98627800D01*
X41253333Y-98665895D01*
X41291428Y-98742085D01*
X41329523Y-98894466D01*
X41329523Y-99084942D01*
X41291428Y-99237323D01*
X41253333Y-99313514D01*
X41215238Y-99351609D01*
X41139047Y-99389704D01*
X41062857Y-99389704D01*
X40986666Y-99351609D01*
X40948571Y-99313514D01*
X40910476Y-99237323D01*
X40872380Y-99084942D01*
X40872380Y-98894466D01*
X40910476Y-98742085D01*
X40948571Y-98665895D01*
X40986666Y-98627800D01*
X41062857Y-98589704D01*
X35424214Y-46514514D02*
X35386119Y-46552609D01*
X35271833Y-46590704D01*
X35195642Y-46590704D01*
X35081357Y-46552609D01*
X35005166Y-46476419D01*
X34967071Y-46400228D01*
X34928976Y-46247847D01*
X34928976Y-46133561D01*
X34967071Y-45981180D01*
X35005166Y-45904990D01*
X35081357Y-45828800D01*
X35195642Y-45790704D01*
X35271833Y-45790704D01*
X35386119Y-45828800D01*
X35424214Y-45866895D01*
X36186119Y-46590704D02*
X35728976Y-46590704D01*
X35957547Y-46590704D02*
X35957547Y-45790704D01*
X35881357Y-45904990D01*
X35805166Y-45981180D01*
X35728976Y-46019276D01*
X36567071Y-46590704D02*
X36719452Y-46590704D01*
X36795642Y-46552609D01*
X36833738Y-46514514D01*
X36909928Y-46400228D01*
X36948023Y-46247847D01*
X36948023Y-45943085D01*
X36909928Y-45866895D01*
X36871833Y-45828800D01*
X36795642Y-45790704D01*
X36643261Y-45790704D01*
X36567071Y-45828800D01*
X36528976Y-45866895D01*
X36490880Y-45943085D01*
X36490880Y-46133561D01*
X36528976Y-46209752D01*
X36567071Y-46247847D01*
X36643261Y-46285942D01*
X36795642Y-46285942D01*
X36871833Y-46247847D01*
X36909928Y-46209752D01*
X36948023Y-46133561D01*
X71143023Y-53118604D02*
X71143023Y-53766223D01*
X71181119Y-53842414D01*
X71219214Y-53880509D01*
X71295404Y-53918604D01*
X71447785Y-53918604D01*
X71523976Y-53880509D01*
X71562071Y-53842414D01*
X71600166Y-53766223D01*
X71600166Y-53118604D01*
X72400166Y-53918604D02*
X71943023Y-53918604D01*
X72171595Y-53918604D02*
X72171595Y-53118604D01*
X72095404Y-53232890D01*
X72019214Y-53309080D01*
X71943023Y-53347176D01*
X72895404Y-53118604D02*
X72971595Y-53118604D01*
X73047785Y-53156700D01*
X73085880Y-53194795D01*
X73123976Y-53270985D01*
X73162071Y-53423366D01*
X73162071Y-53613842D01*
X73123976Y-53766223D01*
X73085880Y-53842414D01*
X73047785Y-53880509D01*
X72971595Y-53918604D01*
X72895404Y-53918604D01*
X72819214Y-53880509D01*
X72781119Y-53842414D01*
X72743023Y-53766223D01*
X72704928Y-53613842D01*
X72704928Y-53423366D01*
X72743023Y-53270985D01*
X72781119Y-53194795D01*
X72819214Y-53156700D01*
X72895404Y-53118604D01*
X69301476Y-42234704D02*
X69301476Y-42882323D01*
X69339571Y-42958514D01*
X69377666Y-42996609D01*
X69453857Y-43034704D01*
X69606238Y-43034704D01*
X69682428Y-42996609D01*
X69720523Y-42958514D01*
X69758619Y-42882323D01*
X69758619Y-42234704D01*
X70063380Y-42234704D02*
X70596714Y-42234704D01*
X70253857Y-43034704D01*
X64621571Y-46146204D02*
X64621571Y-45346204D01*
X64812047Y-45346204D01*
X64926333Y-45384300D01*
X65002523Y-45460490D01*
X65040619Y-45536680D01*
X65078714Y-45689061D01*
X65078714Y-45803347D01*
X65040619Y-45955728D01*
X65002523Y-46031919D01*
X64926333Y-46108109D01*
X64812047Y-46146204D01*
X64621571Y-46146204D01*
X65383476Y-45422395D02*
X65421571Y-45384300D01*
X65497761Y-45346204D01*
X65688238Y-45346204D01*
X65764428Y-45384300D01*
X65802523Y-45422395D01*
X65840619Y-45498585D01*
X65840619Y-45574776D01*
X65802523Y-45689061D01*
X65345380Y-46146204D01*
X65840619Y-46146204D01*
X66526333Y-45346204D02*
X66373952Y-45346204D01*
X66297761Y-45384300D01*
X66259666Y-45422395D01*
X66183476Y-45536680D01*
X66145380Y-45689061D01*
X66145380Y-45993823D01*
X66183476Y-46070014D01*
X66221571Y-46108109D01*
X66297761Y-46146204D01*
X66450142Y-46146204D01*
X66526333Y-46108109D01*
X66564428Y-46070014D01*
X66602523Y-45993823D01*
X66602523Y-45803347D01*
X66564428Y-45727157D01*
X66526333Y-45689061D01*
X66450142Y-45650966D01*
X66297761Y-45650966D01*
X66221571Y-45689061D01*
X66183476Y-45727157D01*
X66145380Y-45803347D01*
X64662171Y-42500504D02*
X64662171Y-41700504D01*
X64852647Y-41700504D01*
X64966933Y-41738600D01*
X65043123Y-41814790D01*
X65081219Y-41890980D01*
X65119314Y-42043361D01*
X65119314Y-42157647D01*
X65081219Y-42310028D01*
X65043123Y-42386219D01*
X64966933Y-42462409D01*
X64852647Y-42500504D01*
X64662171Y-42500504D01*
X65424076Y-41776695D02*
X65462171Y-41738600D01*
X65538361Y-41700504D01*
X65728838Y-41700504D01*
X65805028Y-41738600D01*
X65843123Y-41776695D01*
X65881219Y-41852885D01*
X65881219Y-41929076D01*
X65843123Y-42043361D01*
X65385980Y-42500504D01*
X65881219Y-42500504D01*
X66605028Y-41700504D02*
X66224076Y-41700504D01*
X66185980Y-42081457D01*
X66224076Y-42043361D01*
X66300266Y-42005266D01*
X66490742Y-42005266D01*
X66566933Y-42043361D01*
X66605028Y-42081457D01*
X66643123Y-42157647D01*
X66643123Y-42348123D01*
X66605028Y-42424314D01*
X66566933Y-42462409D01*
X66490742Y-42500504D01*
X66300266Y-42500504D01*
X66224076Y-42462409D01*
X66185980Y-42424314D01*
X73257571Y-42526704D02*
X73257571Y-41726704D01*
X73448047Y-41726704D01*
X73562333Y-41764800D01*
X73638523Y-41840990D01*
X73676619Y-41917180D01*
X73714714Y-42069561D01*
X73714714Y-42183847D01*
X73676619Y-42336228D01*
X73638523Y-42412419D01*
X73562333Y-42488609D01*
X73448047Y-42526704D01*
X73257571Y-42526704D01*
X74019476Y-41802895D02*
X74057571Y-41764800D01*
X74133761Y-41726704D01*
X74324238Y-41726704D01*
X74400428Y-41764800D01*
X74438523Y-41802895D01*
X74476619Y-41879085D01*
X74476619Y-41955276D01*
X74438523Y-42069561D01*
X73981380Y-42526704D01*
X74476619Y-42526704D01*
X75162333Y-41993371D02*
X75162333Y-42526704D01*
X74971857Y-41688609D02*
X74781380Y-42260038D01*
X75276619Y-42260038D01*
X73257571Y-46082704D02*
X73257571Y-45282704D01*
X73448047Y-45282704D01*
X73562333Y-45320800D01*
X73638523Y-45396990D01*
X73676619Y-45473180D01*
X73714714Y-45625561D01*
X73714714Y-45739847D01*
X73676619Y-45892228D01*
X73638523Y-45968419D01*
X73562333Y-46044609D01*
X73448047Y-46082704D01*
X73257571Y-46082704D01*
X74476619Y-46082704D02*
X74019476Y-46082704D01*
X74248047Y-46082704D02*
X74248047Y-45282704D01*
X74171857Y-45396990D01*
X74095666Y-45473180D01*
X74019476Y-45511276D01*
X74933761Y-45625561D02*
X74857571Y-45587466D01*
X74819476Y-45549371D01*
X74781380Y-45473180D01*
X74781380Y-45435085D01*
X74819476Y-45358895D01*
X74857571Y-45320800D01*
X74933761Y-45282704D01*
X75086142Y-45282704D01*
X75162333Y-45320800D01*
X75200428Y-45358895D01*
X75238523Y-45435085D01*
X75238523Y-45473180D01*
X75200428Y-45549371D01*
X75162333Y-45587466D01*
X75086142Y-45625561D01*
X74933761Y-45625561D01*
X74857571Y-45663657D01*
X74819476Y-45701752D01*
X74781380Y-45777942D01*
X74781380Y-45930323D01*
X74819476Y-46006514D01*
X74857571Y-46044609D01*
X74933761Y-46082704D01*
X75086142Y-46082704D01*
X75162333Y-46044609D01*
X75200428Y-46006514D01*
X75238523Y-45930323D01*
X75238523Y-45777942D01*
X75200428Y-45701752D01*
X75162333Y-45663657D01*
X75086142Y-45625561D01*
X66780514Y-50070514D02*
X66742419Y-50108609D01*
X66628133Y-50146704D01*
X66551942Y-50146704D01*
X66437657Y-50108609D01*
X66361466Y-50032419D01*
X66323371Y-49956228D01*
X66285276Y-49803847D01*
X66285276Y-49689561D01*
X66323371Y-49537180D01*
X66361466Y-49460990D01*
X66437657Y-49384800D01*
X66551942Y-49346704D01*
X66628133Y-49346704D01*
X66742419Y-49384800D01*
X66780514Y-49422895D01*
X67466228Y-49613371D02*
X67466228Y-50146704D01*
X67275752Y-49308609D02*
X67085276Y-49880038D01*
X67580514Y-49880038D01*
X68037657Y-49346704D02*
X68113847Y-49346704D01*
X68190038Y-49384800D01*
X68228133Y-49422895D01*
X68266228Y-49499085D01*
X68304323Y-49651466D01*
X68304323Y-49841942D01*
X68266228Y-49994323D01*
X68228133Y-50070514D01*
X68190038Y-50108609D01*
X68113847Y-50146704D01*
X68037657Y-50146704D01*
X67961466Y-50108609D01*
X67923371Y-50070514D01*
X67885276Y-49994323D01*
X67847180Y-49841942D01*
X67847180Y-49651466D01*
X67885276Y-49499085D01*
X67923371Y-49422895D01*
X67961466Y-49384800D01*
X68037657Y-49346704D01*
X51775523Y-61157704D02*
X51775523Y-61805323D01*
X51813619Y-61881514D01*
X51851714Y-61919609D01*
X51927904Y-61957704D01*
X52080285Y-61957704D01*
X52156476Y-61919609D01*
X52194571Y-61881514D01*
X52232666Y-61805323D01*
X52232666Y-61157704D01*
X52994571Y-61157704D02*
X52613619Y-61157704D01*
X52575523Y-61538657D01*
X52613619Y-61500561D01*
X52689809Y-61462466D01*
X52880285Y-61462466D01*
X52956476Y-61500561D01*
X52994571Y-61538657D01*
X53032666Y-61614847D01*
X53032666Y-61805323D01*
X52994571Y-61881514D01*
X52956476Y-61919609D01*
X52880285Y-61957704D01*
X52689809Y-61957704D01*
X52613619Y-61919609D01*
X52575523Y-61881514D01*
X53718380Y-61424371D02*
X53718380Y-61957704D01*
X53527904Y-61119609D02*
X53337428Y-61691038D01*
X53832666Y-61691038D01*
X49787904Y-56172776D02*
X50435523Y-56172776D01*
X50511714Y-56134680D01*
X50549809Y-56096585D01*
X50587904Y-56020395D01*
X50587904Y-55868014D01*
X50549809Y-55791823D01*
X50511714Y-55753728D01*
X50435523Y-55715633D01*
X49787904Y-55715633D01*
X49787904Y-54953728D02*
X49787904Y-55334680D01*
X50168857Y-55372776D01*
X50130761Y-55334680D01*
X50092666Y-55258490D01*
X50092666Y-55068014D01*
X50130761Y-54991823D01*
X50168857Y-54953728D01*
X50245047Y-54915633D01*
X50435523Y-54915633D01*
X50511714Y-54953728D01*
X50549809Y-54991823D01*
X50587904Y-55068014D01*
X50587904Y-55258490D01*
X50549809Y-55334680D01*
X50511714Y-55372776D01*
X49787904Y-54420395D02*
X49787904Y-54344204D01*
X49826000Y-54268014D01*
X49864095Y-54229919D01*
X49940285Y-54191823D01*
X50092666Y-54153728D01*
X50283142Y-54153728D01*
X50435523Y-54191823D01*
X50511714Y-54229919D01*
X50549809Y-54268014D01*
X50587904Y-54344204D01*
X50587904Y-54420395D01*
X50549809Y-54496585D01*
X50511714Y-54534680D01*
X50435523Y-54572776D01*
X50283142Y-54610871D01*
X50092666Y-54610871D01*
X49940285Y-54572776D01*
X49864095Y-54534680D01*
X49826000Y-54496585D01*
X49787904Y-54420395D01*
X63205523Y-60395704D02*
X63205523Y-61043323D01*
X63243619Y-61119514D01*
X63281714Y-61157609D01*
X63357904Y-61195704D01*
X63510285Y-61195704D01*
X63586476Y-61157609D01*
X63624571Y-61119514D01*
X63662666Y-61043323D01*
X63662666Y-60395704D01*
X64386476Y-60662371D02*
X64386476Y-61195704D01*
X64196000Y-60357609D02*
X64005523Y-60929038D01*
X64500761Y-60929038D01*
X65148380Y-60662371D02*
X65148380Y-61195704D01*
X64957904Y-60357609D02*
X64767428Y-60929038D01*
X65262666Y-60929038D01*
X56931723Y-73387804D02*
X56931723Y-74035423D01*
X56969819Y-74111614D01*
X57007914Y-74149709D01*
X57084104Y-74187804D01*
X57236485Y-74187804D01*
X57312676Y-74149709D01*
X57350771Y-74111614D01*
X57388866Y-74035423D01*
X57388866Y-73387804D01*
X58112676Y-73654471D02*
X58112676Y-74187804D01*
X57922200Y-73349709D02*
X57731723Y-73921138D01*
X58226961Y-73921138D01*
X58455533Y-73387804D02*
X58950771Y-73387804D01*
X58684104Y-73692566D01*
X58798390Y-73692566D01*
X58874580Y-73730661D01*
X58912676Y-73768757D01*
X58950771Y-73844947D01*
X58950771Y-74035423D01*
X58912676Y-74111614D01*
X58874580Y-74149709D01*
X58798390Y-74187804D01*
X58569819Y-74187804D01*
X58493628Y-74149709D01*
X58455533Y-74111614D01*
X63205523Y-52077204D02*
X63205523Y-52724823D01*
X63243619Y-52801014D01*
X63281714Y-52839109D01*
X63357904Y-52877204D01*
X63510285Y-52877204D01*
X63586476Y-52839109D01*
X63624571Y-52801014D01*
X63662666Y-52724823D01*
X63662666Y-52077204D01*
X64386476Y-52343871D02*
X64386476Y-52877204D01*
X64196000Y-52039109D02*
X64005523Y-52610538D01*
X64500761Y-52610538D01*
X64957904Y-52077204D02*
X65034095Y-52077204D01*
X65110285Y-52115300D01*
X65148380Y-52153395D01*
X65186476Y-52229585D01*
X65224571Y-52381966D01*
X65224571Y-52572442D01*
X65186476Y-52724823D01*
X65148380Y-52801014D01*
X65110285Y-52839109D01*
X65034095Y-52877204D01*
X64957904Y-52877204D01*
X64881714Y-52839109D01*
X64843619Y-52801014D01*
X64805523Y-52724823D01*
X64767428Y-52572442D01*
X64767428Y-52381966D01*
X64805523Y-52229585D01*
X64843619Y-52153395D01*
X64881714Y-52115300D01*
X64957904Y-52077204D01*
X57084123Y-64726404D02*
X57084123Y-65374023D01*
X57122219Y-65450214D01*
X57160314Y-65488309D01*
X57236504Y-65526404D01*
X57388885Y-65526404D01*
X57465076Y-65488309D01*
X57503171Y-65450214D01*
X57541266Y-65374023D01*
X57541266Y-64726404D01*
X57846028Y-64726404D02*
X58341266Y-64726404D01*
X58074600Y-65031166D01*
X58188885Y-65031166D01*
X58265076Y-65069261D01*
X58303171Y-65107357D01*
X58341266Y-65183547D01*
X58341266Y-65374023D01*
X58303171Y-65450214D01*
X58265076Y-65488309D01*
X58188885Y-65526404D01*
X57960314Y-65526404D01*
X57884123Y-65488309D01*
X57846028Y-65450214D01*
X58722219Y-65526404D02*
X58874600Y-65526404D01*
X58950790Y-65488309D01*
X58988885Y-65450214D01*
X59065076Y-65335928D01*
X59103171Y-65183547D01*
X59103171Y-64878785D01*
X59065076Y-64802595D01*
X59026980Y-64764500D01*
X58950790Y-64726404D01*
X58798409Y-64726404D01*
X58722219Y-64764500D01*
X58684123Y-64802595D01*
X58646028Y-64878785D01*
X58646028Y-65069261D01*
X58684123Y-65145452D01*
X58722219Y-65183547D01*
X58798409Y-65221642D01*
X58950790Y-65221642D01*
X59026980Y-65183547D01*
X59065076Y-65145452D01*
X59103171Y-65069261D01*
X33138214Y-90469204D02*
X32871547Y-90088252D01*
X32681071Y-90469204D02*
X32681071Y-89669204D01*
X32985833Y-89669204D01*
X33062023Y-89707300D01*
X33100119Y-89745395D01*
X33138214Y-89821585D01*
X33138214Y-89935871D01*
X33100119Y-90012061D01*
X33062023Y-90050157D01*
X32985833Y-90088252D01*
X32681071Y-90088252D01*
X33862023Y-89669204D02*
X33481071Y-89669204D01*
X33442976Y-90050157D01*
X33481071Y-90012061D01*
X33557261Y-89973966D01*
X33747738Y-89973966D01*
X33823928Y-90012061D01*
X33862023Y-90050157D01*
X33900119Y-90126347D01*
X33900119Y-90316823D01*
X33862023Y-90393014D01*
X33823928Y-90431109D01*
X33747738Y-90469204D01*
X33557261Y-90469204D01*
X33481071Y-90431109D01*
X33442976Y-90393014D01*
X34395357Y-89669204D02*
X34471547Y-89669204D01*
X34547738Y-89707300D01*
X34585833Y-89745395D01*
X34623928Y-89821585D01*
X34662023Y-89973966D01*
X34662023Y-90164442D01*
X34623928Y-90316823D01*
X34585833Y-90393014D01*
X34547738Y-90431109D01*
X34471547Y-90469204D01*
X34395357Y-90469204D01*
X34319166Y-90431109D01*
X34281071Y-90393014D01*
X34242976Y-90316823D01*
X34204880Y-90164442D01*
X34204880Y-89973966D01*
X34242976Y-89821585D01*
X34281071Y-89745395D01*
X34319166Y-89707300D01*
X34395357Y-89669204D01*
X60563833Y-105043704D02*
X60563833Y-105615133D01*
X60525738Y-105729419D01*
X60449547Y-105805609D01*
X60335261Y-105843704D01*
X60259071Y-105843704D01*
X61363833Y-105843704D02*
X60906690Y-105843704D01*
X61135261Y-105843704D02*
X61135261Y-105043704D01*
X61059071Y-105157990D01*
X60982880Y-105234180D01*
X60906690Y-105272276D01*
X35456023Y-69666704D02*
X35456023Y-70314323D01*
X35494119Y-70390514D01*
X35532214Y-70428609D01*
X35608404Y-70466704D01*
X35760785Y-70466704D01*
X35836976Y-70428609D01*
X35875071Y-70390514D01*
X35913166Y-70314323D01*
X35913166Y-69666704D01*
X36217928Y-69666704D02*
X36713166Y-69666704D01*
X36446500Y-69971466D01*
X36560785Y-69971466D01*
X36636976Y-70009561D01*
X36675071Y-70047657D01*
X36713166Y-70123847D01*
X36713166Y-70314323D01*
X36675071Y-70390514D01*
X36636976Y-70428609D01*
X36560785Y-70466704D01*
X36332214Y-70466704D01*
X36256023Y-70428609D01*
X36217928Y-70390514D01*
X36979833Y-69666704D02*
X37475071Y-69666704D01*
X37208404Y-69971466D01*
X37322690Y-69971466D01*
X37398880Y-70009561D01*
X37436976Y-70047657D01*
X37475071Y-70123847D01*
X37475071Y-70314323D01*
X37436976Y-70390514D01*
X37398880Y-70428609D01*
X37322690Y-70466704D01*
X37094119Y-70466704D01*
X37017928Y-70428609D01*
X36979833Y-70390514D01*
X39221404Y-65412038D02*
X38840452Y-65678704D01*
X39221404Y-65869180D02*
X38421404Y-65869180D01*
X38421404Y-65564419D01*
X38459500Y-65488228D01*
X38497595Y-65450133D01*
X38573785Y-65412038D01*
X38688071Y-65412038D01*
X38764261Y-65450133D01*
X38802357Y-65488228D01*
X38840452Y-65564419D01*
X38840452Y-65869180D01*
X39221404Y-64650133D02*
X39221404Y-65107276D01*
X39221404Y-64878704D02*
X38421404Y-64878704D01*
X38535690Y-64954895D01*
X38611880Y-65031085D01*
X38649976Y-65107276D01*
X38497595Y-64345371D02*
X38459500Y-64307276D01*
X38421404Y-64231085D01*
X38421404Y-64040609D01*
X38459500Y-63964419D01*
X38497595Y-63926323D01*
X38573785Y-63888228D01*
X38649976Y-63888228D01*
X38764261Y-63926323D01*
X39221404Y-64383466D01*
X39221404Y-63888228D01*
X38421404Y-63164419D02*
X38421404Y-63545371D01*
X38802357Y-63583466D01*
X38764261Y-63545371D01*
X38726166Y-63469180D01*
X38726166Y-63278704D01*
X38764261Y-63202514D01*
X38802357Y-63164419D01*
X38878547Y-63126323D01*
X39069023Y-63126323D01*
X39145214Y-63164419D01*
X39183309Y-63202514D01*
X39221404Y-63278704D01*
X39221404Y-63469180D01*
X39183309Y-63545371D01*
X39145214Y-63583466D01*
X34839904Y-65412038D02*
X34458952Y-65678704D01*
X34839904Y-65869180D02*
X34039904Y-65869180D01*
X34039904Y-65564419D01*
X34078000Y-65488228D01*
X34116095Y-65450133D01*
X34192285Y-65412038D01*
X34306571Y-65412038D01*
X34382761Y-65450133D01*
X34420857Y-65488228D01*
X34458952Y-65564419D01*
X34458952Y-65869180D01*
X34839904Y-64650133D02*
X34839904Y-65107276D01*
X34839904Y-64878704D02*
X34039904Y-64878704D01*
X34154190Y-64954895D01*
X34230380Y-65031085D01*
X34268476Y-65107276D01*
X34116095Y-64345371D02*
X34078000Y-64307276D01*
X34039904Y-64231085D01*
X34039904Y-64040609D01*
X34078000Y-63964419D01*
X34116095Y-63926323D01*
X34192285Y-63888228D01*
X34268476Y-63888228D01*
X34382761Y-63926323D01*
X34839904Y-64383466D01*
X34839904Y-63888228D01*
X34306571Y-63202514D02*
X34839904Y-63202514D01*
X34001809Y-63392990D02*
X34573238Y-63583466D01*
X34573238Y-63088228D01*
X40669204Y-80474238D02*
X40288252Y-80740904D01*
X40669204Y-80931380D02*
X39869204Y-80931380D01*
X39869204Y-80626619D01*
X39907300Y-80550428D01*
X39945395Y-80512333D01*
X40021585Y-80474238D01*
X40135871Y-80474238D01*
X40212061Y-80512333D01*
X40250157Y-80550428D01*
X40288252Y-80626619D01*
X40288252Y-80931380D01*
X40669204Y-79712333D02*
X40669204Y-80169476D01*
X40669204Y-79940904D02*
X39869204Y-79940904D01*
X39983490Y-80017095D01*
X40059680Y-80093285D01*
X40097776Y-80169476D01*
X40669204Y-78950428D02*
X40669204Y-79407571D01*
X40669204Y-79179000D02*
X39869204Y-79179000D01*
X39983490Y-79255190D01*
X40059680Y-79331380D01*
X40097776Y-79407571D01*
X39869204Y-78683761D02*
X39869204Y-78150428D01*
X40669204Y-78493285D01*
X37583104Y-80398038D02*
X37202152Y-80664704D01*
X37583104Y-80855180D02*
X36783104Y-80855180D01*
X36783104Y-80550419D01*
X36821200Y-80474228D01*
X36859295Y-80436133D01*
X36935485Y-80398038D01*
X37049771Y-80398038D01*
X37125961Y-80436133D01*
X37164057Y-80474228D01*
X37202152Y-80550419D01*
X37202152Y-80855180D01*
X37583104Y-79636133D02*
X37583104Y-80093276D01*
X37583104Y-79864704D02*
X36783104Y-79864704D01*
X36897390Y-79940895D01*
X36973580Y-80017085D01*
X37011676Y-80093276D01*
X37583104Y-78874228D02*
X37583104Y-79331371D01*
X37583104Y-79102800D02*
X36783104Y-79102800D01*
X36897390Y-79178990D01*
X36973580Y-79255180D01*
X37011676Y-79331371D01*
X36783104Y-78188514D02*
X36783104Y-78340895D01*
X36821200Y-78417085D01*
X36859295Y-78455180D01*
X36973580Y-78531371D01*
X37125961Y-78569466D01*
X37430723Y-78569466D01*
X37506914Y-78531371D01*
X37545009Y-78493276D01*
X37583104Y-78417085D01*
X37583104Y-78264704D01*
X37545009Y-78188514D01*
X37506914Y-78150419D01*
X37430723Y-78112323D01*
X37240247Y-78112323D01*
X37164057Y-78150419D01*
X37125961Y-78188514D01*
X37087866Y-78264704D01*
X37087866Y-78417085D01*
X37125961Y-78493276D01*
X37164057Y-78531371D01*
X37240247Y-78569466D01*
X39157904Y-80423438D02*
X38776952Y-80690104D01*
X39157904Y-80880580D02*
X38357904Y-80880580D01*
X38357904Y-80575819D01*
X38396000Y-80499628D01*
X38434095Y-80461533D01*
X38510285Y-80423438D01*
X38624571Y-80423438D01*
X38700761Y-80461533D01*
X38738857Y-80499628D01*
X38776952Y-80575819D01*
X38776952Y-80880580D01*
X39157904Y-79661533D02*
X39157904Y-80118676D01*
X39157904Y-79890104D02*
X38357904Y-79890104D01*
X38472190Y-79966295D01*
X38548380Y-80042485D01*
X38586476Y-80118676D01*
X38357904Y-79166295D02*
X38357904Y-79090104D01*
X38396000Y-79013914D01*
X38434095Y-78975819D01*
X38510285Y-78937723D01*
X38662666Y-78899628D01*
X38853142Y-78899628D01*
X39005523Y-78937723D01*
X39081714Y-78975819D01*
X39119809Y-79013914D01*
X39157904Y-79090104D01*
X39157904Y-79166295D01*
X39119809Y-79242485D01*
X39081714Y-79280580D01*
X39005523Y-79318676D01*
X38853142Y-79356771D01*
X38662666Y-79356771D01*
X38510285Y-79318676D01*
X38434095Y-79280580D01*
X38396000Y-79242485D01*
X38357904Y-79166295D01*
X39157904Y-78518676D02*
X39157904Y-78366295D01*
X39119809Y-78290104D01*
X39081714Y-78252009D01*
X38967428Y-78175819D01*
X38815047Y-78137723D01*
X38510285Y-78137723D01*
X38434095Y-78175819D01*
X38396000Y-78213914D01*
X38357904Y-78290104D01*
X38357904Y-78442485D01*
X38396000Y-78518676D01*
X38434095Y-78556771D01*
X38510285Y-78594866D01*
X38700761Y-78594866D01*
X38776952Y-78556771D01*
X38815047Y-78518676D01*
X38853142Y-78442485D01*
X38853142Y-78290104D01*
X38815047Y-78213914D01*
X38776952Y-78175819D01*
X38700761Y-78137723D01*
X36071804Y-80385338D02*
X35690852Y-80652004D01*
X36071804Y-80842480D02*
X35271804Y-80842480D01*
X35271804Y-80537719D01*
X35309900Y-80461528D01*
X35347995Y-80423433D01*
X35424185Y-80385338D01*
X35538471Y-80385338D01*
X35614661Y-80423433D01*
X35652757Y-80461528D01*
X35690852Y-80537719D01*
X35690852Y-80842480D01*
X36071804Y-79623433D02*
X36071804Y-80080576D01*
X36071804Y-79852004D02*
X35271804Y-79852004D01*
X35386090Y-79928195D01*
X35462280Y-80004385D01*
X35500376Y-80080576D01*
X35271804Y-79128195D02*
X35271804Y-79052004D01*
X35309900Y-78975814D01*
X35347995Y-78937719D01*
X35424185Y-78899623D01*
X35576566Y-78861528D01*
X35767042Y-78861528D01*
X35919423Y-78899623D01*
X35995614Y-78937719D01*
X36033709Y-78975814D01*
X36071804Y-79052004D01*
X36071804Y-79128195D01*
X36033709Y-79204385D01*
X35995614Y-79242480D01*
X35919423Y-79280576D01*
X35767042Y-79318671D01*
X35576566Y-79318671D01*
X35424185Y-79280576D01*
X35347995Y-79242480D01*
X35309900Y-79204385D01*
X35271804Y-79128195D01*
X35614661Y-78404385D02*
X35576566Y-78480576D01*
X35538471Y-78518671D01*
X35462280Y-78556766D01*
X35424185Y-78556766D01*
X35347995Y-78518671D01*
X35309900Y-78480576D01*
X35271804Y-78404385D01*
X35271804Y-78252004D01*
X35309900Y-78175814D01*
X35347995Y-78137719D01*
X35424185Y-78099623D01*
X35462280Y-78099623D01*
X35538471Y-78137719D01*
X35576566Y-78175814D01*
X35614661Y-78252004D01*
X35614661Y-78404385D01*
X35652757Y-78480576D01*
X35690852Y-78518671D01*
X35767042Y-78556766D01*
X35919423Y-78556766D01*
X35995614Y-78518671D01*
X36033709Y-78480576D01*
X36071804Y-78404385D01*
X36071804Y-78252004D01*
X36033709Y-78175814D01*
X35995614Y-78137719D01*
X35919423Y-78099623D01*
X35767042Y-78099623D01*
X35690852Y-78137719D01*
X35652757Y-78175814D01*
X35614661Y-78252004D01*
X22762214Y-70111085D02*
X22800309Y-70149180D01*
X22838404Y-70263466D01*
X22838404Y-70339657D01*
X22800309Y-70453942D01*
X22724119Y-70530133D01*
X22647928Y-70568228D01*
X22495547Y-70606323D01*
X22381261Y-70606323D01*
X22228880Y-70568228D01*
X22152690Y-70530133D01*
X22076500Y-70453942D01*
X22038404Y-70339657D01*
X22038404Y-70263466D01*
X22076500Y-70149180D01*
X22114595Y-70111085D01*
X22838404Y-69349180D02*
X22838404Y-69806323D01*
X22838404Y-69577752D02*
X22038404Y-69577752D01*
X22152690Y-69653942D01*
X22228880Y-69730133D01*
X22266976Y-69806323D01*
X22038404Y-69082514D02*
X22038404Y-68549180D01*
X22838404Y-68892038D01*
X89646809Y-95815895D02*
X89570619Y-95777800D01*
X89494428Y-95701609D01*
X89380142Y-95587323D01*
X89303952Y-95549228D01*
X89227761Y-95549228D01*
X89265857Y-95739704D02*
X89189666Y-95701609D01*
X89113476Y-95625419D01*
X89075380Y-95473038D01*
X89075380Y-95206371D01*
X89113476Y-95053990D01*
X89189666Y-94977800D01*
X89265857Y-94939704D01*
X89418238Y-94939704D01*
X89494428Y-94977800D01*
X89570619Y-95053990D01*
X89608714Y-95206371D01*
X89608714Y-95473038D01*
X89570619Y-95625419D01*
X89494428Y-95701609D01*
X89418238Y-95739704D01*
X89265857Y-95739704D01*
X90370619Y-95739704D02*
X89913476Y-95739704D01*
X90142047Y-95739704D02*
X90142047Y-94939704D01*
X90065857Y-95053990D01*
X89989666Y-95130180D01*
X89913476Y-95168276D01*
X53572404Y-50997585D02*
X53191452Y-51264252D01*
X53572404Y-51454728D02*
X52772404Y-51454728D01*
X52772404Y-51149966D01*
X52810500Y-51073776D01*
X52848595Y-51035680D01*
X52924785Y-50997585D01*
X53039071Y-50997585D01*
X53115261Y-51035680D01*
X53153357Y-51073776D01*
X53191452Y-51149966D01*
X53191452Y-51454728D01*
X53039071Y-50311871D02*
X53572404Y-50311871D01*
X52734309Y-50502347D02*
X53305738Y-50692823D01*
X53305738Y-50197585D01*
X53572404Y-49473776D02*
X53572404Y-49930919D01*
X53572404Y-49702347D02*
X52772404Y-49702347D01*
X52886690Y-49778538D01*
X52962880Y-49854728D01*
X53000976Y-49930919D01*
X51984904Y-51124585D02*
X51603952Y-51391252D01*
X51984904Y-51581728D02*
X51184904Y-51581728D01*
X51184904Y-51276966D01*
X51223000Y-51200776D01*
X51261095Y-51162680D01*
X51337285Y-51124585D01*
X51451571Y-51124585D01*
X51527761Y-51162680D01*
X51565857Y-51200776D01*
X51603952Y-51276966D01*
X51603952Y-51581728D01*
X51451571Y-50438871D02*
X51984904Y-50438871D01*
X51146809Y-50629347D02*
X51718238Y-50819823D01*
X51718238Y-50324585D01*
X51184904Y-49867442D02*
X51184904Y-49791252D01*
X51223000Y-49715061D01*
X51261095Y-49676966D01*
X51337285Y-49638871D01*
X51489666Y-49600776D01*
X51680142Y-49600776D01*
X51832523Y-49638871D01*
X51908714Y-49676966D01*
X51946809Y-49715061D01*
X51984904Y-49791252D01*
X51984904Y-49867442D01*
X51946809Y-49943633D01*
X51908714Y-49981728D01*
X51832523Y-50019823D01*
X51680142Y-50057919D01*
X51489666Y-50057919D01*
X51337285Y-50019823D01*
X51261095Y-49981728D01*
X51223000Y-49943633D01*
X51184904Y-49867442D01*
X49587104Y-41523385D02*
X49206152Y-41790052D01*
X49587104Y-41980528D02*
X48787104Y-41980528D01*
X48787104Y-41675766D01*
X48825200Y-41599576D01*
X48863295Y-41561480D01*
X48939485Y-41523385D01*
X49053771Y-41523385D01*
X49129961Y-41561480D01*
X49168057Y-41599576D01*
X49206152Y-41675766D01*
X49206152Y-41980528D01*
X48787104Y-41256719D02*
X48787104Y-40761480D01*
X49091866Y-41028147D01*
X49091866Y-40913861D01*
X49129961Y-40837671D01*
X49168057Y-40799576D01*
X49244247Y-40761480D01*
X49434723Y-40761480D01*
X49510914Y-40799576D01*
X49549009Y-40837671D01*
X49587104Y-40913861D01*
X49587104Y-41142433D01*
X49549009Y-41218623D01*
X49510914Y-41256719D01*
X49587104Y-40380528D02*
X49587104Y-40228147D01*
X49549009Y-40151957D01*
X49510914Y-40113861D01*
X49396628Y-40037671D01*
X49244247Y-39999576D01*
X48939485Y-39999576D01*
X48863295Y-40037671D01*
X48825200Y-40075766D01*
X48787104Y-40151957D01*
X48787104Y-40304338D01*
X48825200Y-40380528D01*
X48863295Y-40418623D01*
X48939485Y-40456719D01*
X49129961Y-40456719D01*
X49206152Y-40418623D01*
X49244247Y-40380528D01*
X49282342Y-40304338D01*
X49282342Y-40151957D01*
X49244247Y-40075766D01*
X49206152Y-40037671D01*
X49129961Y-39999576D01*
X52736704Y-41459085D02*
X52355752Y-41725752D01*
X52736704Y-41916228D02*
X51936704Y-41916228D01*
X51936704Y-41611466D01*
X51974800Y-41535276D01*
X52012895Y-41497180D01*
X52089085Y-41459085D01*
X52203371Y-41459085D01*
X52279561Y-41497180D01*
X52317657Y-41535276D01*
X52355752Y-41611466D01*
X52355752Y-41916228D01*
X51936704Y-41192419D02*
X51936704Y-40697180D01*
X52241466Y-40963847D01*
X52241466Y-40849561D01*
X52279561Y-40773371D01*
X52317657Y-40735276D01*
X52393847Y-40697180D01*
X52584323Y-40697180D01*
X52660514Y-40735276D01*
X52698609Y-40773371D01*
X52736704Y-40849561D01*
X52736704Y-41078133D01*
X52698609Y-41154323D01*
X52660514Y-41192419D01*
X52279561Y-40240038D02*
X52241466Y-40316228D01*
X52203371Y-40354323D01*
X52127180Y-40392419D01*
X52089085Y-40392419D01*
X52012895Y-40354323D01*
X51974800Y-40316228D01*
X51936704Y-40240038D01*
X51936704Y-40087657D01*
X51974800Y-40011466D01*
X52012895Y-39973371D01*
X52089085Y-39935276D01*
X52127180Y-39935276D01*
X52203371Y-39973371D01*
X52241466Y-40011466D01*
X52279561Y-40087657D01*
X52279561Y-40240038D01*
X52317657Y-40316228D01*
X52355752Y-40354323D01*
X52431942Y-40392419D01*
X52584323Y-40392419D01*
X52660514Y-40354323D01*
X52698609Y-40316228D01*
X52736704Y-40240038D01*
X52736704Y-40087657D01*
X52698609Y-40011466D01*
X52660514Y-39973371D01*
X52584323Y-39935276D01*
X52431942Y-39935276D01*
X52355752Y-39973371D01*
X52317657Y-40011466D01*
X52279561Y-40087657D01*
X55159904Y-51124585D02*
X54778952Y-51391252D01*
X55159904Y-51581728D02*
X54359904Y-51581728D01*
X54359904Y-51276966D01*
X54398000Y-51200776D01*
X54436095Y-51162680D01*
X54512285Y-51124585D01*
X54626571Y-51124585D01*
X54702761Y-51162680D01*
X54740857Y-51200776D01*
X54778952Y-51276966D01*
X54778952Y-51581728D01*
X54359904Y-50857919D02*
X54359904Y-50362680D01*
X54664666Y-50629347D01*
X54664666Y-50515061D01*
X54702761Y-50438871D01*
X54740857Y-50400776D01*
X54817047Y-50362680D01*
X55007523Y-50362680D01*
X55083714Y-50400776D01*
X55121809Y-50438871D01*
X55159904Y-50515061D01*
X55159904Y-50743633D01*
X55121809Y-50819823D01*
X55083714Y-50857919D01*
X54359904Y-50096014D02*
X54359904Y-49562680D01*
X55159904Y-49905538D01*
X55667904Y-41462385D02*
X55286952Y-41729052D01*
X55667904Y-41919528D02*
X54867904Y-41919528D01*
X54867904Y-41614766D01*
X54906000Y-41538576D01*
X54944095Y-41500480D01*
X55020285Y-41462385D01*
X55134571Y-41462385D01*
X55210761Y-41500480D01*
X55248857Y-41538576D01*
X55286952Y-41614766D01*
X55286952Y-41919528D01*
X54867904Y-41195719D02*
X54867904Y-40700480D01*
X55172666Y-40967147D01*
X55172666Y-40852861D01*
X55210761Y-40776671D01*
X55248857Y-40738576D01*
X55325047Y-40700480D01*
X55515523Y-40700480D01*
X55591714Y-40738576D01*
X55629809Y-40776671D01*
X55667904Y-40852861D01*
X55667904Y-41081433D01*
X55629809Y-41157623D01*
X55591714Y-41195719D01*
X54867904Y-39976671D02*
X54867904Y-40357623D01*
X55248857Y-40395719D01*
X55210761Y-40357623D01*
X55172666Y-40281433D01*
X55172666Y-40090957D01*
X55210761Y-40014766D01*
X55248857Y-39976671D01*
X55325047Y-39938576D01*
X55515523Y-39938576D01*
X55591714Y-39976671D01*
X55629809Y-40014766D01*
X55667904Y-40090957D01*
X55667904Y-40281433D01*
X55629809Y-40357623D01*
X55591714Y-40395719D01*
X56620404Y-51188085D02*
X56239452Y-51454752D01*
X56620404Y-51645228D02*
X55820404Y-51645228D01*
X55820404Y-51340466D01*
X55858500Y-51264276D01*
X55896595Y-51226180D01*
X55972785Y-51188085D01*
X56087071Y-51188085D01*
X56163261Y-51226180D01*
X56201357Y-51264276D01*
X56239452Y-51340466D01*
X56239452Y-51645228D01*
X55820404Y-50921419D02*
X55820404Y-50426180D01*
X56125166Y-50692847D01*
X56125166Y-50578561D01*
X56163261Y-50502371D01*
X56201357Y-50464276D01*
X56277547Y-50426180D01*
X56468023Y-50426180D01*
X56544214Y-50464276D01*
X56582309Y-50502371D01*
X56620404Y-50578561D01*
X56620404Y-50807133D01*
X56582309Y-50883323D01*
X56544214Y-50921419D01*
X56087071Y-49740466D02*
X56620404Y-49740466D01*
X55782309Y-49930942D02*
X56353738Y-50121419D01*
X56353738Y-49626180D01*
X58804804Y-41523385D02*
X58423852Y-41790052D01*
X58804804Y-41980528D02*
X58004804Y-41980528D01*
X58004804Y-41675766D01*
X58042900Y-41599576D01*
X58080995Y-41561480D01*
X58157185Y-41523385D01*
X58271471Y-41523385D01*
X58347661Y-41561480D01*
X58385757Y-41599576D01*
X58423852Y-41675766D01*
X58423852Y-41980528D01*
X58004804Y-41256719D02*
X58004804Y-40761480D01*
X58309566Y-41028147D01*
X58309566Y-40913861D01*
X58347661Y-40837671D01*
X58385757Y-40799576D01*
X58461947Y-40761480D01*
X58652423Y-40761480D01*
X58728614Y-40799576D01*
X58766709Y-40837671D01*
X58804804Y-40913861D01*
X58804804Y-41142433D01*
X58766709Y-41218623D01*
X58728614Y-41256719D01*
X58080995Y-40456719D02*
X58042900Y-40418623D01*
X58004804Y-40342433D01*
X58004804Y-40151957D01*
X58042900Y-40075766D01*
X58080995Y-40037671D01*
X58157185Y-39999576D01*
X58233376Y-39999576D01*
X58347661Y-40037671D01*
X58804804Y-40494814D01*
X58804804Y-39999576D01*
X59607404Y-51098385D02*
X59226452Y-51365052D01*
X59607404Y-51555528D02*
X58807404Y-51555528D01*
X58807404Y-51250766D01*
X58845500Y-51174576D01*
X58883595Y-51136480D01*
X58959785Y-51098385D01*
X59074071Y-51098385D01*
X59150261Y-51136480D01*
X59188357Y-51174576D01*
X59226452Y-51250766D01*
X59226452Y-51555528D01*
X58807404Y-50831719D02*
X58807404Y-50336480D01*
X59112166Y-50603147D01*
X59112166Y-50488861D01*
X59150261Y-50412671D01*
X59188357Y-50374576D01*
X59264547Y-50336480D01*
X59455023Y-50336480D01*
X59531214Y-50374576D01*
X59569309Y-50412671D01*
X59607404Y-50488861D01*
X59607404Y-50717433D01*
X59569309Y-50793623D01*
X59531214Y-50831719D01*
X59607404Y-49574576D02*
X59607404Y-50031719D01*
X59607404Y-49803147D02*
X58807404Y-49803147D01*
X58921690Y-49879338D01*
X58997880Y-49955528D01*
X59035976Y-50031719D01*
X62591904Y-49383885D02*
X62210952Y-49650552D01*
X62591904Y-49841028D02*
X61791904Y-49841028D01*
X61791904Y-49536266D01*
X61830000Y-49460076D01*
X61868095Y-49421980D01*
X61944285Y-49383885D01*
X62058571Y-49383885D01*
X62134761Y-49421980D01*
X62172857Y-49460076D01*
X62210952Y-49536266D01*
X62210952Y-49841028D01*
X61868095Y-49079123D02*
X61830000Y-49041028D01*
X61791904Y-48964838D01*
X61791904Y-48774361D01*
X61830000Y-48698171D01*
X61868095Y-48660076D01*
X61944285Y-48621980D01*
X62020476Y-48621980D01*
X62134761Y-48660076D01*
X62591904Y-49117219D01*
X62591904Y-48621980D01*
X62058571Y-47936266D02*
X62591904Y-47936266D01*
X61753809Y-48126742D02*
X62325238Y-48317219D01*
X62325238Y-47821980D01*
X28921714Y-50337185D02*
X28959809Y-50375280D01*
X28997904Y-50489566D01*
X28997904Y-50565757D01*
X28959809Y-50680042D01*
X28883619Y-50756233D01*
X28807428Y-50794328D01*
X28655047Y-50832423D01*
X28540761Y-50832423D01*
X28388380Y-50794328D01*
X28312190Y-50756233D01*
X28236000Y-50680042D01*
X28197904Y-50565757D01*
X28197904Y-50489566D01*
X28236000Y-50375280D01*
X28274095Y-50337185D01*
X28997904Y-49575280D02*
X28997904Y-50032423D01*
X28997904Y-49803852D02*
X28197904Y-49803852D01*
X28312190Y-49880042D01*
X28388380Y-49956233D01*
X28426476Y-50032423D01*
X28540761Y-49118138D02*
X28502666Y-49194328D01*
X28464571Y-49232423D01*
X28388380Y-49270519D01*
X28350285Y-49270519D01*
X28274095Y-49232423D01*
X28236000Y-49194328D01*
X28197904Y-49118138D01*
X28197904Y-48965757D01*
X28236000Y-48889566D01*
X28274095Y-48851471D01*
X28350285Y-48813376D01*
X28388380Y-48813376D01*
X28464571Y-48851471D01*
X28502666Y-48889566D01*
X28540761Y-48965757D01*
X28540761Y-49118138D01*
X28578857Y-49194328D01*
X28616952Y-49232423D01*
X28693142Y-49270519D01*
X28845523Y-49270519D01*
X28921714Y-49232423D01*
X28959809Y-49194328D01*
X28997904Y-49118138D01*
X28997904Y-48965757D01*
X28959809Y-48889566D01*
X28921714Y-48851471D01*
X28845523Y-48813376D01*
X28693142Y-48813376D01*
X28616952Y-48851471D01*
X28578857Y-48889566D01*
X28540761Y-48965757D01*
X45139666Y-56623704D02*
X44873000Y-56242752D01*
X44682523Y-56623704D02*
X44682523Y-55823704D01*
X44987285Y-55823704D01*
X45063476Y-55861800D01*
X45101571Y-55899895D01*
X45139666Y-55976085D01*
X45139666Y-56090371D01*
X45101571Y-56166561D01*
X45063476Y-56204657D01*
X44987285Y-56242752D01*
X44682523Y-56242752D01*
X45901571Y-56623704D02*
X45444428Y-56623704D01*
X45673000Y-56623704D02*
X45673000Y-55823704D01*
X45596809Y-55937990D01*
X45520619Y-56014180D01*
X45444428Y-56052276D01*
X27994714Y-54612014D02*
X27956619Y-54650109D01*
X27842333Y-54688204D01*
X27766142Y-54688204D01*
X27651857Y-54650109D01*
X27575666Y-54573919D01*
X27537571Y-54497728D01*
X27499476Y-54345347D01*
X27499476Y-54231061D01*
X27537571Y-54078680D01*
X27575666Y-54002490D01*
X27651857Y-53926300D01*
X27766142Y-53888204D01*
X27842333Y-53888204D01*
X27956619Y-53926300D01*
X27994714Y-53964395D01*
X28756619Y-54688204D02*
X28299476Y-54688204D01*
X28528047Y-54688204D02*
X28528047Y-53888204D01*
X28451857Y-54002490D01*
X28375666Y-54078680D01*
X28299476Y-54116776D01*
X29480428Y-53888204D02*
X29099476Y-53888204D01*
X29061380Y-54269157D01*
X29099476Y-54231061D01*
X29175666Y-54192966D01*
X29366142Y-54192966D01*
X29442333Y-54231061D01*
X29480428Y-54269157D01*
X29518523Y-54345347D01*
X29518523Y-54535823D01*
X29480428Y-54612014D01*
X29442333Y-54650109D01*
X29366142Y-54688204D01*
X29175666Y-54688204D01*
X29099476Y-54650109D01*
X29061380Y-54612014D01*
X51098404Y-41522585D02*
X50717452Y-41789252D01*
X51098404Y-41979728D02*
X50298404Y-41979728D01*
X50298404Y-41674966D01*
X50336500Y-41598776D01*
X50374595Y-41560680D01*
X50450785Y-41522585D01*
X50565071Y-41522585D01*
X50641261Y-41560680D01*
X50679357Y-41598776D01*
X50717452Y-41674966D01*
X50717452Y-41979728D01*
X50374595Y-41217823D02*
X50336500Y-41179728D01*
X50298404Y-41103538D01*
X50298404Y-40913061D01*
X50336500Y-40836871D01*
X50374595Y-40798776D01*
X50450785Y-40760680D01*
X50526976Y-40760680D01*
X50641261Y-40798776D01*
X51098404Y-41255919D01*
X51098404Y-40760680D01*
X50298404Y-40494014D02*
X50298404Y-39960680D01*
X51098404Y-40303538D01*
X54095604Y-41447685D02*
X53714652Y-41714352D01*
X54095604Y-41904828D02*
X53295604Y-41904828D01*
X53295604Y-41600066D01*
X53333700Y-41523876D01*
X53371795Y-41485780D01*
X53447985Y-41447685D01*
X53562271Y-41447685D01*
X53638461Y-41485780D01*
X53676557Y-41523876D01*
X53714652Y-41600066D01*
X53714652Y-41904828D01*
X53371795Y-41142923D02*
X53333700Y-41104828D01*
X53295604Y-41028638D01*
X53295604Y-40838161D01*
X53333700Y-40761971D01*
X53371795Y-40723876D01*
X53447985Y-40685780D01*
X53524176Y-40685780D01*
X53638461Y-40723876D01*
X54095604Y-41181019D01*
X54095604Y-40685780D01*
X53295604Y-39961971D02*
X53295604Y-40342923D01*
X53676557Y-40381019D01*
X53638461Y-40342923D01*
X53600366Y-40266733D01*
X53600366Y-40076257D01*
X53638461Y-40000066D01*
X53676557Y-39961971D01*
X53752747Y-39923876D01*
X53943223Y-39923876D01*
X54019414Y-39961971D01*
X54057509Y-40000066D01*
X54095604Y-40076257D01*
X54095604Y-40266733D01*
X54057509Y-40342923D01*
X54019414Y-40381019D01*
X57217304Y-41447185D02*
X56836352Y-41713852D01*
X57217304Y-41904328D02*
X56417304Y-41904328D01*
X56417304Y-41599566D01*
X56455400Y-41523376D01*
X56493495Y-41485280D01*
X56569685Y-41447185D01*
X56683971Y-41447185D01*
X56760161Y-41485280D01*
X56798257Y-41523376D01*
X56836352Y-41599566D01*
X56836352Y-41904328D01*
X56493495Y-41142423D02*
X56455400Y-41104328D01*
X56417304Y-41028138D01*
X56417304Y-40837661D01*
X56455400Y-40761471D01*
X56493495Y-40723376D01*
X56569685Y-40685280D01*
X56645876Y-40685280D01*
X56760161Y-40723376D01*
X57217304Y-41180519D01*
X57217304Y-40685280D01*
X56417304Y-40418614D02*
X56417304Y-39923376D01*
X56722066Y-40190042D01*
X56722066Y-40075757D01*
X56760161Y-39999566D01*
X56798257Y-39961471D01*
X56874447Y-39923376D01*
X57064923Y-39923376D01*
X57141114Y-39961471D01*
X57179209Y-39999566D01*
X57217304Y-40075757D01*
X57217304Y-40304328D01*
X57179209Y-40380519D01*
X57141114Y-40418614D01*
X60328804Y-41510685D02*
X59947852Y-41777352D01*
X60328804Y-41967828D02*
X59528804Y-41967828D01*
X59528804Y-41663066D01*
X59566900Y-41586876D01*
X59604995Y-41548780D01*
X59681185Y-41510685D01*
X59795471Y-41510685D01*
X59871661Y-41548780D01*
X59909757Y-41586876D01*
X59947852Y-41663066D01*
X59947852Y-41967828D01*
X60328804Y-40748780D02*
X60328804Y-41205923D01*
X60328804Y-40977352D02*
X59528804Y-40977352D01*
X59643090Y-41053542D01*
X59719280Y-41129733D01*
X59757376Y-41205923D01*
X59795471Y-40063066D02*
X60328804Y-40063066D01*
X59490709Y-40253542D02*
X60062138Y-40444019D01*
X60062138Y-39948780D01*
X49051204Y-51086485D02*
X48670252Y-51353152D01*
X49051204Y-51543628D02*
X48251204Y-51543628D01*
X48251204Y-51238866D01*
X48289300Y-51162676D01*
X48327395Y-51124580D01*
X48403585Y-51086485D01*
X48517871Y-51086485D01*
X48594061Y-51124580D01*
X48632157Y-51162676D01*
X48670252Y-51238866D01*
X48670252Y-51543628D01*
X49051204Y-50324580D02*
X49051204Y-50781723D01*
X49051204Y-50553152D02*
X48251204Y-50553152D01*
X48365490Y-50629342D01*
X48441680Y-50705533D01*
X48479776Y-50781723D01*
X49051204Y-49562676D02*
X49051204Y-50019819D01*
X49051204Y-49791247D02*
X48251204Y-49791247D01*
X48365490Y-49867438D01*
X48441680Y-49943628D01*
X48479776Y-50019819D01*
X78318476Y-61665704D02*
X78318476Y-62313323D01*
X78356571Y-62389514D01*
X78394666Y-62427609D01*
X78470857Y-62465704D01*
X78623238Y-62465704D01*
X78699428Y-62427609D01*
X78737523Y-62389514D01*
X78775619Y-62313323D01*
X78775619Y-61665704D01*
X79118476Y-61741895D02*
X79156571Y-61703800D01*
X79232761Y-61665704D01*
X79423238Y-61665704D01*
X79499428Y-61703800D01*
X79537523Y-61741895D01*
X79575619Y-61818085D01*
X79575619Y-61894276D01*
X79537523Y-62008561D01*
X79080380Y-62465704D01*
X79575619Y-62465704D01*
X89427171Y-32031504D02*
X89427171Y-31231504D01*
X89617647Y-31231504D01*
X89731933Y-31269600D01*
X89808123Y-31345790D01*
X89846219Y-31421980D01*
X89884314Y-31574361D01*
X89884314Y-31688647D01*
X89846219Y-31841028D01*
X89808123Y-31917219D01*
X89731933Y-31993409D01*
X89617647Y-32031504D01*
X89427171Y-32031504D01*
X90189076Y-31307695D02*
X90227171Y-31269600D01*
X90303361Y-31231504D01*
X90493838Y-31231504D01*
X90570028Y-31269600D01*
X90608123Y-31307695D01*
X90646219Y-31383885D01*
X90646219Y-31460076D01*
X90608123Y-31574361D01*
X90150980Y-32031504D01*
X90646219Y-32031504D01*
X91141457Y-31231504D02*
X91217647Y-31231504D01*
X91293838Y-31269600D01*
X91331933Y-31307695D01*
X91370028Y-31383885D01*
X91408123Y-31536266D01*
X91408123Y-31726742D01*
X91370028Y-31879123D01*
X91331933Y-31955314D01*
X91293838Y-31993409D01*
X91217647Y-32031504D01*
X91141457Y-32031504D01*
X91065266Y-31993409D01*
X91027171Y-31955314D01*
X90989076Y-31879123D01*
X90950980Y-31726742D01*
X90950980Y-31536266D01*
X90989076Y-31383885D01*
X91027171Y-31307695D01*
X91065266Y-31269600D01*
X91141457Y-31231504D01*
X89274771Y-26473104D02*
X89274771Y-25673104D01*
X89465247Y-25673104D01*
X89579533Y-25711200D01*
X89655723Y-25787390D01*
X89693819Y-25863580D01*
X89731914Y-26015961D01*
X89731914Y-26130247D01*
X89693819Y-26282628D01*
X89655723Y-26358819D01*
X89579533Y-26435009D01*
X89465247Y-26473104D01*
X89274771Y-26473104D01*
X90493819Y-26473104D02*
X90036676Y-26473104D01*
X90265247Y-26473104D02*
X90265247Y-25673104D01*
X90189057Y-25787390D01*
X90112866Y-25863580D01*
X90036676Y-25901676D01*
X91217628Y-25673104D02*
X90836676Y-25673104D01*
X90798580Y-26054057D01*
X90836676Y-26015961D01*
X90912866Y-25977866D01*
X91103342Y-25977866D01*
X91179533Y-26015961D01*
X91217628Y-26054057D01*
X91255723Y-26130247D01*
X91255723Y-26320723D01*
X91217628Y-26396914D01*
X91179533Y-26435009D01*
X91103342Y-26473104D01*
X90912866Y-26473104D01*
X90836676Y-26435009D01*
X90798580Y-26396914D01*
X55985571Y-54083704D02*
X55985571Y-53283704D01*
X56176047Y-53283704D01*
X56290333Y-53321800D01*
X56366523Y-53397990D01*
X56404619Y-53474180D01*
X56442714Y-53626561D01*
X56442714Y-53740847D01*
X56404619Y-53893228D01*
X56366523Y-53969419D01*
X56290333Y-54045609D01*
X56176047Y-54083704D01*
X55985571Y-54083704D01*
X57204619Y-54083704D02*
X56747476Y-54083704D01*
X56976047Y-54083704D02*
X56976047Y-53283704D01*
X56899857Y-53397990D01*
X56823666Y-53474180D01*
X56747476Y-53512276D01*
X57509380Y-53359895D02*
X57547476Y-53321800D01*
X57623666Y-53283704D01*
X57814142Y-53283704D01*
X57890333Y-53321800D01*
X57928428Y-53359895D01*
X57966523Y-53436085D01*
X57966523Y-53512276D01*
X57928428Y-53626561D01*
X57471285Y-54083704D01*
X57966523Y-54083704D01*
X56112571Y-57766704D02*
X56112571Y-56966704D01*
X56303047Y-56966704D01*
X56417333Y-57004800D01*
X56493523Y-57080990D01*
X56531619Y-57157180D01*
X56569714Y-57309561D01*
X56569714Y-57423847D01*
X56531619Y-57576228D01*
X56493523Y-57652419D01*
X56417333Y-57728609D01*
X56303047Y-57766704D01*
X56112571Y-57766704D01*
X57331619Y-57766704D02*
X56874476Y-57766704D01*
X57103047Y-57766704D02*
X57103047Y-56966704D01*
X57026857Y-57080990D01*
X56950666Y-57157180D01*
X56874476Y-57195276D01*
X58093523Y-57766704D02*
X57636380Y-57766704D01*
X57864952Y-57766704D02*
X57864952Y-56966704D01*
X57788761Y-57080990D01*
X57712571Y-57157180D01*
X57636380Y-57195276D01*
X52785171Y-69399904D02*
X52785171Y-68599904D01*
X52975647Y-68599904D01*
X53089933Y-68638000D01*
X53166123Y-68714190D01*
X53204219Y-68790380D01*
X53242314Y-68942761D01*
X53242314Y-69057047D01*
X53204219Y-69209428D01*
X53166123Y-69285619D01*
X53089933Y-69361809D01*
X52975647Y-69399904D01*
X52785171Y-69399904D01*
X54004219Y-69399904D02*
X53547076Y-69399904D01*
X53775647Y-69399904D02*
X53775647Y-68599904D01*
X53699457Y-68714190D01*
X53623266Y-68790380D01*
X53547076Y-68828476D01*
X54499457Y-68599904D02*
X54575647Y-68599904D01*
X54651838Y-68638000D01*
X54689933Y-68676095D01*
X54728028Y-68752285D01*
X54766123Y-68904666D01*
X54766123Y-69095142D01*
X54728028Y-69247523D01*
X54689933Y-69323714D01*
X54651838Y-69361809D01*
X54575647Y-69399904D01*
X54499457Y-69399904D01*
X54423266Y-69361809D01*
X54385171Y-69323714D01*
X54347076Y-69247523D01*
X54308980Y-69095142D01*
X54308980Y-68904666D01*
X54347076Y-68752285D01*
X54385171Y-68676095D01*
X54423266Y-68638000D01*
X54499457Y-68599904D01*
X59541523Y-56496704D02*
X59541523Y-55696704D01*
X59732000Y-55696704D01*
X59846285Y-55734800D01*
X59922476Y-55810990D01*
X59960571Y-55887180D01*
X59998666Y-56039561D01*
X59998666Y-56153847D01*
X59960571Y-56306228D01*
X59922476Y-56382419D01*
X59846285Y-56458609D01*
X59732000Y-56496704D01*
X59541523Y-56496704D01*
X60379619Y-56496704D02*
X60532000Y-56496704D01*
X60608190Y-56458609D01*
X60646285Y-56420514D01*
X60722476Y-56306228D01*
X60760571Y-56153847D01*
X60760571Y-55849085D01*
X60722476Y-55772895D01*
X60684380Y-55734800D01*
X60608190Y-55696704D01*
X60455809Y-55696704D01*
X60379619Y-55734800D01*
X60341523Y-55772895D01*
X60303428Y-55849085D01*
X60303428Y-56039561D01*
X60341523Y-56115752D01*
X60379619Y-56153847D01*
X60455809Y-56191942D01*
X60608190Y-56191942D01*
X60684380Y-56153847D01*
X60722476Y-56115752D01*
X60760571Y-56039561D01*
X56800704Y-63747576D02*
X56000704Y-63747576D01*
X56000704Y-63557100D01*
X56038800Y-63442814D01*
X56114990Y-63366623D01*
X56191180Y-63328528D01*
X56343561Y-63290433D01*
X56457847Y-63290433D01*
X56610228Y-63328528D01*
X56686419Y-63366623D01*
X56762609Y-63442814D01*
X56800704Y-63557100D01*
X56800704Y-63747576D01*
X56343561Y-62833290D02*
X56305466Y-62909480D01*
X56267371Y-62947576D01*
X56191180Y-62985671D01*
X56153085Y-62985671D01*
X56076895Y-62947576D01*
X56038800Y-62909480D01*
X56000704Y-62833290D01*
X56000704Y-62680909D01*
X56038800Y-62604719D01*
X56076895Y-62566623D01*
X56153085Y-62528528D01*
X56191180Y-62528528D01*
X56267371Y-62566623D01*
X56305466Y-62604719D01*
X56343561Y-62680909D01*
X56343561Y-62833290D01*
X56381657Y-62909480D01*
X56419752Y-62947576D01*
X56495942Y-62985671D01*
X56648323Y-62985671D01*
X56724514Y-62947576D01*
X56762609Y-62909480D01*
X56800704Y-62833290D01*
X56800704Y-62680909D01*
X56762609Y-62604719D01*
X56724514Y-62566623D01*
X56648323Y-62528528D01*
X56495942Y-62528528D01*
X56419752Y-62566623D01*
X56381657Y-62604719D01*
X56343561Y-62680909D01*
X59719323Y-52915304D02*
X59719323Y-52115304D01*
X59909800Y-52115304D01*
X60024085Y-52153400D01*
X60100276Y-52229590D01*
X60138371Y-52305780D01*
X60176466Y-52458161D01*
X60176466Y-52572447D01*
X60138371Y-52724828D01*
X60100276Y-52801019D01*
X60024085Y-52877209D01*
X59909800Y-52915304D01*
X59719323Y-52915304D01*
X60443133Y-52115304D02*
X60976466Y-52115304D01*
X60633609Y-52915304D01*
X61294123Y-65716904D02*
X61294123Y-64916904D01*
X61484600Y-64916904D01*
X61598885Y-64955000D01*
X61675076Y-65031190D01*
X61713171Y-65107380D01*
X61751266Y-65259761D01*
X61751266Y-65374047D01*
X61713171Y-65526428D01*
X61675076Y-65602619D01*
X61598885Y-65678809D01*
X61484600Y-65716904D01*
X61294123Y-65716904D01*
X62436980Y-64916904D02*
X62284600Y-64916904D01*
X62208409Y-64955000D01*
X62170314Y-64993095D01*
X62094123Y-65107380D01*
X62056028Y-65259761D01*
X62056028Y-65564523D01*
X62094123Y-65640714D01*
X62132219Y-65678809D01*
X62208409Y-65716904D01*
X62360790Y-65716904D01*
X62436980Y-65678809D01*
X62475076Y-65640714D01*
X62513171Y-65564523D01*
X62513171Y-65374047D01*
X62475076Y-65297857D01*
X62436980Y-65259761D01*
X62360790Y-65221666D01*
X62208409Y-65221666D01*
X62132219Y-65259761D01*
X62094123Y-65297857D01*
X62056028Y-65374047D01*
X67542523Y-53067704D02*
X67542523Y-52267704D01*
X67733000Y-52267704D01*
X67847285Y-52305800D01*
X67923476Y-52381990D01*
X67961571Y-52458180D01*
X67999666Y-52610561D01*
X67999666Y-52724847D01*
X67961571Y-52877228D01*
X67923476Y-52953419D01*
X67847285Y-53029609D01*
X67733000Y-53067704D01*
X67542523Y-53067704D01*
X68723476Y-52267704D02*
X68342523Y-52267704D01*
X68304428Y-52648657D01*
X68342523Y-52610561D01*
X68418714Y-52572466D01*
X68609190Y-52572466D01*
X68685380Y-52610561D01*
X68723476Y-52648657D01*
X68761571Y-52724847D01*
X68761571Y-52915323D01*
X68723476Y-52991514D01*
X68685380Y-53029609D01*
X68609190Y-53067704D01*
X68418714Y-53067704D01*
X68342523Y-53029609D01*
X68304428Y-52991514D01*
X61294123Y-69399904D02*
X61294123Y-68599904D01*
X61484600Y-68599904D01*
X61598885Y-68638000D01*
X61675076Y-68714190D01*
X61713171Y-68790380D01*
X61751266Y-68942761D01*
X61751266Y-69057047D01*
X61713171Y-69209428D01*
X61675076Y-69285619D01*
X61598885Y-69361809D01*
X61484600Y-69399904D01*
X61294123Y-69399904D01*
X62436980Y-68866571D02*
X62436980Y-69399904D01*
X62246504Y-68561809D02*
X62056028Y-69133238D01*
X62551266Y-69133238D01*
X67415523Y-56750704D02*
X67415523Y-55950704D01*
X67606000Y-55950704D01*
X67720285Y-55988800D01*
X67796476Y-56064990D01*
X67834571Y-56141180D01*
X67872666Y-56293561D01*
X67872666Y-56407847D01*
X67834571Y-56560228D01*
X67796476Y-56636419D01*
X67720285Y-56712609D01*
X67606000Y-56750704D01*
X67415523Y-56750704D01*
X68139333Y-55950704D02*
X68634571Y-55950704D01*
X68367904Y-56255466D01*
X68482190Y-56255466D01*
X68558380Y-56293561D01*
X68596476Y-56331657D01*
X68634571Y-56407847D01*
X68634571Y-56598323D01*
X68596476Y-56674514D01*
X68558380Y-56712609D01*
X68482190Y-56750704D01*
X68253619Y-56750704D01*
X68177428Y-56712609D01*
X68139333Y-56674514D01*
X86287666Y-87535514D02*
X86249571Y-87573609D01*
X86135285Y-87611704D01*
X86059095Y-87611704D01*
X85944809Y-87573609D01*
X85868619Y-87497419D01*
X85830523Y-87421228D01*
X85792428Y-87268847D01*
X85792428Y-87154561D01*
X85830523Y-87002180D01*
X85868619Y-86925990D01*
X85944809Y-86849800D01*
X86059095Y-86811704D01*
X86135285Y-86811704D01*
X86249571Y-86849800D01*
X86287666Y-86887895D01*
X86592428Y-86887895D02*
X86630523Y-86849800D01*
X86706714Y-86811704D01*
X86897190Y-86811704D01*
X86973380Y-86849800D01*
X87011476Y-86887895D01*
X87049571Y-86964085D01*
X87049571Y-87040276D01*
X87011476Y-87154561D01*
X86554333Y-87611704D01*
X87049571Y-87611704D01*
X34376476Y-49473704D02*
X34376476Y-50121323D01*
X34414571Y-50197514D01*
X34452666Y-50235609D01*
X34528857Y-50273704D01*
X34681238Y-50273704D01*
X34757428Y-50235609D01*
X34795523Y-50197514D01*
X34833619Y-50121323D01*
X34833619Y-49473704D01*
X35557428Y-49740371D02*
X35557428Y-50273704D01*
X35366952Y-49435609D02*
X35176476Y-50007038D01*
X35671714Y-50007038D01*
X50575204Y-51924638D02*
X50194252Y-52191304D01*
X50575204Y-52381780D02*
X49775204Y-52381780D01*
X49775204Y-52077019D01*
X49813300Y-52000828D01*
X49851395Y-51962733D01*
X49927585Y-51924638D01*
X50041871Y-51924638D01*
X50118061Y-51962733D01*
X50156157Y-52000828D01*
X50194252Y-52077019D01*
X50194252Y-52381780D01*
X50575204Y-51162733D02*
X50575204Y-51619876D01*
X50575204Y-51391304D02*
X49775204Y-51391304D01*
X49889490Y-51467495D01*
X49965680Y-51543685D01*
X50003776Y-51619876D01*
X49775204Y-50896066D02*
X49775204Y-50400828D01*
X50079966Y-50667495D01*
X50079966Y-50553209D01*
X50118061Y-50477019D01*
X50156157Y-50438923D01*
X50232347Y-50400828D01*
X50422823Y-50400828D01*
X50499014Y-50438923D01*
X50537109Y-50477019D01*
X50575204Y-50553209D01*
X50575204Y-50781780D01*
X50537109Y-50857971D01*
X50499014Y-50896066D01*
X50575204Y-49638923D02*
X50575204Y-50096066D01*
X50575204Y-49867495D02*
X49775204Y-49867495D01*
X49889490Y-49943685D01*
X49965680Y-50019876D01*
X50003776Y-50096066D01*
X33138104Y-69183938D02*
X32757152Y-69450604D01*
X33138104Y-69641080D02*
X32338104Y-69641080D01*
X32338104Y-69336319D01*
X32376200Y-69260128D01*
X32414295Y-69222033D01*
X32490485Y-69183938D01*
X32604771Y-69183938D01*
X32680961Y-69222033D01*
X32719057Y-69260128D01*
X32757152Y-69336319D01*
X32757152Y-69641080D01*
X33138104Y-68422033D02*
X33138104Y-68879176D01*
X33138104Y-68650604D02*
X32338104Y-68650604D01*
X32452390Y-68726795D01*
X32528580Y-68802985D01*
X32566676Y-68879176D01*
X32414295Y-68117271D02*
X32376200Y-68079176D01*
X32338104Y-68002985D01*
X32338104Y-67812509D01*
X32376200Y-67736319D01*
X32414295Y-67698223D01*
X32490485Y-67660128D01*
X32566676Y-67660128D01*
X32680961Y-67698223D01*
X33138104Y-68155366D01*
X33138104Y-67660128D01*
X32338104Y-67393461D02*
X32338104Y-66898223D01*
X32642866Y-67164890D01*
X32642866Y-67050604D01*
X32680961Y-66974414D01*
X32719057Y-66936319D01*
X32795247Y-66898223D01*
X32985723Y-66898223D01*
X33061914Y-66936319D01*
X33100009Y-66974414D01*
X33138104Y-67050604D01*
X33138104Y-67279176D01*
X33100009Y-67355366D01*
X33061914Y-67393461D01*
X31601404Y-69234738D02*
X31220452Y-69501404D01*
X31601404Y-69691880D02*
X30801404Y-69691880D01*
X30801404Y-69387119D01*
X30839500Y-69310928D01*
X30877595Y-69272833D01*
X30953785Y-69234738D01*
X31068071Y-69234738D01*
X31144261Y-69272833D01*
X31182357Y-69310928D01*
X31220452Y-69387119D01*
X31220452Y-69691880D01*
X31601404Y-68472833D02*
X31601404Y-68929976D01*
X31601404Y-68701404D02*
X30801404Y-68701404D01*
X30915690Y-68777595D01*
X30991880Y-68853785D01*
X31029976Y-68929976D01*
X30877595Y-68168071D02*
X30839500Y-68129976D01*
X30801404Y-68053785D01*
X30801404Y-67863309D01*
X30839500Y-67787119D01*
X30877595Y-67749023D01*
X30953785Y-67710928D01*
X31029976Y-67710928D01*
X31144261Y-67749023D01*
X31601404Y-68206166D01*
X31601404Y-67710928D01*
X30877595Y-67406166D02*
X30839500Y-67368071D01*
X30801404Y-67291880D01*
X30801404Y-67101404D01*
X30839500Y-67025214D01*
X30877595Y-66987119D01*
X30953785Y-66949023D01*
X31029976Y-66949023D01*
X31144261Y-66987119D01*
X31601404Y-67444261D01*
X31601404Y-66949023D01*
X30140904Y-65412038D02*
X29759952Y-65678704D01*
X30140904Y-65869180D02*
X29340904Y-65869180D01*
X29340904Y-65564419D01*
X29379000Y-65488228D01*
X29417095Y-65450133D01*
X29493285Y-65412038D01*
X29607571Y-65412038D01*
X29683761Y-65450133D01*
X29721857Y-65488228D01*
X29759952Y-65564419D01*
X29759952Y-65869180D01*
X30140904Y-64650133D02*
X30140904Y-65107276D01*
X30140904Y-64878704D02*
X29340904Y-64878704D01*
X29455190Y-64954895D01*
X29531380Y-65031085D01*
X29569476Y-65107276D01*
X29417095Y-64345371D02*
X29379000Y-64307276D01*
X29340904Y-64231085D01*
X29340904Y-64040609D01*
X29379000Y-63964419D01*
X29417095Y-63926323D01*
X29493285Y-63888228D01*
X29569476Y-63888228D01*
X29683761Y-63926323D01*
X30140904Y-64383466D01*
X30140904Y-63888228D01*
X30140904Y-63126323D02*
X30140904Y-63583466D01*
X30140904Y-63354895D02*
X29340904Y-63354895D01*
X29455190Y-63431085D01*
X29531380Y-63507276D01*
X29569476Y-63583466D01*
X25695904Y-65285038D02*
X25314952Y-65551704D01*
X25695904Y-65742180D02*
X24895904Y-65742180D01*
X24895904Y-65437419D01*
X24934000Y-65361228D01*
X24972095Y-65323133D01*
X25048285Y-65285038D01*
X25162571Y-65285038D01*
X25238761Y-65323133D01*
X25276857Y-65361228D01*
X25314952Y-65437419D01*
X25314952Y-65742180D01*
X25695904Y-64523133D02*
X25695904Y-64980276D01*
X25695904Y-64751704D02*
X24895904Y-64751704D01*
X25010190Y-64827895D01*
X25086380Y-64904085D01*
X25124476Y-64980276D01*
X24972095Y-64218371D02*
X24934000Y-64180276D01*
X24895904Y-64104085D01*
X24895904Y-63913609D01*
X24934000Y-63837419D01*
X24972095Y-63799323D01*
X25048285Y-63761228D01*
X25124476Y-63761228D01*
X25238761Y-63799323D01*
X25695904Y-64256466D01*
X25695904Y-63761228D01*
X24895904Y-63265990D02*
X24895904Y-63189800D01*
X24934000Y-63113609D01*
X24972095Y-63075514D01*
X25048285Y-63037419D01*
X25200666Y-62999323D01*
X25391142Y-62999323D01*
X25543523Y-63037419D01*
X25619714Y-63075514D01*
X25657809Y-63113609D01*
X25695904Y-63189800D01*
X25695904Y-63265990D01*
X25657809Y-63342180D01*
X25619714Y-63380276D01*
X25543523Y-63418371D01*
X25391142Y-63456466D01*
X25200666Y-63456466D01*
X25048285Y-63418371D01*
X24972095Y-63380276D01*
X24934000Y-63342180D01*
X24895904Y-63265990D01*
X34903404Y-87192538D02*
X34522452Y-87459204D01*
X34903404Y-87649680D02*
X34103404Y-87649680D01*
X34103404Y-87344919D01*
X34141500Y-87268728D01*
X34179595Y-87230633D01*
X34255785Y-87192538D01*
X34370071Y-87192538D01*
X34446261Y-87230633D01*
X34484357Y-87268728D01*
X34522452Y-87344919D01*
X34522452Y-87649680D01*
X34903404Y-86430633D02*
X34903404Y-86887776D01*
X34903404Y-86659204D02*
X34103404Y-86659204D01*
X34217690Y-86735395D01*
X34293880Y-86811585D01*
X34331976Y-86887776D01*
X34903404Y-85668728D02*
X34903404Y-86125871D01*
X34903404Y-85897300D02*
X34103404Y-85897300D01*
X34217690Y-85973490D01*
X34293880Y-86049680D01*
X34331976Y-86125871D01*
X34103404Y-84944919D02*
X34103404Y-85325871D01*
X34484357Y-85363966D01*
X34446261Y-85325871D01*
X34408166Y-85249680D01*
X34408166Y-85059204D01*
X34446261Y-84983014D01*
X34484357Y-84944919D01*
X34560547Y-84906823D01*
X34751023Y-84906823D01*
X34827214Y-84944919D01*
X34865309Y-84983014D01*
X34903404Y-85059204D01*
X34903404Y-85249680D01*
X34865309Y-85325871D01*
X34827214Y-85363966D01*
X31855404Y-87192538D02*
X31474452Y-87459204D01*
X31855404Y-87649680D02*
X31055404Y-87649680D01*
X31055404Y-87344919D01*
X31093500Y-87268728D01*
X31131595Y-87230633D01*
X31207785Y-87192538D01*
X31322071Y-87192538D01*
X31398261Y-87230633D01*
X31436357Y-87268728D01*
X31474452Y-87344919D01*
X31474452Y-87649680D01*
X31855404Y-86430633D02*
X31855404Y-86887776D01*
X31855404Y-86659204D02*
X31055404Y-86659204D01*
X31169690Y-86735395D01*
X31245880Y-86811585D01*
X31283976Y-86887776D01*
X31855404Y-85668728D02*
X31855404Y-86125871D01*
X31855404Y-85897300D02*
X31055404Y-85897300D01*
X31169690Y-85973490D01*
X31245880Y-86049680D01*
X31283976Y-86125871D01*
X31322071Y-84983014D02*
X31855404Y-84983014D01*
X31017309Y-85173490D02*
X31588738Y-85363966D01*
X31588738Y-84868728D01*
X29061404Y-80398038D02*
X28680452Y-80664704D01*
X29061404Y-80855180D02*
X28261404Y-80855180D01*
X28261404Y-80550419D01*
X28299500Y-80474228D01*
X28337595Y-80436133D01*
X28413785Y-80398038D01*
X28528071Y-80398038D01*
X28604261Y-80436133D01*
X28642357Y-80474228D01*
X28680452Y-80550419D01*
X28680452Y-80855180D01*
X29061404Y-79636133D02*
X29061404Y-80093276D01*
X29061404Y-79864704D02*
X28261404Y-79864704D01*
X28375690Y-79940895D01*
X28451880Y-80017085D01*
X28489976Y-80093276D01*
X29061404Y-78874228D02*
X29061404Y-79331371D01*
X29061404Y-79102800D02*
X28261404Y-79102800D01*
X28375690Y-79178990D01*
X28451880Y-79255180D01*
X28489976Y-79331371D01*
X28261404Y-78607561D02*
X28261404Y-78112323D01*
X28566166Y-78378990D01*
X28566166Y-78264704D01*
X28604261Y-78188514D01*
X28642357Y-78150419D01*
X28718547Y-78112323D01*
X28909023Y-78112323D01*
X28985214Y-78150419D01*
X29023309Y-78188514D01*
X29061404Y-78264704D01*
X29061404Y-78493276D01*
X29023309Y-78569466D01*
X28985214Y-78607561D01*
X27600904Y-85287538D02*
X27219952Y-85554204D01*
X27600904Y-85744680D02*
X26800904Y-85744680D01*
X26800904Y-85439919D01*
X26839000Y-85363728D01*
X26877095Y-85325633D01*
X26953285Y-85287538D01*
X27067571Y-85287538D01*
X27143761Y-85325633D01*
X27181857Y-85363728D01*
X27219952Y-85439919D01*
X27219952Y-85744680D01*
X27600904Y-84525633D02*
X27600904Y-84982776D01*
X27600904Y-84754204D02*
X26800904Y-84754204D01*
X26915190Y-84830395D01*
X26991380Y-84906585D01*
X27029476Y-84982776D01*
X27600904Y-83763728D02*
X27600904Y-84220871D01*
X27600904Y-83992300D02*
X26800904Y-83992300D01*
X26915190Y-84068490D01*
X26991380Y-84144680D01*
X27029476Y-84220871D01*
X26877095Y-83458966D02*
X26839000Y-83420871D01*
X26800904Y-83344680D01*
X26800904Y-83154204D01*
X26839000Y-83078014D01*
X26877095Y-83039919D01*
X26953285Y-83001823D01*
X27029476Y-83001823D01*
X27143761Y-83039919D01*
X27600904Y-83497061D01*
X27600904Y-83001823D01*
X33379404Y-87192538D02*
X32998452Y-87459204D01*
X33379404Y-87649680D02*
X32579404Y-87649680D01*
X32579404Y-87344919D01*
X32617500Y-87268728D01*
X32655595Y-87230633D01*
X32731785Y-87192538D01*
X32846071Y-87192538D01*
X32922261Y-87230633D01*
X32960357Y-87268728D01*
X32998452Y-87344919D01*
X32998452Y-87649680D01*
X33379404Y-86430633D02*
X33379404Y-86887776D01*
X33379404Y-86659204D02*
X32579404Y-86659204D01*
X32693690Y-86735395D01*
X32769880Y-86811585D01*
X32807976Y-86887776D01*
X32579404Y-85935395D02*
X32579404Y-85859204D01*
X32617500Y-85783014D01*
X32655595Y-85744919D01*
X32731785Y-85706823D01*
X32884166Y-85668728D01*
X33074642Y-85668728D01*
X33227023Y-85706823D01*
X33303214Y-85744919D01*
X33341309Y-85783014D01*
X33379404Y-85859204D01*
X33379404Y-85935395D01*
X33341309Y-86011585D01*
X33303214Y-86049680D01*
X33227023Y-86087776D01*
X33074642Y-86125871D01*
X32884166Y-86125871D01*
X32731785Y-86087776D01*
X32655595Y-86049680D01*
X32617500Y-86011585D01*
X32579404Y-85935395D01*
X32579404Y-85402061D02*
X32579404Y-84868728D01*
X33379404Y-85211585D01*
X30267904Y-87192538D02*
X29886952Y-87459204D01*
X30267904Y-87649680D02*
X29467904Y-87649680D01*
X29467904Y-87344919D01*
X29506000Y-87268728D01*
X29544095Y-87230633D01*
X29620285Y-87192538D01*
X29734571Y-87192538D01*
X29810761Y-87230633D01*
X29848857Y-87268728D01*
X29886952Y-87344919D01*
X29886952Y-87649680D01*
X30267904Y-86430633D02*
X30267904Y-86887776D01*
X30267904Y-86659204D02*
X29467904Y-86659204D01*
X29582190Y-86735395D01*
X29658380Y-86811585D01*
X29696476Y-86887776D01*
X29467904Y-85935395D02*
X29467904Y-85859204D01*
X29506000Y-85783014D01*
X29544095Y-85744919D01*
X29620285Y-85706823D01*
X29772666Y-85668728D01*
X29963142Y-85668728D01*
X30115523Y-85706823D01*
X30191714Y-85744919D01*
X30229809Y-85783014D01*
X30267904Y-85859204D01*
X30267904Y-85935395D01*
X30229809Y-86011585D01*
X30191714Y-86049680D01*
X30115523Y-86087776D01*
X29963142Y-86125871D01*
X29772666Y-86125871D01*
X29620285Y-86087776D01*
X29544095Y-86049680D01*
X29506000Y-86011585D01*
X29467904Y-85935395D01*
X29467904Y-84983014D02*
X29467904Y-85135395D01*
X29506000Y-85211585D01*
X29544095Y-85249680D01*
X29658380Y-85325871D01*
X29810761Y-85363966D01*
X30115523Y-85363966D01*
X30191714Y-85325871D01*
X30229809Y-85287776D01*
X30267904Y-85211585D01*
X30267904Y-85059204D01*
X30229809Y-84983014D01*
X30191714Y-84944919D01*
X30115523Y-84906823D01*
X29925047Y-84906823D01*
X29848857Y-84944919D01*
X29810761Y-84983014D01*
X29772666Y-85059204D01*
X29772666Y-85211585D01*
X29810761Y-85287776D01*
X29848857Y-85325871D01*
X29925047Y-85363966D01*
X26013404Y-77286538D02*
X25632452Y-77553204D01*
X26013404Y-77743680D02*
X25213404Y-77743680D01*
X25213404Y-77438919D01*
X25251500Y-77362728D01*
X25289595Y-77324633D01*
X25365785Y-77286538D01*
X25480071Y-77286538D01*
X25556261Y-77324633D01*
X25594357Y-77362728D01*
X25632452Y-77438919D01*
X25632452Y-77743680D01*
X26013404Y-76524633D02*
X26013404Y-76981776D01*
X26013404Y-76753204D02*
X25213404Y-76753204D01*
X25327690Y-76829395D01*
X25403880Y-76905585D01*
X25441976Y-76981776D01*
X25213404Y-76029395D02*
X25213404Y-75953204D01*
X25251500Y-75877014D01*
X25289595Y-75838919D01*
X25365785Y-75800823D01*
X25518166Y-75762728D01*
X25708642Y-75762728D01*
X25861023Y-75800823D01*
X25937214Y-75838919D01*
X25975309Y-75877014D01*
X26013404Y-75953204D01*
X26013404Y-76029395D01*
X25975309Y-76105585D01*
X25937214Y-76143680D01*
X25861023Y-76181776D01*
X25708642Y-76219871D01*
X25518166Y-76219871D01*
X25365785Y-76181776D01*
X25289595Y-76143680D01*
X25251500Y-76105585D01*
X25213404Y-76029395D01*
X25213404Y-75038919D02*
X25213404Y-75419871D01*
X25594357Y-75457966D01*
X25556261Y-75419871D01*
X25518166Y-75343680D01*
X25518166Y-75153204D01*
X25556261Y-75077014D01*
X25594357Y-75038919D01*
X25670547Y-75000823D01*
X25861023Y-75000823D01*
X25937214Y-75038919D01*
X25975309Y-75077014D01*
X26013404Y-75153204D01*
X26013404Y-75343680D01*
X25975309Y-75419871D01*
X25937214Y-75457966D01*
X25886404Y-85351038D02*
X25505452Y-85617704D01*
X25886404Y-85808180D02*
X25086404Y-85808180D01*
X25086404Y-85503419D01*
X25124500Y-85427228D01*
X25162595Y-85389133D01*
X25238785Y-85351038D01*
X25353071Y-85351038D01*
X25429261Y-85389133D01*
X25467357Y-85427228D01*
X25505452Y-85503419D01*
X25505452Y-85808180D01*
X25886404Y-84589133D02*
X25886404Y-85046276D01*
X25886404Y-84817704D02*
X25086404Y-84817704D01*
X25200690Y-84893895D01*
X25276880Y-84970085D01*
X25314976Y-85046276D01*
X25086404Y-84093895D02*
X25086404Y-84017704D01*
X25124500Y-83941514D01*
X25162595Y-83903419D01*
X25238785Y-83865323D01*
X25391166Y-83827228D01*
X25581642Y-83827228D01*
X25734023Y-83865323D01*
X25810214Y-83903419D01*
X25848309Y-83941514D01*
X25886404Y-84017704D01*
X25886404Y-84093895D01*
X25848309Y-84170085D01*
X25810214Y-84208180D01*
X25734023Y-84246276D01*
X25581642Y-84284371D01*
X25391166Y-84284371D01*
X25238785Y-84246276D01*
X25162595Y-84208180D01*
X25124500Y-84170085D01*
X25086404Y-84093895D01*
X25353071Y-83141514D02*
X25886404Y-83141514D01*
X25048309Y-83331990D02*
X25619738Y-83522466D01*
X25619738Y-83027228D01*
X73257514Y-55061604D02*
X72990847Y-54680652D01*
X72800371Y-55061604D02*
X72800371Y-54261604D01*
X73105133Y-54261604D01*
X73181323Y-54299700D01*
X73219419Y-54337795D01*
X73257514Y-54413985D01*
X73257514Y-54528271D01*
X73219419Y-54604461D01*
X73181323Y-54642557D01*
X73105133Y-54680652D01*
X72800371Y-54680652D01*
X73562276Y-54337795D02*
X73600371Y-54299700D01*
X73676561Y-54261604D01*
X73867038Y-54261604D01*
X73943228Y-54299700D01*
X73981323Y-54337795D01*
X74019419Y-54413985D01*
X74019419Y-54490176D01*
X73981323Y-54604461D01*
X73524180Y-55061604D01*
X74019419Y-55061604D01*
X74324180Y-54337795D02*
X74362276Y-54299700D01*
X74438466Y-54261604D01*
X74628942Y-54261604D01*
X74705133Y-54299700D01*
X74743228Y-54337795D01*
X74781323Y-54413985D01*
X74781323Y-54490176D01*
X74743228Y-54604461D01*
X74286085Y-55061604D01*
X74781323Y-55061604D01*
X90973904Y-78239085D02*
X90592952Y-78505752D01*
X90973904Y-78696228D02*
X90173904Y-78696228D01*
X90173904Y-78391466D01*
X90212000Y-78315276D01*
X90250095Y-78277180D01*
X90326285Y-78239085D01*
X90440571Y-78239085D01*
X90516761Y-78277180D01*
X90554857Y-78315276D01*
X90592952Y-78391466D01*
X90592952Y-78696228D01*
X90250095Y-77934323D02*
X90212000Y-77896228D01*
X90173904Y-77820038D01*
X90173904Y-77629561D01*
X90212000Y-77553371D01*
X90250095Y-77515276D01*
X90326285Y-77477180D01*
X90402476Y-77477180D01*
X90516761Y-77515276D01*
X90973904Y-77972419D01*
X90973904Y-77477180D01*
X90973904Y-76715276D02*
X90973904Y-77172419D01*
X90973904Y-76943847D02*
X90173904Y-76943847D01*
X90288190Y-77020038D01*
X90364380Y-77096228D01*
X90402476Y-77172419D01*
X93894904Y-78239085D02*
X93513952Y-78505752D01*
X93894904Y-78696228D02*
X93094904Y-78696228D01*
X93094904Y-78391466D01*
X93133000Y-78315276D01*
X93171095Y-78277180D01*
X93247285Y-78239085D01*
X93361571Y-78239085D01*
X93437761Y-78277180D01*
X93475857Y-78315276D01*
X93513952Y-78391466D01*
X93513952Y-78696228D01*
X93171095Y-77934323D02*
X93133000Y-77896228D01*
X93094904Y-77820038D01*
X93094904Y-77629561D01*
X93133000Y-77553371D01*
X93171095Y-77515276D01*
X93247285Y-77477180D01*
X93323476Y-77477180D01*
X93437761Y-77515276D01*
X93894904Y-77972419D01*
X93894904Y-77477180D01*
X93094904Y-76981942D02*
X93094904Y-76905752D01*
X93133000Y-76829561D01*
X93171095Y-76791466D01*
X93247285Y-76753371D01*
X93399666Y-76715276D01*
X93590142Y-76715276D01*
X93742523Y-76753371D01*
X93818714Y-76791466D01*
X93856809Y-76829561D01*
X93894904Y-76905752D01*
X93894904Y-76981942D01*
X93856809Y-77058133D01*
X93818714Y-77096228D01*
X93742523Y-77134323D01*
X93590142Y-77172419D01*
X93399666Y-77172419D01*
X93247285Y-77134323D01*
X93171095Y-77096228D01*
X93133000Y-77058133D01*
X93094904Y-76981942D01*
X81829904Y-53474085D02*
X81448952Y-53740752D01*
X81829904Y-53931228D02*
X81029904Y-53931228D01*
X81029904Y-53626466D01*
X81068000Y-53550276D01*
X81106095Y-53512180D01*
X81182285Y-53474085D01*
X81296571Y-53474085D01*
X81372761Y-53512180D01*
X81410857Y-53550276D01*
X81448952Y-53626466D01*
X81448952Y-53931228D01*
X81829904Y-52712180D02*
X81829904Y-53169323D01*
X81829904Y-52940752D02*
X81029904Y-52940752D01*
X81144190Y-53016942D01*
X81220380Y-53093133D01*
X81258476Y-53169323D01*
X81829904Y-52331228D02*
X81829904Y-52178847D01*
X81791809Y-52102657D01*
X81753714Y-52064561D01*
X81639428Y-51988371D01*
X81487047Y-51950276D01*
X81182285Y-51950276D01*
X81106095Y-51988371D01*
X81068000Y-52026466D01*
X81029904Y-52102657D01*
X81029904Y-52255038D01*
X81068000Y-52331228D01*
X81106095Y-52369323D01*
X81182285Y-52407419D01*
X81372761Y-52407419D01*
X81448952Y-52369323D01*
X81487047Y-52331228D01*
X81525142Y-52255038D01*
X81525142Y-52102657D01*
X81487047Y-52026466D01*
X81448952Y-51988371D01*
X81372761Y-51950276D01*
X80432904Y-53474085D02*
X80051952Y-53740752D01*
X80432904Y-53931228D02*
X79632904Y-53931228D01*
X79632904Y-53626466D01*
X79671000Y-53550276D01*
X79709095Y-53512180D01*
X79785285Y-53474085D01*
X79899571Y-53474085D01*
X79975761Y-53512180D01*
X80013857Y-53550276D01*
X80051952Y-53626466D01*
X80051952Y-53931228D01*
X80432904Y-52712180D02*
X80432904Y-53169323D01*
X80432904Y-52940752D02*
X79632904Y-52940752D01*
X79747190Y-53016942D01*
X79823380Y-53093133D01*
X79861476Y-53169323D01*
X79975761Y-52255038D02*
X79937666Y-52331228D01*
X79899571Y-52369323D01*
X79823380Y-52407419D01*
X79785285Y-52407419D01*
X79709095Y-52369323D01*
X79671000Y-52331228D01*
X79632904Y-52255038D01*
X79632904Y-52102657D01*
X79671000Y-52026466D01*
X79709095Y-51988371D01*
X79785285Y-51950276D01*
X79823380Y-51950276D01*
X79899571Y-51988371D01*
X79937666Y-52026466D01*
X79975761Y-52102657D01*
X79975761Y-52255038D01*
X80013857Y-52331228D01*
X80051952Y-52369323D01*
X80128142Y-52407419D01*
X80280523Y-52407419D01*
X80356714Y-52369323D01*
X80394809Y-52331228D01*
X80432904Y-52255038D01*
X80432904Y-52102657D01*
X80394809Y-52026466D01*
X80356714Y-51988371D01*
X80280523Y-51950276D01*
X80128142Y-51950276D01*
X80051952Y-51988371D01*
X80013857Y-52026466D01*
X79975761Y-52102657D01*
X89084104Y-50476085D02*
X88703152Y-50742752D01*
X89084104Y-50933228D02*
X88284104Y-50933228D01*
X88284104Y-50628466D01*
X88322200Y-50552276D01*
X88360295Y-50514180D01*
X88436485Y-50476085D01*
X88550771Y-50476085D01*
X88626961Y-50514180D01*
X88665057Y-50552276D01*
X88703152Y-50628466D01*
X88703152Y-50933228D01*
X89084104Y-49714180D02*
X89084104Y-50171323D01*
X89084104Y-49942752D02*
X88284104Y-49942752D01*
X88398390Y-50018942D01*
X88474580Y-50095133D01*
X88512676Y-50171323D01*
X88284104Y-49447514D02*
X88284104Y-48914180D01*
X89084104Y-49257038D01*
X83226904Y-50680085D02*
X82845952Y-50946752D01*
X83226904Y-51137228D02*
X82426904Y-51137228D01*
X82426904Y-50832466D01*
X82465000Y-50756276D01*
X82503095Y-50718180D01*
X82579285Y-50680085D01*
X82693571Y-50680085D01*
X82769761Y-50718180D01*
X82807857Y-50756276D01*
X82845952Y-50832466D01*
X82845952Y-51137228D01*
X83226904Y-49918180D02*
X83226904Y-50375323D01*
X83226904Y-50146752D02*
X82426904Y-50146752D01*
X82541190Y-50222942D01*
X82617380Y-50299133D01*
X82655476Y-50375323D01*
X82426904Y-49651514D02*
X82426904Y-49156276D01*
X82731666Y-49422942D01*
X82731666Y-49308657D01*
X82769761Y-49232466D01*
X82807857Y-49194371D01*
X82884047Y-49156276D01*
X83074523Y-49156276D01*
X83150714Y-49194371D01*
X83188809Y-49232466D01*
X83226904Y-49308657D01*
X83226904Y-49537228D01*
X83188809Y-49613419D01*
X83150714Y-49651514D01*
X74476714Y-77197704D02*
X74210047Y-76816752D01*
X74019571Y-77197704D02*
X74019571Y-76397704D01*
X74324333Y-76397704D01*
X74400523Y-76435800D01*
X74438619Y-76473895D01*
X74476714Y-76550085D01*
X74476714Y-76664371D01*
X74438619Y-76740561D01*
X74400523Y-76778657D01*
X74324333Y-76816752D01*
X74019571Y-76816752D01*
X75238619Y-77197704D02*
X74781476Y-77197704D01*
X75010047Y-77197704D02*
X75010047Y-76397704D01*
X74933857Y-76511990D01*
X74857666Y-76588180D01*
X74781476Y-76626276D01*
X75733857Y-76397704D02*
X75810047Y-76397704D01*
X75886238Y-76435800D01*
X75924333Y-76473895D01*
X75962428Y-76550085D01*
X76000523Y-76702466D01*
X76000523Y-76892942D01*
X75962428Y-77045323D01*
X75924333Y-77121514D01*
X75886238Y-77159609D01*
X75810047Y-77197704D01*
X75733857Y-77197704D01*
X75657666Y-77159609D01*
X75619571Y-77121514D01*
X75581476Y-77045323D01*
X75543380Y-76892942D01*
X75543380Y-76702466D01*
X75581476Y-76550085D01*
X75619571Y-76473895D01*
X75657666Y-76435800D01*
X75733857Y-76397704D01*
X87303666Y-53042304D02*
X87037000Y-52661352D01*
X86846523Y-53042304D02*
X86846523Y-52242304D01*
X87151285Y-52242304D01*
X87227476Y-52280400D01*
X87265571Y-52318495D01*
X87303666Y-52394685D01*
X87303666Y-52508971D01*
X87265571Y-52585161D01*
X87227476Y-52623257D01*
X87151285Y-52661352D01*
X86846523Y-52661352D01*
X87684619Y-53042304D02*
X87837000Y-53042304D01*
X87913190Y-53004209D01*
X87951285Y-52966114D01*
X88027476Y-52851828D01*
X88065571Y-52699447D01*
X88065571Y-52394685D01*
X88027476Y-52318495D01*
X87989380Y-52280400D01*
X87913190Y-52242304D01*
X87760809Y-52242304D01*
X87684619Y-52280400D01*
X87646523Y-52318495D01*
X87608428Y-52394685D01*
X87608428Y-52585161D01*
X87646523Y-52661352D01*
X87684619Y-52699447D01*
X87760809Y-52737542D01*
X87913190Y-52737542D01*
X87989380Y-52699447D01*
X88027476Y-52661352D01*
X88065571Y-52585161D01*
X70285666Y-74302104D02*
X70019000Y-73921152D01*
X69828523Y-74302104D02*
X69828523Y-73502104D01*
X70133285Y-73502104D01*
X70209476Y-73540200D01*
X70247571Y-73578295D01*
X70285666Y-73654485D01*
X70285666Y-73768771D01*
X70247571Y-73844961D01*
X70209476Y-73883057D01*
X70133285Y-73921152D01*
X69828523Y-73921152D01*
X70742809Y-73844961D02*
X70666619Y-73806866D01*
X70628523Y-73768771D01*
X70590428Y-73692580D01*
X70590428Y-73654485D01*
X70628523Y-73578295D01*
X70666619Y-73540200D01*
X70742809Y-73502104D01*
X70895190Y-73502104D01*
X70971380Y-73540200D01*
X71009476Y-73578295D01*
X71047571Y-73654485D01*
X71047571Y-73692580D01*
X71009476Y-73768771D01*
X70971380Y-73806866D01*
X70895190Y-73844961D01*
X70742809Y-73844961D01*
X70666619Y-73883057D01*
X70628523Y-73921152D01*
X70590428Y-73997342D01*
X70590428Y-74149723D01*
X70628523Y-74225914D01*
X70666619Y-74264009D01*
X70742809Y-74302104D01*
X70895190Y-74302104D01*
X70971380Y-74264009D01*
X71009476Y-74225914D01*
X71047571Y-74149723D01*
X71047571Y-73997342D01*
X71009476Y-73921152D01*
X70971380Y-73883057D01*
X70895190Y-73844961D01*
X70158666Y-72663804D02*
X69892000Y-72282852D01*
X69701523Y-72663804D02*
X69701523Y-71863804D01*
X70006285Y-71863804D01*
X70082476Y-71901900D01*
X70120571Y-71939995D01*
X70158666Y-72016185D01*
X70158666Y-72130471D01*
X70120571Y-72206661D01*
X70082476Y-72244757D01*
X70006285Y-72282852D01*
X69701523Y-72282852D01*
X70425333Y-71863804D02*
X70958666Y-71863804D01*
X70615809Y-72663804D01*
X87925904Y-78239133D02*
X87544952Y-78505800D01*
X87925904Y-78696276D02*
X87125904Y-78696276D01*
X87125904Y-78391514D01*
X87164000Y-78315323D01*
X87202095Y-78277228D01*
X87278285Y-78239133D01*
X87392571Y-78239133D01*
X87468761Y-78277228D01*
X87506857Y-78315323D01*
X87544952Y-78391514D01*
X87544952Y-78696276D01*
X87125904Y-77553419D02*
X87125904Y-77705800D01*
X87164000Y-77781990D01*
X87202095Y-77820085D01*
X87316380Y-77896276D01*
X87468761Y-77934371D01*
X87773523Y-77934371D01*
X87849714Y-77896276D01*
X87887809Y-77858180D01*
X87925904Y-77781990D01*
X87925904Y-77629609D01*
X87887809Y-77553419D01*
X87849714Y-77515323D01*
X87773523Y-77477228D01*
X87583047Y-77477228D01*
X87506857Y-77515323D01*
X87468761Y-77553419D01*
X87430666Y-77629609D01*
X87430666Y-77781990D01*
X87468761Y-77858180D01*
X87506857Y-77896276D01*
X87583047Y-77934371D01*
X89513404Y-78239133D02*
X89132452Y-78505800D01*
X89513404Y-78696276D02*
X88713404Y-78696276D01*
X88713404Y-78391514D01*
X88751500Y-78315323D01*
X88789595Y-78277228D01*
X88865785Y-78239133D01*
X88980071Y-78239133D01*
X89056261Y-78277228D01*
X89094357Y-78315323D01*
X89132452Y-78391514D01*
X89132452Y-78696276D01*
X88713404Y-77515323D02*
X88713404Y-77896276D01*
X89094357Y-77934371D01*
X89056261Y-77896276D01*
X89018166Y-77820085D01*
X89018166Y-77629609D01*
X89056261Y-77553419D01*
X89094357Y-77515323D01*
X89170547Y-77477228D01*
X89361023Y-77477228D01*
X89437214Y-77515323D01*
X89475309Y-77553419D01*
X89513404Y-77629609D01*
X89513404Y-77820085D01*
X89475309Y-77896276D01*
X89437214Y-77934371D01*
X68837866Y-60611504D02*
X68571200Y-60230552D01*
X68380723Y-60611504D02*
X68380723Y-59811504D01*
X68685485Y-59811504D01*
X68761676Y-59849600D01*
X68799771Y-59887695D01*
X68837866Y-59963885D01*
X68837866Y-60078171D01*
X68799771Y-60154361D01*
X68761676Y-60192457D01*
X68685485Y-60230552D01*
X68380723Y-60230552D01*
X69523580Y-60078171D02*
X69523580Y-60611504D01*
X69333104Y-59773409D02*
X69142628Y-60344838D01*
X69637866Y-60344838D01*
X68774366Y-62173604D02*
X68507700Y-61792652D01*
X68317223Y-62173604D02*
X68317223Y-61373604D01*
X68621985Y-61373604D01*
X68698176Y-61411700D01*
X68736271Y-61449795D01*
X68774366Y-61525985D01*
X68774366Y-61640271D01*
X68736271Y-61716461D01*
X68698176Y-61754557D01*
X68621985Y-61792652D01*
X68317223Y-61792652D01*
X69041033Y-61373604D02*
X69536271Y-61373604D01*
X69269604Y-61678366D01*
X69383890Y-61678366D01*
X69460080Y-61716461D01*
X69498176Y-61754557D01*
X69536271Y-61830747D01*
X69536271Y-62021223D01*
X69498176Y-62097414D01*
X69460080Y-62135509D01*
X69383890Y-62173604D01*
X69155319Y-62173604D01*
X69079128Y-62135509D01*
X69041033Y-62097414D01*
X68799766Y-63697604D02*
X68533100Y-63316652D01*
X68342623Y-63697604D02*
X68342623Y-62897604D01*
X68647385Y-62897604D01*
X68723576Y-62935700D01*
X68761671Y-62973795D01*
X68799766Y-63049985D01*
X68799766Y-63164271D01*
X68761671Y-63240461D01*
X68723576Y-63278557D01*
X68647385Y-63316652D01*
X68342623Y-63316652D01*
X69104528Y-62973795D02*
X69142623Y-62935700D01*
X69218814Y-62897604D01*
X69409290Y-62897604D01*
X69485480Y-62935700D01*
X69523576Y-62973795D01*
X69561671Y-63049985D01*
X69561671Y-63126176D01*
X69523576Y-63240461D01*
X69066433Y-63697604D01*
X69561671Y-63697604D01*
X54169314Y-72981285D02*
X54207409Y-73019380D01*
X54245504Y-73133666D01*
X54245504Y-73209857D01*
X54207409Y-73324142D01*
X54131219Y-73400333D01*
X54055028Y-73438428D01*
X53902647Y-73476523D01*
X53788361Y-73476523D01*
X53635980Y-73438428D01*
X53559790Y-73400333D01*
X53483600Y-73324142D01*
X53445504Y-73209857D01*
X53445504Y-73133666D01*
X53483600Y-73019380D01*
X53521695Y-72981285D01*
X53788361Y-72524142D02*
X53750266Y-72600333D01*
X53712171Y-72638428D01*
X53635980Y-72676523D01*
X53597885Y-72676523D01*
X53521695Y-72638428D01*
X53483600Y-72600333D01*
X53445504Y-72524142D01*
X53445504Y-72371761D01*
X53483600Y-72295571D01*
X53521695Y-72257476D01*
X53597885Y-72219380D01*
X53635980Y-72219380D01*
X53712171Y-72257476D01*
X53750266Y-72295571D01*
X53788361Y-72371761D01*
X53788361Y-72524142D01*
X53826457Y-72600333D01*
X53864552Y-72638428D01*
X53940742Y-72676523D01*
X54093123Y-72676523D01*
X54169314Y-72638428D01*
X54207409Y-72600333D01*
X54245504Y-72524142D01*
X54245504Y-72371761D01*
X54207409Y-72295571D01*
X54169314Y-72257476D01*
X54093123Y-72219380D01*
X53940742Y-72219380D01*
X53864552Y-72257476D01*
X53826457Y-72295571D01*
X53788361Y-72371761D01*
X53521695Y-71914619D02*
X53483600Y-71876523D01*
X53445504Y-71800333D01*
X53445504Y-71609857D01*
X53483600Y-71533666D01*
X53521695Y-71495571D01*
X53597885Y-71457476D01*
X53674076Y-71457476D01*
X53788361Y-71495571D01*
X54245504Y-71952714D01*
X54245504Y-71457476D01*
X48987714Y-60649585D02*
X49025809Y-60687680D01*
X49063904Y-60801966D01*
X49063904Y-60878157D01*
X49025809Y-60992442D01*
X48949619Y-61068633D01*
X48873428Y-61106728D01*
X48721047Y-61144823D01*
X48606761Y-61144823D01*
X48454380Y-61106728D01*
X48378190Y-61068633D01*
X48302000Y-60992442D01*
X48263904Y-60878157D01*
X48263904Y-60801966D01*
X48302000Y-60687680D01*
X48340095Y-60649585D01*
X48606761Y-60192442D02*
X48568666Y-60268633D01*
X48530571Y-60306728D01*
X48454380Y-60344823D01*
X48416285Y-60344823D01*
X48340095Y-60306728D01*
X48302000Y-60268633D01*
X48263904Y-60192442D01*
X48263904Y-60040061D01*
X48302000Y-59963871D01*
X48340095Y-59925776D01*
X48416285Y-59887680D01*
X48454380Y-59887680D01*
X48530571Y-59925776D01*
X48568666Y-59963871D01*
X48606761Y-60040061D01*
X48606761Y-60192442D01*
X48644857Y-60268633D01*
X48682952Y-60306728D01*
X48759142Y-60344823D01*
X48911523Y-60344823D01*
X48987714Y-60306728D01*
X49025809Y-60268633D01*
X49063904Y-60192442D01*
X49063904Y-60040061D01*
X49025809Y-59963871D01*
X48987714Y-59925776D01*
X48911523Y-59887680D01*
X48759142Y-59887680D01*
X48682952Y-59925776D01*
X48644857Y-59963871D01*
X48606761Y-60040061D01*
X48263904Y-59392442D02*
X48263904Y-59316252D01*
X48302000Y-59240061D01*
X48340095Y-59201966D01*
X48416285Y-59163871D01*
X48568666Y-59125776D01*
X48759142Y-59125776D01*
X48911523Y-59163871D01*
X48987714Y-59201966D01*
X49025809Y-59240061D01*
X49063904Y-59316252D01*
X49063904Y-59392442D01*
X49025809Y-59468633D01*
X48987714Y-59506728D01*
X48911523Y-59544823D01*
X48759142Y-59582919D01*
X48568666Y-59582919D01*
X48416285Y-59544823D01*
X48340095Y-59506728D01*
X48302000Y-59468633D01*
X48263904Y-59392442D01*
X60290714Y-60141585D02*
X60328809Y-60179680D01*
X60366904Y-60293966D01*
X60366904Y-60370157D01*
X60328809Y-60484442D01*
X60252619Y-60560633D01*
X60176428Y-60598728D01*
X60024047Y-60636823D01*
X59909761Y-60636823D01*
X59757380Y-60598728D01*
X59681190Y-60560633D01*
X59605000Y-60484442D01*
X59566904Y-60370157D01*
X59566904Y-60293966D01*
X59605000Y-60179680D01*
X59643095Y-60141585D01*
X59566904Y-59874919D02*
X59566904Y-59341585D01*
X60366904Y-59684442D01*
X60366904Y-58998728D02*
X60366904Y-58846347D01*
X60328809Y-58770157D01*
X60290714Y-58732061D01*
X60176428Y-58655871D01*
X60024047Y-58617776D01*
X59719285Y-58617776D01*
X59643095Y-58655871D01*
X59605000Y-58693966D01*
X59566904Y-58770157D01*
X59566904Y-58922538D01*
X59605000Y-58998728D01*
X59643095Y-59036823D01*
X59719285Y-59074919D01*
X59909761Y-59074919D01*
X59985952Y-59036823D01*
X60024047Y-58998728D01*
X60062142Y-58922538D01*
X60062142Y-58770157D01*
X60024047Y-58693966D01*
X59985952Y-58655871D01*
X59909761Y-58617776D01*
X31654714Y-65169985D02*
X31692809Y-65208080D01*
X31730904Y-65322366D01*
X31730904Y-65398557D01*
X31692809Y-65512842D01*
X31616619Y-65589033D01*
X31540428Y-65627128D01*
X31388047Y-65665223D01*
X31273761Y-65665223D01*
X31121380Y-65627128D01*
X31045190Y-65589033D01*
X30969000Y-65512842D01*
X30930904Y-65398557D01*
X30930904Y-65322366D01*
X30969000Y-65208080D01*
X31007095Y-65169985D01*
X30930904Y-64903319D02*
X30930904Y-64369985D01*
X31730904Y-64712842D01*
X31273761Y-63950938D02*
X31235666Y-64027128D01*
X31197571Y-64065223D01*
X31121380Y-64103319D01*
X31083285Y-64103319D01*
X31007095Y-64065223D01*
X30969000Y-64027128D01*
X30930904Y-63950938D01*
X30930904Y-63798557D01*
X30969000Y-63722366D01*
X31007095Y-63684271D01*
X31083285Y-63646176D01*
X31121380Y-63646176D01*
X31197571Y-63684271D01*
X31235666Y-63722366D01*
X31273761Y-63798557D01*
X31273761Y-63950938D01*
X31311857Y-64027128D01*
X31349952Y-64065223D01*
X31426142Y-64103319D01*
X31578523Y-64103319D01*
X31654714Y-64065223D01*
X31692809Y-64027128D01*
X31730904Y-63950938D01*
X31730904Y-63798557D01*
X31692809Y-63722366D01*
X31654714Y-63684271D01*
X31578523Y-63646176D01*
X31426142Y-63646176D01*
X31349952Y-63684271D01*
X31311857Y-63722366D01*
X31273761Y-63798557D01*
X94644314Y-75648314D02*
X94606219Y-75686409D01*
X94491933Y-75724504D01*
X94415742Y-75724504D01*
X94301457Y-75686409D01*
X94225266Y-75610219D01*
X94187171Y-75534028D01*
X94149076Y-75381647D01*
X94149076Y-75267361D01*
X94187171Y-75114980D01*
X94225266Y-75038790D01*
X94301457Y-74962600D01*
X94415742Y-74924504D01*
X94491933Y-74924504D01*
X94606219Y-74962600D01*
X94644314Y-75000695D01*
X95406219Y-75724504D02*
X94949076Y-75724504D01*
X95177647Y-75724504D02*
X95177647Y-74924504D01*
X95101457Y-75038790D01*
X95025266Y-75114980D01*
X94949076Y-75153076D01*
X96091933Y-74924504D02*
X95939552Y-74924504D01*
X95863361Y-74962600D01*
X95825266Y-75000695D01*
X95749076Y-75114980D01*
X95710980Y-75267361D01*
X95710980Y-75572123D01*
X95749076Y-75648314D01*
X95787171Y-75686409D01*
X95863361Y-75724504D01*
X96015742Y-75724504D01*
X96091933Y-75686409D01*
X96130028Y-75648314D01*
X96168123Y-75572123D01*
X96168123Y-75381647D01*
X96130028Y-75305457D01*
X96091933Y-75267361D01*
X96015742Y-75229266D01*
X95863361Y-75229266D01*
X95787171Y-75267361D01*
X95749076Y-75305457D01*
X95710980Y-75381647D01*
X92307414Y-78239085D02*
X92345509Y-78277180D01*
X92383604Y-78391466D01*
X92383604Y-78467657D01*
X92345509Y-78581942D01*
X92269319Y-78658133D01*
X92193128Y-78696228D01*
X92040747Y-78734323D01*
X91926461Y-78734323D01*
X91774080Y-78696228D01*
X91697890Y-78658133D01*
X91621700Y-78581942D01*
X91583604Y-78467657D01*
X91583604Y-78391466D01*
X91621700Y-78277180D01*
X91659795Y-78239085D01*
X92383604Y-77477180D02*
X92383604Y-77934323D01*
X92383604Y-77705752D02*
X91583604Y-77705752D01*
X91697890Y-77781942D01*
X91774080Y-77858133D01*
X91812176Y-77934323D01*
X91850271Y-76791466D02*
X92383604Y-76791466D01*
X91545509Y-76981942D02*
X92116938Y-77172419D01*
X92116938Y-76677180D01*
X83684114Y-80042485D02*
X83722209Y-80080580D01*
X83760304Y-80194866D01*
X83760304Y-80271057D01*
X83722209Y-80385342D01*
X83646019Y-80461533D01*
X83569828Y-80499628D01*
X83417447Y-80537723D01*
X83303161Y-80537723D01*
X83150780Y-80499628D01*
X83074590Y-80461533D01*
X82998400Y-80385342D01*
X82960304Y-80271057D01*
X82960304Y-80194866D01*
X82998400Y-80080580D01*
X83036495Y-80042485D01*
X83760304Y-79280580D02*
X83760304Y-79737723D01*
X83760304Y-79509152D02*
X82960304Y-79509152D01*
X83074590Y-79585342D01*
X83150780Y-79661533D01*
X83188876Y-79737723D01*
X82960304Y-79013914D02*
X82960304Y-78518676D01*
X83265066Y-78785342D01*
X83265066Y-78671057D01*
X83303161Y-78594866D01*
X83341257Y-78556771D01*
X83417447Y-78518676D01*
X83607923Y-78518676D01*
X83684114Y-78556771D01*
X83722209Y-78594866D01*
X83760304Y-78671057D01*
X83760304Y-78899628D01*
X83722209Y-78975819D01*
X83684114Y-79013914D01*
X87303714Y-54515514D02*
X87265619Y-54553609D01*
X87151333Y-54591704D01*
X87075142Y-54591704D01*
X86960857Y-54553609D01*
X86884666Y-54477419D01*
X86846571Y-54401228D01*
X86808476Y-54248847D01*
X86808476Y-54134561D01*
X86846571Y-53982180D01*
X86884666Y-53905990D01*
X86960857Y-53829800D01*
X87075142Y-53791704D01*
X87151333Y-53791704D01*
X87265619Y-53829800D01*
X87303714Y-53867895D01*
X88065619Y-54591704D02*
X87608476Y-54591704D01*
X87837047Y-54591704D02*
X87837047Y-53791704D01*
X87760857Y-53905990D01*
X87684666Y-53982180D01*
X87608476Y-54020276D01*
X88370380Y-53867895D02*
X88408476Y-53829800D01*
X88484666Y-53791704D01*
X88675142Y-53791704D01*
X88751333Y-53829800D01*
X88789428Y-53867895D01*
X88827523Y-53944085D01*
X88827523Y-54020276D01*
X88789428Y-54134561D01*
X88332285Y-54591704D01*
X88827523Y-54591704D01*
X82858714Y-93187014D02*
X82820619Y-93225109D01*
X82706333Y-93263204D01*
X82630142Y-93263204D01*
X82515857Y-93225109D01*
X82439666Y-93148919D01*
X82401571Y-93072728D01*
X82363476Y-92920347D01*
X82363476Y-92806061D01*
X82401571Y-92653680D01*
X82439666Y-92577490D01*
X82515857Y-92501300D01*
X82630142Y-92463204D01*
X82706333Y-92463204D01*
X82820619Y-92501300D01*
X82858714Y-92539395D01*
X83620619Y-93263204D02*
X83163476Y-93263204D01*
X83392047Y-93263204D02*
X83392047Y-92463204D01*
X83315857Y-92577490D01*
X83239666Y-92653680D01*
X83163476Y-92691776D01*
X84382523Y-93263204D02*
X83925380Y-93263204D01*
X84153952Y-93263204D02*
X84153952Y-92463204D01*
X84077761Y-92577490D01*
X84001571Y-92653680D01*
X83925380Y-92691776D01*
X82800214Y-96209585D02*
X82838309Y-96247680D01*
X82876404Y-96361966D01*
X82876404Y-96438157D01*
X82838309Y-96552442D01*
X82762119Y-96628633D01*
X82685928Y-96666728D01*
X82533547Y-96704823D01*
X82419261Y-96704823D01*
X82266880Y-96666728D01*
X82190690Y-96628633D01*
X82114500Y-96552442D01*
X82076404Y-96438157D01*
X82076404Y-96361966D01*
X82114500Y-96247680D01*
X82152595Y-96209585D01*
X82876404Y-95447680D02*
X82876404Y-95904823D01*
X82876404Y-95676252D02*
X82076404Y-95676252D01*
X82190690Y-95752442D01*
X82266880Y-95828633D01*
X82304976Y-95904823D01*
X82076404Y-94952442D02*
X82076404Y-94876252D01*
X82114500Y-94800061D01*
X82152595Y-94761966D01*
X82228785Y-94723871D01*
X82381166Y-94685776D01*
X82571642Y-94685776D01*
X82724023Y-94723871D01*
X82800214Y-94761966D01*
X82838309Y-94800061D01*
X82876404Y-94876252D01*
X82876404Y-94952442D01*
X82838309Y-95028633D01*
X82800214Y-95066728D01*
X82724023Y-95104823D01*
X82571642Y-95142919D01*
X82381166Y-95142919D01*
X82228785Y-95104823D01*
X82152595Y-95066728D01*
X82114500Y-95028633D01*
X82076404Y-94952442D01*
X85944714Y-98609933D02*
X85982809Y-98648028D01*
X86020904Y-98762314D01*
X86020904Y-98838504D01*
X85982809Y-98952790D01*
X85906619Y-99028980D01*
X85830428Y-99067076D01*
X85678047Y-99105171D01*
X85563761Y-99105171D01*
X85411380Y-99067076D01*
X85335190Y-99028980D01*
X85259000Y-98952790D01*
X85220904Y-98838504D01*
X85220904Y-98762314D01*
X85259000Y-98648028D01*
X85297095Y-98609933D01*
X86020904Y-98228980D02*
X86020904Y-98076600D01*
X85982809Y-98000409D01*
X85944714Y-97962314D01*
X85830428Y-97886123D01*
X85678047Y-97848028D01*
X85373285Y-97848028D01*
X85297095Y-97886123D01*
X85259000Y-97924219D01*
X85220904Y-98000409D01*
X85220904Y-98152790D01*
X85259000Y-98228980D01*
X85297095Y-98267076D01*
X85373285Y-98305171D01*
X85563761Y-98305171D01*
X85639952Y-98267076D01*
X85678047Y-98228980D01*
X85716142Y-98152790D01*
X85716142Y-98000409D01*
X85678047Y-97924219D01*
X85639952Y-97886123D01*
X85563761Y-97848028D01*
X87316314Y-98508333D02*
X87354409Y-98546428D01*
X87392504Y-98660714D01*
X87392504Y-98736904D01*
X87354409Y-98851190D01*
X87278219Y-98927380D01*
X87202028Y-98965476D01*
X87049647Y-99003571D01*
X86935361Y-99003571D01*
X86782980Y-98965476D01*
X86706790Y-98927380D01*
X86630600Y-98851190D01*
X86592504Y-98736904D01*
X86592504Y-98660714D01*
X86630600Y-98546428D01*
X86668695Y-98508333D01*
X86935361Y-98051190D02*
X86897266Y-98127380D01*
X86859171Y-98165476D01*
X86782980Y-98203571D01*
X86744885Y-98203571D01*
X86668695Y-98165476D01*
X86630600Y-98127380D01*
X86592504Y-98051190D01*
X86592504Y-97898809D01*
X86630600Y-97822619D01*
X86668695Y-97784523D01*
X86744885Y-97746428D01*
X86782980Y-97746428D01*
X86859171Y-97784523D01*
X86897266Y-97822619D01*
X86935361Y-97898809D01*
X86935361Y-98051190D01*
X86973457Y-98127380D01*
X87011552Y-98165476D01*
X87087742Y-98203571D01*
X87240123Y-98203571D01*
X87316314Y-98165476D01*
X87354409Y-98127380D01*
X87392504Y-98051190D01*
X87392504Y-97898809D01*
X87354409Y-97822619D01*
X87316314Y-97784523D01*
X87240123Y-97746428D01*
X87087742Y-97746428D01*
X87011552Y-97784523D01*
X86973457Y-97822619D01*
X86935361Y-97898809D01*
X70389766Y-69882514D02*
X70351671Y-69920609D01*
X70237385Y-69958704D01*
X70161195Y-69958704D01*
X70046909Y-69920609D01*
X69970719Y-69844419D01*
X69932623Y-69768228D01*
X69894528Y-69615847D01*
X69894528Y-69501561D01*
X69932623Y-69349180D01*
X69970719Y-69272990D01*
X70046909Y-69196800D01*
X70161195Y-69158704D01*
X70237385Y-69158704D01*
X70351671Y-69196800D01*
X70389766Y-69234895D01*
X70656433Y-69158704D02*
X71189766Y-69158704D01*
X70846909Y-69958704D01*
X71682666Y-68358514D02*
X71644571Y-68396609D01*
X71530285Y-68434704D01*
X71454095Y-68434704D01*
X71339809Y-68396609D01*
X71263619Y-68320419D01*
X71225523Y-68244228D01*
X71187428Y-68091847D01*
X71187428Y-67977561D01*
X71225523Y-67825180D01*
X71263619Y-67748990D01*
X71339809Y-67672800D01*
X71454095Y-67634704D01*
X71530285Y-67634704D01*
X71644571Y-67672800D01*
X71682666Y-67710895D01*
X72368380Y-67634704D02*
X72216000Y-67634704D01*
X72139809Y-67672800D01*
X72101714Y-67710895D01*
X72025523Y-67825180D01*
X71987428Y-67977561D01*
X71987428Y-68282323D01*
X72025523Y-68358514D01*
X72063619Y-68396609D01*
X72139809Y-68434704D01*
X72292190Y-68434704D01*
X72368380Y-68396609D01*
X72406476Y-68358514D01*
X72444571Y-68282323D01*
X72444571Y-68091847D01*
X72406476Y-68015657D01*
X72368380Y-67977561D01*
X72292190Y-67939466D01*
X72139809Y-67939466D01*
X72063619Y-67977561D01*
X72025523Y-68015657D01*
X71987428Y-68091847D01*
X73587666Y-59087514D02*
X73549571Y-59125609D01*
X73435285Y-59163704D01*
X73359095Y-59163704D01*
X73244809Y-59125609D01*
X73168619Y-59049419D01*
X73130523Y-58973228D01*
X73092428Y-58820847D01*
X73092428Y-58706561D01*
X73130523Y-58554180D01*
X73168619Y-58477990D01*
X73244809Y-58401800D01*
X73359095Y-58363704D01*
X73435285Y-58363704D01*
X73549571Y-58401800D01*
X73587666Y-58439895D01*
X74311476Y-58363704D02*
X73930523Y-58363704D01*
X73892428Y-58744657D01*
X73930523Y-58706561D01*
X74006714Y-58668466D01*
X74197190Y-58668466D01*
X74273380Y-58706561D01*
X74311476Y-58744657D01*
X74349571Y-58820847D01*
X74349571Y-59011323D01*
X74311476Y-59087514D01*
X74273380Y-59125609D01*
X74197190Y-59163704D01*
X74006714Y-59163704D01*
X73930523Y-59125609D01*
X73892428Y-59087514D01*
X73460666Y-57690514D02*
X73422571Y-57728609D01*
X73308285Y-57766704D01*
X73232095Y-57766704D01*
X73117809Y-57728609D01*
X73041619Y-57652419D01*
X73003523Y-57576228D01*
X72965428Y-57423847D01*
X72965428Y-57309561D01*
X73003523Y-57157180D01*
X73041619Y-57080990D01*
X73117809Y-57004800D01*
X73232095Y-56966704D01*
X73308285Y-56966704D01*
X73422571Y-57004800D01*
X73460666Y-57042895D01*
X74146380Y-57233371D02*
X74146380Y-57766704D01*
X73955904Y-56928609D02*
X73765428Y-57500038D01*
X74260666Y-57500038D01*
X80991714Y-58046133D02*
X81029809Y-58084228D01*
X81067904Y-58198514D01*
X81067904Y-58274704D01*
X81029809Y-58388990D01*
X80953619Y-58465180D01*
X80877428Y-58503276D01*
X80725047Y-58541371D01*
X80610761Y-58541371D01*
X80458380Y-58503276D01*
X80382190Y-58465180D01*
X80306000Y-58388990D01*
X80267904Y-58274704D01*
X80267904Y-58198514D01*
X80306000Y-58084228D01*
X80344095Y-58046133D01*
X80267904Y-57779466D02*
X80267904Y-57284228D01*
X80572666Y-57550895D01*
X80572666Y-57436609D01*
X80610761Y-57360419D01*
X80648857Y-57322323D01*
X80725047Y-57284228D01*
X80915523Y-57284228D01*
X80991714Y-57322323D01*
X81029809Y-57360419D01*
X81067904Y-57436609D01*
X81067904Y-57665180D01*
X81029809Y-57741371D01*
X80991714Y-57779466D01*
X84194614Y-57919133D02*
X84232709Y-57957228D01*
X84270804Y-58071514D01*
X84270804Y-58147704D01*
X84232709Y-58261990D01*
X84156519Y-58338180D01*
X84080328Y-58376276D01*
X83927947Y-58414371D01*
X83813661Y-58414371D01*
X83661280Y-58376276D01*
X83585090Y-58338180D01*
X83508900Y-58261990D01*
X83470804Y-58147704D01*
X83470804Y-58071514D01*
X83508900Y-57957228D01*
X83546995Y-57919133D01*
X84270804Y-57157228D02*
X84270804Y-57614371D01*
X84270804Y-57385800D02*
X83470804Y-57385800D01*
X83585090Y-57461990D01*
X83661280Y-57538180D01*
X83699376Y-57614371D01*
X31138023Y-76842204D02*
X31138023Y-77489823D01*
X31176119Y-77566014D01*
X31214214Y-77604109D01*
X31290404Y-77642204D01*
X31442785Y-77642204D01*
X31518976Y-77604109D01*
X31557071Y-77566014D01*
X31595166Y-77489823D01*
X31595166Y-76842204D01*
X31899928Y-76842204D02*
X32395166Y-76842204D01*
X32128500Y-77146966D01*
X32242785Y-77146966D01*
X32318976Y-77185061D01*
X32357071Y-77223157D01*
X32395166Y-77299347D01*
X32395166Y-77489823D01*
X32357071Y-77566014D01*
X32318976Y-77604109D01*
X32242785Y-77642204D01*
X32014214Y-77642204D01*
X31938023Y-77604109D01*
X31899928Y-77566014D01*
X32699928Y-76918395D02*
X32738023Y-76880300D01*
X32814214Y-76842204D01*
X33004690Y-76842204D01*
X33080880Y-76880300D01*
X33118976Y-76918395D01*
X33157071Y-76994585D01*
X33157071Y-77070776D01*
X33118976Y-77185061D01*
X32661833Y-77642204D01*
X33157071Y-77642204D01*
X26820023Y-69666704D02*
X26820023Y-70314323D01*
X26858119Y-70390514D01*
X26896214Y-70428609D01*
X26972404Y-70466704D01*
X27124785Y-70466704D01*
X27200976Y-70428609D01*
X27239071Y-70390514D01*
X27277166Y-70314323D01*
X27277166Y-69666704D01*
X27581928Y-69666704D02*
X28077166Y-69666704D01*
X27810500Y-69971466D01*
X27924785Y-69971466D01*
X28000976Y-70009561D01*
X28039071Y-70047657D01*
X28077166Y-70123847D01*
X28077166Y-70314323D01*
X28039071Y-70390514D01*
X28000976Y-70428609D01*
X27924785Y-70466704D01*
X27696214Y-70466704D01*
X27620023Y-70428609D01*
X27581928Y-70390514D01*
X28839071Y-70466704D02*
X28381928Y-70466704D01*
X28610500Y-70466704D02*
X28610500Y-69666704D01*
X28534309Y-69780990D01*
X28458119Y-69857180D01*
X28381928Y-69895276D01*
X63379304Y-104476428D02*
X62579304Y-104476428D01*
X62579304Y-104285952D01*
X62617400Y-104171666D01*
X62693590Y-104095476D01*
X62769780Y-104057380D01*
X62922161Y-104019285D01*
X63036447Y-104019285D01*
X63188828Y-104057380D01*
X63265019Y-104095476D01*
X63341209Y-104171666D01*
X63379304Y-104285952D01*
X63379304Y-104476428D01*
X63379304Y-103257380D02*
X63379304Y-103714523D01*
X63379304Y-103485952D02*
X62579304Y-103485952D01*
X62693590Y-103562142D01*
X62769780Y-103638333D01*
X62807876Y-103714523D01*
X62579304Y-102571666D02*
X62579304Y-102724047D01*
X62617400Y-102800238D01*
X62655495Y-102838333D01*
X62769780Y-102914523D01*
X62922161Y-102952619D01*
X63226923Y-102952619D01*
X63303114Y-102914523D01*
X63341209Y-102876428D01*
X63379304Y-102800238D01*
X63379304Y-102647857D01*
X63341209Y-102571666D01*
X63303114Y-102533571D01*
X63226923Y-102495476D01*
X63036447Y-102495476D01*
X62960257Y-102533571D01*
X62922161Y-102571666D01*
X62884066Y-102647857D01*
X62884066Y-102800238D01*
X62922161Y-102876428D01*
X62960257Y-102914523D01*
X63036447Y-102952619D01*
X95990523Y-87484704D02*
X95990523Y-86684704D01*
X96181000Y-86684704D01*
X96295285Y-86722800D01*
X96371476Y-86798990D01*
X96409571Y-86875180D01*
X96447666Y-87027561D01*
X96447666Y-87141847D01*
X96409571Y-87294228D01*
X96371476Y-87370419D01*
X96295285Y-87446609D01*
X96181000Y-87484704D01*
X95990523Y-87484704D01*
X97209571Y-87484704D02*
X96752428Y-87484704D01*
X96981000Y-87484704D02*
X96981000Y-86684704D01*
X96904809Y-86798990D01*
X96828619Y-86875180D01*
X96752428Y-86913276D01*
X55714980Y-100653904D02*
X56248314Y-101453904D01*
X56248314Y-100653904D02*
X55714980Y-101453904D01*
X56972123Y-101453904D02*
X56514980Y-101453904D01*
X56743552Y-101453904D02*
X56743552Y-100653904D01*
X56667361Y-100768190D01*
X56591171Y-100844380D01*
X56514980Y-100882476D01*
X76242023Y-48368704D02*
X76242023Y-47568704D01*
X76432500Y-47568704D01*
X76546785Y-47606800D01*
X76622976Y-47682990D01*
X76661071Y-47759180D01*
X76699166Y-47911561D01*
X76699166Y-48025847D01*
X76661071Y-48178228D01*
X76622976Y-48254419D01*
X76546785Y-48330609D01*
X76432500Y-48368704D01*
X76242023Y-48368704D01*
X77003928Y-47644895D02*
X77042023Y-47606800D01*
X77118214Y-47568704D01*
X77308690Y-47568704D01*
X77384880Y-47606800D01*
X77422976Y-47644895D01*
X77461071Y-47721085D01*
X77461071Y-47797276D01*
X77422976Y-47911561D01*
X76965833Y-48368704D01*
X77461071Y-48368704D01*
M02*
