G04 #@! TF.GenerationSoftware,KiCad,Pcbnew,(5.1.0-rc2-21-g16b3c80a7)*
G04 #@! TF.CreationDate,2019-06-05T23:58:20+02:00*
G04 #@! TF.ProjectId,microRusEfi,6d696372-6f52-4757-9345-66692e6b6963,R0.1*
G04 #@! TF.SameCoordinates,Original*
G04 #@! TF.FileFunction,Paste,Bot*
G04 #@! TF.FilePolarity,Positive*
%FSLAX46Y46*%
G04 Gerber Fmt 4.6, Leading zero omitted, Abs format (unit mm)*
G04 Created by KiCad (PCBNEW (5.1.0-rc2-21-g16b3c80a7)) date 2019-06-05 23:58:20*
%MOMM*%
%LPD*%
G04 APERTURE LIST*
%ADD10C,0.200000*%
%ADD11R,0.800000X0.900000*%
%ADD12C,0.100000*%
%ADD13C,0.950000*%
%ADD14R,0.500000X0.800000*%
%ADD15R,0.400000X0.800000*%
%ADD16R,1.450000X0.450000*%
G04 APERTURE END LIST*
D10*
X20600000Y-35538500D02*
X25895900Y-20600000D01*
X32844596Y-116072400D02*
X20601600Y-104381342D01*
X101188000Y-35538500D02*
X95841300Y-20600000D01*
X101189600Y-104381342D02*
X88946604Y-116072400D01*
X25895900Y-20600000D02*
X95841300Y-20600000D01*
X101188000Y-35538500D02*
X101189600Y-104381342D01*
X20600000Y-35538500D02*
X20601600Y-104381342D01*
X84085800Y-99870300D02*
G75*
G03X84085800Y-99870300I-1638300J0D01*
G01*
X32844596Y-116072400D02*
X88946604Y-116072400D01*
X27926400Y-49959301D02*
G75*
G03X27926400Y-49959301I-1638300J0D01*
G01*
X89521400Y-104569300D02*
G75*
G03X89521400Y-104569300I-1790700J0D01*
G01*
X95020499Y-42301200D02*
G75*
G03X95020499Y-42301200I-1790700J0D01*
G01*
X30352101Y-42301200D02*
G75*
G03X30352101Y-42301200I-1790700J0D01*
G01*
X35851200Y-104569300D02*
G75*
G03X35851200Y-104569300I-1790700J0D01*
G01*
D11*
X60833000Y-45513500D03*
X61783000Y-43513500D03*
X59883000Y-43513500D03*
D12*
G36*
X51030779Y-70011944D02*
G01*
X51053834Y-70015363D01*
X51076443Y-70021027D01*
X51098387Y-70028879D01*
X51119457Y-70038844D01*
X51139448Y-70050826D01*
X51158168Y-70064710D01*
X51175438Y-70080362D01*
X51191090Y-70097632D01*
X51204974Y-70116352D01*
X51216956Y-70136343D01*
X51226921Y-70157413D01*
X51234773Y-70179357D01*
X51240437Y-70201966D01*
X51243856Y-70225021D01*
X51245000Y-70248300D01*
X51245000Y-70723300D01*
X51243856Y-70746579D01*
X51240437Y-70769634D01*
X51234773Y-70792243D01*
X51226921Y-70814187D01*
X51216956Y-70835257D01*
X51204974Y-70855248D01*
X51191090Y-70873968D01*
X51175438Y-70891238D01*
X51158168Y-70906890D01*
X51139448Y-70920774D01*
X51119457Y-70932756D01*
X51098387Y-70942721D01*
X51076443Y-70950573D01*
X51053834Y-70956237D01*
X51030779Y-70959656D01*
X51007500Y-70960800D01*
X50432500Y-70960800D01*
X50409221Y-70959656D01*
X50386166Y-70956237D01*
X50363557Y-70950573D01*
X50341613Y-70942721D01*
X50320543Y-70932756D01*
X50300552Y-70920774D01*
X50281832Y-70906890D01*
X50264562Y-70891238D01*
X50248910Y-70873968D01*
X50235026Y-70855248D01*
X50223044Y-70835257D01*
X50213079Y-70814187D01*
X50205227Y-70792243D01*
X50199563Y-70769634D01*
X50196144Y-70746579D01*
X50195000Y-70723300D01*
X50195000Y-70248300D01*
X50196144Y-70225021D01*
X50199563Y-70201966D01*
X50205227Y-70179357D01*
X50213079Y-70157413D01*
X50223044Y-70136343D01*
X50235026Y-70116352D01*
X50248910Y-70097632D01*
X50264562Y-70080362D01*
X50281832Y-70064710D01*
X50300552Y-70050826D01*
X50320543Y-70038844D01*
X50341613Y-70028879D01*
X50363557Y-70021027D01*
X50386166Y-70015363D01*
X50409221Y-70011944D01*
X50432500Y-70010800D01*
X51007500Y-70010800D01*
X51030779Y-70011944D01*
X51030779Y-70011944D01*
G37*
D13*
X50720000Y-70485800D03*
D12*
G36*
X49280779Y-70011944D02*
G01*
X49303834Y-70015363D01*
X49326443Y-70021027D01*
X49348387Y-70028879D01*
X49369457Y-70038844D01*
X49389448Y-70050826D01*
X49408168Y-70064710D01*
X49425438Y-70080362D01*
X49441090Y-70097632D01*
X49454974Y-70116352D01*
X49466956Y-70136343D01*
X49476921Y-70157413D01*
X49484773Y-70179357D01*
X49490437Y-70201966D01*
X49493856Y-70225021D01*
X49495000Y-70248300D01*
X49495000Y-70723300D01*
X49493856Y-70746579D01*
X49490437Y-70769634D01*
X49484773Y-70792243D01*
X49476921Y-70814187D01*
X49466956Y-70835257D01*
X49454974Y-70855248D01*
X49441090Y-70873968D01*
X49425438Y-70891238D01*
X49408168Y-70906890D01*
X49389448Y-70920774D01*
X49369457Y-70932756D01*
X49348387Y-70942721D01*
X49326443Y-70950573D01*
X49303834Y-70956237D01*
X49280779Y-70959656D01*
X49257500Y-70960800D01*
X48682500Y-70960800D01*
X48659221Y-70959656D01*
X48636166Y-70956237D01*
X48613557Y-70950573D01*
X48591613Y-70942721D01*
X48570543Y-70932756D01*
X48550552Y-70920774D01*
X48531832Y-70906890D01*
X48514562Y-70891238D01*
X48498910Y-70873968D01*
X48485026Y-70855248D01*
X48473044Y-70835257D01*
X48463079Y-70814187D01*
X48455227Y-70792243D01*
X48449563Y-70769634D01*
X48446144Y-70746579D01*
X48445000Y-70723300D01*
X48445000Y-70248300D01*
X48446144Y-70225021D01*
X48449563Y-70201966D01*
X48455227Y-70179357D01*
X48463079Y-70157413D01*
X48473044Y-70136343D01*
X48485026Y-70116352D01*
X48498910Y-70097632D01*
X48514562Y-70080362D01*
X48531832Y-70064710D01*
X48550552Y-70050826D01*
X48570543Y-70038844D01*
X48591613Y-70028879D01*
X48613557Y-70021027D01*
X48636166Y-70015363D01*
X48659221Y-70011944D01*
X48682500Y-70010800D01*
X49257500Y-70010800D01*
X49280779Y-70011944D01*
X49280779Y-70011944D01*
G37*
D13*
X48970000Y-70485800D03*
D12*
G36*
X49280779Y-65439944D02*
G01*
X49303834Y-65443363D01*
X49326443Y-65449027D01*
X49348387Y-65456879D01*
X49369457Y-65466844D01*
X49389448Y-65478826D01*
X49408168Y-65492710D01*
X49425438Y-65508362D01*
X49441090Y-65525632D01*
X49454974Y-65544352D01*
X49466956Y-65564343D01*
X49476921Y-65585413D01*
X49484773Y-65607357D01*
X49490437Y-65629966D01*
X49493856Y-65653021D01*
X49495000Y-65676300D01*
X49495000Y-66151300D01*
X49493856Y-66174579D01*
X49490437Y-66197634D01*
X49484773Y-66220243D01*
X49476921Y-66242187D01*
X49466956Y-66263257D01*
X49454974Y-66283248D01*
X49441090Y-66301968D01*
X49425438Y-66319238D01*
X49408168Y-66334890D01*
X49389448Y-66348774D01*
X49369457Y-66360756D01*
X49348387Y-66370721D01*
X49326443Y-66378573D01*
X49303834Y-66384237D01*
X49280779Y-66387656D01*
X49257500Y-66388800D01*
X48682500Y-66388800D01*
X48659221Y-66387656D01*
X48636166Y-66384237D01*
X48613557Y-66378573D01*
X48591613Y-66370721D01*
X48570543Y-66360756D01*
X48550552Y-66348774D01*
X48531832Y-66334890D01*
X48514562Y-66319238D01*
X48498910Y-66301968D01*
X48485026Y-66283248D01*
X48473044Y-66263257D01*
X48463079Y-66242187D01*
X48455227Y-66220243D01*
X48449563Y-66197634D01*
X48446144Y-66174579D01*
X48445000Y-66151300D01*
X48445000Y-65676300D01*
X48446144Y-65653021D01*
X48449563Y-65629966D01*
X48455227Y-65607357D01*
X48463079Y-65585413D01*
X48473044Y-65564343D01*
X48485026Y-65544352D01*
X48498910Y-65525632D01*
X48514562Y-65508362D01*
X48531832Y-65492710D01*
X48550552Y-65478826D01*
X48570543Y-65466844D01*
X48591613Y-65456879D01*
X48613557Y-65449027D01*
X48636166Y-65443363D01*
X48659221Y-65439944D01*
X48682500Y-65438800D01*
X49257500Y-65438800D01*
X49280779Y-65439944D01*
X49280779Y-65439944D01*
G37*
D13*
X48970000Y-65913800D03*
D12*
G36*
X51030779Y-65439944D02*
G01*
X51053834Y-65443363D01*
X51076443Y-65449027D01*
X51098387Y-65456879D01*
X51119457Y-65466844D01*
X51139448Y-65478826D01*
X51158168Y-65492710D01*
X51175438Y-65508362D01*
X51191090Y-65525632D01*
X51204974Y-65544352D01*
X51216956Y-65564343D01*
X51226921Y-65585413D01*
X51234773Y-65607357D01*
X51240437Y-65629966D01*
X51243856Y-65653021D01*
X51245000Y-65676300D01*
X51245000Y-66151300D01*
X51243856Y-66174579D01*
X51240437Y-66197634D01*
X51234773Y-66220243D01*
X51226921Y-66242187D01*
X51216956Y-66263257D01*
X51204974Y-66283248D01*
X51191090Y-66301968D01*
X51175438Y-66319238D01*
X51158168Y-66334890D01*
X51139448Y-66348774D01*
X51119457Y-66360756D01*
X51098387Y-66370721D01*
X51076443Y-66378573D01*
X51053834Y-66384237D01*
X51030779Y-66387656D01*
X51007500Y-66388800D01*
X50432500Y-66388800D01*
X50409221Y-66387656D01*
X50386166Y-66384237D01*
X50363557Y-66378573D01*
X50341613Y-66370721D01*
X50320543Y-66360756D01*
X50300552Y-66348774D01*
X50281832Y-66334890D01*
X50264562Y-66319238D01*
X50248910Y-66301968D01*
X50235026Y-66283248D01*
X50223044Y-66263257D01*
X50213079Y-66242187D01*
X50205227Y-66220243D01*
X50199563Y-66197634D01*
X50196144Y-66174579D01*
X50195000Y-66151300D01*
X50195000Y-65676300D01*
X50196144Y-65653021D01*
X50199563Y-65629966D01*
X50205227Y-65607357D01*
X50213079Y-65585413D01*
X50223044Y-65564343D01*
X50235026Y-65544352D01*
X50248910Y-65525632D01*
X50264562Y-65508362D01*
X50281832Y-65492710D01*
X50300552Y-65478826D01*
X50320543Y-65466844D01*
X50341613Y-65456879D01*
X50363557Y-65449027D01*
X50386166Y-65443363D01*
X50409221Y-65439944D01*
X50432500Y-65438800D01*
X51007500Y-65438800D01*
X51030779Y-65439944D01*
X51030779Y-65439944D01*
G37*
D13*
X50720000Y-65913800D03*
D12*
G36*
X51030779Y-74583944D02*
G01*
X51053834Y-74587363D01*
X51076443Y-74593027D01*
X51098387Y-74600879D01*
X51119457Y-74610844D01*
X51139448Y-74622826D01*
X51158168Y-74636710D01*
X51175438Y-74652362D01*
X51191090Y-74669632D01*
X51204974Y-74688352D01*
X51216956Y-74708343D01*
X51226921Y-74729413D01*
X51234773Y-74751357D01*
X51240437Y-74773966D01*
X51243856Y-74797021D01*
X51245000Y-74820300D01*
X51245000Y-75295300D01*
X51243856Y-75318579D01*
X51240437Y-75341634D01*
X51234773Y-75364243D01*
X51226921Y-75386187D01*
X51216956Y-75407257D01*
X51204974Y-75427248D01*
X51191090Y-75445968D01*
X51175438Y-75463238D01*
X51158168Y-75478890D01*
X51139448Y-75492774D01*
X51119457Y-75504756D01*
X51098387Y-75514721D01*
X51076443Y-75522573D01*
X51053834Y-75528237D01*
X51030779Y-75531656D01*
X51007500Y-75532800D01*
X50432500Y-75532800D01*
X50409221Y-75531656D01*
X50386166Y-75528237D01*
X50363557Y-75522573D01*
X50341613Y-75514721D01*
X50320543Y-75504756D01*
X50300552Y-75492774D01*
X50281832Y-75478890D01*
X50264562Y-75463238D01*
X50248910Y-75445968D01*
X50235026Y-75427248D01*
X50223044Y-75407257D01*
X50213079Y-75386187D01*
X50205227Y-75364243D01*
X50199563Y-75341634D01*
X50196144Y-75318579D01*
X50195000Y-75295300D01*
X50195000Y-74820300D01*
X50196144Y-74797021D01*
X50199563Y-74773966D01*
X50205227Y-74751357D01*
X50213079Y-74729413D01*
X50223044Y-74708343D01*
X50235026Y-74688352D01*
X50248910Y-74669632D01*
X50264562Y-74652362D01*
X50281832Y-74636710D01*
X50300552Y-74622826D01*
X50320543Y-74610844D01*
X50341613Y-74600879D01*
X50363557Y-74593027D01*
X50386166Y-74587363D01*
X50409221Y-74583944D01*
X50432500Y-74582800D01*
X51007500Y-74582800D01*
X51030779Y-74583944D01*
X51030779Y-74583944D01*
G37*
D13*
X50720000Y-75057800D03*
D12*
G36*
X49280779Y-74583944D02*
G01*
X49303834Y-74587363D01*
X49326443Y-74593027D01*
X49348387Y-74600879D01*
X49369457Y-74610844D01*
X49389448Y-74622826D01*
X49408168Y-74636710D01*
X49425438Y-74652362D01*
X49441090Y-74669632D01*
X49454974Y-74688352D01*
X49466956Y-74708343D01*
X49476921Y-74729413D01*
X49484773Y-74751357D01*
X49490437Y-74773966D01*
X49493856Y-74797021D01*
X49495000Y-74820300D01*
X49495000Y-75295300D01*
X49493856Y-75318579D01*
X49490437Y-75341634D01*
X49484773Y-75364243D01*
X49476921Y-75386187D01*
X49466956Y-75407257D01*
X49454974Y-75427248D01*
X49441090Y-75445968D01*
X49425438Y-75463238D01*
X49408168Y-75478890D01*
X49389448Y-75492774D01*
X49369457Y-75504756D01*
X49348387Y-75514721D01*
X49326443Y-75522573D01*
X49303834Y-75528237D01*
X49280779Y-75531656D01*
X49257500Y-75532800D01*
X48682500Y-75532800D01*
X48659221Y-75531656D01*
X48636166Y-75528237D01*
X48613557Y-75522573D01*
X48591613Y-75514721D01*
X48570543Y-75504756D01*
X48550552Y-75492774D01*
X48531832Y-75478890D01*
X48514562Y-75463238D01*
X48498910Y-75445968D01*
X48485026Y-75427248D01*
X48473044Y-75407257D01*
X48463079Y-75386187D01*
X48455227Y-75364243D01*
X48449563Y-75341634D01*
X48446144Y-75318579D01*
X48445000Y-75295300D01*
X48445000Y-74820300D01*
X48446144Y-74797021D01*
X48449563Y-74773966D01*
X48455227Y-74751357D01*
X48463079Y-74729413D01*
X48473044Y-74708343D01*
X48485026Y-74688352D01*
X48498910Y-74669632D01*
X48514562Y-74652362D01*
X48531832Y-74636710D01*
X48550552Y-74622826D01*
X48570543Y-74610844D01*
X48591613Y-74600879D01*
X48613557Y-74593027D01*
X48636166Y-74587363D01*
X48659221Y-74583944D01*
X48682500Y-74582800D01*
X49257500Y-74582800D01*
X49280779Y-74583944D01*
X49280779Y-74583944D01*
G37*
D13*
X48970000Y-75057800D03*
D12*
G36*
X51030779Y-73059944D02*
G01*
X51053834Y-73063363D01*
X51076443Y-73069027D01*
X51098387Y-73076879D01*
X51119457Y-73086844D01*
X51139448Y-73098826D01*
X51158168Y-73112710D01*
X51175438Y-73128362D01*
X51191090Y-73145632D01*
X51204974Y-73164352D01*
X51216956Y-73184343D01*
X51226921Y-73205413D01*
X51234773Y-73227357D01*
X51240437Y-73249966D01*
X51243856Y-73273021D01*
X51245000Y-73296300D01*
X51245000Y-73771300D01*
X51243856Y-73794579D01*
X51240437Y-73817634D01*
X51234773Y-73840243D01*
X51226921Y-73862187D01*
X51216956Y-73883257D01*
X51204974Y-73903248D01*
X51191090Y-73921968D01*
X51175438Y-73939238D01*
X51158168Y-73954890D01*
X51139448Y-73968774D01*
X51119457Y-73980756D01*
X51098387Y-73990721D01*
X51076443Y-73998573D01*
X51053834Y-74004237D01*
X51030779Y-74007656D01*
X51007500Y-74008800D01*
X50432500Y-74008800D01*
X50409221Y-74007656D01*
X50386166Y-74004237D01*
X50363557Y-73998573D01*
X50341613Y-73990721D01*
X50320543Y-73980756D01*
X50300552Y-73968774D01*
X50281832Y-73954890D01*
X50264562Y-73939238D01*
X50248910Y-73921968D01*
X50235026Y-73903248D01*
X50223044Y-73883257D01*
X50213079Y-73862187D01*
X50205227Y-73840243D01*
X50199563Y-73817634D01*
X50196144Y-73794579D01*
X50195000Y-73771300D01*
X50195000Y-73296300D01*
X50196144Y-73273021D01*
X50199563Y-73249966D01*
X50205227Y-73227357D01*
X50213079Y-73205413D01*
X50223044Y-73184343D01*
X50235026Y-73164352D01*
X50248910Y-73145632D01*
X50264562Y-73128362D01*
X50281832Y-73112710D01*
X50300552Y-73098826D01*
X50320543Y-73086844D01*
X50341613Y-73076879D01*
X50363557Y-73069027D01*
X50386166Y-73063363D01*
X50409221Y-73059944D01*
X50432500Y-73058800D01*
X51007500Y-73058800D01*
X51030779Y-73059944D01*
X51030779Y-73059944D01*
G37*
D13*
X50720000Y-73533800D03*
D12*
G36*
X49280779Y-73059944D02*
G01*
X49303834Y-73063363D01*
X49326443Y-73069027D01*
X49348387Y-73076879D01*
X49369457Y-73086844D01*
X49389448Y-73098826D01*
X49408168Y-73112710D01*
X49425438Y-73128362D01*
X49441090Y-73145632D01*
X49454974Y-73164352D01*
X49466956Y-73184343D01*
X49476921Y-73205413D01*
X49484773Y-73227357D01*
X49490437Y-73249966D01*
X49493856Y-73273021D01*
X49495000Y-73296300D01*
X49495000Y-73771300D01*
X49493856Y-73794579D01*
X49490437Y-73817634D01*
X49484773Y-73840243D01*
X49476921Y-73862187D01*
X49466956Y-73883257D01*
X49454974Y-73903248D01*
X49441090Y-73921968D01*
X49425438Y-73939238D01*
X49408168Y-73954890D01*
X49389448Y-73968774D01*
X49369457Y-73980756D01*
X49348387Y-73990721D01*
X49326443Y-73998573D01*
X49303834Y-74004237D01*
X49280779Y-74007656D01*
X49257500Y-74008800D01*
X48682500Y-74008800D01*
X48659221Y-74007656D01*
X48636166Y-74004237D01*
X48613557Y-73998573D01*
X48591613Y-73990721D01*
X48570543Y-73980756D01*
X48550552Y-73968774D01*
X48531832Y-73954890D01*
X48514562Y-73939238D01*
X48498910Y-73921968D01*
X48485026Y-73903248D01*
X48473044Y-73883257D01*
X48463079Y-73862187D01*
X48455227Y-73840243D01*
X48449563Y-73817634D01*
X48446144Y-73794579D01*
X48445000Y-73771300D01*
X48445000Y-73296300D01*
X48446144Y-73273021D01*
X48449563Y-73249966D01*
X48455227Y-73227357D01*
X48463079Y-73205413D01*
X48473044Y-73184343D01*
X48485026Y-73164352D01*
X48498910Y-73145632D01*
X48514562Y-73128362D01*
X48531832Y-73112710D01*
X48550552Y-73098826D01*
X48570543Y-73086844D01*
X48591613Y-73076879D01*
X48613557Y-73069027D01*
X48636166Y-73063363D01*
X48659221Y-73059944D01*
X48682500Y-73058800D01*
X49257500Y-73058800D01*
X49280779Y-73059944D01*
X49280779Y-73059944D01*
G37*
D13*
X48970000Y-73533800D03*
D12*
G36*
X51030779Y-71535944D02*
G01*
X51053834Y-71539363D01*
X51076443Y-71545027D01*
X51098387Y-71552879D01*
X51119457Y-71562844D01*
X51139448Y-71574826D01*
X51158168Y-71588710D01*
X51175438Y-71604362D01*
X51191090Y-71621632D01*
X51204974Y-71640352D01*
X51216956Y-71660343D01*
X51226921Y-71681413D01*
X51234773Y-71703357D01*
X51240437Y-71725966D01*
X51243856Y-71749021D01*
X51245000Y-71772300D01*
X51245000Y-72247300D01*
X51243856Y-72270579D01*
X51240437Y-72293634D01*
X51234773Y-72316243D01*
X51226921Y-72338187D01*
X51216956Y-72359257D01*
X51204974Y-72379248D01*
X51191090Y-72397968D01*
X51175438Y-72415238D01*
X51158168Y-72430890D01*
X51139448Y-72444774D01*
X51119457Y-72456756D01*
X51098387Y-72466721D01*
X51076443Y-72474573D01*
X51053834Y-72480237D01*
X51030779Y-72483656D01*
X51007500Y-72484800D01*
X50432500Y-72484800D01*
X50409221Y-72483656D01*
X50386166Y-72480237D01*
X50363557Y-72474573D01*
X50341613Y-72466721D01*
X50320543Y-72456756D01*
X50300552Y-72444774D01*
X50281832Y-72430890D01*
X50264562Y-72415238D01*
X50248910Y-72397968D01*
X50235026Y-72379248D01*
X50223044Y-72359257D01*
X50213079Y-72338187D01*
X50205227Y-72316243D01*
X50199563Y-72293634D01*
X50196144Y-72270579D01*
X50195000Y-72247300D01*
X50195000Y-71772300D01*
X50196144Y-71749021D01*
X50199563Y-71725966D01*
X50205227Y-71703357D01*
X50213079Y-71681413D01*
X50223044Y-71660343D01*
X50235026Y-71640352D01*
X50248910Y-71621632D01*
X50264562Y-71604362D01*
X50281832Y-71588710D01*
X50300552Y-71574826D01*
X50320543Y-71562844D01*
X50341613Y-71552879D01*
X50363557Y-71545027D01*
X50386166Y-71539363D01*
X50409221Y-71535944D01*
X50432500Y-71534800D01*
X51007500Y-71534800D01*
X51030779Y-71535944D01*
X51030779Y-71535944D01*
G37*
D13*
X50720000Y-72009800D03*
D12*
G36*
X49280779Y-71535944D02*
G01*
X49303834Y-71539363D01*
X49326443Y-71545027D01*
X49348387Y-71552879D01*
X49369457Y-71562844D01*
X49389448Y-71574826D01*
X49408168Y-71588710D01*
X49425438Y-71604362D01*
X49441090Y-71621632D01*
X49454974Y-71640352D01*
X49466956Y-71660343D01*
X49476921Y-71681413D01*
X49484773Y-71703357D01*
X49490437Y-71725966D01*
X49493856Y-71749021D01*
X49495000Y-71772300D01*
X49495000Y-72247300D01*
X49493856Y-72270579D01*
X49490437Y-72293634D01*
X49484773Y-72316243D01*
X49476921Y-72338187D01*
X49466956Y-72359257D01*
X49454974Y-72379248D01*
X49441090Y-72397968D01*
X49425438Y-72415238D01*
X49408168Y-72430890D01*
X49389448Y-72444774D01*
X49369457Y-72456756D01*
X49348387Y-72466721D01*
X49326443Y-72474573D01*
X49303834Y-72480237D01*
X49280779Y-72483656D01*
X49257500Y-72484800D01*
X48682500Y-72484800D01*
X48659221Y-72483656D01*
X48636166Y-72480237D01*
X48613557Y-72474573D01*
X48591613Y-72466721D01*
X48570543Y-72456756D01*
X48550552Y-72444774D01*
X48531832Y-72430890D01*
X48514562Y-72415238D01*
X48498910Y-72397968D01*
X48485026Y-72379248D01*
X48473044Y-72359257D01*
X48463079Y-72338187D01*
X48455227Y-72316243D01*
X48449563Y-72293634D01*
X48446144Y-72270579D01*
X48445000Y-72247300D01*
X48445000Y-71772300D01*
X48446144Y-71749021D01*
X48449563Y-71725966D01*
X48455227Y-71703357D01*
X48463079Y-71681413D01*
X48473044Y-71660343D01*
X48485026Y-71640352D01*
X48498910Y-71621632D01*
X48514562Y-71604362D01*
X48531832Y-71588710D01*
X48550552Y-71574826D01*
X48570543Y-71562844D01*
X48591613Y-71552879D01*
X48613557Y-71545027D01*
X48636166Y-71539363D01*
X48659221Y-71535944D01*
X48682500Y-71534800D01*
X49257500Y-71534800D01*
X49280779Y-71535944D01*
X49280779Y-71535944D01*
G37*
D13*
X48970000Y-72009800D03*
D12*
G36*
X49280779Y-68487944D02*
G01*
X49303834Y-68491363D01*
X49326443Y-68497027D01*
X49348387Y-68504879D01*
X49369457Y-68514844D01*
X49389448Y-68526826D01*
X49408168Y-68540710D01*
X49425438Y-68556362D01*
X49441090Y-68573632D01*
X49454974Y-68592352D01*
X49466956Y-68612343D01*
X49476921Y-68633413D01*
X49484773Y-68655357D01*
X49490437Y-68677966D01*
X49493856Y-68701021D01*
X49495000Y-68724300D01*
X49495000Y-69199300D01*
X49493856Y-69222579D01*
X49490437Y-69245634D01*
X49484773Y-69268243D01*
X49476921Y-69290187D01*
X49466956Y-69311257D01*
X49454974Y-69331248D01*
X49441090Y-69349968D01*
X49425438Y-69367238D01*
X49408168Y-69382890D01*
X49389448Y-69396774D01*
X49369457Y-69408756D01*
X49348387Y-69418721D01*
X49326443Y-69426573D01*
X49303834Y-69432237D01*
X49280779Y-69435656D01*
X49257500Y-69436800D01*
X48682500Y-69436800D01*
X48659221Y-69435656D01*
X48636166Y-69432237D01*
X48613557Y-69426573D01*
X48591613Y-69418721D01*
X48570543Y-69408756D01*
X48550552Y-69396774D01*
X48531832Y-69382890D01*
X48514562Y-69367238D01*
X48498910Y-69349968D01*
X48485026Y-69331248D01*
X48473044Y-69311257D01*
X48463079Y-69290187D01*
X48455227Y-69268243D01*
X48449563Y-69245634D01*
X48446144Y-69222579D01*
X48445000Y-69199300D01*
X48445000Y-68724300D01*
X48446144Y-68701021D01*
X48449563Y-68677966D01*
X48455227Y-68655357D01*
X48463079Y-68633413D01*
X48473044Y-68612343D01*
X48485026Y-68592352D01*
X48498910Y-68573632D01*
X48514562Y-68556362D01*
X48531832Y-68540710D01*
X48550552Y-68526826D01*
X48570543Y-68514844D01*
X48591613Y-68504879D01*
X48613557Y-68497027D01*
X48636166Y-68491363D01*
X48659221Y-68487944D01*
X48682500Y-68486800D01*
X49257500Y-68486800D01*
X49280779Y-68487944D01*
X49280779Y-68487944D01*
G37*
D13*
X48970000Y-68961800D03*
D12*
G36*
X51030779Y-68487944D02*
G01*
X51053834Y-68491363D01*
X51076443Y-68497027D01*
X51098387Y-68504879D01*
X51119457Y-68514844D01*
X51139448Y-68526826D01*
X51158168Y-68540710D01*
X51175438Y-68556362D01*
X51191090Y-68573632D01*
X51204974Y-68592352D01*
X51216956Y-68612343D01*
X51226921Y-68633413D01*
X51234773Y-68655357D01*
X51240437Y-68677966D01*
X51243856Y-68701021D01*
X51245000Y-68724300D01*
X51245000Y-69199300D01*
X51243856Y-69222579D01*
X51240437Y-69245634D01*
X51234773Y-69268243D01*
X51226921Y-69290187D01*
X51216956Y-69311257D01*
X51204974Y-69331248D01*
X51191090Y-69349968D01*
X51175438Y-69367238D01*
X51158168Y-69382890D01*
X51139448Y-69396774D01*
X51119457Y-69408756D01*
X51098387Y-69418721D01*
X51076443Y-69426573D01*
X51053834Y-69432237D01*
X51030779Y-69435656D01*
X51007500Y-69436800D01*
X50432500Y-69436800D01*
X50409221Y-69435656D01*
X50386166Y-69432237D01*
X50363557Y-69426573D01*
X50341613Y-69418721D01*
X50320543Y-69408756D01*
X50300552Y-69396774D01*
X50281832Y-69382890D01*
X50264562Y-69367238D01*
X50248910Y-69349968D01*
X50235026Y-69331248D01*
X50223044Y-69311257D01*
X50213079Y-69290187D01*
X50205227Y-69268243D01*
X50199563Y-69245634D01*
X50196144Y-69222579D01*
X50195000Y-69199300D01*
X50195000Y-68724300D01*
X50196144Y-68701021D01*
X50199563Y-68677966D01*
X50205227Y-68655357D01*
X50213079Y-68633413D01*
X50223044Y-68612343D01*
X50235026Y-68592352D01*
X50248910Y-68573632D01*
X50264562Y-68556362D01*
X50281832Y-68540710D01*
X50300552Y-68526826D01*
X50320543Y-68514844D01*
X50341613Y-68504879D01*
X50363557Y-68497027D01*
X50386166Y-68491363D01*
X50409221Y-68487944D01*
X50432500Y-68486800D01*
X51007500Y-68486800D01*
X51030779Y-68487944D01*
X51030779Y-68487944D01*
G37*
D13*
X50720000Y-68961800D03*
D12*
G36*
X49280779Y-66963944D02*
G01*
X49303834Y-66967363D01*
X49326443Y-66973027D01*
X49348387Y-66980879D01*
X49369457Y-66990844D01*
X49389448Y-67002826D01*
X49408168Y-67016710D01*
X49425438Y-67032362D01*
X49441090Y-67049632D01*
X49454974Y-67068352D01*
X49466956Y-67088343D01*
X49476921Y-67109413D01*
X49484773Y-67131357D01*
X49490437Y-67153966D01*
X49493856Y-67177021D01*
X49495000Y-67200300D01*
X49495000Y-67675300D01*
X49493856Y-67698579D01*
X49490437Y-67721634D01*
X49484773Y-67744243D01*
X49476921Y-67766187D01*
X49466956Y-67787257D01*
X49454974Y-67807248D01*
X49441090Y-67825968D01*
X49425438Y-67843238D01*
X49408168Y-67858890D01*
X49389448Y-67872774D01*
X49369457Y-67884756D01*
X49348387Y-67894721D01*
X49326443Y-67902573D01*
X49303834Y-67908237D01*
X49280779Y-67911656D01*
X49257500Y-67912800D01*
X48682500Y-67912800D01*
X48659221Y-67911656D01*
X48636166Y-67908237D01*
X48613557Y-67902573D01*
X48591613Y-67894721D01*
X48570543Y-67884756D01*
X48550552Y-67872774D01*
X48531832Y-67858890D01*
X48514562Y-67843238D01*
X48498910Y-67825968D01*
X48485026Y-67807248D01*
X48473044Y-67787257D01*
X48463079Y-67766187D01*
X48455227Y-67744243D01*
X48449563Y-67721634D01*
X48446144Y-67698579D01*
X48445000Y-67675300D01*
X48445000Y-67200300D01*
X48446144Y-67177021D01*
X48449563Y-67153966D01*
X48455227Y-67131357D01*
X48463079Y-67109413D01*
X48473044Y-67088343D01*
X48485026Y-67068352D01*
X48498910Y-67049632D01*
X48514562Y-67032362D01*
X48531832Y-67016710D01*
X48550552Y-67002826D01*
X48570543Y-66990844D01*
X48591613Y-66980879D01*
X48613557Y-66973027D01*
X48636166Y-66967363D01*
X48659221Y-66963944D01*
X48682500Y-66962800D01*
X49257500Y-66962800D01*
X49280779Y-66963944D01*
X49280779Y-66963944D01*
G37*
D13*
X48970000Y-67437800D03*
D12*
G36*
X51030779Y-66963944D02*
G01*
X51053834Y-66967363D01*
X51076443Y-66973027D01*
X51098387Y-66980879D01*
X51119457Y-66990844D01*
X51139448Y-67002826D01*
X51158168Y-67016710D01*
X51175438Y-67032362D01*
X51191090Y-67049632D01*
X51204974Y-67068352D01*
X51216956Y-67088343D01*
X51226921Y-67109413D01*
X51234773Y-67131357D01*
X51240437Y-67153966D01*
X51243856Y-67177021D01*
X51245000Y-67200300D01*
X51245000Y-67675300D01*
X51243856Y-67698579D01*
X51240437Y-67721634D01*
X51234773Y-67744243D01*
X51226921Y-67766187D01*
X51216956Y-67787257D01*
X51204974Y-67807248D01*
X51191090Y-67825968D01*
X51175438Y-67843238D01*
X51158168Y-67858890D01*
X51139448Y-67872774D01*
X51119457Y-67884756D01*
X51098387Y-67894721D01*
X51076443Y-67902573D01*
X51053834Y-67908237D01*
X51030779Y-67911656D01*
X51007500Y-67912800D01*
X50432500Y-67912800D01*
X50409221Y-67911656D01*
X50386166Y-67908237D01*
X50363557Y-67902573D01*
X50341613Y-67894721D01*
X50320543Y-67884756D01*
X50300552Y-67872774D01*
X50281832Y-67858890D01*
X50264562Y-67843238D01*
X50248910Y-67825968D01*
X50235026Y-67807248D01*
X50223044Y-67787257D01*
X50213079Y-67766187D01*
X50205227Y-67744243D01*
X50199563Y-67721634D01*
X50196144Y-67698579D01*
X50195000Y-67675300D01*
X50195000Y-67200300D01*
X50196144Y-67177021D01*
X50199563Y-67153966D01*
X50205227Y-67131357D01*
X50213079Y-67109413D01*
X50223044Y-67088343D01*
X50235026Y-67068352D01*
X50248910Y-67049632D01*
X50264562Y-67032362D01*
X50281832Y-67016710D01*
X50300552Y-67002826D01*
X50320543Y-66990844D01*
X50341613Y-66980879D01*
X50363557Y-66973027D01*
X50386166Y-66967363D01*
X50409221Y-66963944D01*
X50432500Y-66962800D01*
X51007500Y-66962800D01*
X51030779Y-66963944D01*
X51030779Y-66963944D01*
G37*
D13*
X50720000Y-67437800D03*
D14*
X68647500Y-50358000D03*
D15*
X70247500Y-50358000D03*
X69447500Y-50358000D03*
D14*
X71047500Y-50358000D03*
D15*
X69447500Y-52158000D03*
D14*
X68647500Y-52158000D03*
D15*
X70247500Y-52158000D03*
D14*
X71047500Y-52158000D03*
D16*
X66897500Y-48775600D03*
X66897500Y-48125600D03*
X66897500Y-47475600D03*
X66897500Y-46825600D03*
X66897500Y-46175600D03*
X66897500Y-45525600D03*
X66897500Y-44875600D03*
X72797500Y-44875600D03*
X72797500Y-45525600D03*
X72797500Y-46175600D03*
X72797500Y-46825600D03*
X72797500Y-47475600D03*
X72797500Y-48125600D03*
X72797500Y-48775600D03*
D14*
X68647500Y-41468000D03*
D15*
X70247500Y-41468000D03*
X69447500Y-41468000D03*
D14*
X71047500Y-41468000D03*
D15*
X69447500Y-43268000D03*
D14*
X68647500Y-43268000D03*
D15*
X70247500Y-43268000D03*
D14*
X71047500Y-43268000D03*
D12*
G36*
X82109779Y-40448444D02*
G01*
X82132834Y-40451863D01*
X82155443Y-40457527D01*
X82177387Y-40465379D01*
X82198457Y-40475344D01*
X82218448Y-40487326D01*
X82237168Y-40501210D01*
X82254438Y-40516862D01*
X82270090Y-40534132D01*
X82283974Y-40552852D01*
X82295956Y-40572843D01*
X82305921Y-40593913D01*
X82313773Y-40615857D01*
X82319437Y-40638466D01*
X82322856Y-40661521D01*
X82324000Y-40684800D01*
X82324000Y-41259800D01*
X82322856Y-41283079D01*
X82319437Y-41306134D01*
X82313773Y-41328743D01*
X82305921Y-41350687D01*
X82295956Y-41371757D01*
X82283974Y-41391748D01*
X82270090Y-41410468D01*
X82254438Y-41427738D01*
X82237168Y-41443390D01*
X82218448Y-41457274D01*
X82198457Y-41469256D01*
X82177387Y-41479221D01*
X82155443Y-41487073D01*
X82132834Y-41492737D01*
X82109779Y-41496156D01*
X82086500Y-41497300D01*
X81611500Y-41497300D01*
X81588221Y-41496156D01*
X81565166Y-41492737D01*
X81542557Y-41487073D01*
X81520613Y-41479221D01*
X81499543Y-41469256D01*
X81479552Y-41457274D01*
X81460832Y-41443390D01*
X81443562Y-41427738D01*
X81427910Y-41410468D01*
X81414026Y-41391748D01*
X81402044Y-41371757D01*
X81392079Y-41350687D01*
X81384227Y-41328743D01*
X81378563Y-41306134D01*
X81375144Y-41283079D01*
X81374000Y-41259800D01*
X81374000Y-40684800D01*
X81375144Y-40661521D01*
X81378563Y-40638466D01*
X81384227Y-40615857D01*
X81392079Y-40593913D01*
X81402044Y-40572843D01*
X81414026Y-40552852D01*
X81427910Y-40534132D01*
X81443562Y-40516862D01*
X81460832Y-40501210D01*
X81479552Y-40487326D01*
X81499543Y-40475344D01*
X81520613Y-40465379D01*
X81542557Y-40457527D01*
X81565166Y-40451863D01*
X81588221Y-40448444D01*
X81611500Y-40447300D01*
X82086500Y-40447300D01*
X82109779Y-40448444D01*
X82109779Y-40448444D01*
G37*
D13*
X81849000Y-40972300D03*
D12*
G36*
X82109779Y-42198444D02*
G01*
X82132834Y-42201863D01*
X82155443Y-42207527D01*
X82177387Y-42215379D01*
X82198457Y-42225344D01*
X82218448Y-42237326D01*
X82237168Y-42251210D01*
X82254438Y-42266862D01*
X82270090Y-42284132D01*
X82283974Y-42302852D01*
X82295956Y-42322843D01*
X82305921Y-42343913D01*
X82313773Y-42365857D01*
X82319437Y-42388466D01*
X82322856Y-42411521D01*
X82324000Y-42434800D01*
X82324000Y-43009800D01*
X82322856Y-43033079D01*
X82319437Y-43056134D01*
X82313773Y-43078743D01*
X82305921Y-43100687D01*
X82295956Y-43121757D01*
X82283974Y-43141748D01*
X82270090Y-43160468D01*
X82254438Y-43177738D01*
X82237168Y-43193390D01*
X82218448Y-43207274D01*
X82198457Y-43219256D01*
X82177387Y-43229221D01*
X82155443Y-43237073D01*
X82132834Y-43242737D01*
X82109779Y-43246156D01*
X82086500Y-43247300D01*
X81611500Y-43247300D01*
X81588221Y-43246156D01*
X81565166Y-43242737D01*
X81542557Y-43237073D01*
X81520613Y-43229221D01*
X81499543Y-43219256D01*
X81479552Y-43207274D01*
X81460832Y-43193390D01*
X81443562Y-43177738D01*
X81427910Y-43160468D01*
X81414026Y-43141748D01*
X81402044Y-43121757D01*
X81392079Y-43100687D01*
X81384227Y-43078743D01*
X81378563Y-43056134D01*
X81375144Y-43033079D01*
X81374000Y-43009800D01*
X81374000Y-42434800D01*
X81375144Y-42411521D01*
X81378563Y-42388466D01*
X81384227Y-42365857D01*
X81392079Y-42343913D01*
X81402044Y-42322843D01*
X81414026Y-42302852D01*
X81427910Y-42284132D01*
X81443562Y-42266862D01*
X81460832Y-42251210D01*
X81479552Y-42237326D01*
X81499543Y-42225344D01*
X81520613Y-42215379D01*
X81542557Y-42207527D01*
X81565166Y-42201863D01*
X81588221Y-42198444D01*
X81611500Y-42197300D01*
X82086500Y-42197300D01*
X82109779Y-42198444D01*
X82109779Y-42198444D01*
G37*
D13*
X81849000Y-42722300D03*
D12*
G36*
X80585779Y-40448444D02*
G01*
X80608834Y-40451863D01*
X80631443Y-40457527D01*
X80653387Y-40465379D01*
X80674457Y-40475344D01*
X80694448Y-40487326D01*
X80713168Y-40501210D01*
X80730438Y-40516862D01*
X80746090Y-40534132D01*
X80759974Y-40552852D01*
X80771956Y-40572843D01*
X80781921Y-40593913D01*
X80789773Y-40615857D01*
X80795437Y-40638466D01*
X80798856Y-40661521D01*
X80800000Y-40684800D01*
X80800000Y-41259800D01*
X80798856Y-41283079D01*
X80795437Y-41306134D01*
X80789773Y-41328743D01*
X80781921Y-41350687D01*
X80771956Y-41371757D01*
X80759974Y-41391748D01*
X80746090Y-41410468D01*
X80730438Y-41427738D01*
X80713168Y-41443390D01*
X80694448Y-41457274D01*
X80674457Y-41469256D01*
X80653387Y-41479221D01*
X80631443Y-41487073D01*
X80608834Y-41492737D01*
X80585779Y-41496156D01*
X80562500Y-41497300D01*
X80087500Y-41497300D01*
X80064221Y-41496156D01*
X80041166Y-41492737D01*
X80018557Y-41487073D01*
X79996613Y-41479221D01*
X79975543Y-41469256D01*
X79955552Y-41457274D01*
X79936832Y-41443390D01*
X79919562Y-41427738D01*
X79903910Y-41410468D01*
X79890026Y-41391748D01*
X79878044Y-41371757D01*
X79868079Y-41350687D01*
X79860227Y-41328743D01*
X79854563Y-41306134D01*
X79851144Y-41283079D01*
X79850000Y-41259800D01*
X79850000Y-40684800D01*
X79851144Y-40661521D01*
X79854563Y-40638466D01*
X79860227Y-40615857D01*
X79868079Y-40593913D01*
X79878044Y-40572843D01*
X79890026Y-40552852D01*
X79903910Y-40534132D01*
X79919562Y-40516862D01*
X79936832Y-40501210D01*
X79955552Y-40487326D01*
X79975543Y-40475344D01*
X79996613Y-40465379D01*
X80018557Y-40457527D01*
X80041166Y-40451863D01*
X80064221Y-40448444D01*
X80087500Y-40447300D01*
X80562500Y-40447300D01*
X80585779Y-40448444D01*
X80585779Y-40448444D01*
G37*
D13*
X80325000Y-40972300D03*
D12*
G36*
X80585779Y-42198444D02*
G01*
X80608834Y-42201863D01*
X80631443Y-42207527D01*
X80653387Y-42215379D01*
X80674457Y-42225344D01*
X80694448Y-42237326D01*
X80713168Y-42251210D01*
X80730438Y-42266862D01*
X80746090Y-42284132D01*
X80759974Y-42302852D01*
X80771956Y-42322843D01*
X80781921Y-42343913D01*
X80789773Y-42365857D01*
X80795437Y-42388466D01*
X80798856Y-42411521D01*
X80800000Y-42434800D01*
X80800000Y-43009800D01*
X80798856Y-43033079D01*
X80795437Y-43056134D01*
X80789773Y-43078743D01*
X80781921Y-43100687D01*
X80771956Y-43121757D01*
X80759974Y-43141748D01*
X80746090Y-43160468D01*
X80730438Y-43177738D01*
X80713168Y-43193390D01*
X80694448Y-43207274D01*
X80674457Y-43219256D01*
X80653387Y-43229221D01*
X80631443Y-43237073D01*
X80608834Y-43242737D01*
X80585779Y-43246156D01*
X80562500Y-43247300D01*
X80087500Y-43247300D01*
X80064221Y-43246156D01*
X80041166Y-43242737D01*
X80018557Y-43237073D01*
X79996613Y-43229221D01*
X79975543Y-43219256D01*
X79955552Y-43207274D01*
X79936832Y-43193390D01*
X79919562Y-43177738D01*
X79903910Y-43160468D01*
X79890026Y-43141748D01*
X79878044Y-43121757D01*
X79868079Y-43100687D01*
X79860227Y-43078743D01*
X79854563Y-43056134D01*
X79851144Y-43033079D01*
X79850000Y-43009800D01*
X79850000Y-42434800D01*
X79851144Y-42411521D01*
X79854563Y-42388466D01*
X79860227Y-42365857D01*
X79868079Y-42343913D01*
X79878044Y-42322843D01*
X79890026Y-42302852D01*
X79903910Y-42284132D01*
X79919562Y-42266862D01*
X79936832Y-42251210D01*
X79955552Y-42237326D01*
X79975543Y-42225344D01*
X79996613Y-42215379D01*
X80018557Y-42207527D01*
X80041166Y-42201863D01*
X80064221Y-42198444D01*
X80087500Y-42197300D01*
X80562500Y-42197300D01*
X80585779Y-42198444D01*
X80585779Y-42198444D01*
G37*
D13*
X80325000Y-42722300D03*
D12*
G36*
X79061779Y-40448444D02*
G01*
X79084834Y-40451863D01*
X79107443Y-40457527D01*
X79129387Y-40465379D01*
X79150457Y-40475344D01*
X79170448Y-40487326D01*
X79189168Y-40501210D01*
X79206438Y-40516862D01*
X79222090Y-40534132D01*
X79235974Y-40552852D01*
X79247956Y-40572843D01*
X79257921Y-40593913D01*
X79265773Y-40615857D01*
X79271437Y-40638466D01*
X79274856Y-40661521D01*
X79276000Y-40684800D01*
X79276000Y-41259800D01*
X79274856Y-41283079D01*
X79271437Y-41306134D01*
X79265773Y-41328743D01*
X79257921Y-41350687D01*
X79247956Y-41371757D01*
X79235974Y-41391748D01*
X79222090Y-41410468D01*
X79206438Y-41427738D01*
X79189168Y-41443390D01*
X79170448Y-41457274D01*
X79150457Y-41469256D01*
X79129387Y-41479221D01*
X79107443Y-41487073D01*
X79084834Y-41492737D01*
X79061779Y-41496156D01*
X79038500Y-41497300D01*
X78563500Y-41497300D01*
X78540221Y-41496156D01*
X78517166Y-41492737D01*
X78494557Y-41487073D01*
X78472613Y-41479221D01*
X78451543Y-41469256D01*
X78431552Y-41457274D01*
X78412832Y-41443390D01*
X78395562Y-41427738D01*
X78379910Y-41410468D01*
X78366026Y-41391748D01*
X78354044Y-41371757D01*
X78344079Y-41350687D01*
X78336227Y-41328743D01*
X78330563Y-41306134D01*
X78327144Y-41283079D01*
X78326000Y-41259800D01*
X78326000Y-40684800D01*
X78327144Y-40661521D01*
X78330563Y-40638466D01*
X78336227Y-40615857D01*
X78344079Y-40593913D01*
X78354044Y-40572843D01*
X78366026Y-40552852D01*
X78379910Y-40534132D01*
X78395562Y-40516862D01*
X78412832Y-40501210D01*
X78431552Y-40487326D01*
X78451543Y-40475344D01*
X78472613Y-40465379D01*
X78494557Y-40457527D01*
X78517166Y-40451863D01*
X78540221Y-40448444D01*
X78563500Y-40447300D01*
X79038500Y-40447300D01*
X79061779Y-40448444D01*
X79061779Y-40448444D01*
G37*
D13*
X78801000Y-40972300D03*
D12*
G36*
X79061779Y-42198444D02*
G01*
X79084834Y-42201863D01*
X79107443Y-42207527D01*
X79129387Y-42215379D01*
X79150457Y-42225344D01*
X79170448Y-42237326D01*
X79189168Y-42251210D01*
X79206438Y-42266862D01*
X79222090Y-42284132D01*
X79235974Y-42302852D01*
X79247956Y-42322843D01*
X79257921Y-42343913D01*
X79265773Y-42365857D01*
X79271437Y-42388466D01*
X79274856Y-42411521D01*
X79276000Y-42434800D01*
X79276000Y-43009800D01*
X79274856Y-43033079D01*
X79271437Y-43056134D01*
X79265773Y-43078743D01*
X79257921Y-43100687D01*
X79247956Y-43121757D01*
X79235974Y-43141748D01*
X79222090Y-43160468D01*
X79206438Y-43177738D01*
X79189168Y-43193390D01*
X79170448Y-43207274D01*
X79150457Y-43219256D01*
X79129387Y-43229221D01*
X79107443Y-43237073D01*
X79084834Y-43242737D01*
X79061779Y-43246156D01*
X79038500Y-43247300D01*
X78563500Y-43247300D01*
X78540221Y-43246156D01*
X78517166Y-43242737D01*
X78494557Y-43237073D01*
X78472613Y-43229221D01*
X78451543Y-43219256D01*
X78431552Y-43207274D01*
X78412832Y-43193390D01*
X78395562Y-43177738D01*
X78379910Y-43160468D01*
X78366026Y-43141748D01*
X78354044Y-43121757D01*
X78344079Y-43100687D01*
X78336227Y-43078743D01*
X78330563Y-43056134D01*
X78327144Y-43033079D01*
X78326000Y-43009800D01*
X78326000Y-42434800D01*
X78327144Y-42411521D01*
X78330563Y-42388466D01*
X78336227Y-42365857D01*
X78344079Y-42343913D01*
X78354044Y-42322843D01*
X78366026Y-42302852D01*
X78379910Y-42284132D01*
X78395562Y-42266862D01*
X78412832Y-42251210D01*
X78431552Y-42237326D01*
X78451543Y-42225344D01*
X78472613Y-42215379D01*
X78494557Y-42207527D01*
X78517166Y-42201863D01*
X78540221Y-42198444D01*
X78563500Y-42197300D01*
X79038500Y-42197300D01*
X79061779Y-42198444D01*
X79061779Y-42198444D01*
G37*
D13*
X78801000Y-42722300D03*
D12*
G36*
X77537779Y-40448444D02*
G01*
X77560834Y-40451863D01*
X77583443Y-40457527D01*
X77605387Y-40465379D01*
X77626457Y-40475344D01*
X77646448Y-40487326D01*
X77665168Y-40501210D01*
X77682438Y-40516862D01*
X77698090Y-40534132D01*
X77711974Y-40552852D01*
X77723956Y-40572843D01*
X77733921Y-40593913D01*
X77741773Y-40615857D01*
X77747437Y-40638466D01*
X77750856Y-40661521D01*
X77752000Y-40684800D01*
X77752000Y-41259800D01*
X77750856Y-41283079D01*
X77747437Y-41306134D01*
X77741773Y-41328743D01*
X77733921Y-41350687D01*
X77723956Y-41371757D01*
X77711974Y-41391748D01*
X77698090Y-41410468D01*
X77682438Y-41427738D01*
X77665168Y-41443390D01*
X77646448Y-41457274D01*
X77626457Y-41469256D01*
X77605387Y-41479221D01*
X77583443Y-41487073D01*
X77560834Y-41492737D01*
X77537779Y-41496156D01*
X77514500Y-41497300D01*
X77039500Y-41497300D01*
X77016221Y-41496156D01*
X76993166Y-41492737D01*
X76970557Y-41487073D01*
X76948613Y-41479221D01*
X76927543Y-41469256D01*
X76907552Y-41457274D01*
X76888832Y-41443390D01*
X76871562Y-41427738D01*
X76855910Y-41410468D01*
X76842026Y-41391748D01*
X76830044Y-41371757D01*
X76820079Y-41350687D01*
X76812227Y-41328743D01*
X76806563Y-41306134D01*
X76803144Y-41283079D01*
X76802000Y-41259800D01*
X76802000Y-40684800D01*
X76803144Y-40661521D01*
X76806563Y-40638466D01*
X76812227Y-40615857D01*
X76820079Y-40593913D01*
X76830044Y-40572843D01*
X76842026Y-40552852D01*
X76855910Y-40534132D01*
X76871562Y-40516862D01*
X76888832Y-40501210D01*
X76907552Y-40487326D01*
X76927543Y-40475344D01*
X76948613Y-40465379D01*
X76970557Y-40457527D01*
X76993166Y-40451863D01*
X77016221Y-40448444D01*
X77039500Y-40447300D01*
X77514500Y-40447300D01*
X77537779Y-40448444D01*
X77537779Y-40448444D01*
G37*
D13*
X77277000Y-40972300D03*
D12*
G36*
X77537779Y-42198444D02*
G01*
X77560834Y-42201863D01*
X77583443Y-42207527D01*
X77605387Y-42215379D01*
X77626457Y-42225344D01*
X77646448Y-42237326D01*
X77665168Y-42251210D01*
X77682438Y-42266862D01*
X77698090Y-42284132D01*
X77711974Y-42302852D01*
X77723956Y-42322843D01*
X77733921Y-42343913D01*
X77741773Y-42365857D01*
X77747437Y-42388466D01*
X77750856Y-42411521D01*
X77752000Y-42434800D01*
X77752000Y-43009800D01*
X77750856Y-43033079D01*
X77747437Y-43056134D01*
X77741773Y-43078743D01*
X77733921Y-43100687D01*
X77723956Y-43121757D01*
X77711974Y-43141748D01*
X77698090Y-43160468D01*
X77682438Y-43177738D01*
X77665168Y-43193390D01*
X77646448Y-43207274D01*
X77626457Y-43219256D01*
X77605387Y-43229221D01*
X77583443Y-43237073D01*
X77560834Y-43242737D01*
X77537779Y-43246156D01*
X77514500Y-43247300D01*
X77039500Y-43247300D01*
X77016221Y-43246156D01*
X76993166Y-43242737D01*
X76970557Y-43237073D01*
X76948613Y-43229221D01*
X76927543Y-43219256D01*
X76907552Y-43207274D01*
X76888832Y-43193390D01*
X76871562Y-43177738D01*
X76855910Y-43160468D01*
X76842026Y-43141748D01*
X76830044Y-43121757D01*
X76820079Y-43100687D01*
X76812227Y-43078743D01*
X76806563Y-43056134D01*
X76803144Y-43033079D01*
X76802000Y-43009800D01*
X76802000Y-42434800D01*
X76803144Y-42411521D01*
X76806563Y-42388466D01*
X76812227Y-42365857D01*
X76820079Y-42343913D01*
X76830044Y-42322843D01*
X76842026Y-42302852D01*
X76855910Y-42284132D01*
X76871562Y-42266862D01*
X76888832Y-42251210D01*
X76907552Y-42237326D01*
X76927543Y-42225344D01*
X76948613Y-42215379D01*
X76970557Y-42207527D01*
X76993166Y-42201863D01*
X77016221Y-42198444D01*
X77039500Y-42197300D01*
X77514500Y-42197300D01*
X77537779Y-42198444D01*
X77537779Y-42198444D01*
G37*
D13*
X77277000Y-42722300D03*
D14*
X51502500Y-61394300D03*
D15*
X53102500Y-61394300D03*
X52302500Y-61394300D03*
D14*
X53902500Y-61394300D03*
D15*
X52302500Y-63194300D03*
D14*
X51502500Y-63194300D03*
D15*
X53102500Y-63194300D03*
D14*
X53902500Y-63194300D03*
X51439000Y-52440800D03*
D15*
X53039000Y-52440800D03*
X52239000Y-52440800D03*
D14*
X53839000Y-52440800D03*
D15*
X52239000Y-54240800D03*
D14*
X51439000Y-54240800D03*
D15*
X53039000Y-54240800D03*
D14*
X53839000Y-54240800D03*
X62996000Y-60835500D03*
D15*
X64596000Y-60835500D03*
X63796000Y-60835500D03*
D14*
X65396000Y-60835500D03*
D15*
X63796000Y-62635500D03*
D14*
X62996000Y-62635500D03*
D15*
X64596000Y-62635500D03*
D14*
X65396000Y-62635500D03*
X56684100Y-73624400D03*
D15*
X58284100Y-73624400D03*
X57484100Y-73624400D03*
D14*
X59084100Y-73624400D03*
D15*
X57484100Y-75424400D03*
D14*
X56684100Y-75424400D03*
D15*
X58284100Y-75424400D03*
D14*
X59084100Y-75424400D03*
X62970600Y-51894700D03*
D15*
X64570600Y-51894700D03*
X63770600Y-51894700D03*
D14*
X65370600Y-51894700D03*
D15*
X63770600Y-53694700D03*
D14*
X62970600Y-53694700D03*
D15*
X64570600Y-53694700D03*
D14*
X65370600Y-53694700D03*
X56811100Y-64582000D03*
D15*
X58411100Y-64582000D03*
X57611100Y-64582000D03*
D14*
X59211100Y-64582000D03*
D15*
X57611100Y-66382000D03*
D14*
X56811100Y-66382000D03*
D15*
X58411100Y-66382000D03*
D14*
X59211100Y-66382000D03*
D12*
G36*
X50713279Y-45183444D02*
G01*
X50736334Y-45186863D01*
X50758943Y-45192527D01*
X50780887Y-45200379D01*
X50801957Y-45210344D01*
X50821948Y-45222326D01*
X50840668Y-45236210D01*
X50857938Y-45251862D01*
X50873590Y-45269132D01*
X50887474Y-45287852D01*
X50899456Y-45307843D01*
X50909421Y-45328913D01*
X50917273Y-45350857D01*
X50922937Y-45373466D01*
X50926356Y-45396521D01*
X50927500Y-45419800D01*
X50927500Y-45894800D01*
X50926356Y-45918079D01*
X50922937Y-45941134D01*
X50917273Y-45963743D01*
X50909421Y-45985687D01*
X50899456Y-46006757D01*
X50887474Y-46026748D01*
X50873590Y-46045468D01*
X50857938Y-46062738D01*
X50840668Y-46078390D01*
X50821948Y-46092274D01*
X50801957Y-46104256D01*
X50780887Y-46114221D01*
X50758943Y-46122073D01*
X50736334Y-46127737D01*
X50713279Y-46131156D01*
X50690000Y-46132300D01*
X50115000Y-46132300D01*
X50091721Y-46131156D01*
X50068666Y-46127737D01*
X50046057Y-46122073D01*
X50024113Y-46114221D01*
X50003043Y-46104256D01*
X49983052Y-46092274D01*
X49964332Y-46078390D01*
X49947062Y-46062738D01*
X49931410Y-46045468D01*
X49917526Y-46026748D01*
X49905544Y-46006757D01*
X49895579Y-45985687D01*
X49887727Y-45963743D01*
X49882063Y-45941134D01*
X49878644Y-45918079D01*
X49877500Y-45894800D01*
X49877500Y-45419800D01*
X49878644Y-45396521D01*
X49882063Y-45373466D01*
X49887727Y-45350857D01*
X49895579Y-45328913D01*
X49905544Y-45307843D01*
X49917526Y-45287852D01*
X49931410Y-45269132D01*
X49947062Y-45251862D01*
X49964332Y-45236210D01*
X49983052Y-45222326D01*
X50003043Y-45210344D01*
X50024113Y-45200379D01*
X50046057Y-45192527D01*
X50068666Y-45186863D01*
X50091721Y-45183444D01*
X50115000Y-45182300D01*
X50690000Y-45182300D01*
X50713279Y-45183444D01*
X50713279Y-45183444D01*
G37*
D13*
X50402500Y-45657300D03*
D12*
G36*
X48963279Y-45183444D02*
G01*
X48986334Y-45186863D01*
X49008943Y-45192527D01*
X49030887Y-45200379D01*
X49051957Y-45210344D01*
X49071948Y-45222326D01*
X49090668Y-45236210D01*
X49107938Y-45251862D01*
X49123590Y-45269132D01*
X49137474Y-45287852D01*
X49149456Y-45307843D01*
X49159421Y-45328913D01*
X49167273Y-45350857D01*
X49172937Y-45373466D01*
X49176356Y-45396521D01*
X49177500Y-45419800D01*
X49177500Y-45894800D01*
X49176356Y-45918079D01*
X49172937Y-45941134D01*
X49167273Y-45963743D01*
X49159421Y-45985687D01*
X49149456Y-46006757D01*
X49137474Y-46026748D01*
X49123590Y-46045468D01*
X49107938Y-46062738D01*
X49090668Y-46078390D01*
X49071948Y-46092274D01*
X49051957Y-46104256D01*
X49030887Y-46114221D01*
X49008943Y-46122073D01*
X48986334Y-46127737D01*
X48963279Y-46131156D01*
X48940000Y-46132300D01*
X48365000Y-46132300D01*
X48341721Y-46131156D01*
X48318666Y-46127737D01*
X48296057Y-46122073D01*
X48274113Y-46114221D01*
X48253043Y-46104256D01*
X48233052Y-46092274D01*
X48214332Y-46078390D01*
X48197062Y-46062738D01*
X48181410Y-46045468D01*
X48167526Y-46026748D01*
X48155544Y-46006757D01*
X48145579Y-45985687D01*
X48137727Y-45963743D01*
X48132063Y-45941134D01*
X48128644Y-45918079D01*
X48127500Y-45894800D01*
X48127500Y-45419800D01*
X48128644Y-45396521D01*
X48132063Y-45373466D01*
X48137727Y-45350857D01*
X48145579Y-45328913D01*
X48155544Y-45307843D01*
X48167526Y-45287852D01*
X48181410Y-45269132D01*
X48197062Y-45251862D01*
X48214332Y-45236210D01*
X48233052Y-45222326D01*
X48253043Y-45210344D01*
X48274113Y-45200379D01*
X48296057Y-45192527D01*
X48318666Y-45186863D01*
X48341721Y-45183444D01*
X48365000Y-45182300D01*
X48940000Y-45182300D01*
X48963279Y-45183444D01*
X48963279Y-45183444D01*
G37*
D13*
X48652500Y-45657300D03*
D12*
G36*
X50713279Y-46707444D02*
G01*
X50736334Y-46710863D01*
X50758943Y-46716527D01*
X50780887Y-46724379D01*
X50801957Y-46734344D01*
X50821948Y-46746326D01*
X50840668Y-46760210D01*
X50857938Y-46775862D01*
X50873590Y-46793132D01*
X50887474Y-46811852D01*
X50899456Y-46831843D01*
X50909421Y-46852913D01*
X50917273Y-46874857D01*
X50922937Y-46897466D01*
X50926356Y-46920521D01*
X50927500Y-46943800D01*
X50927500Y-47418800D01*
X50926356Y-47442079D01*
X50922937Y-47465134D01*
X50917273Y-47487743D01*
X50909421Y-47509687D01*
X50899456Y-47530757D01*
X50887474Y-47550748D01*
X50873590Y-47569468D01*
X50857938Y-47586738D01*
X50840668Y-47602390D01*
X50821948Y-47616274D01*
X50801957Y-47628256D01*
X50780887Y-47638221D01*
X50758943Y-47646073D01*
X50736334Y-47651737D01*
X50713279Y-47655156D01*
X50690000Y-47656300D01*
X50115000Y-47656300D01*
X50091721Y-47655156D01*
X50068666Y-47651737D01*
X50046057Y-47646073D01*
X50024113Y-47638221D01*
X50003043Y-47628256D01*
X49983052Y-47616274D01*
X49964332Y-47602390D01*
X49947062Y-47586738D01*
X49931410Y-47569468D01*
X49917526Y-47550748D01*
X49905544Y-47530757D01*
X49895579Y-47509687D01*
X49887727Y-47487743D01*
X49882063Y-47465134D01*
X49878644Y-47442079D01*
X49877500Y-47418800D01*
X49877500Y-46943800D01*
X49878644Y-46920521D01*
X49882063Y-46897466D01*
X49887727Y-46874857D01*
X49895579Y-46852913D01*
X49905544Y-46831843D01*
X49917526Y-46811852D01*
X49931410Y-46793132D01*
X49947062Y-46775862D01*
X49964332Y-46760210D01*
X49983052Y-46746326D01*
X50003043Y-46734344D01*
X50024113Y-46724379D01*
X50046057Y-46716527D01*
X50068666Y-46710863D01*
X50091721Y-46707444D01*
X50115000Y-46706300D01*
X50690000Y-46706300D01*
X50713279Y-46707444D01*
X50713279Y-46707444D01*
G37*
D13*
X50402500Y-47181300D03*
D12*
G36*
X48963279Y-46707444D02*
G01*
X48986334Y-46710863D01*
X49008943Y-46716527D01*
X49030887Y-46724379D01*
X49051957Y-46734344D01*
X49071948Y-46746326D01*
X49090668Y-46760210D01*
X49107938Y-46775862D01*
X49123590Y-46793132D01*
X49137474Y-46811852D01*
X49149456Y-46831843D01*
X49159421Y-46852913D01*
X49167273Y-46874857D01*
X49172937Y-46897466D01*
X49176356Y-46920521D01*
X49177500Y-46943800D01*
X49177500Y-47418800D01*
X49176356Y-47442079D01*
X49172937Y-47465134D01*
X49167273Y-47487743D01*
X49159421Y-47509687D01*
X49149456Y-47530757D01*
X49137474Y-47550748D01*
X49123590Y-47569468D01*
X49107938Y-47586738D01*
X49090668Y-47602390D01*
X49071948Y-47616274D01*
X49051957Y-47628256D01*
X49030887Y-47638221D01*
X49008943Y-47646073D01*
X48986334Y-47651737D01*
X48963279Y-47655156D01*
X48940000Y-47656300D01*
X48365000Y-47656300D01*
X48341721Y-47655156D01*
X48318666Y-47651737D01*
X48296057Y-47646073D01*
X48274113Y-47638221D01*
X48253043Y-47628256D01*
X48233052Y-47616274D01*
X48214332Y-47602390D01*
X48197062Y-47586738D01*
X48181410Y-47569468D01*
X48167526Y-47550748D01*
X48155544Y-47530757D01*
X48145579Y-47509687D01*
X48137727Y-47487743D01*
X48132063Y-47465134D01*
X48128644Y-47442079D01*
X48127500Y-47418800D01*
X48127500Y-46943800D01*
X48128644Y-46920521D01*
X48132063Y-46897466D01*
X48137727Y-46874857D01*
X48145579Y-46852913D01*
X48155544Y-46831843D01*
X48167526Y-46811852D01*
X48181410Y-46793132D01*
X48197062Y-46775862D01*
X48214332Y-46760210D01*
X48233052Y-46746326D01*
X48253043Y-46734344D01*
X48274113Y-46724379D01*
X48296057Y-46716527D01*
X48318666Y-46710863D01*
X48341721Y-46707444D01*
X48365000Y-46706300D01*
X48940000Y-46706300D01*
X48963279Y-46707444D01*
X48963279Y-46707444D01*
G37*
D13*
X48652500Y-47181300D03*
D16*
X49752500Y-59735800D03*
X49752500Y-59085800D03*
X49752500Y-58435800D03*
X49752500Y-57785800D03*
X49752500Y-57135800D03*
X49752500Y-56485800D03*
X49752500Y-55835800D03*
X55652500Y-55835800D03*
X55652500Y-56485800D03*
X55652500Y-57135800D03*
X55652500Y-57785800D03*
X55652500Y-58435800D03*
X55652500Y-59085800D03*
X55652500Y-59735800D03*
X61258700Y-59177000D03*
X61258700Y-58527000D03*
X61258700Y-57877000D03*
X61258700Y-57227000D03*
X61258700Y-56577000D03*
X61258700Y-55927000D03*
X61258700Y-55277000D03*
X67158700Y-55277000D03*
X67158700Y-55927000D03*
X67158700Y-56577000D03*
X67158700Y-57227000D03*
X67158700Y-57877000D03*
X67158700Y-58527000D03*
X67158700Y-59177000D03*
X54921400Y-71864300D03*
X54921400Y-71214300D03*
X54921400Y-70564300D03*
X54921400Y-69914300D03*
X54921400Y-69264300D03*
X54921400Y-68614300D03*
X54921400Y-67964300D03*
X60821400Y-67964300D03*
X60821400Y-68614300D03*
X60821400Y-69264300D03*
X60821400Y-69914300D03*
X60821400Y-70564300D03*
X60821400Y-71214300D03*
X60821400Y-71864300D03*
M02*
