G04 #@! TF.GenerationSoftware,KiCad,Pcbnew,(5.1.0-rc2-21-g16b3c80a7)*
G04 #@! TF.CreationDate,2019-06-05T23:58:20+02:00*
G04 #@! TF.ProjectId,microRusEfi,6d696372-6f52-4757-9345-66692e6b6963,R0.1*
G04 #@! TF.SameCoordinates,Original*
G04 #@! TF.FileFunction,Soldermask,Bot*
G04 #@! TF.FilePolarity,Negative*
%FSLAX46Y46*%
G04 Gerber Fmt 4.6, Leading zero omitted, Abs format (unit mm)*
G04 Created by KiCad (PCBNEW (5.1.0-rc2-21-g16b3c80a7)) date 2019-06-05 23:58:20*
%MOMM*%
%LPD*%
G04 APERTURE LIST*
%ADD10C,0.200000*%
%ADD11C,0.100000*%
G04 APERTURE END LIST*
D10*
X20600000Y-35538500D02*
X25895900Y-20600000D01*
X32844596Y-116072400D02*
X20601600Y-104381342D01*
X101188000Y-35538500D02*
X95841300Y-20600000D01*
X101189600Y-104381342D02*
X88946604Y-116072400D01*
X25895900Y-20600000D02*
X95841300Y-20600000D01*
X101188000Y-35538500D02*
X101189600Y-104381342D01*
X20600000Y-35538500D02*
X20601600Y-104381342D01*
X84085800Y-99870300D02*
G75*
G03X84085800Y-99870300I-1638300J0D01*
G01*
X32844596Y-116072400D02*
X88946604Y-116072400D01*
X27926400Y-49959301D02*
G75*
G03X27926400Y-49959301I-1638300J0D01*
G01*
X89521400Y-104569300D02*
G75*
G03X89521400Y-104569300I-1790700J0D01*
G01*
X95020499Y-42301200D02*
G75*
G03X95020499Y-42301200I-1790700J0D01*
G01*
X30352101Y-42301200D02*
G75*
G03X30352101Y-42301200I-1790700J0D01*
G01*
X35851200Y-104569300D02*
G75*
G03X35851200Y-104569300I-1790700J0D01*
G01*
D11*
G36*
X61434455Y-108859402D02*
G01*
X61488329Y-108864708D01*
X61592014Y-108896161D01*
X61592016Y-108896162D01*
X61687569Y-108947236D01*
X61771327Y-109015973D01*
X61840063Y-109099730D01*
X61891139Y-109195286D01*
X61922592Y-109298971D01*
X61933212Y-109406800D01*
X61922592Y-109514629D01*
X61891139Y-109618314D01*
X61891138Y-109618316D01*
X61840064Y-109713869D01*
X61771327Y-109797627D01*
X61687569Y-109866364D01*
X61592016Y-109917438D01*
X61592014Y-109917439D01*
X61488329Y-109948892D01*
X61434455Y-109954198D01*
X61407519Y-109956851D01*
X60253481Y-109956851D01*
X60226545Y-109954198D01*
X60172671Y-109948892D01*
X60068986Y-109917439D01*
X60068984Y-109917438D01*
X59973431Y-109866364D01*
X59889673Y-109797627D01*
X59820936Y-109713869D01*
X59769862Y-109618316D01*
X59769861Y-109618314D01*
X59738408Y-109514629D01*
X59727788Y-109406800D01*
X59738408Y-109298971D01*
X59769861Y-109195286D01*
X59820937Y-109099730D01*
X59889673Y-109015973D01*
X59973431Y-108947236D01*
X60068984Y-108896162D01*
X60068986Y-108896161D01*
X60172671Y-108864708D01*
X60226545Y-108859402D01*
X60253481Y-108856749D01*
X61407519Y-108856749D01*
X61434455Y-108859402D01*
X61434455Y-108859402D01*
G37*
G36*
X87396956Y-100693949D02*
G01*
X87396962Y-100693949D01*
X88749321Y-100792902D01*
X88749324Y-100792903D01*
X88755439Y-100793350D01*
X88759634Y-100795203D01*
X88759638Y-100795205D01*
X89549500Y-101144214D01*
X89679609Y-101201704D01*
X90533439Y-101936350D01*
X91041439Y-102634850D01*
X91044014Y-102640430D01*
X91044015Y-102640431D01*
X91396335Y-103403790D01*
X91422439Y-103460350D01*
X91630500Y-104457500D01*
X91567000Y-105092500D01*
X91330609Y-106172000D01*
X90741500Y-107119904D01*
X90043000Y-107823000D01*
X90040290Y-107824459D01*
X90040288Y-107824461D01*
X89513361Y-108108190D01*
X89217500Y-108267500D01*
X88582500Y-108521500D01*
X88578829Y-108521745D01*
X88578827Y-108521745D01*
X87636724Y-108584552D01*
X87636722Y-108584552D01*
X87630000Y-108585000D01*
X86360000Y-108394500D01*
X86247272Y-108328019D01*
X85365212Y-107807829D01*
X85365210Y-107807828D01*
X85361609Y-107805704D01*
X85358323Y-107803118D01*
X85358319Y-107803115D01*
X84905138Y-107446438D01*
X84905135Y-107446435D01*
X84899500Y-107442000D01*
X84837602Y-107364627D01*
X84394751Y-106811064D01*
X84394750Y-106811062D01*
X84391500Y-106807000D01*
X84028109Y-106154704D01*
X83774109Y-105265704D01*
X83774109Y-104249704D01*
X83933045Y-103613960D01*
X84090121Y-102985655D01*
X84090122Y-102985653D01*
X84091609Y-102979704D01*
X84726609Y-102014504D01*
X84808855Y-101948707D01*
X85421306Y-101458746D01*
X85421309Y-101458744D01*
X85425109Y-101455704D01*
X85429327Y-101453293D01*
X85429334Y-101453289D01*
X86306280Y-100952178D01*
X86314109Y-100947704D01*
X86322886Y-100945639D01*
X86322888Y-100945638D01*
X87387633Y-100695110D01*
X87387634Y-100695110D01*
X87393609Y-100693704D01*
X87396956Y-100693949D01*
X87396956Y-100693949D01*
G37*
G36*
X33802956Y-100630449D02*
G01*
X33802962Y-100630449D01*
X35155321Y-100729402D01*
X35155324Y-100729403D01*
X35161439Y-100729850D01*
X35165634Y-100731703D01*
X35165638Y-100731705D01*
X35664603Y-100952178D01*
X36085609Y-101138204D01*
X36939439Y-101872850D01*
X37447439Y-102571350D01*
X37450014Y-102576930D01*
X37450015Y-102576931D01*
X37606603Y-102916204D01*
X37828439Y-103396850D01*
X38036500Y-104394000D01*
X38036161Y-104397388D01*
X38036161Y-104397393D01*
X38029811Y-104460893D01*
X37973000Y-105029000D01*
X37736609Y-106108500D01*
X37147500Y-107056404D01*
X36449000Y-107759500D01*
X36446290Y-107760959D01*
X36446288Y-107760961D01*
X35919361Y-108044690D01*
X35623500Y-108204000D01*
X34988500Y-108458000D01*
X34984829Y-108458245D01*
X34984827Y-108458245D01*
X34042724Y-108521052D01*
X34042722Y-108521052D01*
X34036000Y-108521500D01*
X32766000Y-108331000D01*
X32550653Y-108204000D01*
X31771212Y-107744329D01*
X31771210Y-107744328D01*
X31767609Y-107742204D01*
X31764323Y-107739618D01*
X31764319Y-107739615D01*
X31311138Y-107382938D01*
X31311135Y-107382935D01*
X31305500Y-107378500D01*
X31294402Y-107364627D01*
X30800751Y-106747564D01*
X30800750Y-106747562D01*
X30797500Y-106743500D01*
X30434109Y-106091204D01*
X30180109Y-105202204D01*
X30180109Y-104186204D01*
X30339045Y-103550460D01*
X30496121Y-102922155D01*
X30496122Y-102922153D01*
X30497609Y-102916204D01*
X31087457Y-102019635D01*
X31129233Y-101956135D01*
X31129235Y-101956133D01*
X31132609Y-101951004D01*
X31135480Y-101948707D01*
X31827306Y-101395246D01*
X31827309Y-101395244D01*
X31831109Y-101392204D01*
X31835327Y-101389793D01*
X31835334Y-101389789D01*
X32712280Y-100888678D01*
X32720109Y-100884204D01*
X32728886Y-100882139D01*
X32728888Y-100882138D01*
X33793633Y-100631610D01*
X33793634Y-100631610D01*
X33799609Y-100630204D01*
X33802956Y-100630449D01*
X33802956Y-100630449D01*
G37*
G36*
X58434455Y-106709402D02*
G01*
X58488329Y-106714708D01*
X58592014Y-106746161D01*
X58592016Y-106746162D01*
X58687569Y-106797236D01*
X58771327Y-106865973D01*
X58840063Y-106949730D01*
X58891139Y-107045286D01*
X58922592Y-107148971D01*
X58933212Y-107256800D01*
X58922592Y-107364629D01*
X58899121Y-107442000D01*
X58891138Y-107468316D01*
X58840064Y-107563869D01*
X58771327Y-107647627D01*
X58687569Y-107716364D01*
X58592016Y-107767438D01*
X58592014Y-107767439D01*
X58488329Y-107798892D01*
X58445451Y-107803115D01*
X58407519Y-107806851D01*
X57653481Y-107806851D01*
X57615549Y-107803115D01*
X57572671Y-107798892D01*
X57468986Y-107767439D01*
X57468984Y-107767438D01*
X57373431Y-107716364D01*
X57289673Y-107647627D01*
X57220936Y-107563869D01*
X57169862Y-107468316D01*
X57161879Y-107442000D01*
X57138408Y-107364629D01*
X57127788Y-107256800D01*
X57138408Y-107148971D01*
X57169861Y-107045286D01*
X57220937Y-106949730D01*
X57289673Y-106865973D01*
X57373431Y-106797236D01*
X57468984Y-106746162D01*
X57468986Y-106746161D01*
X57572671Y-106714708D01*
X57626545Y-106709402D01*
X57653481Y-106706749D01*
X58407519Y-106706749D01*
X58434455Y-106709402D01*
X58434455Y-106709402D01*
G37*
G36*
X64034455Y-106709402D02*
G01*
X64088329Y-106714708D01*
X64192014Y-106746161D01*
X64192016Y-106746162D01*
X64287569Y-106797236D01*
X64371327Y-106865973D01*
X64440063Y-106949730D01*
X64491139Y-107045286D01*
X64522592Y-107148971D01*
X64533212Y-107256800D01*
X64522592Y-107364629D01*
X64499121Y-107442000D01*
X64491138Y-107468316D01*
X64440064Y-107563869D01*
X64371327Y-107647627D01*
X64287569Y-107716364D01*
X64192016Y-107767438D01*
X64192014Y-107767439D01*
X64088329Y-107798892D01*
X64045451Y-107803115D01*
X64007519Y-107806851D01*
X63253481Y-107806851D01*
X63215549Y-107803115D01*
X63172671Y-107798892D01*
X63068986Y-107767439D01*
X63068984Y-107767438D01*
X62973431Y-107716364D01*
X62889673Y-107647627D01*
X62820936Y-107563869D01*
X62769862Y-107468316D01*
X62761879Y-107442000D01*
X62738408Y-107364629D01*
X62727788Y-107256800D01*
X62738408Y-107148971D01*
X62769861Y-107045286D01*
X62820937Y-106949730D01*
X62889673Y-106865973D01*
X62973431Y-106797236D01*
X63068984Y-106746162D01*
X63068986Y-106746161D01*
X63172671Y-106714708D01*
X63226545Y-106709402D01*
X63253481Y-106706749D01*
X64007519Y-106706749D01*
X64034455Y-106709402D01*
X64034455Y-106709402D01*
G37*
G36*
X59334151Y-75824451D02*
G01*
X58834049Y-75824451D01*
X58834049Y-75024349D01*
X59334151Y-75024349D01*
X59334151Y-75824451D01*
X59334151Y-75824451D01*
G37*
G36*
X58484151Y-75824451D02*
G01*
X58084049Y-75824451D01*
X58084049Y-75024349D01*
X58484151Y-75024349D01*
X58484151Y-75824451D01*
X58484151Y-75824451D01*
G37*
G36*
X56934151Y-75824451D02*
G01*
X56434049Y-75824451D01*
X56434049Y-75024349D01*
X56934151Y-75024349D01*
X56934151Y-75824451D01*
X56934151Y-75824451D01*
G37*
G36*
X57684151Y-75824451D02*
G01*
X57284049Y-75824451D01*
X57284049Y-75024349D01*
X57684151Y-75024349D01*
X57684151Y-75824451D01*
X57684151Y-75824451D01*
G37*
G36*
X51104051Y-74586705D02*
G01*
X51136777Y-74596632D01*
X51166927Y-74612748D01*
X51193360Y-74634440D01*
X51215052Y-74660873D01*
X51231168Y-74691023D01*
X51241095Y-74723749D01*
X51245051Y-74763915D01*
X51245051Y-75351685D01*
X51241095Y-75391851D01*
X51231168Y-75424577D01*
X51215052Y-75454727D01*
X51193360Y-75481160D01*
X51166927Y-75502852D01*
X51136777Y-75518968D01*
X51104051Y-75528895D01*
X51063885Y-75532851D01*
X50376115Y-75532851D01*
X50335949Y-75528895D01*
X50303223Y-75518968D01*
X50273073Y-75502852D01*
X50246640Y-75481160D01*
X50224948Y-75454727D01*
X50208832Y-75424577D01*
X50198905Y-75391851D01*
X50194949Y-75351685D01*
X50194949Y-74763915D01*
X50198905Y-74723749D01*
X50208832Y-74691023D01*
X50224948Y-74660873D01*
X50246640Y-74634440D01*
X50273073Y-74612748D01*
X50303223Y-74596632D01*
X50335949Y-74586705D01*
X50376115Y-74582749D01*
X51063885Y-74582749D01*
X51104051Y-74586705D01*
X51104051Y-74586705D01*
G37*
G36*
X49354051Y-74586705D02*
G01*
X49386777Y-74596632D01*
X49416927Y-74612748D01*
X49443360Y-74634440D01*
X49465052Y-74660873D01*
X49481168Y-74691023D01*
X49491095Y-74723749D01*
X49495051Y-74763915D01*
X49495051Y-75351685D01*
X49491095Y-75391851D01*
X49481168Y-75424577D01*
X49465052Y-75454727D01*
X49443360Y-75481160D01*
X49416927Y-75502852D01*
X49386777Y-75518968D01*
X49354051Y-75528895D01*
X49313885Y-75532851D01*
X48626115Y-75532851D01*
X48585949Y-75528895D01*
X48553223Y-75518968D01*
X48523073Y-75502852D01*
X48496640Y-75481160D01*
X48474948Y-75454727D01*
X48458832Y-75424577D01*
X48448905Y-75391851D01*
X48444949Y-75351685D01*
X48444949Y-74763915D01*
X48448905Y-74723749D01*
X48458832Y-74691023D01*
X48474948Y-74660873D01*
X48496640Y-74634440D01*
X48523073Y-74612748D01*
X48553223Y-74596632D01*
X48585949Y-74586705D01*
X48626115Y-74582749D01*
X49313885Y-74582749D01*
X49354051Y-74586705D01*
X49354051Y-74586705D01*
G37*
G36*
X59334151Y-74024451D02*
G01*
X58834049Y-74024451D01*
X58834049Y-73224349D01*
X59334151Y-73224349D01*
X59334151Y-74024451D01*
X59334151Y-74024451D01*
G37*
G36*
X56934151Y-74024451D02*
G01*
X56434049Y-74024451D01*
X56434049Y-73224349D01*
X56934151Y-73224349D01*
X56934151Y-74024451D01*
X56934151Y-74024451D01*
G37*
G36*
X57684151Y-74024451D02*
G01*
X57284049Y-74024451D01*
X57284049Y-73224349D01*
X57684151Y-73224349D01*
X57684151Y-74024451D01*
X57684151Y-74024451D01*
G37*
G36*
X58484151Y-74024451D02*
G01*
X58084049Y-74024451D01*
X58084049Y-73224349D01*
X58484151Y-73224349D01*
X58484151Y-74024451D01*
X58484151Y-74024451D01*
G37*
G36*
X49354051Y-73062705D02*
G01*
X49386777Y-73072632D01*
X49416927Y-73088748D01*
X49443360Y-73110440D01*
X49465052Y-73136873D01*
X49481168Y-73167023D01*
X49491095Y-73199749D01*
X49495051Y-73239915D01*
X49495051Y-73827685D01*
X49491095Y-73867851D01*
X49481168Y-73900577D01*
X49465052Y-73930727D01*
X49443360Y-73957160D01*
X49416927Y-73978852D01*
X49386777Y-73994968D01*
X49354051Y-74004895D01*
X49313885Y-74008851D01*
X48626115Y-74008851D01*
X48585949Y-74004895D01*
X48553223Y-73994968D01*
X48523073Y-73978852D01*
X48496640Y-73957160D01*
X48474948Y-73930727D01*
X48458832Y-73900577D01*
X48448905Y-73867851D01*
X48444949Y-73827685D01*
X48444949Y-73239915D01*
X48448905Y-73199749D01*
X48458832Y-73167023D01*
X48474948Y-73136873D01*
X48496640Y-73110440D01*
X48523073Y-73088748D01*
X48553223Y-73072632D01*
X48585949Y-73062705D01*
X48626115Y-73058749D01*
X49313885Y-73058749D01*
X49354051Y-73062705D01*
X49354051Y-73062705D01*
G37*
G36*
X51104051Y-73062705D02*
G01*
X51136777Y-73072632D01*
X51166927Y-73088748D01*
X51193360Y-73110440D01*
X51215052Y-73136873D01*
X51231168Y-73167023D01*
X51241095Y-73199749D01*
X51245051Y-73239915D01*
X51245051Y-73827685D01*
X51241095Y-73867851D01*
X51231168Y-73900577D01*
X51215052Y-73930727D01*
X51193360Y-73957160D01*
X51166927Y-73978852D01*
X51136777Y-73994968D01*
X51104051Y-74004895D01*
X51063885Y-74008851D01*
X50376115Y-74008851D01*
X50335949Y-74004895D01*
X50303223Y-73994968D01*
X50273073Y-73978852D01*
X50246640Y-73957160D01*
X50224948Y-73930727D01*
X50208832Y-73900577D01*
X50198905Y-73867851D01*
X50194949Y-73827685D01*
X50194949Y-73239915D01*
X50198905Y-73199749D01*
X50208832Y-73167023D01*
X50224948Y-73136873D01*
X50246640Y-73110440D01*
X50273073Y-73088748D01*
X50303223Y-73072632D01*
X50335949Y-73062705D01*
X50376115Y-73058749D01*
X51063885Y-73058749D01*
X51104051Y-73062705D01*
X51104051Y-73062705D01*
G37*
G36*
X51104051Y-71538705D02*
G01*
X51136777Y-71548632D01*
X51166927Y-71564748D01*
X51193360Y-71586440D01*
X51215052Y-71612873D01*
X51231168Y-71643023D01*
X51241095Y-71675749D01*
X51245051Y-71715915D01*
X51245051Y-72303685D01*
X51241095Y-72343851D01*
X51231168Y-72376577D01*
X51215052Y-72406727D01*
X51193360Y-72433160D01*
X51166927Y-72454852D01*
X51136777Y-72470968D01*
X51104051Y-72480895D01*
X51063885Y-72484851D01*
X50376115Y-72484851D01*
X50335949Y-72480895D01*
X50303223Y-72470968D01*
X50273073Y-72454852D01*
X50246640Y-72433160D01*
X50224948Y-72406727D01*
X50208832Y-72376577D01*
X50198905Y-72343851D01*
X50194949Y-72303685D01*
X50194949Y-71715915D01*
X50198905Y-71675749D01*
X50208832Y-71643023D01*
X50224948Y-71612873D01*
X50246640Y-71586440D01*
X50273073Y-71564748D01*
X50303223Y-71548632D01*
X50335949Y-71538705D01*
X50376115Y-71534749D01*
X51063885Y-71534749D01*
X51104051Y-71538705D01*
X51104051Y-71538705D01*
G37*
G36*
X49354051Y-71538705D02*
G01*
X49386777Y-71548632D01*
X49416927Y-71564748D01*
X49443360Y-71586440D01*
X49465052Y-71612873D01*
X49481168Y-71643023D01*
X49491095Y-71675749D01*
X49495051Y-71715915D01*
X49495051Y-72303685D01*
X49491095Y-72343851D01*
X49481168Y-72376577D01*
X49465052Y-72406727D01*
X49443360Y-72433160D01*
X49416927Y-72454852D01*
X49386777Y-72470968D01*
X49354051Y-72480895D01*
X49313885Y-72484851D01*
X48626115Y-72484851D01*
X48585949Y-72480895D01*
X48553223Y-72470968D01*
X48523073Y-72454852D01*
X48496640Y-72433160D01*
X48474948Y-72406727D01*
X48458832Y-72376577D01*
X48448905Y-72343851D01*
X48444949Y-72303685D01*
X48444949Y-71715915D01*
X48448905Y-71675749D01*
X48458832Y-71643023D01*
X48474948Y-71612873D01*
X48496640Y-71586440D01*
X48523073Y-71564748D01*
X48553223Y-71548632D01*
X48585949Y-71538705D01*
X48626115Y-71534749D01*
X49313885Y-71534749D01*
X49354051Y-71538705D01*
X49354051Y-71538705D01*
G37*
G36*
X61546451Y-72089351D02*
G01*
X60096349Y-72089351D01*
X60096349Y-67739249D01*
X61546451Y-67739249D01*
X61546451Y-72089351D01*
X61546451Y-72089351D01*
G37*
G36*
X55646451Y-72089351D02*
G01*
X54196349Y-72089351D01*
X54196349Y-67739249D01*
X55646451Y-67739249D01*
X55646451Y-72089351D01*
X55646451Y-72089351D01*
G37*
G36*
X51104051Y-70014705D02*
G01*
X51136777Y-70024632D01*
X51166927Y-70040748D01*
X51193360Y-70062440D01*
X51215052Y-70088873D01*
X51231168Y-70119023D01*
X51241095Y-70151749D01*
X51245051Y-70191915D01*
X51245051Y-70779685D01*
X51241095Y-70819851D01*
X51231168Y-70852577D01*
X51215052Y-70882727D01*
X51193360Y-70909160D01*
X51166927Y-70930852D01*
X51136777Y-70946968D01*
X51104051Y-70956895D01*
X51063885Y-70960851D01*
X50376115Y-70960851D01*
X50335949Y-70956895D01*
X50303223Y-70946968D01*
X50273073Y-70930852D01*
X50246640Y-70909160D01*
X50224948Y-70882727D01*
X50208832Y-70852577D01*
X50198905Y-70819851D01*
X50194949Y-70779685D01*
X50194949Y-70191915D01*
X50198905Y-70151749D01*
X50208832Y-70119023D01*
X50224948Y-70088873D01*
X50246640Y-70062440D01*
X50273073Y-70040748D01*
X50303223Y-70024632D01*
X50335949Y-70014705D01*
X50376115Y-70010749D01*
X51063885Y-70010749D01*
X51104051Y-70014705D01*
X51104051Y-70014705D01*
G37*
G36*
X49354051Y-70014705D02*
G01*
X49386777Y-70024632D01*
X49416927Y-70040748D01*
X49443360Y-70062440D01*
X49465052Y-70088873D01*
X49481168Y-70119023D01*
X49491095Y-70151749D01*
X49495051Y-70191915D01*
X49495051Y-70779685D01*
X49491095Y-70819851D01*
X49481168Y-70852577D01*
X49465052Y-70882727D01*
X49443360Y-70909160D01*
X49416927Y-70930852D01*
X49386777Y-70946968D01*
X49354051Y-70956895D01*
X49313885Y-70960851D01*
X48626115Y-70960851D01*
X48585949Y-70956895D01*
X48553223Y-70946968D01*
X48523073Y-70930852D01*
X48496640Y-70909160D01*
X48474948Y-70882727D01*
X48458832Y-70852577D01*
X48448905Y-70819851D01*
X48444949Y-70779685D01*
X48444949Y-70191915D01*
X48448905Y-70151749D01*
X48458832Y-70119023D01*
X48474948Y-70088873D01*
X48496640Y-70062440D01*
X48523073Y-70040748D01*
X48553223Y-70024632D01*
X48585949Y-70014705D01*
X48626115Y-70010749D01*
X49313885Y-70010749D01*
X49354051Y-70014705D01*
X49354051Y-70014705D01*
G37*
G36*
X49354051Y-68490705D02*
G01*
X49386777Y-68500632D01*
X49416927Y-68516748D01*
X49443360Y-68538440D01*
X49465052Y-68564873D01*
X49481168Y-68595023D01*
X49491095Y-68627749D01*
X49495051Y-68667915D01*
X49495051Y-69255685D01*
X49491095Y-69295851D01*
X49481168Y-69328577D01*
X49465052Y-69358727D01*
X49443360Y-69385160D01*
X49416927Y-69406852D01*
X49386777Y-69422968D01*
X49354051Y-69432895D01*
X49313885Y-69436851D01*
X48626115Y-69436851D01*
X48585949Y-69432895D01*
X48553223Y-69422968D01*
X48523073Y-69406852D01*
X48496640Y-69385160D01*
X48474948Y-69358727D01*
X48458832Y-69328577D01*
X48448905Y-69295851D01*
X48444949Y-69255685D01*
X48444949Y-68667915D01*
X48448905Y-68627749D01*
X48458832Y-68595023D01*
X48474948Y-68564873D01*
X48496640Y-68538440D01*
X48523073Y-68516748D01*
X48553223Y-68500632D01*
X48585949Y-68490705D01*
X48626115Y-68486749D01*
X49313885Y-68486749D01*
X49354051Y-68490705D01*
X49354051Y-68490705D01*
G37*
G36*
X51104051Y-68490705D02*
G01*
X51136777Y-68500632D01*
X51166927Y-68516748D01*
X51193360Y-68538440D01*
X51215052Y-68564873D01*
X51231168Y-68595023D01*
X51241095Y-68627749D01*
X51245051Y-68667915D01*
X51245051Y-69255685D01*
X51241095Y-69295851D01*
X51231168Y-69328577D01*
X51215052Y-69358727D01*
X51193360Y-69385160D01*
X51166927Y-69406852D01*
X51136777Y-69422968D01*
X51104051Y-69432895D01*
X51063885Y-69436851D01*
X50376115Y-69436851D01*
X50335949Y-69432895D01*
X50303223Y-69422968D01*
X50273073Y-69406852D01*
X50246640Y-69385160D01*
X50224948Y-69358727D01*
X50208832Y-69328577D01*
X50198905Y-69295851D01*
X50194949Y-69255685D01*
X50194949Y-68667915D01*
X50198905Y-68627749D01*
X50208832Y-68595023D01*
X50224948Y-68564873D01*
X50246640Y-68538440D01*
X50273073Y-68516748D01*
X50303223Y-68500632D01*
X50335949Y-68490705D01*
X50376115Y-68486749D01*
X51063885Y-68486749D01*
X51104051Y-68490705D01*
X51104051Y-68490705D01*
G37*
G36*
X49354051Y-66966705D02*
G01*
X49386777Y-66976632D01*
X49416927Y-66992748D01*
X49443360Y-67014440D01*
X49465052Y-67040873D01*
X49481168Y-67071023D01*
X49491095Y-67103749D01*
X49495051Y-67143915D01*
X49495051Y-67731685D01*
X49491095Y-67771851D01*
X49481168Y-67804577D01*
X49465052Y-67834727D01*
X49443360Y-67861160D01*
X49416927Y-67882852D01*
X49386777Y-67898968D01*
X49354051Y-67908895D01*
X49313885Y-67912851D01*
X48626115Y-67912851D01*
X48585949Y-67908895D01*
X48553223Y-67898968D01*
X48523073Y-67882852D01*
X48496640Y-67861160D01*
X48474948Y-67834727D01*
X48458832Y-67804577D01*
X48448905Y-67771851D01*
X48444949Y-67731685D01*
X48444949Y-67143915D01*
X48448905Y-67103749D01*
X48458832Y-67071023D01*
X48474948Y-67040873D01*
X48496640Y-67014440D01*
X48523073Y-66992748D01*
X48553223Y-66976632D01*
X48585949Y-66966705D01*
X48626115Y-66962749D01*
X49313885Y-66962749D01*
X49354051Y-66966705D01*
X49354051Y-66966705D01*
G37*
G36*
X51104051Y-66966705D02*
G01*
X51136777Y-66976632D01*
X51166927Y-66992748D01*
X51193360Y-67014440D01*
X51215052Y-67040873D01*
X51231168Y-67071023D01*
X51241095Y-67103749D01*
X51245051Y-67143915D01*
X51245051Y-67731685D01*
X51241095Y-67771851D01*
X51231168Y-67804577D01*
X51215052Y-67834727D01*
X51193360Y-67861160D01*
X51166927Y-67882852D01*
X51136777Y-67898968D01*
X51104051Y-67908895D01*
X51063885Y-67912851D01*
X50376115Y-67912851D01*
X50335949Y-67908895D01*
X50303223Y-67898968D01*
X50273073Y-67882852D01*
X50246640Y-67861160D01*
X50224948Y-67834727D01*
X50208832Y-67804577D01*
X50198905Y-67771851D01*
X50194949Y-67731685D01*
X50194949Y-67143915D01*
X50198905Y-67103749D01*
X50208832Y-67071023D01*
X50224948Y-67040873D01*
X50246640Y-67014440D01*
X50273073Y-66992748D01*
X50303223Y-66976632D01*
X50335949Y-66966705D01*
X50376115Y-66962749D01*
X51063885Y-66962749D01*
X51104051Y-66966705D01*
X51104051Y-66966705D01*
G37*
G36*
X57811151Y-66782051D02*
G01*
X57411049Y-66782051D01*
X57411049Y-65981949D01*
X57811151Y-65981949D01*
X57811151Y-66782051D01*
X57811151Y-66782051D01*
G37*
G36*
X58611151Y-66782051D02*
G01*
X58211049Y-66782051D01*
X58211049Y-65981949D01*
X58611151Y-65981949D01*
X58611151Y-66782051D01*
X58611151Y-66782051D01*
G37*
G36*
X57061151Y-66782051D02*
G01*
X56561049Y-66782051D01*
X56561049Y-65981949D01*
X57061151Y-65981949D01*
X57061151Y-66782051D01*
X57061151Y-66782051D01*
G37*
G36*
X59461151Y-66782051D02*
G01*
X58961049Y-66782051D01*
X58961049Y-65981949D01*
X59461151Y-65981949D01*
X59461151Y-66782051D01*
X59461151Y-66782051D01*
G37*
G36*
X51104051Y-65442705D02*
G01*
X51136777Y-65452632D01*
X51166927Y-65468748D01*
X51193360Y-65490440D01*
X51215052Y-65516873D01*
X51231168Y-65547023D01*
X51241095Y-65579749D01*
X51245051Y-65619915D01*
X51245051Y-66207685D01*
X51241095Y-66247851D01*
X51231168Y-66280577D01*
X51215052Y-66310727D01*
X51193360Y-66337160D01*
X51166927Y-66358852D01*
X51136777Y-66374968D01*
X51104051Y-66384895D01*
X51063885Y-66388851D01*
X50376115Y-66388851D01*
X50335949Y-66384895D01*
X50303223Y-66374968D01*
X50273073Y-66358852D01*
X50246640Y-66337160D01*
X50224948Y-66310727D01*
X50208832Y-66280577D01*
X50198905Y-66247851D01*
X50194949Y-66207685D01*
X50194949Y-65619915D01*
X50198905Y-65579749D01*
X50208832Y-65547023D01*
X50224948Y-65516873D01*
X50246640Y-65490440D01*
X50273073Y-65468748D01*
X50303223Y-65452632D01*
X50335949Y-65442705D01*
X50376115Y-65438749D01*
X51063885Y-65438749D01*
X51104051Y-65442705D01*
X51104051Y-65442705D01*
G37*
G36*
X49354051Y-65442705D02*
G01*
X49386777Y-65452632D01*
X49416927Y-65468748D01*
X49443360Y-65490440D01*
X49465052Y-65516873D01*
X49481168Y-65547023D01*
X49491095Y-65579749D01*
X49495051Y-65619915D01*
X49495051Y-66207685D01*
X49491095Y-66247851D01*
X49481168Y-66280577D01*
X49465052Y-66310727D01*
X49443360Y-66337160D01*
X49416927Y-66358852D01*
X49386777Y-66374968D01*
X49354051Y-66384895D01*
X49313885Y-66388851D01*
X48626115Y-66388851D01*
X48585949Y-66384895D01*
X48553223Y-66374968D01*
X48523073Y-66358852D01*
X48496640Y-66337160D01*
X48474948Y-66310727D01*
X48458832Y-66280577D01*
X48448905Y-66247851D01*
X48444949Y-66207685D01*
X48444949Y-65619915D01*
X48448905Y-65579749D01*
X48458832Y-65547023D01*
X48474948Y-65516873D01*
X48496640Y-65490440D01*
X48523073Y-65468748D01*
X48553223Y-65452632D01*
X48585949Y-65442705D01*
X48626115Y-65438749D01*
X49313885Y-65438749D01*
X49354051Y-65442705D01*
X49354051Y-65442705D01*
G37*
G36*
X59461151Y-64982051D02*
G01*
X58961049Y-64982051D01*
X58961049Y-64181949D01*
X59461151Y-64181949D01*
X59461151Y-64982051D01*
X59461151Y-64982051D01*
G37*
G36*
X57811151Y-64982051D02*
G01*
X57411049Y-64982051D01*
X57411049Y-64181949D01*
X57811151Y-64181949D01*
X57811151Y-64982051D01*
X57811151Y-64982051D01*
G37*
G36*
X58611151Y-64982051D02*
G01*
X58211049Y-64982051D01*
X58211049Y-64181949D01*
X58611151Y-64181949D01*
X58611151Y-64982051D01*
X58611151Y-64982051D01*
G37*
G36*
X57061151Y-64982051D02*
G01*
X56561049Y-64982051D01*
X56561049Y-64181949D01*
X57061151Y-64181949D01*
X57061151Y-64982051D01*
X57061151Y-64982051D01*
G37*
G36*
X53302551Y-63594351D02*
G01*
X52902449Y-63594351D01*
X52902449Y-62794249D01*
X53302551Y-62794249D01*
X53302551Y-63594351D01*
X53302551Y-63594351D01*
G37*
G36*
X54152551Y-63594351D02*
G01*
X53652449Y-63594351D01*
X53652449Y-62794249D01*
X54152551Y-62794249D01*
X54152551Y-63594351D01*
X54152551Y-63594351D01*
G37*
G36*
X51752551Y-63594351D02*
G01*
X51252449Y-63594351D01*
X51252449Y-62794249D01*
X51752551Y-62794249D01*
X51752551Y-63594351D01*
X51752551Y-63594351D01*
G37*
G36*
X52502551Y-63594351D02*
G01*
X52102449Y-63594351D01*
X52102449Y-62794249D01*
X52502551Y-62794249D01*
X52502551Y-63594351D01*
X52502551Y-63594351D01*
G37*
G36*
X65646051Y-63035551D02*
G01*
X65145949Y-63035551D01*
X65145949Y-62235449D01*
X65646051Y-62235449D01*
X65646051Y-63035551D01*
X65646051Y-63035551D01*
G37*
G36*
X64796051Y-63035551D02*
G01*
X64395949Y-63035551D01*
X64395949Y-62235449D01*
X64796051Y-62235449D01*
X64796051Y-63035551D01*
X64796051Y-63035551D01*
G37*
G36*
X63996051Y-63035551D02*
G01*
X63595949Y-63035551D01*
X63595949Y-62235449D01*
X63996051Y-62235449D01*
X63996051Y-63035551D01*
X63996051Y-63035551D01*
G37*
G36*
X63246051Y-63035551D02*
G01*
X62745949Y-63035551D01*
X62745949Y-62235449D01*
X63246051Y-62235449D01*
X63246051Y-63035551D01*
X63246051Y-63035551D01*
G37*
G36*
X52502551Y-61794351D02*
G01*
X52102449Y-61794351D01*
X52102449Y-60994249D01*
X52502551Y-60994249D01*
X52502551Y-61794351D01*
X52502551Y-61794351D01*
G37*
G36*
X54152551Y-61794351D02*
G01*
X53652449Y-61794351D01*
X53652449Y-60994249D01*
X54152551Y-60994249D01*
X54152551Y-61794351D01*
X54152551Y-61794351D01*
G37*
G36*
X53302551Y-61794351D02*
G01*
X52902449Y-61794351D01*
X52902449Y-60994249D01*
X53302551Y-60994249D01*
X53302551Y-61794351D01*
X53302551Y-61794351D01*
G37*
G36*
X51752551Y-61794351D02*
G01*
X51252449Y-61794351D01*
X51252449Y-60994249D01*
X51752551Y-60994249D01*
X51752551Y-61794351D01*
X51752551Y-61794351D01*
G37*
G36*
X65646051Y-61235551D02*
G01*
X65145949Y-61235551D01*
X65145949Y-60435449D01*
X65646051Y-60435449D01*
X65646051Y-61235551D01*
X65646051Y-61235551D01*
G37*
G36*
X63996051Y-61235551D02*
G01*
X63595949Y-61235551D01*
X63595949Y-60435449D01*
X63996051Y-60435449D01*
X63996051Y-61235551D01*
X63996051Y-61235551D01*
G37*
G36*
X64796051Y-61235551D02*
G01*
X64395949Y-61235551D01*
X64395949Y-60435449D01*
X64796051Y-60435449D01*
X64796051Y-61235551D01*
X64796051Y-61235551D01*
G37*
G36*
X63246051Y-61235551D02*
G01*
X62745949Y-61235551D01*
X62745949Y-60435449D01*
X63246051Y-60435449D01*
X63246051Y-61235551D01*
X63246051Y-61235551D01*
G37*
G36*
X50477551Y-59960851D02*
G01*
X49027449Y-59960851D01*
X49027449Y-55610749D01*
X50477551Y-55610749D01*
X50477551Y-59960851D01*
X50477551Y-59960851D01*
G37*
G36*
X56377551Y-59960851D02*
G01*
X54927449Y-59960851D01*
X54927449Y-55610749D01*
X56377551Y-55610749D01*
X56377551Y-59960851D01*
X56377551Y-59960851D01*
G37*
G36*
X67883751Y-59402051D02*
G01*
X66433649Y-59402051D01*
X66433649Y-55051949D01*
X67883751Y-55051949D01*
X67883751Y-59402051D01*
X67883751Y-59402051D01*
G37*
G36*
X61983751Y-59402051D02*
G01*
X60533649Y-59402051D01*
X60533649Y-55051949D01*
X61983751Y-55051949D01*
X61983751Y-59402051D01*
X61983751Y-59402051D01*
G37*
G36*
X51689051Y-54640851D02*
G01*
X51188949Y-54640851D01*
X51188949Y-53840749D01*
X51689051Y-53840749D01*
X51689051Y-54640851D01*
X51689051Y-54640851D01*
G37*
G36*
X53239051Y-54640851D02*
G01*
X52838949Y-54640851D01*
X52838949Y-53840749D01*
X53239051Y-53840749D01*
X53239051Y-54640851D01*
X53239051Y-54640851D01*
G37*
G36*
X52439051Y-54640851D02*
G01*
X52038949Y-54640851D01*
X52038949Y-53840749D01*
X52439051Y-53840749D01*
X52439051Y-54640851D01*
X52439051Y-54640851D01*
G37*
G36*
X54089051Y-54640851D02*
G01*
X53588949Y-54640851D01*
X53588949Y-53840749D01*
X54089051Y-53840749D01*
X54089051Y-54640851D01*
X54089051Y-54640851D01*
G37*
G36*
X64770651Y-54094751D02*
G01*
X64370549Y-54094751D01*
X64370549Y-53294649D01*
X64770651Y-53294649D01*
X64770651Y-54094751D01*
X64770651Y-54094751D01*
G37*
G36*
X63220651Y-54094751D02*
G01*
X62720549Y-54094751D01*
X62720549Y-53294649D01*
X63220651Y-53294649D01*
X63220651Y-54094751D01*
X63220651Y-54094751D01*
G37*
G36*
X63970651Y-54094751D02*
G01*
X63570549Y-54094751D01*
X63570549Y-53294649D01*
X63970651Y-53294649D01*
X63970651Y-54094751D01*
X63970651Y-54094751D01*
G37*
G36*
X65620651Y-54094751D02*
G01*
X65120549Y-54094751D01*
X65120549Y-53294649D01*
X65620651Y-53294649D01*
X65620651Y-54094751D01*
X65620651Y-54094751D01*
G37*
G36*
X54089051Y-52840851D02*
G01*
X53588949Y-52840851D01*
X53588949Y-52040749D01*
X54089051Y-52040749D01*
X54089051Y-52840851D01*
X54089051Y-52840851D01*
G37*
G36*
X53239051Y-52840851D02*
G01*
X52838949Y-52840851D01*
X52838949Y-52040749D01*
X53239051Y-52040749D01*
X53239051Y-52840851D01*
X53239051Y-52840851D01*
G37*
G36*
X52439051Y-52840851D02*
G01*
X52038949Y-52840851D01*
X52038949Y-52040749D01*
X52439051Y-52040749D01*
X52439051Y-52840851D01*
X52439051Y-52840851D01*
G37*
G36*
X51689051Y-52840851D02*
G01*
X51188949Y-52840851D01*
X51188949Y-52040749D01*
X51689051Y-52040749D01*
X51689051Y-52840851D01*
X51689051Y-52840851D01*
G37*
G36*
X68897551Y-52558051D02*
G01*
X68397449Y-52558051D01*
X68397449Y-51757949D01*
X68897551Y-51757949D01*
X68897551Y-52558051D01*
X68897551Y-52558051D01*
G37*
G36*
X69647551Y-52558051D02*
G01*
X69247449Y-52558051D01*
X69247449Y-51757949D01*
X69647551Y-51757949D01*
X69647551Y-52558051D01*
X69647551Y-52558051D01*
G37*
G36*
X70447551Y-52558051D02*
G01*
X70047449Y-52558051D01*
X70047449Y-51757949D01*
X70447551Y-51757949D01*
X70447551Y-52558051D01*
X70447551Y-52558051D01*
G37*
G36*
X71297551Y-52558051D02*
G01*
X70797449Y-52558051D01*
X70797449Y-51757949D01*
X71297551Y-51757949D01*
X71297551Y-52558051D01*
X71297551Y-52558051D01*
G37*
G36*
X63220651Y-52294751D02*
G01*
X62720549Y-52294751D01*
X62720549Y-51494649D01*
X63220651Y-51494649D01*
X63220651Y-52294751D01*
X63220651Y-52294751D01*
G37*
G36*
X64770651Y-52294751D02*
G01*
X64370549Y-52294751D01*
X64370549Y-51494649D01*
X64770651Y-51494649D01*
X64770651Y-52294751D01*
X64770651Y-52294751D01*
G37*
G36*
X63970651Y-52294751D02*
G01*
X63570549Y-52294751D01*
X63570549Y-51494649D01*
X63970651Y-51494649D01*
X63970651Y-52294751D01*
X63970651Y-52294751D01*
G37*
G36*
X65620651Y-52294751D02*
G01*
X65120549Y-52294751D01*
X65120549Y-51494649D01*
X65620651Y-51494649D01*
X65620651Y-52294751D01*
X65620651Y-52294751D01*
G37*
G36*
X71297551Y-50758051D02*
G01*
X70797449Y-50758051D01*
X70797449Y-49957949D01*
X71297551Y-49957949D01*
X71297551Y-50758051D01*
X71297551Y-50758051D01*
G37*
G36*
X70447551Y-50758051D02*
G01*
X70047449Y-50758051D01*
X70047449Y-49957949D01*
X70447551Y-49957949D01*
X70447551Y-50758051D01*
X70447551Y-50758051D01*
G37*
G36*
X69647551Y-50758051D02*
G01*
X69247449Y-50758051D01*
X69247449Y-49957949D01*
X69647551Y-49957949D01*
X69647551Y-50758051D01*
X69647551Y-50758051D01*
G37*
G36*
X68897551Y-50758051D02*
G01*
X68397449Y-50758051D01*
X68397449Y-49957949D01*
X68897551Y-49957949D01*
X68897551Y-50758051D01*
X68897551Y-50758051D01*
G37*
G36*
X67622551Y-49000651D02*
G01*
X66172449Y-49000651D01*
X66172449Y-44650549D01*
X67622551Y-44650549D01*
X67622551Y-49000651D01*
X67622551Y-49000651D01*
G37*
G36*
X73522551Y-49000651D02*
G01*
X72072449Y-49000651D01*
X72072449Y-44650549D01*
X73522551Y-44650549D01*
X73522551Y-49000651D01*
X73522551Y-49000651D01*
G37*
G36*
X49036551Y-46710205D02*
G01*
X49069277Y-46720132D01*
X49099427Y-46736248D01*
X49125860Y-46757940D01*
X49147552Y-46784373D01*
X49163668Y-46814523D01*
X49173595Y-46847249D01*
X49177551Y-46887415D01*
X49177551Y-47475185D01*
X49173595Y-47515351D01*
X49163668Y-47548077D01*
X49147552Y-47578227D01*
X49125860Y-47604660D01*
X49099427Y-47626352D01*
X49069277Y-47642468D01*
X49036551Y-47652395D01*
X48996385Y-47656351D01*
X48308615Y-47656351D01*
X48268449Y-47652395D01*
X48235723Y-47642468D01*
X48205573Y-47626352D01*
X48179140Y-47604660D01*
X48157448Y-47578227D01*
X48141332Y-47548077D01*
X48131405Y-47515351D01*
X48127449Y-47475185D01*
X48127449Y-46887415D01*
X48131405Y-46847249D01*
X48141332Y-46814523D01*
X48157448Y-46784373D01*
X48179140Y-46757940D01*
X48205573Y-46736248D01*
X48235723Y-46720132D01*
X48268449Y-46710205D01*
X48308615Y-46706249D01*
X48996385Y-46706249D01*
X49036551Y-46710205D01*
X49036551Y-46710205D01*
G37*
G36*
X50786551Y-46710205D02*
G01*
X50819277Y-46720132D01*
X50849427Y-46736248D01*
X50875860Y-46757940D01*
X50897552Y-46784373D01*
X50913668Y-46814523D01*
X50923595Y-46847249D01*
X50927551Y-46887415D01*
X50927551Y-47475185D01*
X50923595Y-47515351D01*
X50913668Y-47548077D01*
X50897552Y-47578227D01*
X50875860Y-47604660D01*
X50849427Y-47626352D01*
X50819277Y-47642468D01*
X50786551Y-47652395D01*
X50746385Y-47656351D01*
X50058615Y-47656351D01*
X50018449Y-47652395D01*
X49985723Y-47642468D01*
X49955573Y-47626352D01*
X49929140Y-47604660D01*
X49907448Y-47578227D01*
X49891332Y-47548077D01*
X49881405Y-47515351D01*
X49877449Y-47475185D01*
X49877449Y-46887415D01*
X49881405Y-46847249D01*
X49891332Y-46814523D01*
X49907448Y-46784373D01*
X49929140Y-46757940D01*
X49955573Y-46736248D01*
X49985723Y-46720132D01*
X50018449Y-46710205D01*
X50058615Y-46706249D01*
X50746385Y-46706249D01*
X50786551Y-46710205D01*
X50786551Y-46710205D01*
G37*
G36*
X92984956Y-38336949D02*
G01*
X92984962Y-38336949D01*
X94337321Y-38435902D01*
X94337324Y-38435903D01*
X94343439Y-38436350D01*
X94347634Y-38438203D01*
X94347638Y-38438205D01*
X95202810Y-38816072D01*
X95267609Y-38844704D01*
X96121439Y-39579350D01*
X96629439Y-40277850D01*
X96632014Y-40283430D01*
X96632015Y-40283431D01*
X96788603Y-40622704D01*
X97010439Y-41103350D01*
X97218500Y-42100500D01*
X97155000Y-42735500D01*
X96918609Y-43815000D01*
X96329500Y-44762904D01*
X95631000Y-45466000D01*
X95628290Y-45467459D01*
X95628288Y-45467461D01*
X95102362Y-45750651D01*
X94805500Y-45910500D01*
X94170500Y-46164500D01*
X94166829Y-46164745D01*
X94166827Y-46164745D01*
X93224724Y-46227552D01*
X93224722Y-46227552D01*
X93218000Y-46228000D01*
X91948000Y-46037500D01*
X91907310Y-46013503D01*
X90953212Y-45450829D01*
X90953210Y-45450828D01*
X90949609Y-45448704D01*
X90946323Y-45446118D01*
X90946319Y-45446115D01*
X90493138Y-45089438D01*
X90493135Y-45089435D01*
X90487500Y-45085000D01*
X90467574Y-45060092D01*
X89982751Y-44454064D01*
X89982750Y-44454062D01*
X89979500Y-44450000D01*
X89616109Y-43797704D01*
X89427930Y-43139077D01*
X89364501Y-42917077D01*
X89364501Y-42917075D01*
X89362109Y-42908704D01*
X89362109Y-41892704D01*
X89521045Y-41256960D01*
X89678121Y-40628655D01*
X89678122Y-40628653D01*
X89679609Y-40622704D01*
X90314609Y-39657504D01*
X90348615Y-39630299D01*
X91009306Y-39101746D01*
X91009309Y-39101744D01*
X91013109Y-39098704D01*
X91017327Y-39096293D01*
X91017334Y-39096289D01*
X91894280Y-38595178D01*
X91902109Y-38590704D01*
X91910886Y-38588639D01*
X91910888Y-38588638D01*
X92975633Y-38338110D01*
X92975634Y-38338110D01*
X92981609Y-38336704D01*
X92984956Y-38336949D01*
X92984956Y-38336949D01*
G37*
G36*
X28277227Y-38312041D02*
G01*
X28277233Y-38312041D01*
X29629592Y-38410994D01*
X29629595Y-38410995D01*
X29635710Y-38411442D01*
X29639905Y-38413295D01*
X29639909Y-38413297D01*
X30051534Y-38595178D01*
X30559880Y-38819796D01*
X31413710Y-39554442D01*
X31921710Y-40252942D01*
X31924285Y-40258522D01*
X31924286Y-40258523D01*
X32092370Y-40622704D01*
X32302710Y-41078442D01*
X32510771Y-42075592D01*
X32510432Y-42078980D01*
X32510432Y-42078985D01*
X32490793Y-42275373D01*
X32447271Y-42710592D01*
X32210880Y-43790092D01*
X31621771Y-44737996D01*
X30923271Y-45441092D01*
X30920561Y-45442551D01*
X30920559Y-45442553D01*
X30393632Y-45726282D01*
X30097771Y-45885592D01*
X29462771Y-46139592D01*
X29459100Y-46139837D01*
X29459098Y-46139837D01*
X28516995Y-46202644D01*
X28516993Y-46202644D01*
X28510271Y-46203092D01*
X27240271Y-46012592D01*
X27204254Y-45991351D01*
X26245483Y-45425921D01*
X26245481Y-45425920D01*
X26241880Y-45423796D01*
X26238594Y-45421210D01*
X26238590Y-45421207D01*
X25785409Y-45064530D01*
X25785406Y-45064527D01*
X25779771Y-45060092D01*
X25542021Y-44762904D01*
X25275022Y-44429156D01*
X25275021Y-44429154D01*
X25271771Y-44425092D01*
X24908380Y-43772796D01*
X24703628Y-43056165D01*
X24656772Y-42892169D01*
X24656772Y-42892167D01*
X24654380Y-42883796D01*
X24654380Y-41867796D01*
X24813316Y-41232052D01*
X24970392Y-40603747D01*
X24970393Y-40603745D01*
X24971880Y-40597796D01*
X25347887Y-40026265D01*
X25603504Y-39637727D01*
X25603506Y-39637725D01*
X25606880Y-39632596D01*
X25609751Y-39630299D01*
X26301577Y-39076838D01*
X26301580Y-39076836D01*
X26305380Y-39073796D01*
X26309598Y-39071385D01*
X26309605Y-39071381D01*
X27186551Y-38570270D01*
X27194380Y-38565796D01*
X27203157Y-38563731D01*
X27203159Y-38563730D01*
X28267904Y-38313202D01*
X28267905Y-38313202D01*
X28273880Y-38311796D01*
X28277227Y-38312041D01*
X28277227Y-38312041D01*
G37*
G36*
X50786551Y-45186205D02*
G01*
X50819277Y-45196132D01*
X50849427Y-45212248D01*
X50875860Y-45233940D01*
X50897552Y-45260373D01*
X50913668Y-45290523D01*
X50923595Y-45323249D01*
X50927551Y-45363415D01*
X50927551Y-45951185D01*
X50923595Y-45991351D01*
X50913668Y-46024077D01*
X50897552Y-46054227D01*
X50875860Y-46080660D01*
X50849427Y-46102352D01*
X50819277Y-46118468D01*
X50786551Y-46128395D01*
X50746385Y-46132351D01*
X50058615Y-46132351D01*
X50018449Y-46128395D01*
X49985723Y-46118468D01*
X49955573Y-46102352D01*
X49929140Y-46080660D01*
X49907448Y-46054227D01*
X49891332Y-46024077D01*
X49881405Y-45991351D01*
X49877449Y-45951185D01*
X49877449Y-45363415D01*
X49881405Y-45323249D01*
X49891332Y-45290523D01*
X49907448Y-45260373D01*
X49929140Y-45233940D01*
X49955573Y-45212248D01*
X49985723Y-45196132D01*
X50018449Y-45186205D01*
X50058615Y-45182249D01*
X50746385Y-45182249D01*
X50786551Y-45186205D01*
X50786551Y-45186205D01*
G37*
G36*
X49036551Y-45186205D02*
G01*
X49069277Y-45196132D01*
X49099427Y-45212248D01*
X49125860Y-45233940D01*
X49147552Y-45260373D01*
X49163668Y-45290523D01*
X49173595Y-45323249D01*
X49177551Y-45363415D01*
X49177551Y-45951185D01*
X49173595Y-45991351D01*
X49163668Y-46024077D01*
X49147552Y-46054227D01*
X49125860Y-46080660D01*
X49099427Y-46102352D01*
X49069277Y-46118468D01*
X49036551Y-46128395D01*
X48996385Y-46132351D01*
X48308615Y-46132351D01*
X48268449Y-46128395D01*
X48235723Y-46118468D01*
X48205573Y-46102352D01*
X48179140Y-46080660D01*
X48157448Y-46054227D01*
X48141332Y-46024077D01*
X48131405Y-45991351D01*
X48127449Y-45951185D01*
X48127449Y-45363415D01*
X48131405Y-45323249D01*
X48141332Y-45290523D01*
X48157448Y-45260373D01*
X48179140Y-45233940D01*
X48205573Y-45212248D01*
X48235723Y-45196132D01*
X48268449Y-45186205D01*
X48308615Y-45182249D01*
X48996385Y-45182249D01*
X49036551Y-45186205D01*
X49036551Y-45186205D01*
G37*
G36*
X61233051Y-45963551D02*
G01*
X60432949Y-45963551D01*
X60432949Y-45063449D01*
X61233051Y-45063449D01*
X61233051Y-45963551D01*
X61233051Y-45963551D01*
G37*
G36*
X60283051Y-43963551D02*
G01*
X59482949Y-43963551D01*
X59482949Y-43063449D01*
X60283051Y-43063449D01*
X60283051Y-43963551D01*
X60283051Y-43963551D01*
G37*
G36*
X62183051Y-43963551D02*
G01*
X61382949Y-43963551D01*
X61382949Y-43063449D01*
X62183051Y-43063449D01*
X62183051Y-43963551D01*
X62183051Y-43963551D01*
G37*
G36*
X69647551Y-43668051D02*
G01*
X69247449Y-43668051D01*
X69247449Y-42867949D01*
X69647551Y-42867949D01*
X69647551Y-43668051D01*
X69647551Y-43668051D01*
G37*
G36*
X68897551Y-43668051D02*
G01*
X68397449Y-43668051D01*
X68397449Y-42867949D01*
X68897551Y-42867949D01*
X68897551Y-43668051D01*
X68897551Y-43668051D01*
G37*
G36*
X70447551Y-43668051D02*
G01*
X70047449Y-43668051D01*
X70047449Y-42867949D01*
X70447551Y-42867949D01*
X70447551Y-43668051D01*
X70447551Y-43668051D01*
G37*
G36*
X71297551Y-43668051D02*
G01*
X70797449Y-43668051D01*
X70797449Y-42867949D01*
X71297551Y-42867949D01*
X71297551Y-43668051D01*
X71297551Y-43668051D01*
G37*
G36*
X77611051Y-42201205D02*
G01*
X77643777Y-42211132D01*
X77673927Y-42227248D01*
X77700360Y-42248940D01*
X77722052Y-42275373D01*
X77738168Y-42305523D01*
X77748095Y-42338249D01*
X77752051Y-42378415D01*
X77752051Y-43066185D01*
X77748095Y-43106351D01*
X77738168Y-43139077D01*
X77722052Y-43169227D01*
X77700360Y-43195660D01*
X77673927Y-43217352D01*
X77643777Y-43233468D01*
X77611051Y-43243395D01*
X77570885Y-43247351D01*
X76983115Y-43247351D01*
X76942949Y-43243395D01*
X76910223Y-43233468D01*
X76880073Y-43217352D01*
X76853640Y-43195660D01*
X76831948Y-43169227D01*
X76815832Y-43139077D01*
X76805905Y-43106351D01*
X76801949Y-43066185D01*
X76801949Y-42378415D01*
X76805905Y-42338249D01*
X76815832Y-42305523D01*
X76831948Y-42275373D01*
X76853640Y-42248940D01*
X76880073Y-42227248D01*
X76910223Y-42211132D01*
X76942949Y-42201205D01*
X76983115Y-42197249D01*
X77570885Y-42197249D01*
X77611051Y-42201205D01*
X77611051Y-42201205D01*
G37*
G36*
X80659051Y-42201205D02*
G01*
X80691777Y-42211132D01*
X80721927Y-42227248D01*
X80748360Y-42248940D01*
X80770052Y-42275373D01*
X80786168Y-42305523D01*
X80796095Y-42338249D01*
X80800051Y-42378415D01*
X80800051Y-43066185D01*
X80796095Y-43106351D01*
X80786168Y-43139077D01*
X80770052Y-43169227D01*
X80748360Y-43195660D01*
X80721927Y-43217352D01*
X80691777Y-43233468D01*
X80659051Y-43243395D01*
X80618885Y-43247351D01*
X80031115Y-43247351D01*
X79990949Y-43243395D01*
X79958223Y-43233468D01*
X79928073Y-43217352D01*
X79901640Y-43195660D01*
X79879948Y-43169227D01*
X79863832Y-43139077D01*
X79853905Y-43106351D01*
X79849949Y-43066185D01*
X79849949Y-42378415D01*
X79853905Y-42338249D01*
X79863832Y-42305523D01*
X79879948Y-42275373D01*
X79901640Y-42248940D01*
X79928073Y-42227248D01*
X79958223Y-42211132D01*
X79990949Y-42201205D01*
X80031115Y-42197249D01*
X80618885Y-42197249D01*
X80659051Y-42201205D01*
X80659051Y-42201205D01*
G37*
G36*
X79135051Y-42201205D02*
G01*
X79167777Y-42211132D01*
X79197927Y-42227248D01*
X79224360Y-42248940D01*
X79246052Y-42275373D01*
X79262168Y-42305523D01*
X79272095Y-42338249D01*
X79276051Y-42378415D01*
X79276051Y-43066185D01*
X79272095Y-43106351D01*
X79262168Y-43139077D01*
X79246052Y-43169227D01*
X79224360Y-43195660D01*
X79197927Y-43217352D01*
X79167777Y-43233468D01*
X79135051Y-43243395D01*
X79094885Y-43247351D01*
X78507115Y-43247351D01*
X78466949Y-43243395D01*
X78434223Y-43233468D01*
X78404073Y-43217352D01*
X78377640Y-43195660D01*
X78355948Y-43169227D01*
X78339832Y-43139077D01*
X78329905Y-43106351D01*
X78325949Y-43066185D01*
X78325949Y-42378415D01*
X78329905Y-42338249D01*
X78339832Y-42305523D01*
X78355948Y-42275373D01*
X78377640Y-42248940D01*
X78404073Y-42227248D01*
X78434223Y-42211132D01*
X78466949Y-42201205D01*
X78507115Y-42197249D01*
X79094885Y-42197249D01*
X79135051Y-42201205D01*
X79135051Y-42201205D01*
G37*
G36*
X82183051Y-42201205D02*
G01*
X82215777Y-42211132D01*
X82245927Y-42227248D01*
X82272360Y-42248940D01*
X82294052Y-42275373D01*
X82310168Y-42305523D01*
X82320095Y-42338249D01*
X82324051Y-42378415D01*
X82324051Y-43066185D01*
X82320095Y-43106351D01*
X82310168Y-43139077D01*
X82294052Y-43169227D01*
X82272360Y-43195660D01*
X82245927Y-43217352D01*
X82215777Y-43233468D01*
X82183051Y-43243395D01*
X82142885Y-43247351D01*
X81555115Y-43247351D01*
X81514949Y-43243395D01*
X81482223Y-43233468D01*
X81452073Y-43217352D01*
X81425640Y-43195660D01*
X81403948Y-43169227D01*
X81387832Y-43139077D01*
X81377905Y-43106351D01*
X81373949Y-43066185D01*
X81373949Y-42378415D01*
X81377905Y-42338249D01*
X81387832Y-42305523D01*
X81403948Y-42275373D01*
X81425640Y-42248940D01*
X81452073Y-42227248D01*
X81482223Y-42211132D01*
X81514949Y-42201205D01*
X81555115Y-42197249D01*
X82142885Y-42197249D01*
X82183051Y-42201205D01*
X82183051Y-42201205D01*
G37*
G36*
X68897551Y-41868051D02*
G01*
X68397449Y-41868051D01*
X68397449Y-41067949D01*
X68897551Y-41067949D01*
X68897551Y-41868051D01*
X68897551Y-41868051D01*
G37*
G36*
X71297551Y-41868051D02*
G01*
X70797449Y-41868051D01*
X70797449Y-41067949D01*
X71297551Y-41067949D01*
X71297551Y-41868051D01*
X71297551Y-41868051D01*
G37*
G36*
X69647551Y-41868051D02*
G01*
X69247449Y-41868051D01*
X69247449Y-41067949D01*
X69647551Y-41067949D01*
X69647551Y-41868051D01*
X69647551Y-41868051D01*
G37*
G36*
X70447551Y-41868051D02*
G01*
X70047449Y-41868051D01*
X70047449Y-41067949D01*
X70447551Y-41067949D01*
X70447551Y-41868051D01*
X70447551Y-41868051D01*
G37*
G36*
X80659051Y-40451205D02*
G01*
X80691777Y-40461132D01*
X80721927Y-40477248D01*
X80748360Y-40498940D01*
X80770052Y-40525373D01*
X80786168Y-40555523D01*
X80796095Y-40588249D01*
X80800051Y-40628415D01*
X80800051Y-41316185D01*
X80796095Y-41356351D01*
X80786168Y-41389077D01*
X80770052Y-41419227D01*
X80748360Y-41445660D01*
X80721927Y-41467352D01*
X80691777Y-41483468D01*
X80659051Y-41493395D01*
X80618885Y-41497351D01*
X80031115Y-41497351D01*
X79990949Y-41493395D01*
X79958223Y-41483468D01*
X79928073Y-41467352D01*
X79901640Y-41445660D01*
X79879948Y-41419227D01*
X79863832Y-41389077D01*
X79853905Y-41356351D01*
X79849949Y-41316185D01*
X79849949Y-40628415D01*
X79853905Y-40588249D01*
X79863832Y-40555523D01*
X79879948Y-40525373D01*
X79901640Y-40498940D01*
X79928073Y-40477248D01*
X79958223Y-40461132D01*
X79990949Y-40451205D01*
X80031115Y-40447249D01*
X80618885Y-40447249D01*
X80659051Y-40451205D01*
X80659051Y-40451205D01*
G37*
G36*
X79135051Y-40451205D02*
G01*
X79167777Y-40461132D01*
X79197927Y-40477248D01*
X79224360Y-40498940D01*
X79246052Y-40525373D01*
X79262168Y-40555523D01*
X79272095Y-40588249D01*
X79276051Y-40628415D01*
X79276051Y-41316185D01*
X79272095Y-41356351D01*
X79262168Y-41389077D01*
X79246052Y-41419227D01*
X79224360Y-41445660D01*
X79197927Y-41467352D01*
X79167777Y-41483468D01*
X79135051Y-41493395D01*
X79094885Y-41497351D01*
X78507115Y-41497351D01*
X78466949Y-41493395D01*
X78434223Y-41483468D01*
X78404073Y-41467352D01*
X78377640Y-41445660D01*
X78355948Y-41419227D01*
X78339832Y-41389077D01*
X78329905Y-41356351D01*
X78325949Y-41316185D01*
X78325949Y-40628415D01*
X78329905Y-40588249D01*
X78339832Y-40555523D01*
X78355948Y-40525373D01*
X78377640Y-40498940D01*
X78404073Y-40477248D01*
X78434223Y-40461132D01*
X78466949Y-40451205D01*
X78507115Y-40447249D01*
X79094885Y-40447249D01*
X79135051Y-40451205D01*
X79135051Y-40451205D01*
G37*
G36*
X82183051Y-40451205D02*
G01*
X82215777Y-40461132D01*
X82245927Y-40477248D01*
X82272360Y-40498940D01*
X82294052Y-40525373D01*
X82310168Y-40555523D01*
X82320095Y-40588249D01*
X82324051Y-40628415D01*
X82324051Y-41316185D01*
X82320095Y-41356351D01*
X82310168Y-41389077D01*
X82294052Y-41419227D01*
X82272360Y-41445660D01*
X82245927Y-41467352D01*
X82215777Y-41483468D01*
X82183051Y-41493395D01*
X82142885Y-41497351D01*
X81555115Y-41497351D01*
X81514949Y-41493395D01*
X81482223Y-41483468D01*
X81452073Y-41467352D01*
X81425640Y-41445660D01*
X81403948Y-41419227D01*
X81387832Y-41389077D01*
X81377905Y-41356351D01*
X81373949Y-41316185D01*
X81373949Y-40628415D01*
X81377905Y-40588249D01*
X81387832Y-40555523D01*
X81403948Y-40525373D01*
X81425640Y-40498940D01*
X81452073Y-40477248D01*
X81482223Y-40461132D01*
X81514949Y-40451205D01*
X81555115Y-40447249D01*
X82142885Y-40447249D01*
X82183051Y-40451205D01*
X82183051Y-40451205D01*
G37*
G36*
X77611051Y-40451205D02*
G01*
X77643777Y-40461132D01*
X77673927Y-40477248D01*
X77700360Y-40498940D01*
X77722052Y-40525373D01*
X77738168Y-40555523D01*
X77748095Y-40588249D01*
X77752051Y-40628415D01*
X77752051Y-41316185D01*
X77748095Y-41356351D01*
X77738168Y-41389077D01*
X77722052Y-41419227D01*
X77700360Y-41445660D01*
X77673927Y-41467352D01*
X77643777Y-41483468D01*
X77611051Y-41493395D01*
X77570885Y-41497351D01*
X76983115Y-41497351D01*
X76942949Y-41493395D01*
X76910223Y-41483468D01*
X76880073Y-41467352D01*
X76853640Y-41445660D01*
X76831948Y-41419227D01*
X76815832Y-41389077D01*
X76805905Y-41356351D01*
X76801949Y-41316185D01*
X76801949Y-40628415D01*
X76805905Y-40588249D01*
X76815832Y-40555523D01*
X76831948Y-40525373D01*
X76853640Y-40498940D01*
X76880073Y-40477248D01*
X76910223Y-40461132D01*
X76942949Y-40451205D01*
X76983115Y-40447249D01*
X77570885Y-40447249D01*
X77611051Y-40451205D01*
X77611051Y-40451205D01*
G37*
G36*
X39746609Y-35293286D02*
G01*
X39852873Y-35314423D01*
X40053070Y-35397347D01*
X40233242Y-35517734D01*
X40386466Y-35670958D01*
X40506853Y-35851130D01*
X40589777Y-36051327D01*
X40632051Y-36263854D01*
X40632051Y-36480546D01*
X40589777Y-36693073D01*
X40506853Y-36893270D01*
X40386466Y-37073442D01*
X40233242Y-37226666D01*
X40053070Y-37347053D01*
X39852873Y-37429977D01*
X39640347Y-37472251D01*
X39423653Y-37472251D01*
X39211127Y-37429977D01*
X39010930Y-37347053D01*
X38830758Y-37226666D01*
X38677534Y-37073442D01*
X38557147Y-36893270D01*
X38474223Y-36693073D01*
X38431949Y-36480546D01*
X38431949Y-36263854D01*
X38474223Y-36051327D01*
X38557147Y-35851130D01*
X38677534Y-35670958D01*
X38830758Y-35517734D01*
X39010930Y-35397347D01*
X39211127Y-35314423D01*
X39317391Y-35293286D01*
X39423653Y-35272149D01*
X39640347Y-35272149D01*
X39746609Y-35293286D01*
X39746609Y-35293286D01*
G37*
G36*
X82346609Y-35293286D02*
G01*
X82452873Y-35314423D01*
X82653070Y-35397347D01*
X82833242Y-35517734D01*
X82986466Y-35670958D01*
X83106853Y-35851130D01*
X83189777Y-36051327D01*
X83232051Y-36263854D01*
X83232051Y-36480546D01*
X83189777Y-36693073D01*
X83106853Y-36893270D01*
X82986466Y-37073442D01*
X82833242Y-37226666D01*
X82653070Y-37347053D01*
X82452873Y-37429977D01*
X82240347Y-37472251D01*
X82023653Y-37472251D01*
X81811127Y-37429977D01*
X81610930Y-37347053D01*
X81430758Y-37226666D01*
X81277534Y-37073442D01*
X81157147Y-36893270D01*
X81074223Y-36693073D01*
X81031949Y-36480546D01*
X81031949Y-36263854D01*
X81074223Y-36051327D01*
X81157147Y-35851130D01*
X81277534Y-35670958D01*
X81430758Y-35517734D01*
X81610930Y-35397347D01*
X81811127Y-35314423D01*
X81917391Y-35293286D01*
X82023653Y-35272149D01*
X82240347Y-35272149D01*
X82346609Y-35293286D01*
X82346609Y-35293286D01*
G37*
G36*
X70835366Y-34562894D02*
G01*
X70980965Y-34623203D01*
X70980966Y-34623204D01*
X71112003Y-34710760D01*
X71223440Y-34822197D01*
X71223441Y-34822199D01*
X71310997Y-34953235D01*
X71371306Y-35098834D01*
X71402051Y-35253401D01*
X71402051Y-35410999D01*
X71371306Y-35565566D01*
X71310997Y-35711165D01*
X71310996Y-35711166D01*
X71223440Y-35842203D01*
X71112003Y-35953640D01*
X71046039Y-35997716D01*
X70980965Y-36041197D01*
X70835366Y-36101506D01*
X70680799Y-36132251D01*
X70523201Y-36132251D01*
X70368634Y-36101506D01*
X70223035Y-36041197D01*
X70157961Y-35997716D01*
X70091997Y-35953640D01*
X69980560Y-35842203D01*
X69893004Y-35711166D01*
X69893003Y-35711165D01*
X69832694Y-35565566D01*
X69801949Y-35410999D01*
X69801949Y-35253401D01*
X69832694Y-35098834D01*
X69893003Y-34953235D01*
X69980559Y-34822199D01*
X69980560Y-34822197D01*
X70091997Y-34710760D01*
X70223034Y-34623204D01*
X70223035Y-34623203D01*
X70368634Y-34562894D01*
X70523201Y-34532149D01*
X70680799Y-34532149D01*
X70835366Y-34562894D01*
X70835366Y-34562894D01*
G37*
G36*
X58135366Y-34562894D02*
G01*
X58280965Y-34623203D01*
X58280966Y-34623204D01*
X58412003Y-34710760D01*
X58523440Y-34822197D01*
X58523441Y-34822199D01*
X58610997Y-34953235D01*
X58671306Y-35098834D01*
X58702051Y-35253401D01*
X58702051Y-35410999D01*
X58671306Y-35565566D01*
X58610997Y-35711165D01*
X58610996Y-35711166D01*
X58523440Y-35842203D01*
X58412003Y-35953640D01*
X58346039Y-35997716D01*
X58280965Y-36041197D01*
X58135366Y-36101506D01*
X57980799Y-36132251D01*
X57823201Y-36132251D01*
X57668634Y-36101506D01*
X57523035Y-36041197D01*
X57457961Y-35997716D01*
X57391997Y-35953640D01*
X57280560Y-35842203D01*
X57193004Y-35711166D01*
X57193003Y-35711165D01*
X57132694Y-35565566D01*
X57101949Y-35410999D01*
X57101949Y-35253401D01*
X57132694Y-35098834D01*
X57193003Y-34953235D01*
X57280559Y-34822199D01*
X57280560Y-34822197D01*
X57391997Y-34710760D01*
X57523034Y-34623204D01*
X57523035Y-34623203D01*
X57668634Y-34562894D01*
X57823201Y-34532149D01*
X57980799Y-34532149D01*
X58135366Y-34562894D01*
X58135366Y-34562894D01*
G37*
G36*
X73375366Y-34562894D02*
G01*
X73520965Y-34623203D01*
X73520966Y-34623204D01*
X73652003Y-34710760D01*
X73763440Y-34822197D01*
X73763441Y-34822199D01*
X73850997Y-34953235D01*
X73911306Y-35098834D01*
X73942051Y-35253401D01*
X73942051Y-35410999D01*
X73911306Y-35565566D01*
X73850997Y-35711165D01*
X73850996Y-35711166D01*
X73763440Y-35842203D01*
X73652003Y-35953640D01*
X73586039Y-35997716D01*
X73520965Y-36041197D01*
X73375366Y-36101506D01*
X73220799Y-36132251D01*
X73063201Y-36132251D01*
X72908634Y-36101506D01*
X72763035Y-36041197D01*
X72697961Y-35997716D01*
X72631997Y-35953640D01*
X72520560Y-35842203D01*
X72433004Y-35711166D01*
X72433003Y-35711165D01*
X72372694Y-35565566D01*
X72341949Y-35410999D01*
X72341949Y-35253401D01*
X72372694Y-35098834D01*
X72433003Y-34953235D01*
X72520559Y-34822199D01*
X72520560Y-34822197D01*
X72631997Y-34710760D01*
X72763034Y-34623204D01*
X72763035Y-34623203D01*
X72908634Y-34562894D01*
X73063201Y-34532149D01*
X73220799Y-34532149D01*
X73375366Y-34562894D01*
X73375366Y-34562894D01*
G37*
G36*
X55595366Y-34562894D02*
G01*
X55740965Y-34623203D01*
X55740966Y-34623204D01*
X55872003Y-34710760D01*
X55983440Y-34822197D01*
X55983441Y-34822199D01*
X56070997Y-34953235D01*
X56131306Y-35098834D01*
X56162051Y-35253401D01*
X56162051Y-35410999D01*
X56131306Y-35565566D01*
X56070997Y-35711165D01*
X56070996Y-35711166D01*
X55983440Y-35842203D01*
X55872003Y-35953640D01*
X55806039Y-35997716D01*
X55740965Y-36041197D01*
X55595366Y-36101506D01*
X55440799Y-36132251D01*
X55283201Y-36132251D01*
X55128634Y-36101506D01*
X54983035Y-36041197D01*
X54917961Y-35997716D01*
X54851997Y-35953640D01*
X54740560Y-35842203D01*
X54653004Y-35711166D01*
X54653003Y-35711165D01*
X54592694Y-35565566D01*
X54561949Y-35410999D01*
X54561949Y-35253401D01*
X54592694Y-35098834D01*
X54653003Y-34953235D01*
X54740559Y-34822199D01*
X54740560Y-34822197D01*
X54851997Y-34710760D01*
X54983034Y-34623204D01*
X54983035Y-34623203D01*
X55128634Y-34562894D01*
X55283201Y-34532149D01*
X55440799Y-34532149D01*
X55595366Y-34562894D01*
X55595366Y-34562894D01*
G37*
G36*
X75915366Y-34562894D02*
G01*
X76060965Y-34623203D01*
X76060966Y-34623204D01*
X76192003Y-34710760D01*
X76303440Y-34822197D01*
X76303441Y-34822199D01*
X76390997Y-34953235D01*
X76451306Y-35098834D01*
X76482051Y-35253401D01*
X76482051Y-35410999D01*
X76451306Y-35565566D01*
X76390997Y-35711165D01*
X76390996Y-35711166D01*
X76303440Y-35842203D01*
X76192003Y-35953640D01*
X76126039Y-35997716D01*
X76060965Y-36041197D01*
X75915366Y-36101506D01*
X75760799Y-36132251D01*
X75603201Y-36132251D01*
X75448634Y-36101506D01*
X75303035Y-36041197D01*
X75237961Y-35997716D01*
X75171997Y-35953640D01*
X75060560Y-35842203D01*
X74973004Y-35711166D01*
X74973003Y-35711165D01*
X74912694Y-35565566D01*
X74881949Y-35410999D01*
X74881949Y-35253401D01*
X74912694Y-35098834D01*
X74973003Y-34953235D01*
X75060559Y-34822199D01*
X75060560Y-34822197D01*
X75171997Y-34710760D01*
X75303034Y-34623204D01*
X75303035Y-34623203D01*
X75448634Y-34562894D01*
X75603201Y-34532149D01*
X75760799Y-34532149D01*
X75915366Y-34562894D01*
X75915366Y-34562894D01*
G37*
G36*
X53055366Y-34562894D02*
G01*
X53200965Y-34623203D01*
X53200966Y-34623204D01*
X53332003Y-34710760D01*
X53443440Y-34822197D01*
X53443441Y-34822199D01*
X53530997Y-34953235D01*
X53591306Y-35098834D01*
X53622051Y-35253401D01*
X53622051Y-35410999D01*
X53591306Y-35565566D01*
X53530997Y-35711165D01*
X53530996Y-35711166D01*
X53443440Y-35842203D01*
X53332003Y-35953640D01*
X53266039Y-35997716D01*
X53200965Y-36041197D01*
X53055366Y-36101506D01*
X52900799Y-36132251D01*
X52743201Y-36132251D01*
X52588634Y-36101506D01*
X52443035Y-36041197D01*
X52377961Y-35997716D01*
X52311997Y-35953640D01*
X52200560Y-35842203D01*
X52113004Y-35711166D01*
X52113003Y-35711165D01*
X52052694Y-35565566D01*
X52021949Y-35410999D01*
X52021949Y-35253401D01*
X52052694Y-35098834D01*
X52113003Y-34953235D01*
X52200559Y-34822199D01*
X52200560Y-34822197D01*
X52311997Y-34710760D01*
X52443034Y-34623204D01*
X52443035Y-34623203D01*
X52588634Y-34562894D01*
X52743201Y-34532149D01*
X52900799Y-34532149D01*
X53055366Y-34562894D01*
X53055366Y-34562894D01*
G37*
G36*
X49555366Y-34562894D02*
G01*
X49700965Y-34623203D01*
X49700966Y-34623204D01*
X49832003Y-34710760D01*
X49943440Y-34822197D01*
X49943441Y-34822199D01*
X50030997Y-34953235D01*
X50091306Y-35098834D01*
X50122051Y-35253401D01*
X50122051Y-35410999D01*
X50091306Y-35565566D01*
X50030997Y-35711165D01*
X50030996Y-35711166D01*
X49943440Y-35842203D01*
X49832003Y-35953640D01*
X49766039Y-35997716D01*
X49700965Y-36041197D01*
X49555366Y-36101506D01*
X49400799Y-36132251D01*
X49243201Y-36132251D01*
X49088634Y-36101506D01*
X48943035Y-36041197D01*
X48877961Y-35997716D01*
X48811997Y-35953640D01*
X48700560Y-35842203D01*
X48613004Y-35711166D01*
X48613003Y-35711165D01*
X48552694Y-35565566D01*
X48521949Y-35410999D01*
X48521949Y-35253401D01*
X48552694Y-35098834D01*
X48613003Y-34953235D01*
X48700559Y-34822199D01*
X48700560Y-34822197D01*
X48811997Y-34710760D01*
X48943034Y-34623204D01*
X48943035Y-34623203D01*
X49088634Y-34562894D01*
X49243201Y-34532149D01*
X49400799Y-34532149D01*
X49555366Y-34562894D01*
X49555366Y-34562894D01*
G37*
G36*
X60675366Y-34562894D02*
G01*
X60820965Y-34623203D01*
X60820966Y-34623204D01*
X60952003Y-34710760D01*
X61063440Y-34822197D01*
X61063441Y-34822199D01*
X61150997Y-34953235D01*
X61211306Y-35098834D01*
X61242051Y-35253401D01*
X61242051Y-35410999D01*
X61211306Y-35565566D01*
X61150997Y-35711165D01*
X61150996Y-35711166D01*
X61063440Y-35842203D01*
X60952003Y-35953640D01*
X60886039Y-35997716D01*
X60820965Y-36041197D01*
X60675366Y-36101506D01*
X60520799Y-36132251D01*
X60363201Y-36132251D01*
X60208634Y-36101506D01*
X60063035Y-36041197D01*
X59997961Y-35997716D01*
X59931997Y-35953640D01*
X59820560Y-35842203D01*
X59733004Y-35711166D01*
X59733003Y-35711165D01*
X59672694Y-35565566D01*
X59641949Y-35410999D01*
X59641949Y-35253401D01*
X59672694Y-35098834D01*
X59733003Y-34953235D01*
X59820559Y-34822199D01*
X59820560Y-34822197D01*
X59931997Y-34710760D01*
X60063034Y-34623204D01*
X60063035Y-34623203D01*
X60208634Y-34562894D01*
X60363201Y-34532149D01*
X60520799Y-34532149D01*
X60675366Y-34562894D01*
X60675366Y-34562894D01*
G37*
G36*
X63215366Y-34562894D02*
G01*
X63360965Y-34623203D01*
X63360966Y-34623204D01*
X63492003Y-34710760D01*
X63603440Y-34822197D01*
X63603441Y-34822199D01*
X63690997Y-34953235D01*
X63751306Y-35098834D01*
X63782051Y-35253401D01*
X63782051Y-35410999D01*
X63751306Y-35565566D01*
X63690997Y-35711165D01*
X63690996Y-35711166D01*
X63603440Y-35842203D01*
X63492003Y-35953640D01*
X63426039Y-35997716D01*
X63360965Y-36041197D01*
X63215366Y-36101506D01*
X63060799Y-36132251D01*
X62903201Y-36132251D01*
X62748634Y-36101506D01*
X62603035Y-36041197D01*
X62537961Y-35997716D01*
X62471997Y-35953640D01*
X62360560Y-35842203D01*
X62273004Y-35711166D01*
X62273003Y-35711165D01*
X62212694Y-35565566D01*
X62181949Y-35410999D01*
X62181949Y-35253401D01*
X62212694Y-35098834D01*
X62273003Y-34953235D01*
X62360559Y-34822199D01*
X62360560Y-34822197D01*
X62471997Y-34710760D01*
X62603034Y-34623204D01*
X62603035Y-34623203D01*
X62748634Y-34562894D01*
X62903201Y-34532149D01*
X63060799Y-34532149D01*
X63215366Y-34562894D01*
X63215366Y-34562894D01*
G37*
G36*
X65755366Y-34562894D02*
G01*
X65900965Y-34623203D01*
X65900966Y-34623204D01*
X66032003Y-34710760D01*
X66143440Y-34822197D01*
X66143441Y-34822199D01*
X66230997Y-34953235D01*
X66291306Y-35098834D01*
X66322051Y-35253401D01*
X66322051Y-35410999D01*
X66291306Y-35565566D01*
X66230997Y-35711165D01*
X66230996Y-35711166D01*
X66143440Y-35842203D01*
X66032003Y-35953640D01*
X65966039Y-35997716D01*
X65900965Y-36041197D01*
X65755366Y-36101506D01*
X65600799Y-36132251D01*
X65443201Y-36132251D01*
X65288634Y-36101506D01*
X65143035Y-36041197D01*
X65077961Y-35997716D01*
X65011997Y-35953640D01*
X64900560Y-35842203D01*
X64813004Y-35711166D01*
X64813003Y-35711165D01*
X64752694Y-35565566D01*
X64721949Y-35410999D01*
X64721949Y-35253401D01*
X64752694Y-35098834D01*
X64813003Y-34953235D01*
X64900559Y-34822199D01*
X64900560Y-34822197D01*
X65011997Y-34710760D01*
X65143034Y-34623204D01*
X65143035Y-34623203D01*
X65288634Y-34562894D01*
X65443201Y-34532149D01*
X65600799Y-34532149D01*
X65755366Y-34562894D01*
X65755366Y-34562894D01*
G37*
G36*
X45855366Y-34562894D02*
G01*
X46000965Y-34623203D01*
X46000966Y-34623204D01*
X46132003Y-34710760D01*
X46243440Y-34822197D01*
X46243441Y-34822199D01*
X46330997Y-34953235D01*
X46391306Y-35098834D01*
X46422051Y-35253401D01*
X46422051Y-35410999D01*
X46391306Y-35565566D01*
X46330997Y-35711165D01*
X46330996Y-35711166D01*
X46243440Y-35842203D01*
X46132003Y-35953640D01*
X46066039Y-35997716D01*
X46000965Y-36041197D01*
X45855366Y-36101506D01*
X45700799Y-36132251D01*
X45543201Y-36132251D01*
X45388634Y-36101506D01*
X45243035Y-36041197D01*
X45177961Y-35997716D01*
X45111997Y-35953640D01*
X45000560Y-35842203D01*
X44913004Y-35711166D01*
X44913003Y-35711165D01*
X44852694Y-35565566D01*
X44821949Y-35410999D01*
X44821949Y-35253401D01*
X44852694Y-35098834D01*
X44913003Y-34953235D01*
X45000559Y-34822199D01*
X45000560Y-34822197D01*
X45111997Y-34710760D01*
X45243034Y-34623204D01*
X45243035Y-34623203D01*
X45388634Y-34562894D01*
X45543201Y-34532149D01*
X45700799Y-34532149D01*
X45855366Y-34562894D01*
X45855366Y-34562894D01*
G37*
G36*
X68295366Y-34562894D02*
G01*
X68440965Y-34623203D01*
X68440966Y-34623204D01*
X68572003Y-34710760D01*
X68683440Y-34822197D01*
X68683441Y-34822199D01*
X68770997Y-34953235D01*
X68831306Y-35098834D01*
X68862051Y-35253401D01*
X68862051Y-35410999D01*
X68831306Y-35565566D01*
X68770997Y-35711165D01*
X68770996Y-35711166D01*
X68683440Y-35842203D01*
X68572003Y-35953640D01*
X68506039Y-35997716D01*
X68440965Y-36041197D01*
X68295366Y-36101506D01*
X68140799Y-36132251D01*
X67983201Y-36132251D01*
X67828634Y-36101506D01*
X67683035Y-36041197D01*
X67617961Y-35997716D01*
X67551997Y-35953640D01*
X67440560Y-35842203D01*
X67353004Y-35711166D01*
X67353003Y-35711165D01*
X67292694Y-35565566D01*
X67261949Y-35410999D01*
X67261949Y-35253401D01*
X67292694Y-35098834D01*
X67353003Y-34953235D01*
X67440559Y-34822199D01*
X67440560Y-34822197D01*
X67551997Y-34710760D01*
X67683034Y-34623204D01*
X67683035Y-34623203D01*
X67828634Y-34562894D01*
X67983201Y-34532149D01*
X68140799Y-34532149D01*
X68295366Y-34562894D01*
X68295366Y-34562894D01*
G37*
G36*
X86622190Y-30560579D02*
G01*
X86815393Y-30599010D01*
X86893022Y-30631165D01*
X87179378Y-30749777D01*
X87342056Y-30858475D01*
X87506958Y-30968659D01*
X87785541Y-31247242D01*
X87785542Y-31247244D01*
X88004423Y-31574822D01*
X88155190Y-31938808D01*
X88232051Y-32325211D01*
X88232051Y-32719189D01*
X88155190Y-33105592D01*
X88004423Y-33469578D01*
X87922455Y-33592251D01*
X87785541Y-33797158D01*
X87506958Y-34075741D01*
X87342056Y-34185925D01*
X87179378Y-34294623D01*
X86966160Y-34382940D01*
X86815393Y-34445390D01*
X86622191Y-34483820D01*
X86428989Y-34522251D01*
X86035011Y-34522251D01*
X85841809Y-34483820D01*
X85648607Y-34445390D01*
X85497840Y-34382940D01*
X85284622Y-34294623D01*
X85121944Y-34185925D01*
X84957042Y-34075741D01*
X84678459Y-33797158D01*
X84541545Y-33592251D01*
X84459577Y-33469578D01*
X84308810Y-33105592D01*
X84231949Y-32719189D01*
X84231949Y-32325211D01*
X84308810Y-31938808D01*
X84459577Y-31574822D01*
X84678458Y-31247244D01*
X84678459Y-31247242D01*
X84957042Y-30968659D01*
X85121944Y-30858475D01*
X85284622Y-30749777D01*
X85570978Y-30631165D01*
X85648607Y-30599010D01*
X85841810Y-30560579D01*
X86035011Y-30522149D01*
X86428989Y-30522149D01*
X86622190Y-30560579D01*
X86622190Y-30560579D01*
G37*
G36*
X35822190Y-30560579D02*
G01*
X36015393Y-30599010D01*
X36093022Y-30631165D01*
X36379378Y-30749777D01*
X36542056Y-30858475D01*
X36706958Y-30968659D01*
X36985541Y-31247242D01*
X36985542Y-31247244D01*
X37204423Y-31574822D01*
X37355190Y-31938808D01*
X37432051Y-32325211D01*
X37432051Y-32719189D01*
X37355190Y-33105592D01*
X37204423Y-33469578D01*
X37122455Y-33592251D01*
X36985541Y-33797158D01*
X36706958Y-34075741D01*
X36542056Y-34185925D01*
X36379378Y-34294623D01*
X36166160Y-34382940D01*
X36015393Y-34445390D01*
X35822191Y-34483820D01*
X35628989Y-34522251D01*
X35235011Y-34522251D01*
X35041809Y-34483820D01*
X34848607Y-34445390D01*
X34697840Y-34382940D01*
X34484622Y-34294623D01*
X34321944Y-34185925D01*
X34157042Y-34075741D01*
X33878459Y-33797158D01*
X33741545Y-33592251D01*
X33659577Y-33469578D01*
X33508810Y-33105592D01*
X33431949Y-32719189D01*
X33431949Y-32325211D01*
X33508810Y-31938808D01*
X33659577Y-31574822D01*
X33878458Y-31247244D01*
X33878459Y-31247242D01*
X34157042Y-30968659D01*
X34321944Y-30858475D01*
X34484622Y-30749777D01*
X34770978Y-30631165D01*
X34848607Y-30599010D01*
X35041810Y-30560579D01*
X35235011Y-30522149D01*
X35628989Y-30522149D01*
X35822190Y-30560579D01*
X35822190Y-30560579D01*
G37*
G36*
X63215366Y-32022894D02*
G01*
X63360965Y-32083203D01*
X63360966Y-32083204D01*
X63492003Y-32170760D01*
X63603440Y-32282197D01*
X63603441Y-32282199D01*
X63690997Y-32413235D01*
X63751306Y-32558834D01*
X63782051Y-32713401D01*
X63782051Y-32870999D01*
X63751306Y-33025566D01*
X63690997Y-33171165D01*
X63690996Y-33171166D01*
X63603440Y-33302203D01*
X63492003Y-33413640D01*
X63426039Y-33457716D01*
X63360965Y-33501197D01*
X63215366Y-33561506D01*
X63060799Y-33592251D01*
X62903201Y-33592251D01*
X62748634Y-33561506D01*
X62603035Y-33501197D01*
X62537961Y-33457716D01*
X62471997Y-33413640D01*
X62360560Y-33302203D01*
X62273004Y-33171166D01*
X62273003Y-33171165D01*
X62212694Y-33025566D01*
X62181949Y-32870999D01*
X62181949Y-32713401D01*
X62212694Y-32558834D01*
X62273003Y-32413235D01*
X62360559Y-32282199D01*
X62360560Y-32282197D01*
X62471997Y-32170760D01*
X62603034Y-32083204D01*
X62603035Y-32083203D01*
X62748634Y-32022894D01*
X62903201Y-31992149D01*
X63060799Y-31992149D01*
X63215366Y-32022894D01*
X63215366Y-32022894D01*
G37*
G36*
X45855366Y-32022894D02*
G01*
X46000965Y-32083203D01*
X46000966Y-32083204D01*
X46132003Y-32170760D01*
X46243440Y-32282197D01*
X46243441Y-32282199D01*
X46330997Y-32413235D01*
X46391306Y-32558834D01*
X46422051Y-32713401D01*
X46422051Y-32870999D01*
X46391306Y-33025566D01*
X46330997Y-33171165D01*
X46330996Y-33171166D01*
X46243440Y-33302203D01*
X46132003Y-33413640D01*
X46066039Y-33457716D01*
X46000965Y-33501197D01*
X45855366Y-33561506D01*
X45700799Y-33592251D01*
X45543201Y-33592251D01*
X45388634Y-33561506D01*
X45243035Y-33501197D01*
X45177961Y-33457716D01*
X45111997Y-33413640D01*
X45000560Y-33302203D01*
X44913004Y-33171166D01*
X44913003Y-33171165D01*
X44852694Y-33025566D01*
X44821949Y-32870999D01*
X44821949Y-32713401D01*
X44852694Y-32558834D01*
X44913003Y-32413235D01*
X45000559Y-32282199D01*
X45000560Y-32282197D01*
X45111997Y-32170760D01*
X45243034Y-32083204D01*
X45243035Y-32083203D01*
X45388634Y-32022894D01*
X45543201Y-31992149D01*
X45700799Y-31992149D01*
X45855366Y-32022894D01*
X45855366Y-32022894D01*
G37*
G36*
X53055366Y-32022894D02*
G01*
X53200965Y-32083203D01*
X53200966Y-32083204D01*
X53332003Y-32170760D01*
X53443440Y-32282197D01*
X53443441Y-32282199D01*
X53530997Y-32413235D01*
X53591306Y-32558834D01*
X53622051Y-32713401D01*
X53622051Y-32870999D01*
X53591306Y-33025566D01*
X53530997Y-33171165D01*
X53530996Y-33171166D01*
X53443440Y-33302203D01*
X53332003Y-33413640D01*
X53266039Y-33457716D01*
X53200965Y-33501197D01*
X53055366Y-33561506D01*
X52900799Y-33592251D01*
X52743201Y-33592251D01*
X52588634Y-33561506D01*
X52443035Y-33501197D01*
X52377961Y-33457716D01*
X52311997Y-33413640D01*
X52200560Y-33302203D01*
X52113004Y-33171166D01*
X52113003Y-33171165D01*
X52052694Y-33025566D01*
X52021949Y-32870999D01*
X52021949Y-32713401D01*
X52052694Y-32558834D01*
X52113003Y-32413235D01*
X52200559Y-32282199D01*
X52200560Y-32282197D01*
X52311997Y-32170760D01*
X52443034Y-32083204D01*
X52443035Y-32083203D01*
X52588634Y-32022894D01*
X52743201Y-31992149D01*
X52900799Y-31992149D01*
X53055366Y-32022894D01*
X53055366Y-32022894D01*
G37*
G36*
X75915366Y-32022894D02*
G01*
X76060965Y-32083203D01*
X76060966Y-32083204D01*
X76192003Y-32170760D01*
X76303440Y-32282197D01*
X76303441Y-32282199D01*
X76390997Y-32413235D01*
X76451306Y-32558834D01*
X76482051Y-32713401D01*
X76482051Y-32870999D01*
X76451306Y-33025566D01*
X76390997Y-33171165D01*
X76390996Y-33171166D01*
X76303440Y-33302203D01*
X76192003Y-33413640D01*
X76126039Y-33457716D01*
X76060965Y-33501197D01*
X75915366Y-33561506D01*
X75760799Y-33592251D01*
X75603201Y-33592251D01*
X75448634Y-33561506D01*
X75303035Y-33501197D01*
X75237961Y-33457716D01*
X75171997Y-33413640D01*
X75060560Y-33302203D01*
X74973004Y-33171166D01*
X74973003Y-33171165D01*
X74912694Y-33025566D01*
X74881949Y-32870999D01*
X74881949Y-32713401D01*
X74912694Y-32558834D01*
X74973003Y-32413235D01*
X75060559Y-32282199D01*
X75060560Y-32282197D01*
X75171997Y-32170760D01*
X75303034Y-32083204D01*
X75303035Y-32083203D01*
X75448634Y-32022894D01*
X75603201Y-31992149D01*
X75760799Y-31992149D01*
X75915366Y-32022894D01*
X75915366Y-32022894D01*
G37*
G36*
X73375366Y-32022894D02*
G01*
X73520965Y-32083203D01*
X73520966Y-32083204D01*
X73652003Y-32170760D01*
X73763440Y-32282197D01*
X73763441Y-32282199D01*
X73850997Y-32413235D01*
X73911306Y-32558834D01*
X73942051Y-32713401D01*
X73942051Y-32870999D01*
X73911306Y-33025566D01*
X73850997Y-33171165D01*
X73850996Y-33171166D01*
X73763440Y-33302203D01*
X73652003Y-33413640D01*
X73586039Y-33457716D01*
X73520965Y-33501197D01*
X73375366Y-33561506D01*
X73220799Y-33592251D01*
X73063201Y-33592251D01*
X72908634Y-33561506D01*
X72763035Y-33501197D01*
X72697961Y-33457716D01*
X72631997Y-33413640D01*
X72520560Y-33302203D01*
X72433004Y-33171166D01*
X72433003Y-33171165D01*
X72372694Y-33025566D01*
X72341949Y-32870999D01*
X72341949Y-32713401D01*
X72372694Y-32558834D01*
X72433003Y-32413235D01*
X72520559Y-32282199D01*
X72520560Y-32282197D01*
X72631997Y-32170760D01*
X72763034Y-32083204D01*
X72763035Y-32083203D01*
X72908634Y-32022894D01*
X73063201Y-31992149D01*
X73220799Y-31992149D01*
X73375366Y-32022894D01*
X73375366Y-32022894D01*
G37*
G36*
X60675366Y-32022894D02*
G01*
X60820965Y-32083203D01*
X60820966Y-32083204D01*
X60952003Y-32170760D01*
X61063440Y-32282197D01*
X61063441Y-32282199D01*
X61150997Y-32413235D01*
X61211306Y-32558834D01*
X61242051Y-32713401D01*
X61242051Y-32870999D01*
X61211306Y-33025566D01*
X61150997Y-33171165D01*
X61150996Y-33171166D01*
X61063440Y-33302203D01*
X60952003Y-33413640D01*
X60886039Y-33457716D01*
X60820965Y-33501197D01*
X60675366Y-33561506D01*
X60520799Y-33592251D01*
X60363201Y-33592251D01*
X60208634Y-33561506D01*
X60063035Y-33501197D01*
X59997961Y-33457716D01*
X59931997Y-33413640D01*
X59820560Y-33302203D01*
X59733004Y-33171166D01*
X59733003Y-33171165D01*
X59672694Y-33025566D01*
X59641949Y-32870999D01*
X59641949Y-32713401D01*
X59672694Y-32558834D01*
X59733003Y-32413235D01*
X59820559Y-32282199D01*
X59820560Y-32282197D01*
X59931997Y-32170760D01*
X60063034Y-32083204D01*
X60063035Y-32083203D01*
X60208634Y-32022894D01*
X60363201Y-31992149D01*
X60520799Y-31992149D01*
X60675366Y-32022894D01*
X60675366Y-32022894D01*
G37*
G36*
X58135366Y-32022894D02*
G01*
X58280965Y-32083203D01*
X58280966Y-32083204D01*
X58412003Y-32170760D01*
X58523440Y-32282197D01*
X58523441Y-32282199D01*
X58610997Y-32413235D01*
X58671306Y-32558834D01*
X58702051Y-32713401D01*
X58702051Y-32870999D01*
X58671306Y-33025566D01*
X58610997Y-33171165D01*
X58610996Y-33171166D01*
X58523440Y-33302203D01*
X58412003Y-33413640D01*
X58346039Y-33457716D01*
X58280965Y-33501197D01*
X58135366Y-33561506D01*
X57980799Y-33592251D01*
X57823201Y-33592251D01*
X57668634Y-33561506D01*
X57523035Y-33501197D01*
X57457961Y-33457716D01*
X57391997Y-33413640D01*
X57280560Y-33302203D01*
X57193004Y-33171166D01*
X57193003Y-33171165D01*
X57132694Y-33025566D01*
X57101949Y-32870999D01*
X57101949Y-32713401D01*
X57132694Y-32558834D01*
X57193003Y-32413235D01*
X57280559Y-32282199D01*
X57280560Y-32282197D01*
X57391997Y-32170760D01*
X57523034Y-32083204D01*
X57523035Y-32083203D01*
X57668634Y-32022894D01*
X57823201Y-31992149D01*
X57980799Y-31992149D01*
X58135366Y-32022894D01*
X58135366Y-32022894D01*
G37*
G36*
X65755366Y-32022894D02*
G01*
X65900965Y-32083203D01*
X65900966Y-32083204D01*
X66032003Y-32170760D01*
X66143440Y-32282197D01*
X66143441Y-32282199D01*
X66230997Y-32413235D01*
X66291306Y-32558834D01*
X66322051Y-32713401D01*
X66322051Y-32870999D01*
X66291306Y-33025566D01*
X66230997Y-33171165D01*
X66230996Y-33171166D01*
X66143440Y-33302203D01*
X66032003Y-33413640D01*
X65966039Y-33457716D01*
X65900965Y-33501197D01*
X65755366Y-33561506D01*
X65600799Y-33592251D01*
X65443201Y-33592251D01*
X65288634Y-33561506D01*
X65143035Y-33501197D01*
X65077961Y-33457716D01*
X65011997Y-33413640D01*
X64900560Y-33302203D01*
X64813004Y-33171166D01*
X64813003Y-33171165D01*
X64752694Y-33025566D01*
X64721949Y-32870999D01*
X64721949Y-32713401D01*
X64752694Y-32558834D01*
X64813003Y-32413235D01*
X64900559Y-32282199D01*
X64900560Y-32282197D01*
X65011997Y-32170760D01*
X65143034Y-32083204D01*
X65143035Y-32083203D01*
X65288634Y-32022894D01*
X65443201Y-31992149D01*
X65600799Y-31992149D01*
X65755366Y-32022894D01*
X65755366Y-32022894D01*
G37*
G36*
X49555366Y-32022894D02*
G01*
X49700965Y-32083203D01*
X49700966Y-32083204D01*
X49832003Y-32170760D01*
X49943440Y-32282197D01*
X49943441Y-32282199D01*
X50030997Y-32413235D01*
X50091306Y-32558834D01*
X50122051Y-32713401D01*
X50122051Y-32870999D01*
X50091306Y-33025566D01*
X50030997Y-33171165D01*
X50030996Y-33171166D01*
X49943440Y-33302203D01*
X49832003Y-33413640D01*
X49766039Y-33457716D01*
X49700965Y-33501197D01*
X49555366Y-33561506D01*
X49400799Y-33592251D01*
X49243201Y-33592251D01*
X49088634Y-33561506D01*
X48943035Y-33501197D01*
X48877961Y-33457716D01*
X48811997Y-33413640D01*
X48700560Y-33302203D01*
X48613004Y-33171166D01*
X48613003Y-33171165D01*
X48552694Y-33025566D01*
X48521949Y-32870999D01*
X48521949Y-32713401D01*
X48552694Y-32558834D01*
X48613003Y-32413235D01*
X48700559Y-32282199D01*
X48700560Y-32282197D01*
X48811997Y-32170760D01*
X48943034Y-32083204D01*
X48943035Y-32083203D01*
X49088634Y-32022894D01*
X49243201Y-31992149D01*
X49400799Y-31992149D01*
X49555366Y-32022894D01*
X49555366Y-32022894D01*
G37*
G36*
X70835366Y-32022894D02*
G01*
X70980965Y-32083203D01*
X70980966Y-32083204D01*
X71112003Y-32170760D01*
X71223440Y-32282197D01*
X71223441Y-32282199D01*
X71310997Y-32413235D01*
X71371306Y-32558834D01*
X71402051Y-32713401D01*
X71402051Y-32870999D01*
X71371306Y-33025566D01*
X71310997Y-33171165D01*
X71310996Y-33171166D01*
X71223440Y-33302203D01*
X71112003Y-33413640D01*
X71046039Y-33457716D01*
X70980965Y-33501197D01*
X70835366Y-33561506D01*
X70680799Y-33592251D01*
X70523201Y-33592251D01*
X70368634Y-33561506D01*
X70223035Y-33501197D01*
X70157961Y-33457716D01*
X70091997Y-33413640D01*
X69980560Y-33302203D01*
X69893004Y-33171166D01*
X69893003Y-33171165D01*
X69832694Y-33025566D01*
X69801949Y-32870999D01*
X69801949Y-32713401D01*
X69832694Y-32558834D01*
X69893003Y-32413235D01*
X69980559Y-32282199D01*
X69980560Y-32282197D01*
X70091997Y-32170760D01*
X70223034Y-32083204D01*
X70223035Y-32083203D01*
X70368634Y-32022894D01*
X70523201Y-31992149D01*
X70680799Y-31992149D01*
X70835366Y-32022894D01*
X70835366Y-32022894D01*
G37*
G36*
X55595366Y-32022894D02*
G01*
X55740965Y-32083203D01*
X55740966Y-32083204D01*
X55872003Y-32170760D01*
X55983440Y-32282197D01*
X55983441Y-32282199D01*
X56070997Y-32413235D01*
X56131306Y-32558834D01*
X56162051Y-32713401D01*
X56162051Y-32870999D01*
X56131306Y-33025566D01*
X56070997Y-33171165D01*
X56070996Y-33171166D01*
X55983440Y-33302203D01*
X55872003Y-33413640D01*
X55806039Y-33457716D01*
X55740965Y-33501197D01*
X55595366Y-33561506D01*
X55440799Y-33592251D01*
X55283201Y-33592251D01*
X55128634Y-33561506D01*
X54983035Y-33501197D01*
X54917961Y-33457716D01*
X54851997Y-33413640D01*
X54740560Y-33302203D01*
X54653004Y-33171166D01*
X54653003Y-33171165D01*
X54592694Y-33025566D01*
X54561949Y-32870999D01*
X54561949Y-32713401D01*
X54592694Y-32558834D01*
X54653003Y-32413235D01*
X54740559Y-32282199D01*
X54740560Y-32282197D01*
X54851997Y-32170760D01*
X54983034Y-32083204D01*
X54983035Y-32083203D01*
X55128634Y-32022894D01*
X55283201Y-31992149D01*
X55440799Y-31992149D01*
X55595366Y-32022894D01*
X55595366Y-32022894D01*
G37*
G36*
X68295366Y-32022894D02*
G01*
X68440965Y-32083203D01*
X68440966Y-32083204D01*
X68572003Y-32170760D01*
X68683440Y-32282197D01*
X68683441Y-32282199D01*
X68770997Y-32413235D01*
X68831306Y-32558834D01*
X68862051Y-32713401D01*
X68862051Y-32870999D01*
X68831306Y-33025566D01*
X68770997Y-33171165D01*
X68770996Y-33171166D01*
X68683440Y-33302203D01*
X68572003Y-33413640D01*
X68506039Y-33457716D01*
X68440965Y-33501197D01*
X68295366Y-33561506D01*
X68140799Y-33592251D01*
X67983201Y-33592251D01*
X67828634Y-33561506D01*
X67683035Y-33501197D01*
X67617961Y-33457716D01*
X67551997Y-33413640D01*
X67440560Y-33302203D01*
X67353004Y-33171166D01*
X67353003Y-33171165D01*
X67292694Y-33025566D01*
X67261949Y-32870999D01*
X67261949Y-32713401D01*
X67292694Y-32558834D01*
X67353003Y-32413235D01*
X67440559Y-32282199D01*
X67440560Y-32282197D01*
X67551997Y-32170760D01*
X67683034Y-32083204D01*
X67683035Y-32083203D01*
X67828634Y-32022894D01*
X67983201Y-31992149D01*
X68140799Y-31992149D01*
X68295366Y-32022894D01*
X68295366Y-32022894D01*
G37*
G36*
X65755366Y-29482894D02*
G01*
X65900965Y-29543203D01*
X65900966Y-29543204D01*
X66032003Y-29630760D01*
X66143440Y-29742197D01*
X66143441Y-29742199D01*
X66230997Y-29873235D01*
X66291306Y-30018834D01*
X66322051Y-30173401D01*
X66322051Y-30330999D01*
X66291306Y-30485566D01*
X66230997Y-30631165D01*
X66230996Y-30631166D01*
X66143440Y-30762203D01*
X66032003Y-30873640D01*
X65966039Y-30917716D01*
X65900965Y-30961197D01*
X65755366Y-31021506D01*
X65600799Y-31052251D01*
X65443201Y-31052251D01*
X65288634Y-31021506D01*
X65143035Y-30961197D01*
X65077961Y-30917716D01*
X65011997Y-30873640D01*
X64900560Y-30762203D01*
X64813004Y-30631166D01*
X64813003Y-30631165D01*
X64752694Y-30485566D01*
X64721949Y-30330999D01*
X64721949Y-30173401D01*
X64752694Y-30018834D01*
X64813003Y-29873235D01*
X64900559Y-29742199D01*
X64900560Y-29742197D01*
X65011997Y-29630760D01*
X65143034Y-29543204D01*
X65143035Y-29543203D01*
X65288634Y-29482894D01*
X65443201Y-29452149D01*
X65600799Y-29452149D01*
X65755366Y-29482894D01*
X65755366Y-29482894D01*
G37*
G36*
X49555366Y-29482894D02*
G01*
X49700965Y-29543203D01*
X49700966Y-29543204D01*
X49832003Y-29630760D01*
X49943440Y-29742197D01*
X49943441Y-29742199D01*
X50030997Y-29873235D01*
X50091306Y-30018834D01*
X50122051Y-30173401D01*
X50122051Y-30330999D01*
X50091306Y-30485566D01*
X50030997Y-30631165D01*
X50030996Y-30631166D01*
X49943440Y-30762203D01*
X49832003Y-30873640D01*
X49766039Y-30917716D01*
X49700965Y-30961197D01*
X49555366Y-31021506D01*
X49400799Y-31052251D01*
X49243201Y-31052251D01*
X49088634Y-31021506D01*
X48943035Y-30961197D01*
X48877961Y-30917716D01*
X48811997Y-30873640D01*
X48700560Y-30762203D01*
X48613004Y-30631166D01*
X48613003Y-30631165D01*
X48552694Y-30485566D01*
X48521949Y-30330999D01*
X48521949Y-30173401D01*
X48552694Y-30018834D01*
X48613003Y-29873235D01*
X48700559Y-29742199D01*
X48700560Y-29742197D01*
X48811997Y-29630760D01*
X48943034Y-29543204D01*
X48943035Y-29543203D01*
X49088634Y-29482894D01*
X49243201Y-29452149D01*
X49400799Y-29452149D01*
X49555366Y-29482894D01*
X49555366Y-29482894D01*
G37*
G36*
X58135366Y-29482894D02*
G01*
X58280965Y-29543203D01*
X58280966Y-29543204D01*
X58412003Y-29630760D01*
X58523440Y-29742197D01*
X58523441Y-29742199D01*
X58610997Y-29873235D01*
X58671306Y-30018834D01*
X58702051Y-30173401D01*
X58702051Y-30330999D01*
X58671306Y-30485566D01*
X58610997Y-30631165D01*
X58610996Y-30631166D01*
X58523440Y-30762203D01*
X58412003Y-30873640D01*
X58346039Y-30917716D01*
X58280965Y-30961197D01*
X58135366Y-31021506D01*
X57980799Y-31052251D01*
X57823201Y-31052251D01*
X57668634Y-31021506D01*
X57523035Y-30961197D01*
X57457961Y-30917716D01*
X57391997Y-30873640D01*
X57280560Y-30762203D01*
X57193004Y-30631166D01*
X57193003Y-30631165D01*
X57132694Y-30485566D01*
X57101949Y-30330999D01*
X57101949Y-30173401D01*
X57132694Y-30018834D01*
X57193003Y-29873235D01*
X57280559Y-29742199D01*
X57280560Y-29742197D01*
X57391997Y-29630760D01*
X57523034Y-29543204D01*
X57523035Y-29543203D01*
X57668634Y-29482894D01*
X57823201Y-29452149D01*
X57980799Y-29452149D01*
X58135366Y-29482894D01*
X58135366Y-29482894D01*
G37*
G36*
X70835366Y-29482894D02*
G01*
X70980965Y-29543203D01*
X70980966Y-29543204D01*
X71112003Y-29630760D01*
X71223440Y-29742197D01*
X71223441Y-29742199D01*
X71310997Y-29873235D01*
X71371306Y-30018834D01*
X71402051Y-30173401D01*
X71402051Y-30330999D01*
X71371306Y-30485566D01*
X71310997Y-30631165D01*
X71310996Y-30631166D01*
X71223440Y-30762203D01*
X71112003Y-30873640D01*
X71046039Y-30917716D01*
X70980965Y-30961197D01*
X70835366Y-31021506D01*
X70680799Y-31052251D01*
X70523201Y-31052251D01*
X70368634Y-31021506D01*
X70223035Y-30961197D01*
X70157961Y-30917716D01*
X70091997Y-30873640D01*
X69980560Y-30762203D01*
X69893004Y-30631166D01*
X69893003Y-30631165D01*
X69832694Y-30485566D01*
X69801949Y-30330999D01*
X69801949Y-30173401D01*
X69832694Y-30018834D01*
X69893003Y-29873235D01*
X69980559Y-29742199D01*
X69980560Y-29742197D01*
X70091997Y-29630760D01*
X70223034Y-29543204D01*
X70223035Y-29543203D01*
X70368634Y-29482894D01*
X70523201Y-29452149D01*
X70680799Y-29452149D01*
X70835366Y-29482894D01*
X70835366Y-29482894D01*
G37*
G36*
X60675366Y-29482894D02*
G01*
X60820965Y-29543203D01*
X60820966Y-29543204D01*
X60952003Y-29630760D01*
X61063440Y-29742197D01*
X61063441Y-29742199D01*
X61150997Y-29873235D01*
X61211306Y-30018834D01*
X61242051Y-30173401D01*
X61242051Y-30330999D01*
X61211306Y-30485566D01*
X61150997Y-30631165D01*
X61150996Y-30631166D01*
X61063440Y-30762203D01*
X60952003Y-30873640D01*
X60886039Y-30917716D01*
X60820965Y-30961197D01*
X60675366Y-31021506D01*
X60520799Y-31052251D01*
X60363201Y-31052251D01*
X60208634Y-31021506D01*
X60063035Y-30961197D01*
X59997961Y-30917716D01*
X59931997Y-30873640D01*
X59820560Y-30762203D01*
X59733004Y-30631166D01*
X59733003Y-30631165D01*
X59672694Y-30485566D01*
X59641949Y-30330999D01*
X59641949Y-30173401D01*
X59672694Y-30018834D01*
X59733003Y-29873235D01*
X59820559Y-29742199D01*
X59820560Y-29742197D01*
X59931997Y-29630760D01*
X60063034Y-29543204D01*
X60063035Y-29543203D01*
X60208634Y-29482894D01*
X60363201Y-29452149D01*
X60520799Y-29452149D01*
X60675366Y-29482894D01*
X60675366Y-29482894D01*
G37*
G36*
X73375366Y-29482894D02*
G01*
X73520965Y-29543203D01*
X73520966Y-29543204D01*
X73652003Y-29630760D01*
X73763440Y-29742197D01*
X73763441Y-29742199D01*
X73850997Y-29873235D01*
X73911306Y-30018834D01*
X73942051Y-30173401D01*
X73942051Y-30330999D01*
X73911306Y-30485566D01*
X73850997Y-30631165D01*
X73850996Y-30631166D01*
X73763440Y-30762203D01*
X73652003Y-30873640D01*
X73586039Y-30917716D01*
X73520965Y-30961197D01*
X73375366Y-31021506D01*
X73220799Y-31052251D01*
X73063201Y-31052251D01*
X72908634Y-31021506D01*
X72763035Y-30961197D01*
X72697961Y-30917716D01*
X72631997Y-30873640D01*
X72520560Y-30762203D01*
X72433004Y-30631166D01*
X72433003Y-30631165D01*
X72372694Y-30485566D01*
X72341949Y-30330999D01*
X72341949Y-30173401D01*
X72372694Y-30018834D01*
X72433003Y-29873235D01*
X72520559Y-29742199D01*
X72520560Y-29742197D01*
X72631997Y-29630760D01*
X72763034Y-29543204D01*
X72763035Y-29543203D01*
X72908634Y-29482894D01*
X73063201Y-29452149D01*
X73220799Y-29452149D01*
X73375366Y-29482894D01*
X73375366Y-29482894D01*
G37*
G36*
X75915366Y-29482894D02*
G01*
X76060965Y-29543203D01*
X76060966Y-29543204D01*
X76192003Y-29630760D01*
X76303440Y-29742197D01*
X76303441Y-29742199D01*
X76390997Y-29873235D01*
X76451306Y-30018834D01*
X76482051Y-30173401D01*
X76482051Y-30330999D01*
X76451306Y-30485566D01*
X76390997Y-30631165D01*
X76390996Y-30631166D01*
X76303440Y-30762203D01*
X76192003Y-30873640D01*
X76126039Y-30917716D01*
X76060965Y-30961197D01*
X75915366Y-31021506D01*
X75760799Y-31052251D01*
X75603201Y-31052251D01*
X75448634Y-31021506D01*
X75303035Y-30961197D01*
X75237961Y-30917716D01*
X75171997Y-30873640D01*
X75060560Y-30762203D01*
X74973004Y-30631166D01*
X74973003Y-30631165D01*
X74912694Y-30485566D01*
X74881949Y-30330999D01*
X74881949Y-30173401D01*
X74912694Y-30018834D01*
X74973003Y-29873235D01*
X75060559Y-29742199D01*
X75060560Y-29742197D01*
X75171997Y-29630760D01*
X75303034Y-29543204D01*
X75303035Y-29543203D01*
X75448634Y-29482894D01*
X75603201Y-29452149D01*
X75760799Y-29452149D01*
X75915366Y-29482894D01*
X75915366Y-29482894D01*
G37*
G36*
X55595366Y-29482894D02*
G01*
X55740965Y-29543203D01*
X55740966Y-29543204D01*
X55872003Y-29630760D01*
X55983440Y-29742197D01*
X55983441Y-29742199D01*
X56070997Y-29873235D01*
X56131306Y-30018834D01*
X56162051Y-30173401D01*
X56162051Y-30330999D01*
X56131306Y-30485566D01*
X56070997Y-30631165D01*
X56070996Y-30631166D01*
X55983440Y-30762203D01*
X55872003Y-30873640D01*
X55806039Y-30917716D01*
X55740965Y-30961197D01*
X55595366Y-31021506D01*
X55440799Y-31052251D01*
X55283201Y-31052251D01*
X55128634Y-31021506D01*
X54983035Y-30961197D01*
X54917961Y-30917716D01*
X54851997Y-30873640D01*
X54740560Y-30762203D01*
X54653004Y-30631166D01*
X54653003Y-30631165D01*
X54592694Y-30485566D01*
X54561949Y-30330999D01*
X54561949Y-30173401D01*
X54592694Y-30018834D01*
X54653003Y-29873235D01*
X54740559Y-29742199D01*
X54740560Y-29742197D01*
X54851997Y-29630760D01*
X54983034Y-29543204D01*
X54983035Y-29543203D01*
X55128634Y-29482894D01*
X55283201Y-29452149D01*
X55440799Y-29452149D01*
X55595366Y-29482894D01*
X55595366Y-29482894D01*
G37*
G36*
X45855366Y-29482894D02*
G01*
X46000965Y-29543203D01*
X46000966Y-29543204D01*
X46132003Y-29630760D01*
X46243440Y-29742197D01*
X46243441Y-29742199D01*
X46330997Y-29873235D01*
X46391306Y-30018834D01*
X46422051Y-30173401D01*
X46422051Y-30330999D01*
X46391306Y-30485566D01*
X46330997Y-30631165D01*
X46330996Y-30631166D01*
X46243440Y-30762203D01*
X46132003Y-30873640D01*
X46066039Y-30917716D01*
X46000965Y-30961197D01*
X45855366Y-31021506D01*
X45700799Y-31052251D01*
X45543201Y-31052251D01*
X45388634Y-31021506D01*
X45243035Y-30961197D01*
X45177961Y-30917716D01*
X45111997Y-30873640D01*
X45000560Y-30762203D01*
X44913004Y-30631166D01*
X44913003Y-30631165D01*
X44852694Y-30485566D01*
X44821949Y-30330999D01*
X44821949Y-30173401D01*
X44852694Y-30018834D01*
X44913003Y-29873235D01*
X45000559Y-29742199D01*
X45000560Y-29742197D01*
X45111997Y-29630760D01*
X45243034Y-29543204D01*
X45243035Y-29543203D01*
X45388634Y-29482894D01*
X45543201Y-29452149D01*
X45700799Y-29452149D01*
X45855366Y-29482894D01*
X45855366Y-29482894D01*
G37*
G36*
X68295366Y-29482894D02*
G01*
X68440965Y-29543203D01*
X68440966Y-29543204D01*
X68572003Y-29630760D01*
X68683440Y-29742197D01*
X68683441Y-29742199D01*
X68770997Y-29873235D01*
X68831306Y-30018834D01*
X68862051Y-30173401D01*
X68862051Y-30330999D01*
X68831306Y-30485566D01*
X68770997Y-30631165D01*
X68770996Y-30631166D01*
X68683440Y-30762203D01*
X68572003Y-30873640D01*
X68506039Y-30917716D01*
X68440965Y-30961197D01*
X68295366Y-31021506D01*
X68140799Y-31052251D01*
X67983201Y-31052251D01*
X67828634Y-31021506D01*
X67683035Y-30961197D01*
X67617961Y-30917716D01*
X67551997Y-30873640D01*
X67440560Y-30762203D01*
X67353004Y-30631166D01*
X67353003Y-30631165D01*
X67292694Y-30485566D01*
X67261949Y-30330999D01*
X67261949Y-30173401D01*
X67292694Y-30018834D01*
X67353003Y-29873235D01*
X67440559Y-29742199D01*
X67440560Y-29742197D01*
X67551997Y-29630760D01*
X67683034Y-29543204D01*
X67683035Y-29543203D01*
X67828634Y-29482894D01*
X67983201Y-29452149D01*
X68140799Y-29452149D01*
X68295366Y-29482894D01*
X68295366Y-29482894D01*
G37*
G36*
X53055366Y-29482894D02*
G01*
X53200965Y-29543203D01*
X53200966Y-29543204D01*
X53332003Y-29630760D01*
X53443440Y-29742197D01*
X53443441Y-29742199D01*
X53530997Y-29873235D01*
X53591306Y-30018834D01*
X53622051Y-30173401D01*
X53622051Y-30330999D01*
X53591306Y-30485566D01*
X53530997Y-30631165D01*
X53530996Y-30631166D01*
X53443440Y-30762203D01*
X53332003Y-30873640D01*
X53266039Y-30917716D01*
X53200965Y-30961197D01*
X53055366Y-31021506D01*
X52900799Y-31052251D01*
X52743201Y-31052251D01*
X52588634Y-31021506D01*
X52443035Y-30961197D01*
X52377961Y-30917716D01*
X52311997Y-30873640D01*
X52200560Y-30762203D01*
X52113004Y-30631166D01*
X52113003Y-30631165D01*
X52052694Y-30485566D01*
X52021949Y-30330999D01*
X52021949Y-30173401D01*
X52052694Y-30018834D01*
X52113003Y-29873235D01*
X52200559Y-29742199D01*
X52200560Y-29742197D01*
X52311997Y-29630760D01*
X52443034Y-29543204D01*
X52443035Y-29543203D01*
X52588634Y-29482894D01*
X52743201Y-29452149D01*
X52900799Y-29452149D01*
X53055366Y-29482894D01*
X53055366Y-29482894D01*
G37*
G36*
X63215366Y-29482894D02*
G01*
X63360965Y-29543203D01*
X63360966Y-29543204D01*
X63492003Y-29630760D01*
X63603440Y-29742197D01*
X63603441Y-29742199D01*
X63690997Y-29873235D01*
X63751306Y-30018834D01*
X63782051Y-30173401D01*
X63782051Y-30330999D01*
X63751306Y-30485566D01*
X63690997Y-30631165D01*
X63690996Y-30631166D01*
X63603440Y-30762203D01*
X63492003Y-30873640D01*
X63426039Y-30917716D01*
X63360965Y-30961197D01*
X63215366Y-31021506D01*
X63060799Y-31052251D01*
X62903201Y-31052251D01*
X62748634Y-31021506D01*
X62603035Y-30961197D01*
X62537961Y-30917716D01*
X62471997Y-30873640D01*
X62360560Y-30762203D01*
X62273004Y-30631166D01*
X62273003Y-30631165D01*
X62212694Y-30485566D01*
X62181949Y-30330999D01*
X62181949Y-30173401D01*
X62212694Y-30018834D01*
X62273003Y-29873235D01*
X62360559Y-29742199D01*
X62360560Y-29742197D01*
X62471997Y-29630760D01*
X62603034Y-29543204D01*
X62603035Y-29543203D01*
X62748634Y-29482894D01*
X62903201Y-29452149D01*
X63060799Y-29452149D01*
X63215366Y-29482894D01*
X63215366Y-29482894D01*
G37*
G36*
X75915366Y-26942894D02*
G01*
X76060965Y-27003203D01*
X76060966Y-27003204D01*
X76192003Y-27090760D01*
X76303440Y-27202197D01*
X76303441Y-27202199D01*
X76390997Y-27333235D01*
X76451306Y-27478834D01*
X76482051Y-27633401D01*
X76482051Y-27790999D01*
X76451306Y-27945566D01*
X76390997Y-28091165D01*
X76390996Y-28091166D01*
X76303440Y-28222203D01*
X76192003Y-28333640D01*
X76126039Y-28377716D01*
X76060965Y-28421197D01*
X75915366Y-28481506D01*
X75760799Y-28512251D01*
X75603201Y-28512251D01*
X75448634Y-28481506D01*
X75303035Y-28421197D01*
X75237961Y-28377716D01*
X75171997Y-28333640D01*
X75060560Y-28222203D01*
X74973004Y-28091166D01*
X74973003Y-28091165D01*
X74912694Y-27945566D01*
X74881949Y-27790999D01*
X74881949Y-27633401D01*
X74912694Y-27478834D01*
X74973003Y-27333235D01*
X75060559Y-27202199D01*
X75060560Y-27202197D01*
X75171997Y-27090760D01*
X75303034Y-27003204D01*
X75303035Y-27003203D01*
X75448634Y-26942894D01*
X75603201Y-26912149D01*
X75760799Y-26912149D01*
X75915366Y-26942894D01*
X75915366Y-26942894D01*
G37*
G36*
X73375366Y-26942894D02*
G01*
X73520965Y-27003203D01*
X73520966Y-27003204D01*
X73652003Y-27090760D01*
X73763440Y-27202197D01*
X73763441Y-27202199D01*
X73850997Y-27333235D01*
X73911306Y-27478834D01*
X73942051Y-27633401D01*
X73942051Y-27790999D01*
X73911306Y-27945566D01*
X73850997Y-28091165D01*
X73850996Y-28091166D01*
X73763440Y-28222203D01*
X73652003Y-28333640D01*
X73586039Y-28377716D01*
X73520965Y-28421197D01*
X73375366Y-28481506D01*
X73220799Y-28512251D01*
X73063201Y-28512251D01*
X72908634Y-28481506D01*
X72763035Y-28421197D01*
X72697961Y-28377716D01*
X72631997Y-28333640D01*
X72520560Y-28222203D01*
X72433004Y-28091166D01*
X72433003Y-28091165D01*
X72372694Y-27945566D01*
X72341949Y-27790999D01*
X72341949Y-27633401D01*
X72372694Y-27478834D01*
X72433003Y-27333235D01*
X72520559Y-27202199D01*
X72520560Y-27202197D01*
X72631997Y-27090760D01*
X72763034Y-27003204D01*
X72763035Y-27003203D01*
X72908634Y-26942894D01*
X73063201Y-26912149D01*
X73220799Y-26912149D01*
X73375366Y-26942894D01*
X73375366Y-26942894D01*
G37*
G36*
X68295366Y-26942894D02*
G01*
X68440965Y-27003203D01*
X68440966Y-27003204D01*
X68572003Y-27090760D01*
X68683440Y-27202197D01*
X68683441Y-27202199D01*
X68770997Y-27333235D01*
X68831306Y-27478834D01*
X68862051Y-27633401D01*
X68862051Y-27790999D01*
X68831306Y-27945566D01*
X68770997Y-28091165D01*
X68770996Y-28091166D01*
X68683440Y-28222203D01*
X68572003Y-28333640D01*
X68506039Y-28377716D01*
X68440965Y-28421197D01*
X68295366Y-28481506D01*
X68140799Y-28512251D01*
X67983201Y-28512251D01*
X67828634Y-28481506D01*
X67683035Y-28421197D01*
X67617961Y-28377716D01*
X67551997Y-28333640D01*
X67440560Y-28222203D01*
X67353004Y-28091166D01*
X67353003Y-28091165D01*
X67292694Y-27945566D01*
X67261949Y-27790999D01*
X67261949Y-27633401D01*
X67292694Y-27478834D01*
X67353003Y-27333235D01*
X67440559Y-27202199D01*
X67440560Y-27202197D01*
X67551997Y-27090760D01*
X67683034Y-27003204D01*
X67683035Y-27003203D01*
X67828634Y-26942894D01*
X67983201Y-26912149D01*
X68140799Y-26912149D01*
X68295366Y-26942894D01*
X68295366Y-26942894D01*
G37*
G36*
X53055366Y-26942894D02*
G01*
X53200965Y-27003203D01*
X53200966Y-27003204D01*
X53332003Y-27090760D01*
X53443440Y-27202197D01*
X53443441Y-27202199D01*
X53530997Y-27333235D01*
X53591306Y-27478834D01*
X53622051Y-27633401D01*
X53622051Y-27790999D01*
X53591306Y-27945566D01*
X53530997Y-28091165D01*
X53530996Y-28091166D01*
X53443440Y-28222203D01*
X53332003Y-28333640D01*
X53266039Y-28377716D01*
X53200965Y-28421197D01*
X53055366Y-28481506D01*
X52900799Y-28512251D01*
X52743201Y-28512251D01*
X52588634Y-28481506D01*
X52443035Y-28421197D01*
X52377961Y-28377716D01*
X52311997Y-28333640D01*
X52200560Y-28222203D01*
X52113004Y-28091166D01*
X52113003Y-28091165D01*
X52052694Y-27945566D01*
X52021949Y-27790999D01*
X52021949Y-27633401D01*
X52052694Y-27478834D01*
X52113003Y-27333235D01*
X52200559Y-27202199D01*
X52200560Y-27202197D01*
X52311997Y-27090760D01*
X52443034Y-27003204D01*
X52443035Y-27003203D01*
X52588634Y-26942894D01*
X52743201Y-26912149D01*
X52900799Y-26912149D01*
X53055366Y-26942894D01*
X53055366Y-26942894D01*
G37*
G36*
X49555366Y-26942894D02*
G01*
X49700965Y-27003203D01*
X49700966Y-27003204D01*
X49832003Y-27090760D01*
X49943440Y-27202197D01*
X49943441Y-27202199D01*
X50030997Y-27333235D01*
X50091306Y-27478834D01*
X50122051Y-27633401D01*
X50122051Y-27790999D01*
X50091306Y-27945566D01*
X50030997Y-28091165D01*
X50030996Y-28091166D01*
X49943440Y-28222203D01*
X49832003Y-28333640D01*
X49766039Y-28377716D01*
X49700965Y-28421197D01*
X49555366Y-28481506D01*
X49400799Y-28512251D01*
X49243201Y-28512251D01*
X49088634Y-28481506D01*
X48943035Y-28421197D01*
X48877961Y-28377716D01*
X48811997Y-28333640D01*
X48700560Y-28222203D01*
X48613004Y-28091166D01*
X48613003Y-28091165D01*
X48552694Y-27945566D01*
X48521949Y-27790999D01*
X48521949Y-27633401D01*
X48552694Y-27478834D01*
X48613003Y-27333235D01*
X48700559Y-27202199D01*
X48700560Y-27202197D01*
X48811997Y-27090760D01*
X48943034Y-27003204D01*
X48943035Y-27003203D01*
X49088634Y-26942894D01*
X49243201Y-26912149D01*
X49400799Y-26912149D01*
X49555366Y-26942894D01*
X49555366Y-26942894D01*
G37*
G36*
X45855366Y-26942894D02*
G01*
X46000965Y-27003203D01*
X46000966Y-27003204D01*
X46132003Y-27090760D01*
X46243440Y-27202197D01*
X46243441Y-27202199D01*
X46330997Y-27333235D01*
X46391306Y-27478834D01*
X46422051Y-27633401D01*
X46422051Y-27790999D01*
X46391306Y-27945566D01*
X46330997Y-28091165D01*
X46330996Y-28091166D01*
X46243440Y-28222203D01*
X46132003Y-28333640D01*
X46066039Y-28377716D01*
X46000965Y-28421197D01*
X45855366Y-28481506D01*
X45700799Y-28512251D01*
X45543201Y-28512251D01*
X45388634Y-28481506D01*
X45243035Y-28421197D01*
X45177961Y-28377716D01*
X45111997Y-28333640D01*
X45000560Y-28222203D01*
X44913004Y-28091166D01*
X44913003Y-28091165D01*
X44852694Y-27945566D01*
X44821949Y-27790999D01*
X44821949Y-27633401D01*
X44852694Y-27478834D01*
X44913003Y-27333235D01*
X45000559Y-27202199D01*
X45000560Y-27202197D01*
X45111997Y-27090760D01*
X45243034Y-27003204D01*
X45243035Y-27003203D01*
X45388634Y-26942894D01*
X45543201Y-26912149D01*
X45700799Y-26912149D01*
X45855366Y-26942894D01*
X45855366Y-26942894D01*
G37*
G36*
X70835366Y-26942894D02*
G01*
X70980965Y-27003203D01*
X70980966Y-27003204D01*
X71112003Y-27090760D01*
X71223440Y-27202197D01*
X71223441Y-27202199D01*
X71310997Y-27333235D01*
X71371306Y-27478834D01*
X71402051Y-27633401D01*
X71402051Y-27790999D01*
X71371306Y-27945566D01*
X71310997Y-28091165D01*
X71310996Y-28091166D01*
X71223440Y-28222203D01*
X71112003Y-28333640D01*
X71046039Y-28377716D01*
X70980965Y-28421197D01*
X70835366Y-28481506D01*
X70680799Y-28512251D01*
X70523201Y-28512251D01*
X70368634Y-28481506D01*
X70223035Y-28421197D01*
X70157961Y-28377716D01*
X70091997Y-28333640D01*
X69980560Y-28222203D01*
X69893004Y-28091166D01*
X69893003Y-28091165D01*
X69832694Y-27945566D01*
X69801949Y-27790999D01*
X69801949Y-27633401D01*
X69832694Y-27478834D01*
X69893003Y-27333235D01*
X69980559Y-27202199D01*
X69980560Y-27202197D01*
X70091997Y-27090760D01*
X70223034Y-27003204D01*
X70223035Y-27003203D01*
X70368634Y-26942894D01*
X70523201Y-26912149D01*
X70680799Y-26912149D01*
X70835366Y-26942894D01*
X70835366Y-26942894D01*
G37*
G36*
X63215366Y-26942894D02*
G01*
X63360965Y-27003203D01*
X63360966Y-27003204D01*
X63492003Y-27090760D01*
X63603440Y-27202197D01*
X63603441Y-27202199D01*
X63690997Y-27333235D01*
X63751306Y-27478834D01*
X63782051Y-27633401D01*
X63782051Y-27790999D01*
X63751306Y-27945566D01*
X63690997Y-28091165D01*
X63690996Y-28091166D01*
X63603440Y-28222203D01*
X63492003Y-28333640D01*
X63426039Y-28377716D01*
X63360965Y-28421197D01*
X63215366Y-28481506D01*
X63060799Y-28512251D01*
X62903201Y-28512251D01*
X62748634Y-28481506D01*
X62603035Y-28421197D01*
X62537961Y-28377716D01*
X62471997Y-28333640D01*
X62360560Y-28222203D01*
X62273004Y-28091166D01*
X62273003Y-28091165D01*
X62212694Y-27945566D01*
X62181949Y-27790999D01*
X62181949Y-27633401D01*
X62212694Y-27478834D01*
X62273003Y-27333235D01*
X62360559Y-27202199D01*
X62360560Y-27202197D01*
X62471997Y-27090760D01*
X62603034Y-27003204D01*
X62603035Y-27003203D01*
X62748634Y-26942894D01*
X62903201Y-26912149D01*
X63060799Y-26912149D01*
X63215366Y-26942894D01*
X63215366Y-26942894D01*
G37*
G36*
X65755366Y-26942894D02*
G01*
X65900965Y-27003203D01*
X65900966Y-27003204D01*
X66032003Y-27090760D01*
X66143440Y-27202197D01*
X66143441Y-27202199D01*
X66230997Y-27333235D01*
X66291306Y-27478834D01*
X66322051Y-27633401D01*
X66322051Y-27790999D01*
X66291306Y-27945566D01*
X66230997Y-28091165D01*
X66230996Y-28091166D01*
X66143440Y-28222203D01*
X66032003Y-28333640D01*
X65966039Y-28377716D01*
X65900965Y-28421197D01*
X65755366Y-28481506D01*
X65600799Y-28512251D01*
X65443201Y-28512251D01*
X65288634Y-28481506D01*
X65143035Y-28421197D01*
X65077961Y-28377716D01*
X65011997Y-28333640D01*
X64900560Y-28222203D01*
X64813004Y-28091166D01*
X64813003Y-28091165D01*
X64752694Y-27945566D01*
X64721949Y-27790999D01*
X64721949Y-27633401D01*
X64752694Y-27478834D01*
X64813003Y-27333235D01*
X64900559Y-27202199D01*
X64900560Y-27202197D01*
X65011997Y-27090760D01*
X65143034Y-27003204D01*
X65143035Y-27003203D01*
X65288634Y-26942894D01*
X65443201Y-26912149D01*
X65600799Y-26912149D01*
X65755366Y-26942894D01*
X65755366Y-26942894D01*
G37*
G36*
X60675366Y-26942894D02*
G01*
X60820965Y-27003203D01*
X60820966Y-27003204D01*
X60952003Y-27090760D01*
X61063440Y-27202197D01*
X61063441Y-27202199D01*
X61150997Y-27333235D01*
X61211306Y-27478834D01*
X61242051Y-27633401D01*
X61242051Y-27790999D01*
X61211306Y-27945566D01*
X61150997Y-28091165D01*
X61150996Y-28091166D01*
X61063440Y-28222203D01*
X60952003Y-28333640D01*
X60886039Y-28377716D01*
X60820965Y-28421197D01*
X60675366Y-28481506D01*
X60520799Y-28512251D01*
X60363201Y-28512251D01*
X60208634Y-28481506D01*
X60063035Y-28421197D01*
X59997961Y-28377716D01*
X59931997Y-28333640D01*
X59820560Y-28222203D01*
X59733004Y-28091166D01*
X59733003Y-28091165D01*
X59672694Y-27945566D01*
X59641949Y-27790999D01*
X59641949Y-27633401D01*
X59672694Y-27478834D01*
X59733003Y-27333235D01*
X59820559Y-27202199D01*
X59820560Y-27202197D01*
X59931997Y-27090760D01*
X60063034Y-27003204D01*
X60063035Y-27003203D01*
X60208634Y-26942894D01*
X60363201Y-26912149D01*
X60520799Y-26912149D01*
X60675366Y-26942894D01*
X60675366Y-26942894D01*
G37*
G36*
X58135366Y-26942894D02*
G01*
X58280965Y-27003203D01*
X58280966Y-27003204D01*
X58412003Y-27090760D01*
X58523440Y-27202197D01*
X58523441Y-27202199D01*
X58610997Y-27333235D01*
X58671306Y-27478834D01*
X58702051Y-27633401D01*
X58702051Y-27790999D01*
X58671306Y-27945566D01*
X58610997Y-28091165D01*
X58610996Y-28091166D01*
X58523440Y-28222203D01*
X58412003Y-28333640D01*
X58346039Y-28377716D01*
X58280965Y-28421197D01*
X58135366Y-28481506D01*
X57980799Y-28512251D01*
X57823201Y-28512251D01*
X57668634Y-28481506D01*
X57523035Y-28421197D01*
X57457961Y-28377716D01*
X57391997Y-28333640D01*
X57280560Y-28222203D01*
X57193004Y-28091166D01*
X57193003Y-28091165D01*
X57132694Y-27945566D01*
X57101949Y-27790999D01*
X57101949Y-27633401D01*
X57132694Y-27478834D01*
X57193003Y-27333235D01*
X57280559Y-27202199D01*
X57280560Y-27202197D01*
X57391997Y-27090760D01*
X57523034Y-27003204D01*
X57523035Y-27003203D01*
X57668634Y-26942894D01*
X57823201Y-26912149D01*
X57980799Y-26912149D01*
X58135366Y-26942894D01*
X58135366Y-26942894D01*
G37*
G36*
X55595366Y-26942894D02*
G01*
X55740965Y-27003203D01*
X55740966Y-27003204D01*
X55872003Y-27090760D01*
X55983440Y-27202197D01*
X55983441Y-27202199D01*
X56070997Y-27333235D01*
X56131306Y-27478834D01*
X56162051Y-27633401D01*
X56162051Y-27790999D01*
X56131306Y-27945566D01*
X56070997Y-28091165D01*
X56070996Y-28091166D01*
X55983440Y-28222203D01*
X55872003Y-28333640D01*
X55806039Y-28377716D01*
X55740965Y-28421197D01*
X55595366Y-28481506D01*
X55440799Y-28512251D01*
X55283201Y-28512251D01*
X55128634Y-28481506D01*
X54983035Y-28421197D01*
X54917961Y-28377716D01*
X54851997Y-28333640D01*
X54740560Y-28222203D01*
X54653004Y-28091166D01*
X54653003Y-28091165D01*
X54592694Y-27945566D01*
X54561949Y-27790999D01*
X54561949Y-27633401D01*
X54592694Y-27478834D01*
X54653003Y-27333235D01*
X54740559Y-27202199D01*
X54740560Y-27202197D01*
X54851997Y-27090760D01*
X54983034Y-27003204D01*
X54983035Y-27003203D01*
X55128634Y-26942894D01*
X55283201Y-26912149D01*
X55440799Y-26912149D01*
X55595366Y-26942894D01*
X55595366Y-26942894D01*
G37*
M02*
