M48
; DRILL file {KiCad (5.1.0-rc2-21-g16b3c80a7)} date 6/5/2019 11:58:24 PM
; FORMAT={-:-/ absolute / inch / decimal}
; #@! TF.CreationDate,2019-06-05T23:58:24+02:00
; #@! TF.GenerationSoftware,Kicad,Pcbnew,(5.1.0-rc2-21-g16b3c80a7)
; #@! TF.FileFunction,Plated,1,4,PTH
FMAT,2
INCH
T1C0.0118
T2C0.0171
T3C0.0197
T4C0.0276
T5C0.0453
T6C0.0467
T7C0.0866
T8C0.1575
%
G90
G05
T1
X0.9124Y-2.92
X0.9124Y-2.97
X0.9149Y-2.7125
X0.9174Y-3.025
X0.9174Y-3.085
X0.9174Y-3.145
X0.9174Y-3.205
X0.9174Y-3.265
X0.9174Y-3.325
X0.9174Y-3.385
X0.9174Y-3.445
X0.9174Y-3.505
X0.9274Y-3.895
X0.9274Y-3.925
X0.9274Y-3.955
X0.9274Y-3.985
X0.9274Y-4.015
X0.9274Y-4.045
X0.9274Y-4.075
X0.9274Y-4.105
X0.9349Y-2.5725
X0.9349Y-2.6625
X0.9474Y-3.0
X0.9474Y-3.055
X0.9474Y-3.115
X0.9474Y-3.205
X0.9474Y-3.265
X0.9474Y-3.325
X0.9474Y-3.415
X0.9574Y-3.895
X0.9574Y-3.925
X0.9574Y-3.955
X0.9574Y-3.985
X0.9574Y-4.015
X0.9574Y-4.045
X0.9574Y-4.075
X0.9574Y-4.105
X0.9624Y-2.92
X0.9624Y-2.97
X0.9649Y-2.5725
X0.9649Y-2.6625
X0.9774Y-3.0
X0.9774Y-3.03
X0.9774Y-3.055
X0.9774Y-3.085
X0.9774Y-3.115
X0.9774Y-3.295
X0.9774Y-3.345
X0.9774Y-3.405
X0.9774Y-3.465
X0.9774Y-3.525
X0.9874Y-3.895
X0.9874Y-3.925
X0.9874Y-3.955
X0.9874Y-3.985
X0.9874Y-4.015
X0.9874Y-4.045
X0.9874Y-4.075
X0.9874Y-4.105
X0.9874Y-4.135
X0.9874Y-4.165
X0.9874Y-4.195
X0.9874Y-4.225
X1.0074Y-3.375
X1.0074Y-3.435
X1.0074Y-3.495
X1.0124Y-2.92
X1.0174Y-3.895
X1.0174Y-3.925
X1.0174Y-3.955
X1.0174Y-3.985
X1.0174Y-4.015
X1.0174Y-4.045
X1.0174Y-4.075
X1.0174Y-4.105
X1.0174Y-4.135
X1.0174Y-4.165
X1.0174Y-4.195
X1.0174Y-4.225
X1.0249Y-2.7225
X1.0249Y-2.7525
X1.0249Y-2.7825
X1.0324Y-3.1
X1.0374Y-3.285
X1.0374Y-3.315
X1.0374Y-3.405
X1.0374Y-3.465
X1.0374Y-3.525
X1.0474Y-4.135
X1.0474Y-4.165
X1.0474Y-4.195
X1.0474Y-4.225
X1.0549Y-2.7225
X1.0549Y-2.7525
X1.0549Y-2.7825
X1.0574Y-3.2525
X1.0674Y-3.285
X1.0674Y-3.315
X1.0674Y-3.345
X1.0674Y-3.435
X1.0674Y-3.495
X1.0774Y-4.135
X1.0774Y-4.165
X1.0774Y-4.195
X1.0774Y-4.225
X1.0849Y-2.7225
X1.0849Y-2.7525
X1.0849Y-2.7825
X1.0874Y-3.365
X1.0899Y-2.145
X1.0924Y-2.92
X1.0974Y-3.285
X1.0974Y-3.315
X1.0974Y-3.465
X1.0974Y-3.525
X1.1024Y-3.39
X1.1149Y-2.7525
X1.1149Y-2.7825
X1.1174Y-2.92
X1.1174Y-3.09
X1.1324Y-3.215
X1.1324Y-3.24
X1.1424Y-1.3
X1.1424Y-1.33
X1.1424Y-1.36
X1.1424Y-3.09
X1.1424Y-3.115
X1.1424Y-3.19
X1.1449Y-2.7225
X1.1449Y-2.7525
X1.1449Y-2.7825
X1.1574Y-3.365
X1.1599Y-3.58
X1.1674Y-3.09
X1.1724Y-1.3
X1.1724Y-1.33
X1.1724Y-1.36
X1.1724Y-2.485
X1.1724Y-2.5125
X1.1724Y-2.5425
X1.1749Y-2.7225
X1.1749Y-2.7525
X1.1749Y-2.7825
X1.1924Y-3.015
X1.1924Y-3.04
X1.1924Y-3.065
X1.1924Y-3.09
X1.2024Y-1.3
X1.2024Y-1.33
X1.2024Y-1.36
X1.2024Y-2.485
X1.2049Y-2.5125
X1.2049Y-2.5425
X1.208Y-1.997
X1.2174Y-3.015
X1.2174Y-3.04
X1.2174Y-3.065
X1.2174Y-3.09
X1.2324Y-1.3
X1.2324Y-1.33
X1.2324Y-1.36
X1.2325Y-2.7166
X1.2328Y-1.9621
X1.2349Y-2.485
X1.2349Y-2.5125
X1.2349Y-2.5425
X1.2374Y-3.365
X1.2399Y-3.3346
X1.2424Y-3.015
X1.2424Y-3.04
X1.2424Y-3.065
X1.2424Y-3.09
X1.2516Y-2.0408
X1.254Y-2.4282
X1.2649Y-2.485
X1.2649Y-2.5125
X1.2649Y-2.5425
X1.2674Y-3.04
X1.2674Y-3.065
X1.2674Y-3.09
X1.2674Y-3.365
X1.2924Y-3.04
X1.2924Y-3.065
X1.2924Y-3.09
X1.3174Y-3.015
X1.3174Y-3.04
X1.3174Y-3.065
X1.3174Y-3.09
X1.3324Y-3.9
X1.3424Y-3.015
X1.3424Y-3.04
X1.3424Y-3.065
X1.3424Y-3.09
X1.3449Y-2.4825
X1.3474Y-3.345
X1.3499Y-2.725
X1.3499Y-2.755
X1.3499Y-2.785
X1.3549Y-2.51
X1.3549Y-2.5375
X1.3549Y-2.565
X1.3549Y-2.5925
X1.3774Y-3.075
X1.3774Y-3.105
X1.3774Y-3.195
X1.3774Y-3.345
X1.3774Y-4.345
X1.3774Y-4.375
X1.3774Y-4.405
X1.3774Y-4.435
X1.3799Y-2.725
X1.3799Y-2.755
X1.3799Y-2.785
X1.3824Y-2.92
X1.3824Y-3.9
X1.4074Y-3.195
X1.4074Y-3.225
X1.4074Y-3.255
X1.4074Y-3.285
X1.4074Y-3.345
X1.4074Y-3.445
X1.4074Y-3.475
X1.4074Y-4.345
X1.4074Y-4.375
X1.4074Y-4.405
X1.4074Y-4.435
X1.4099Y-2.725
X1.4099Y-2.755
X1.4099Y-2.785
X1.4149Y-1.055
X1.4149Y-1.085
X1.4149Y-1.115
X1.4324Y-3.9
X1.4374Y-2.7275
X1.4374Y-2.755
X1.4374Y-3.105
X1.4374Y-4.345
X1.4374Y-4.375
X1.4374Y-4.405
X1.4374Y-4.435
X1.4399Y-2.7825
X1.4449Y-1.055
X1.4449Y-1.085
X1.4449Y-1.115
X1.4459Y-3.6991
X1.4459Y-3.7766
X1.4524Y-2.92
X1.4649Y-2.755
X1.4649Y-2.7825
X1.4674Y-3.07
X1.4674Y-3.22
X1.4674Y-3.285
X1.4674Y-3.345
X1.4674Y-4.345
X1.4674Y-4.375
X1.4674Y-4.405
X1.4674Y-4.435
X1.4749Y-1.055
X1.4749Y-1.085
X1.4749Y-1.115
X1.4774Y-2.92
X1.4824Y-3.9
X1.4924Y-3.22
X1.4949Y-2.7225
X1.4949Y-2.7525
X1.4949Y-2.7825
X1.4974Y-3.105
X1.4974Y-3.445
X1.5009Y-1.7915
X1.5024Y-3.245
X1.5024Y-3.335
X1.5049Y-1.055
X1.5049Y-1.085
X1.5049Y-1.115
X1.5249Y-2.7225
X1.5249Y-2.7525
X1.5249Y-2.7825
X1.5324Y-3.335
X1.5324Y-3.9
X1.5474Y-2.545
X1.5524Y-3.215
X1.5574Y-2.605
X1.5574Y-2.635
X1.5574Y-2.695
X1.5574Y-2.755
X1.5574Y-2.815
X1.5574Y-2.875
X1.5574Y-3.105
X1.5574Y-3.165
X1.5624Y-3.335
X1.5698Y-1.7926
X1.5824Y-3.9
X1.5849Y-3.0675
X1.5849Y-4.2917
X1.585Y-3.6775
X1.5874Y-2.605
X1.5874Y-2.635
X1.5874Y-2.695
X1.5874Y-2.755
X1.5874Y-2.815
X1.5874Y-2.875
X1.5874Y-3.445
X1.5924Y-3.335
X1.6024Y-3.215
X1.6174Y-2.635
X1.6174Y-2.695
X1.6174Y-2.755
X1.6174Y-2.815
X1.6174Y-2.875
X1.6174Y-3.105
X1.6174Y-3.165
X1.6223Y-3.5937
X1.6224Y-3.335
X1.6324Y-3.9
X1.6474Y-2.3125
X1.6474Y-2.605
X1.6474Y-3.445
X1.6474Y-3.565
X1.6649Y-2.34
X1.6774Y-2.695
X1.6774Y-2.755
X1.6774Y-2.815
X1.6774Y-2.875
X1.6774Y-2.935
X1.6774Y-2.9925
X1.6774Y-3.0525
X1.6774Y-3.105
X1.6774Y-3.165
X1.6774Y-3.215
X1.6799Y-2.515
X1.6799Y-2.545
X1.6799Y-2.575
X1.6799Y-2.635
X1.6849Y-4.0933
X1.6849Y-4.29
X1.7074Y-2.365
X1.7264Y-3.426
X1.7274Y-3.055
X1.7274Y-3.105
X1.7274Y-3.165
X1.7374Y-2.395
X1.7374Y-2.575
X1.7374Y-2.635
X1.7374Y-2.695
X1.7374Y-2.755
X1.7374Y-2.815
X1.7374Y-2.875
X1.7374Y-2.935
X1.7374Y-2.9925
X1.7524Y-3.165
X1.7524Y-3.215
X1.7524Y-3.565
X1.7554Y-3.618
X1.76Y-3.9475
X1.7614Y-3.133
X1.7774Y-2.205
X1.7874Y-3.845
X1.7924Y-3.715
X1.7949Y-3.1225
X1.7984Y-3.6621
X1.8224Y-3.1225
X1.8265Y-3.724
X1.8719Y-1.8606
X1.8874Y-1.695
X1.8974Y-3.4875
X1.905Y-3.245
X1.9074Y-3.425
X1.9074Y-3.545
X1.9074Y-3.5827
X1.9099Y-3.3575
X1.9174Y-3.165
X1.9188Y-3.4561
X1.9274Y-1.635
X1.9374Y-3.195
X1.9378Y-3.403
X1.9479Y-4.2574
X1.9479Y-4.3315
X1.9574Y-2.4425
X1.962Y-3.589
X1.9719Y-3.215
X1.9774Y-2.4625
X1.9774Y-2.49
X1.982Y-3.295
X1.9924Y-2.55
X1.9949Y-3.04
X1.9969Y-2.8631
X1.9974Y-1.435
X1.9974Y-3.015
X2.0094Y-3.5696
X2.0134Y-3.2065
X2.0209Y-2.261
X2.0224Y-3.015
X2.0224Y-3.04
X2.0242Y-2.1683
X2.0252Y-2.0398
X2.0252Y-2.5148
X2.0336Y-3.6239
X2.0347Y-3.7638
X2.0349Y-1.8241
X2.0557Y-2.1663
X2.0567Y-2.5133
X2.0574Y-3.39
X2.0599Y-1.791
X2.0648Y-3.6357
X2.0664Y-3.5656
X2.0725Y-3.7575
X2.08Y-1.646
X2.0871Y-2.1668
X2.0881Y-2.5168
X2.0892Y-2.0468
X2.092Y-3.155
X2.0925Y-3.24
X2.11Y-1.798
X2.117Y-3.423
X2.1186Y-2.1673
X2.1189Y-2.263
X2.1196Y-2.0479
X2.1196Y-2.5153
X2.131Y-1.34
X2.1434Y-3.271
X2.1514Y-3.233
X2.1524Y-3.312
X2.164Y-3.0075
X2.167Y-2.386
X2.1674Y-3.339
X2.1735Y-3.0345
X2.1848Y-2.486
X2.1945Y-3.006
X2.201Y-1.575
X2.207Y-3.034
X2.2174Y-3.32
X2.226Y-1.602
X2.227Y-3.502
X2.2275Y-3.43
X2.2317Y-2.9503
X2.2324Y-3.35
X2.2329Y-2.737
X2.2352Y-2.6428
X2.2414Y-3.291
X2.2543Y-2.0607
X2.263Y-1.634
X2.2632Y-2.9498
X2.2654Y-3.271
X2.2667Y-2.6413
X2.276Y-2.422
X2.2768Y-2.7826
X2.2914Y-3.233
X2.2946Y-2.9509
X2.297Y-1.653
X2.297Y-1.817
X2.2981Y-2.6398
X2.3099Y-4.0376
X2.317Y-2.331
X2.3174Y-3.251
X2.3261Y-2.9504
X2.3296Y-2.6363
X2.3309Y-2.741
X2.3424Y-3.54
X2.3455Y-2.2282
X2.3474Y-2.1575
X2.3487Y-4.1513
X2.352Y-1.57
X2.352Y-3.257
X2.362Y-3.777
X2.3659Y-1.8496
X2.3674Y-3.21
X2.3699Y-3.1825
X2.3717Y-2.1049
X2.3725Y-1.635
X2.376Y-3.4364
X2.397Y-3.763
X2.3975Y-4.1725
X2.436Y-1.478
X2.448Y-1.836
X2.4577Y-4.0376
X2.4658Y-2.7049
X2.4664Y-2.558
X2.4792Y-2.0208
X2.4792Y-2.1393
X2.4802Y-2.4873
X2.4839Y-2.2345
X2.504Y-3.582
X2.5107Y-2.0203
X2.5107Y-2.1398
X2.5117Y-2.4858
X2.523Y-4.0495
X2.5253Y-2.2846
X2.53Y-2.6575
X2.541Y-1.544
X2.5421Y-2.0178
X2.5421Y-2.1383
X2.5425Y-1.8399
X2.5431Y-2.4893
X2.545Y-3.604
X2.5624Y-3.56
X2.5736Y-2.0188
X2.5736Y-2.1388
X2.5739Y-2.2365
X2.5746Y-2.4878
X2.584Y-3.602
X2.5874Y-4.335
X2.5874Y-4.36
X2.5874Y-4.385
X2.5874Y-4.41
X2.5874Y-4.435
X2.5874Y-4.46
X2.592Y-3.143
X2.5924Y-3.985
X2.598Y-3.067
X2.5989Y-3.5035
X2.5998Y-1.6974
X2.6074Y-3.5675
X2.6124Y-4.335
X2.6124Y-4.36
X2.6124Y-4.385
X2.6124Y-4.41
X2.6124Y-4.435
X2.6124Y-4.46
X2.621Y-1.547
X2.621Y-2.364
X2.6223Y-3.5261
X2.6244Y-3.4795
X2.6274Y-1.495
X2.628Y-3.597
X2.6374Y-4.335
X2.6374Y-4.36
X2.6374Y-4.385
X2.6374Y-4.41
X2.6374Y-4.435
X2.6374Y-4.46
X2.6389Y-3.4425
X2.6399Y-2.02
X2.645Y-3.563
X2.6574Y-1.535
X2.6574Y-1.565
X2.6624Y-4.335
X2.6624Y-4.36
X2.6624Y-4.385
X2.6624Y-4.41
X2.6624Y-4.435
X2.6624Y-4.46
X2.663Y-2.973
X2.671Y-3.52
X2.676Y-3.479
X2.677Y-3.448
X2.677Y-3.558
X2.6874Y-4.335
X2.6874Y-4.36
X2.6874Y-4.385
X2.6874Y-4.41
X2.6874Y-4.435
X2.6874Y-4.46
X2.6974Y-1.84
X2.6974Y-2.485
X2.6974Y-2.515
X2.6974Y-2.545
X2.6974Y-2.575
X2.6974Y-2.605
X2.6974Y-2.635
X2.6974Y-2.795
X2.6974Y-2.825
X2.7Y-2.922
X2.7025Y-3.8795
X2.7027Y-1.6084
X2.7027Y-1.7277
X2.7074Y-4.005
X2.71Y-2.856
X2.7124Y-4.335
X2.7124Y-4.36
X2.7124Y-4.385
X2.7124Y-4.41
X2.7124Y-4.435
X2.7124Y-4.46
X2.719Y-3.1285
X2.7274Y-2.465
X2.7274Y-2.515
X2.7274Y-2.545
X2.7274Y-2.575
X2.7274Y-2.605
X2.7274Y-2.635
X2.7342Y-1.7233
X2.7349Y-1.6076
X2.7356Y-2.18
X2.7374Y-4.335
X2.7374Y-4.36
X2.7374Y-4.385
X2.7374Y-4.41
X2.7374Y-4.435
X2.7374Y-4.46
X2.7425Y-3.157
X2.7474Y-1.885
X2.7524Y-2.4925
X2.7558Y-2.4325
X2.7624Y-4.335
X2.7624Y-4.36
X2.7624Y-4.385
X2.7624Y-4.41
X2.7624Y-4.435
X2.7624Y-4.46
X2.7656Y-1.6083
X2.7656Y-1.7243
X2.77Y-3.235
X2.7825Y-3.9295
X2.7887Y-2.2013
X2.7971Y-1.7253
X2.7974Y-1.495
X2.7974Y-1.6081
X2.8037Y-1.8388
X2.804Y-1.93
X2.8049Y-2.1725
X2.807Y-3.196
X2.8256Y-2.81
X2.8262Y-2.1463
X2.841Y-2.778
X2.843Y-3.233
X2.8674Y-1.495
X2.8674Y-1.525
X2.8724Y-2.13
X2.8969Y-2.7535
X2.8974Y-1.495
X2.8974Y-1.525
X2.8974Y-2.245
X2.8974Y-2.275
X2.8974Y-2.545
X2.912Y-3.154
X2.9149Y-1.645
X2.9174Y-2.965
X2.9224Y-2.51
X2.9224Y-2.57
X2.9274Y-1.495
X2.9274Y-1.525
X2.939Y-3.18
X2.9474Y-2.375
X2.9574Y-1.495
X2.9574Y-1.525
X2.9624Y-3.21
X2.9648Y-1.7651
X2.9749Y-2.9475
X2.9774Y-2.375
X2.984Y-2.3104
X3.0074Y-1.735
X3.0074Y-1.765
X3.0074Y-1.795
X3.0074Y-2.375
X3.0074Y-2.405
X3.0174Y-2.015
X3.0204Y-2.232
X3.0238Y-2.4962
X3.0299Y-2.53
X3.0374Y-1.735
X3.0374Y-1.765
X3.0374Y-1.795
X3.0374Y-2.8
X3.049Y-1.276
X3.049Y-1.311
X3.0525Y-2.5979
X3.061Y-3.6295
X3.0624Y-2.1925
X3.0674Y-1.735
X3.0674Y-1.765
X3.0674Y-1.795
X3.0854Y-4.145
X3.0874Y-2.935
X3.0974Y-1.735
X3.0974Y-1.765
X3.0974Y-1.795
X3.123Y-2.0095
X3.1319Y-2.1881
X3.1455Y-3.5795
X3.1724Y-2.48
X3.1724Y-3.07
X3.1724Y-3.095
X3.178Y-1.305
X3.1874Y-1.775
X3.1874Y-1.805
X3.1874Y-1.835
X3.1874Y-1.865
X3.1974Y-3.07
X3.1974Y-3.095
X3.2074Y-2.44
X3.2124Y-3.22
X3.2124Y-3.25
X3.2124Y-3.28
X3.2124Y-3.31
X3.2174Y-1.775
X3.2174Y-1.805
X3.2174Y-1.835
X3.2174Y-1.865
X3.2224Y-3.07
X3.2274Y-2.48
X3.2424Y-3.22
X3.2424Y-3.25
X3.2424Y-3.28
X3.2424Y-3.31
X3.2474Y-2.105
X3.2524Y-2.44
X3.2574Y-2.885
X3.2674Y-2.205
X3.2724Y-3.22
X3.2724Y-3.25
X3.2724Y-3.28
X3.2724Y-3.31
X3.2977Y-2.3147
X3.3024Y-2.445
X3.3024Y-2.885
X3.3024Y-3.22
X3.3024Y-3.25
X3.3024Y-3.28
X3.3024Y-3.31
X3.3344Y-3.7331
X3.3374Y-2.885
X3.3374Y-3.875
X3.3574Y-1.085
X3.3574Y-1.145
X3.3858Y-3.0585
X3.3969Y-3.7331
X3.3974Y-3.105
X3.4049Y-2.9575
X3.4174Y-1.085
X3.4174Y-1.145
X3.4274Y-3.875
X3.4449Y-2.935
X3.4474Y-1.085
X3.4474Y-1.145
X3.4794Y-2.0094
X3.4849Y-2.9425
X3.519Y-1.0935
X3.5374Y-2.96
X3.5574Y-3.025
X3.5634Y-3.117
X3.567Y-1.1755
X3.6124Y-2.405
X3.6374Y-4.025
X3.6374Y-4.055
X3.6374Y-4.085
X3.6374Y-4.115
X3.6374Y-4.145
X3.6374Y-4.175
X3.6374Y-4.205
X3.6374Y-4.235
X3.6574Y-2.92
X3.6624Y-2.545
X3.6674Y-4.025
X3.6674Y-4.055
X3.6674Y-4.085
X3.6674Y-4.115
X3.6674Y-4.145
X3.6674Y-4.175
X3.6674Y-4.205
X3.6674Y-4.235
X3.6974Y-4.025
X3.6974Y-4.055
X3.6974Y-4.085
X3.6974Y-4.115
X3.6974Y-4.145
X3.6974Y-4.175
X3.6974Y-4.205
X3.6974Y-4.235
X3.7274Y-4.025
X3.7274Y-4.055
X3.7274Y-4.085
X3.7274Y-4.115
X3.7274Y-4.145
X3.7274Y-4.175
X3.7274Y-4.205
X3.7274Y-4.235
X3.7574Y-4.025
X3.7574Y-4.055
X3.7574Y-4.085
X3.7574Y-4.115
X3.7574Y-4.145
X3.7574Y-4.175
X3.7574Y-4.205
X3.7574Y-4.235
X3.7874Y-4.025
X3.7874Y-4.055
X3.7874Y-4.085
X3.7874Y-4.115
X3.7874Y-4.145
X3.7874Y-4.175
X3.7874Y-4.205
X3.7874Y-4.235
X3.7912Y-2.3512
X3.8012Y-2.3912
X3.8074Y-2.6075
X3.8074Y-2.64
X3.8149Y-2.49
X3.8162Y-2.4362
X3.8174Y-2.5625
X3.8174Y-4.025
X3.8174Y-4.055
X3.8174Y-4.085
X3.8174Y-4.115
X3.8174Y-4.145
X3.8174Y-4.175
X3.8174Y-4.205
X3.8474Y-4.025
X3.8474Y-4.055
X3.8474Y-4.085
X3.8474Y-4.115
X3.8474Y-4.145
X3.8474Y-4.175
X3.8774Y-4.025
X3.8774Y-4.055
X3.8774Y-4.085
X3.8774Y-4.115
X3.9074Y-4.025
X3.9074Y-4.055
X3.9074Y-4.085
X3.9074Y-4.115
X3.9374Y-3.275
X3.9374Y-3.305
X3.9374Y-3.335
X3.9374Y-3.365
X3.9374Y-3.395
X3.9374Y-3.425
X3.9374Y-3.455
X3.9374Y-3.485
X3.9374Y-3.515
X3.9374Y-3.545
X3.9374Y-3.575
X3.9374Y-3.605
X3.9374Y-3.635
X3.9374Y-3.665
X3.9374Y-3.695
X3.9374Y-3.725
X3.9374Y-3.755
X3.9374Y-3.785
X3.9374Y-3.815
X3.9374Y-3.845
X3.9374Y-3.875
X3.9374Y-4.025
X3.9374Y-4.055
X3.9374Y-4.085
X3.9374Y-4.115
T2
X0.8887Y-2.3689
X1.0491Y-2.3689
X1.1154Y-2.6995
X1.1649Y-2.445
X1.1949Y-2.0825
X1.2689Y-3.8036
X1.2874Y-3.0
X1.4599Y-2.695
X1.9701Y-3.3469
X2.0574Y-3.335
X2.4316Y-3.1364
X2.4474Y-2.9159
X2.7974Y-2.625
X2.8174Y-2.675
X2.8324Y-2.6
X2.8554Y-3.071
X2.8994Y-3.0743
X3.1574Y-2.2475
X3.4772Y-3.6593
X3.4796Y-3.8388
X3.62Y-1.205
X3.765Y-2.1925
X3.7765Y-1.0485
T3
X1.2034Y-2.151
X1.7505Y-2.159
T4
X3.1574Y-2.563
X3.1574Y-2.653
X3.1574Y-2.743
X3.1574Y-2.823
X3.2008Y-2.693
X3.2074Y-2.613
X3.2074Y-2.773
X3.2402Y-2.5631
X3.2402Y-2.823
X3.2486Y-2.6532
X3.2521Y-2.7311
X3.2835Y-2.6104
X3.2874Y-2.7816
X3.2941Y-2.6921
X3.3268Y-2.5631
X3.3317Y-2.6507
X3.3346Y-2.8249
X3.3382Y-2.7366
X3.374Y-2.6064
X3.374Y-2.693
X3.374Y-2.7816
X3.4134Y-2.7481
X3.4173Y-2.6497
X3.4174Y-2.563
X3.4174Y-2.823
T5
X1.7961Y-1.091
X1.7961Y-1.191
X1.7961Y-1.291
X1.7961Y-1.391
X1.9418Y-1.091
X1.9418Y-1.191
X1.9418Y-1.291
X1.9418Y-1.391
X2.0796Y-1.091
X2.0796Y-1.191
X2.0796Y-1.291
X2.0796Y-1.391
X2.1796Y-1.091
X2.1796Y-1.191
X2.1796Y-1.291
X2.1796Y-1.391
X2.2796Y-1.091
X2.2796Y-1.191
X2.2796Y-1.291
X2.2796Y-1.391
X2.3796Y-1.091
X2.3796Y-1.191
X2.3796Y-1.291
X2.3796Y-1.391
X2.4796Y-1.091
X2.4796Y-1.191
X2.4796Y-1.291
X2.4796Y-1.391
X2.5796Y-1.091
X2.5796Y-1.191
X2.5796Y-1.291
X2.5796Y-1.391
X2.6796Y-1.091
X2.6796Y-1.191
X2.6796Y-1.291
X2.6796Y-1.391
X2.7796Y-1.091
X2.7796Y-1.191
X2.7796Y-1.291
X2.7796Y-1.391
X2.8796Y-1.091
X2.8796Y-1.191
X2.8796Y-1.291
X2.8796Y-1.391
X2.9796Y-1.091
X2.9796Y-1.191
X2.9796Y-1.291
X2.9796Y-1.391
T6
X3.1894Y-2.317
X3.3654Y-2.317
X3.7974Y-3.27
T7
X1.5564Y-1.432
X3.2335Y-1.432
T8
X1.395Y-1.2804
X3.395Y-1.2804
T3
G00X2.2709Y-4.2227
M15
G01X2.2984Y-4.2227
M16
G05
G00X2.3732Y-4.3074
M15
G01X2.4166Y-4.3074
M16
G05
G00X2.4914Y-4.2227
M15
G01X2.5189Y-4.2227
M16
G05
T0
M30
