<?xml version="1.0" standalone="no"?>
 <!DOCTYPE svg PUBLIC "-//W3C//DTD SVG 1.1//EN" 
 "http://www.w3.org/Graphics/SVG/1.1/DTD/svg11.dtd"> 
<svg xmlns="http://www.w3.org/2000/svg" version="1.1" 
    width="27.94cm" height="21.59cm" viewBox="0 0 110000 85000 ">
<title>SVG Picture created as microRusEfi-Edge_Cuts.svg date 2020/02/08 09:29:03 </title>
  <desc>Picture generated by PCBNEW </desc>
<g style="fill:#000000; fill-opacity:1;stroke:#000000; stroke-opacity:1;
stroke-linecap:round; stroke-linejoin:round; "
 transform="translate(0 0) scale(1 1)">
</g>
<g style="fill:#000000; fill-opacity:0.0; 
stroke:#000000; stroke-width:-0.000393701; stroke-opacity:1; 
stroke-linecap:round; stroke-linejoin:round;">
</g>
<g style="fill:#000000; fill-opacity:0.0; 
stroke:#000000; stroke-width:39.3701; stroke-opacity:1; 
stroke-linecap:round; stroke-linejoin:round;">
</g>
<g style="fill:#000000; fill-opacity:0.0; 
stroke:#000000; stroke-width:59.0551; stroke-opacity:1; 
stroke-linecap:round; stroke-linejoin:round;">
<rect x="62755.9" y="67677.2" width="42519.7" height="12598.4" rx="0" />
</g>
<g style="fill:#000000; fill-opacity:0.0; 
stroke:#000000; stroke-width:39.3701; stroke-opacity:1; 
stroke-linecap:round; stroke-linejoin:round;">
</g>
<g style="fill:#000000; fill-opacity:0.0; 
stroke:#000000; stroke-width:59.0551; stroke-opacity:1; 
stroke-linecap:round; stroke-linejoin:round;">
<rect x="3937.01" y="3937.01" width="102126" height="77126" rx="0" />
</g>
<g style="fill:#000000; fill-opacity:0.0; 
stroke:#000000; stroke-width:39.3701; stroke-opacity:1; 
stroke-linecap:round; stroke-linejoin:round;">
</g>
<g style="fill:#000000; fill-opacity:0.0; 
stroke:#000000; stroke-width:59.0551; stroke-opacity:1; 
stroke-linecap:round; stroke-linejoin:round;">
<rect x="4724.41" y="4724.41" width="100551" height="75551.2" rx="0" />
</g>
<g style="fill:#000000; fill-opacity:0.0; 
stroke:#000000; stroke-width:39.3701; stroke-opacity:1; 
stroke-linecap:round; stroke-linejoin:round;">
</g>
<g style="fill:#000000; fill-opacity:0.0; 
stroke:#000000; stroke-width:59.0551; stroke-opacity:1; 
stroke-linecap:round; stroke-linejoin:round;">
<path d="M23622 4724
L23622 3937
" />
</g>
<g style="fill:#000000; fill-opacity:0.0; 
stroke:#000000; stroke-width:39.3701; stroke-opacity:1; 
stroke-linecap:round; stroke-linejoin:round;">
</g>
<g style="fill:#000000; fill-opacity:0.0; 
stroke:#000000; stroke-width:59.0551; stroke-opacity:1; 
stroke-linecap:round; stroke-linejoin:round;">
<path d="M43307 4724
L43307 3937
" />
</g>
<g style="fill:#000000; fill-opacity:0.0; 
stroke:#000000; stroke-width:39.3701; stroke-opacity:1; 
stroke-linecap:round; stroke-linejoin:round;">
</g>
<g style="fill:#000000; fill-opacity:0.0; 
stroke:#000000; stroke-width:59.0551; stroke-opacity:1; 
stroke-linecap:round; stroke-linejoin:round;">
<path d="M62992 4724
L62992 3937
" />
</g>
<g style="fill:#000000; fill-opacity:0.0; 
stroke:#000000; stroke-width:39.3701; stroke-opacity:1; 
stroke-linecap:round; stroke-linejoin:round;">
</g>
<g style="fill:#000000; fill-opacity:0.0; 
stroke:#000000; stroke-width:59.0551; stroke-opacity:1; 
stroke-linecap:round; stroke-linejoin:round;">
<path d="M82677 4724
L82677 3937
" />
</g>
<g style="fill:#000000; fill-opacity:0.0; 
stroke:#000000; stroke-width:39.3701; stroke-opacity:1; 
stroke-linecap:round; stroke-linejoin:round;">
</g>
<g style="fill:#000000; fill-opacity:0.0; 
stroke:#000000; stroke-width:59.0551; stroke-opacity:1; 
stroke-linecap:round; stroke-linejoin:round;">
<path d="M102362 4724
L102362 3937
" />
</g>
<g style="fill:#000000; fill-opacity:0.0; 
stroke:#000000; stroke-width:39.3701; stroke-opacity:1; 
stroke-linecap:round; stroke-linejoin:round;">
</g>
<g style="fill:#000000; fill-opacity:0.0; 
stroke:#000000; stroke-width:59.0551; stroke-opacity:1; 
stroke-linecap:round; stroke-linejoin:round;">
<path d="M14199 4562
L13906 4562
" />
<path d="M14052 4562
L14052 4050
L14004 4123
L13955 4172
L13906 4196
" />
</g>
<g style="fill:#000000; fill-opacity:0.0; 
stroke:#000000; stroke-width:39.3701; stroke-opacity:1; 
stroke-linecap:round; stroke-linejoin:round;">
</g>
<g style="fill:#000000; fill-opacity:0.0; 
stroke:#000000; stroke-width:59.0551; stroke-opacity:1; 
stroke-linecap:round; stroke-linejoin:round;">
<path d="M33591 4099
L33615 4074
L33664 4050
L33786 4050
L33835 4074
L33859 4099
L33884 4147
L33884 4196
L33859 4269
L33567 4562
L33884 4562
" />
</g>
<g style="fill:#000000; fill-opacity:0.0; 
stroke:#000000; stroke-width:39.3701; stroke-opacity:1; 
stroke-linecap:round; stroke-linejoin:round;">
</g>
<g style="fill:#000000; fill-opacity:0.0; 
stroke:#000000; stroke-width:59.0551; stroke-opacity:1; 
stroke-linecap:round; stroke-linejoin:round;">
<path d="M53252 4050
L53569 4050
L53398 4245
L53471 4245
L53520 4269
L53544 4294
L53569 4342
L53569 4464
L53544 4513
L53520 4537
L53471 4562
L53325 4562
L53276 4537
L53252 4513
" />
</g>
<g style="fill:#000000; fill-opacity:0.0; 
stroke:#000000; stroke-width:39.3701; stroke-opacity:1; 
stroke-linecap:round; stroke-linejoin:round;">
</g>
<g style="fill:#000000; fill-opacity:0.0; 
stroke:#000000; stroke-width:59.0551; stroke-opacity:1; 
stroke-linecap:round; stroke-linejoin:round;">
<path d="M73205 4221
L73205 4562
" />
<path d="M73083 4026
L72961 4391
L73278 4391
" />
</g>
<g style="fill:#000000; fill-opacity:0.0; 
stroke:#000000; stroke-width:39.3701; stroke-opacity:1; 
stroke-linecap:round; stroke-linejoin:round;">
</g>
<g style="fill:#000000; fill-opacity:0.0; 
stroke:#000000; stroke-width:59.0551; stroke-opacity:1; 
stroke-linecap:round; stroke-linejoin:round;">
<path d="M92914 4050
L92671 4050
L92646 4294
L92671 4269
L92719 4245
L92841 4245
L92890 4269
L92914 4294
L92939 4342
L92939 4464
L92914 4513
L92890 4537
L92841 4562
L92719 4562
L92671 4537
L92646 4513
" />
</g>
<g style="fill:#000000; fill-opacity:0.0; 
stroke:#000000; stroke-width:39.3701; stroke-opacity:1; 
stroke-linecap:round; stroke-linejoin:round;">
</g>
<g style="fill:#000000; fill-opacity:0.0; 
stroke:#000000; stroke-width:59.0551; stroke-opacity:1; 
stroke-linecap:round; stroke-linejoin:round;">
<path d="M23622 80275
L23622 81062
" />
</g>
<g style="fill:#000000; fill-opacity:0.0; 
stroke:#000000; stroke-width:39.3701; stroke-opacity:1; 
stroke-linecap:round; stroke-linejoin:round;">
</g>
<g style="fill:#000000; fill-opacity:0.0; 
stroke:#000000; stroke-width:59.0551; stroke-opacity:1; 
stroke-linecap:round; stroke-linejoin:round;">
<path d="M43307 80275
L43307 81062
" />
</g>
<g style="fill:#000000; fill-opacity:0.0; 
stroke:#000000; stroke-width:39.3701; stroke-opacity:1; 
stroke-linecap:round; stroke-linejoin:round;">
</g>
<g style="fill:#000000; fill-opacity:0.0; 
stroke:#000000; stroke-width:59.0551; stroke-opacity:1; 
stroke-linecap:round; stroke-linejoin:round;">
<path d="M62992 80275
L62992 81062
" />
</g>
<g style="fill:#000000; fill-opacity:0.0; 
stroke:#000000; stroke-width:39.3701; stroke-opacity:1; 
stroke-linecap:round; stroke-linejoin:round;">
</g>
<g style="fill:#000000; fill-opacity:0.0; 
stroke:#000000; stroke-width:59.0551; stroke-opacity:1; 
stroke-linecap:round; stroke-linejoin:round;">
<path d="M82677 80275
L82677 81062
" />
</g>
<g style="fill:#000000; fill-opacity:0.0; 
stroke:#000000; stroke-width:39.3701; stroke-opacity:1; 
stroke-linecap:round; stroke-linejoin:round;">
</g>
<g style="fill:#000000; fill-opacity:0.0; 
stroke:#000000; stroke-width:59.0551; stroke-opacity:1; 
stroke-linecap:round; stroke-linejoin:round;">
<path d="M102362 80275
L102362 81062
" />
</g>
<g style="fill:#000000; fill-opacity:0.0; 
stroke:#000000; stroke-width:39.3701; stroke-opacity:1; 
stroke-linecap:round; stroke-linejoin:round;">
</g>
<g style="fill:#000000; fill-opacity:0.0; 
stroke:#000000; stroke-width:59.0551; stroke-opacity:1; 
stroke-linecap:round; stroke-linejoin:round;">
<path d="M14199 80900
L13906 80900
" />
<path d="M14052 80900
L14052 80389
L14004 80462
L13955 80510
L13906 80535
" />
</g>
<g style="fill:#000000; fill-opacity:0.0; 
stroke:#000000; stroke-width:39.3701; stroke-opacity:1; 
stroke-linecap:round; stroke-linejoin:round;">
</g>
<g style="fill:#000000; fill-opacity:0.0; 
stroke:#000000; stroke-width:59.0551; stroke-opacity:1; 
stroke-linecap:round; stroke-linejoin:round;">
<path d="M33591 80437
L33615 80413
L33664 80389
L33786 80389
L33835 80413
L33859 80437
L33884 80486
L33884 80535
L33859 80608
L33567 80900
L33884 80900
" />
</g>
<g style="fill:#000000; fill-opacity:0.0; 
stroke:#000000; stroke-width:39.3701; stroke-opacity:1; 
stroke-linecap:round; stroke-linejoin:round;">
</g>
<g style="fill:#000000; fill-opacity:0.0; 
stroke:#000000; stroke-width:59.0551; stroke-opacity:1; 
stroke-linecap:round; stroke-linejoin:round;">
<path d="M53252 80389
L53569 80389
L53398 80583
L53471 80583
L53520 80608
L53544 80632
L53569 80681
L53569 80803
L53544 80852
L53520 80876
L53471 80900
L53325 80900
L53276 80876
L53252 80852
" />
</g>
<g style="fill:#000000; fill-opacity:0.0; 
stroke:#000000; stroke-width:39.3701; stroke-opacity:1; 
stroke-linecap:round; stroke-linejoin:round;">
</g>
<g style="fill:#000000; fill-opacity:0.0; 
stroke:#000000; stroke-width:59.0551; stroke-opacity:1; 
stroke-linecap:round; stroke-linejoin:round;">
<path d="M73205 80559
L73205 80900
" />
<path d="M73083 80364
L72961 80730
L73278 80730
" />
</g>
<g style="fill:#000000; fill-opacity:0.0; 
stroke:#000000; stroke-width:39.3701; stroke-opacity:1; 
stroke-linecap:round; stroke-linejoin:round;">
</g>
<g style="fill:#000000; fill-opacity:0.0; 
stroke:#000000; stroke-width:59.0551; stroke-opacity:1; 
stroke-linecap:round; stroke-linejoin:round;">
<path d="M92914 80389
L92671 80389
L92646 80632
L92671 80608
L92719 80583
L92841 80583
L92890 80608
L92914 80632
L92939 80681
L92939 80803
L92914 80852
L92890 80876
L92841 80900
L92719 80900
L92671 80876
L92646 80852
" />
</g>
<g style="fill:#000000; fill-opacity:0.0; 
stroke:#000000; stroke-width:39.3701; stroke-opacity:1; 
stroke-linecap:round; stroke-linejoin:round;">
</g>
<g style="fill:#000000; fill-opacity:0.0; 
stroke:#000000; stroke-width:59.0551; stroke-opacity:1; 
stroke-linecap:round; stroke-linejoin:round;">
<path d="M3937 23622
L4724 23622
" />
</g>
<g style="fill:#000000; fill-opacity:0.0; 
stroke:#000000; stroke-width:39.3701; stroke-opacity:1; 
stroke-linecap:round; stroke-linejoin:round;">
</g>
<g style="fill:#000000; fill-opacity:0.0; 
stroke:#000000; stroke-width:59.0551; stroke-opacity:1; 
stroke-linecap:round; stroke-linejoin:round;">
<path d="M3937 43307
L4724 43307
" />
</g>
<g style="fill:#000000; fill-opacity:0.0; 
stroke:#000000; stroke-width:39.3701; stroke-opacity:1; 
stroke-linecap:round; stroke-linejoin:round;">
</g>
<g style="fill:#000000; fill-opacity:0.0; 
stroke:#000000; stroke-width:59.0551; stroke-opacity:1; 
stroke-linecap:round; stroke-linejoin:round;">
<path d="M3937 62992
L4724 62992
" />
</g>
<g style="fill:#000000; fill-opacity:0.0; 
stroke:#000000; stroke-width:39.3701; stroke-opacity:1; 
stroke-linecap:round; stroke-linejoin:round;">
</g>
<g style="fill:#000000; fill-opacity:0.0; 
stroke:#000000; stroke-width:59.0551; stroke-opacity:1; 
stroke-linecap:round; stroke-linejoin:round;">
<path d="M4208 13864
L4452 13864
" />
<path d="M4160 14011
L4330 13499
L4501 14011
" />
</g>
<g style="fill:#000000; fill-opacity:0.0; 
stroke:#000000; stroke-width:39.3701; stroke-opacity:1; 
stroke-linecap:round; stroke-linejoin:round;">
</g>
<g style="fill:#000000; fill-opacity:0.0; 
stroke:#000000; stroke-width:59.0551; stroke-opacity:1; 
stroke-linecap:round; stroke-linejoin:round;">
<path d="M4367 33428
L4440 33452
L4464 33476
L4489 33525
L4489 33598
L4464 33647
L4440 33671
L4391 33696
L4196 33696
L4196 33184
L4367 33184
L4416 33208
L4440 33233
L4464 33281
L4464 33330
L4440 33379
L4416 33403
L4367 33428
L4196 33428
" />
</g>
<g style="fill:#000000; fill-opacity:0.0; 
stroke:#000000; stroke-width:39.3701; stroke-opacity:1; 
stroke-linecap:round; stroke-linejoin:round;">
</g>
<g style="fill:#000000; fill-opacity:0.0; 
stroke:#000000; stroke-width:59.0551; stroke-opacity:1; 
stroke-linecap:round; stroke-linejoin:round;">
<path d="M4489 53332
L4464 53356
L4391 53381
L4342 53381
L4269 53356
L4221 53308
L4196 53259
L4172 53161
L4172 53088
L4196 52991
L4221 52942
L4269 52893
L4342 52869
L4391 52869
L4464 52893
L4489 52918
" />
</g>
<g style="fill:#000000; fill-opacity:0.0; 
stroke:#000000; stroke-width:39.3701; stroke-opacity:1; 
stroke-linecap:round; stroke-linejoin:round;">
</g>
<g style="fill:#000000; fill-opacity:0.0; 
stroke:#000000; stroke-width:59.0551; stroke-opacity:1; 
stroke-linecap:round; stroke-linejoin:round;">
<path d="M4196 73066
L4196 72554
L4318 72554
L4391 72578
L4440 72627
L4464 72676
L4489 72773
L4489 72846
L4464 72944
L4440 72993
L4391 73041
L4318 73066
L4196 73066
" />
</g>
<g style="fill:#000000; fill-opacity:0.0; 
stroke:#000000; stroke-width:39.3701; stroke-opacity:1; 
stroke-linecap:round; stroke-linejoin:round;">
</g>
<g style="fill:#000000; fill-opacity:0.0; 
stroke:#000000; stroke-width:59.0551; stroke-opacity:1; 
stroke-linecap:round; stroke-linejoin:round;">
<path d="M106062 23622
L105275 23622
" />
</g>
<g style="fill:#000000; fill-opacity:0.0; 
stroke:#000000; stroke-width:39.3701; stroke-opacity:1; 
stroke-linecap:round; stroke-linejoin:round;">
</g>
<g style="fill:#000000; fill-opacity:0.0; 
stroke:#000000; stroke-width:59.0551; stroke-opacity:1; 
stroke-linecap:round; stroke-linejoin:round;">
<path d="M106062 43307
L105275 43307
" />
</g>
<g style="fill:#000000; fill-opacity:0.0; 
stroke:#000000; stroke-width:39.3701; stroke-opacity:1; 
stroke-linecap:round; stroke-linejoin:round;">
</g>
<g style="fill:#000000; fill-opacity:0.0; 
stroke:#000000; stroke-width:59.0551; stroke-opacity:1; 
stroke-linecap:round; stroke-linejoin:round;">
<path d="M106062 62992
L105275 62992
" />
</g>
<g style="fill:#000000; fill-opacity:0.0; 
stroke:#000000; stroke-width:39.3701; stroke-opacity:1; 
stroke-linecap:round; stroke-linejoin:round;">
</g>
<g style="fill:#000000; fill-opacity:0.0; 
stroke:#000000; stroke-width:59.0551; stroke-opacity:1; 
stroke-linecap:round; stroke-linejoin:round;">
<path d="M105547 13864
L105791 13864
" />
<path d="M105498 14011
L105669 13499
L105839 14011
" />
</g>
<g style="fill:#000000; fill-opacity:0.0; 
stroke:#000000; stroke-width:39.3701; stroke-opacity:1; 
stroke-linecap:round; stroke-linejoin:round;">
</g>
<g style="fill:#000000; fill-opacity:0.0; 
stroke:#000000; stroke-width:59.0551; stroke-opacity:1; 
stroke-linecap:round; stroke-linejoin:round;">
<path d="M105705 33428
L105778 33452
L105803 33476
L105827 33525
L105827 33598
L105803 33647
L105778 33671
L105730 33696
L105535 33696
L105535 33184
L105705 33184
L105754 33208
L105778 33233
L105803 33281
L105803 33330
L105778 33379
L105754 33403
L105705 33428
L105535 33428
" />
</g>
<g style="fill:#000000; fill-opacity:0.0; 
stroke:#000000; stroke-width:39.3701; stroke-opacity:1; 
stroke-linecap:round; stroke-linejoin:round;">
</g>
<g style="fill:#000000; fill-opacity:0.0; 
stroke:#000000; stroke-width:59.0551; stroke-opacity:1; 
stroke-linecap:round; stroke-linejoin:round;">
<path d="M105827 53332
L105803 53356
L105730 53381
L105681 53381
L105608 53356
L105559 53308
L105535 53259
L105510 53161
L105510 53088
L105535 52991
L105559 52942
L105608 52893
L105681 52869
L105730 52869
L105803 52893
L105827 52918
" />
</g>
<g style="fill:#000000; fill-opacity:0.0; 
stroke:#000000; stroke-width:39.3701; stroke-opacity:1; 
stroke-linecap:round; stroke-linejoin:round;">
</g>
<g style="fill:#000000; fill-opacity:0.0; 
stroke:#000000; stroke-width:59.0551; stroke-opacity:1; 
stroke-linecap:round; stroke-linejoin:round;">
<path d="M105535 73066
L105535 72554
L105657 72554
L105730 72578
L105778 72627
L105803 72676
L105827 72773
L105827 72846
L105803 72944
L105778 72993
L105730 73041
L105657 73066
L105535 73066
" />
</g>
<g style="fill:#000000; fill-opacity:0.0; 
stroke:#000000; stroke-width:39.3701; stroke-opacity:1; 
stroke-linecap:round; stroke-linejoin:round;">
</g>
<g style="fill:#000000; fill-opacity:0.0; 
stroke:#000000; stroke-width:59.0551; stroke-opacity:1; 
stroke-linecap:round; stroke-linejoin:round;">
<path d="M71981 78613
L71981 78023
L72121 78023
L72206 78051
L72262 78107
L72290 78163
L72318 78276
L72318 78360
L72290 78473
L72262 78529
L72206 78585
L72121 78613
L71981 78613
" />
<path d="M72824 78613
L72824 78304
L72796 78248
L72740 78219
L72627 78219
L72571 78248
" />
<path d="M72824 78585
L72768 78613
L72627 78613
L72571 78585
L72543 78529
L72543 78473
L72571 78416
L72627 78388
L72768 78388
L72824 78360
" />
<path d="M73021 78219
L73246 78219
" />
<path d="M73106 78023
L73106 78529
L73134 78585
L73190 78613
L73246 78613
" />
<path d="M73668 78585
L73612 78613
L73499 78613
L73443 78585
L73415 78529
L73415 78304
L73443 78248
L73499 78219
L73612 78219
L73668 78248
L73696 78304
L73696 78360
L73415 78416
" />
<path d="M73949 78557
L73977 78585
L73949 78613
L73921 78585
L73949 78557
L73949 78613
" />
<path d="M73949 78248
L73977 78276
L73949 78304
L73921 78276
L73949 78248
L73949 78304
" />
<path d="M74652 78079
L74680 78051
L74737 78023
L74877 78023
L74933 78051
L74962 78079
L74990 78135
L74990 78191
L74962 78276
L74624 78613
L74990 78613
" />
<path d="M75355 78023
L75411 78023
L75468 78051
L75496 78079
L75524 78135
L75552 78248
L75552 78388
L75524 78501
L75496 78557
L75468 78585
L75411 78613
L75355 78613
L75299 78585
L75271 78557
L75243 78501
L75215 78388
L75215 78248
L75243 78135
L75271 78079
L75299 78051
L75355 78023
" />
<path d="M76115 78613
L75777 78613
" />
<path d="M75946 78613
L75946 78023
L75890 78107
L75833 78163
L75777 78191
" />
<path d="M76396 78613
L76508 78613
L76564 78585
L76593 78557
L76649 78473
L76677 78360
L76677 78135
L76649 78079
L76621 78051
L76564 78023
L76452 78023
L76396 78051
L76368 78079
L76339 78135
L76339 78276
L76368 78332
L76396 78360
L76452 78388
L76564 78388
L76621 78360
L76649 78332
L76677 78276
" />
<path d="M76930 78388
L77380 78388
" />
<path d="M77971 78613
L77633 78613
" />
<path d="M77802 78613
L77802 78023
L77746 78107
L77689 78163
L77633 78191
" />
<path d="M78196 78079
L78224 78051
L78280 78023
L78420 78023
L78477 78051
L78505 78079
L78533 78135
L78533 78191
L78505 78276
L78167 78613
L78533 78613
" />
<path d="M78786 78388
L79236 78388
" />
<path d="M79461 78023
L79827 78023
L79630 78248
L79714 78248
L79770 78276
L79798 78304
L79827 78360
L79827 78501
L79798 78557
L79770 78585
L79714 78613
L79545 78613
L79489 78585
L79461 78557
" />
<path d="M80192 78023
L80248 78023
L80305 78051
L80333 78079
L80361 78135
L80389 78248
L80389 78388
L80361 78501
L80333 78557
L80305 78585
L80248 78613
L80192 78613
L80136 78585
L80108 78557
L80080 78501
L80052 78388
L80052 78248
L80080 78135
L80108 78079
L80136 78051
L80192 78023
" />
</g>
<g style="fill:#000000; fill-opacity:0.0; 
stroke:#000000; stroke-width:39.3701; stroke-opacity:1; 
stroke-linecap:round; stroke-linejoin:round;">
</g>
<g style="fill:#000000; fill-opacity:0.0; 
stroke:#000000; stroke-width:59.0551; stroke-opacity:1; 
stroke-linecap:round; stroke-linejoin:round;">
<path d="M62755 78897
L105275 78897
" />
</g>
<g style="fill:#000000; fill-opacity:0.0; 
stroke:#000000; stroke-width:39.3701; stroke-opacity:1; 
stroke-linecap:round; stroke-linejoin:round;">
</g>
<g style="fill:#000000; fill-opacity:0.0; 
stroke:#000000; stroke-width:59.0551; stroke-opacity:1; 
stroke-linecap:round; stroke-linejoin:round;">
<path d="M63319 79715
L63319 79125
" />
<path d="M63657 79715
L63404 79378
" />
<path d="M63657 79125
L63319 79462
" />
<path d="M63910 79715
L63910 79322
" />
<path d="M63910 79125
L63882 79153
L63910 79181
L63938 79153
L63910 79125
L63910 79181
" />
<path d="M64528 79659
L64500 79687
L64416 79715
L64360 79715
L64275 79687
L64219 79631
L64191 79575
L64163 79462
L64163 79378
L64191 79266
L64219 79209
L64275 79153
L64360 79125
L64416 79125
L64500 79153
L64528 79181
" />
<path d="M65035 79715
L65035 79406
L65007 79350
L64950 79322
L64838 79322
L64782 79350
" />
<path d="M65035 79687
L64978 79715
L64838 79715
L64782 79687
L64753 79631
L64753 79575
L64782 79519
L64838 79491
L64978 79491
L65035 79462
" />
<path d="M65569 79715
L65569 79125
" />
<path d="M65569 79687
L65513 79715
L65400 79715
L65344 79687
L65316 79659
L65288 79603
L65288 79434
L65316 79378
L65344 79350
L65400 79322
L65513 79322
L65569 79350
" />
<path d="M66300 79406
L66497 79406
" />
<path d="M66581 79715
L66300 79715
L66300 79125
L66581 79125
" />
<path d="M66834 79659
L66863 79687
L66834 79715
L66806 79687
L66834 79659
L66834 79715
" />
<path d="M67116 79715
L67116 79125
L67256 79125
L67341 79153
L67397 79209
L67425 79266
L67453 79378
L67453 79462
L67425 79575
L67397 79631
L67341 79687
L67256 79715
L67116 79715
" />
<path d="M67706 79659
L67734 79687
L67706 79715
L67678 79687
L67706 79659
L67706 79715
" />
<path d="M67959 79547
L68241 79547
" />
<path d="M67903 79715
L68100 79125
L68297 79715
" />
<path d="M68494 79659
L68522 79687
L68494 79715
L68465 79687
L68494 79659
L68494 79715
" />
<path d="M69675 79715
L69675 79125
" />
<path d="M69731 79491
L69900 79715
" />
<path d="M69900 79322
L69675 79547
" />
<path d="M70153 79715
L70153 79322
" />
<path d="M70153 79125
L70125 79153
L70153 79181
L70181 79153
L70153 79125
L70153 79181
" />
<path d="M70687 79687
L70631 79715
L70518 79715
L70462 79687
L70434 79659
L70406 79603
L70406 79434
L70434 79378
L70462 79350
L70518 79322
L70631 79322
L70687 79350
" />
<path d="M71193 79715
L71193 79406
L71165 79350
L71109 79322
L70996 79322
L70940 79350
" />
<path d="M71193 79687
L71137 79715
L70996 79715
L70940 79687
L70912 79631
L70912 79575
L70940 79519
L70996 79491
L71137 79491
L71193 79462
" />
<path d="M71728 79715
L71728 79125
" />
<path d="M71728 79687
L71671 79715
L71559 79715
L71503 79687
L71474 79659
L71446 79603
L71446 79434
L71474 79378
L71503 79350
L71559 79322
L71671 79322
L71728 79350
" />
<path d="M72627 79940
L72599 79912
L72543 79828
L72515 79772
L72487 79687
L72459 79547
L72459 79434
L72487 79294
L72515 79209
L72543 79153
L72599 79069
L72627 79041
" />
<path d="M73134 79125
L72852 79125
L72824 79406
L72852 79378
L72909 79350
L73049 79350
L73106 79378
L73134 79406
L73162 79462
L73162 79603
L73134 79659
L73106 79687
L73049 79715
L72909 79715
L72852 79687
L72824 79659
" />
<path d="M73415 79659
L73443 79687
L73415 79715
L73387 79687
L73415 79659
L73415 79715
" />
<path d="M74005 79715
L73668 79715
" />
<path d="M73837 79715
L73837 79125
L73780 79209
L73724 79266
L73668 79294
" />
<path d="M74258 79659
L74287 79687
L74258 79715
L74230 79687
L74258 79659
L74258 79715
" />
<path d="M74512 79181
L74540 79153
L74596 79125
L74737 79125
L74793 79153
L74821 79181
L74849 79237
L74849 79294
L74821 79378
L74483 79715
L74849 79715
" />
<path d="M75046 79940
L75074 79912
L75130 79828
L75158 79772
L75187 79687
L75215 79547
L75215 79434
L75187 79294
L75158 79209
L75130 79153
L75074 79069
L75046 79041
" />
<path d="M75496 79491
L75946 79491
" />
<path d="M76199 79181
L76227 79153
L76283 79125
L76424 79125
L76480 79153
L76508 79181
L76536 79237
L76536 79294
L76508 79378
L76171 79715
L76536 79715
" />
</g>
<g style="fill:#000000; fill-opacity:0.0; 
stroke:#000000; stroke-width:39.3701; stroke-opacity:1; 
stroke-linecap:round; stroke-linejoin:round;">
</g>
<g style="fill:#000000; fill-opacity:0.0; 
stroke:#000000; stroke-width:59.0551; stroke-opacity:1; 
stroke-linecap:round; stroke-linejoin:round;">
<path d="M62755 77716
L105275 77716
" />
</g>
<g style="fill:#000000; fill-opacity:0.0; 
stroke:#000000; stroke-width:39.3701; stroke-opacity:1; 
stroke-linecap:round; stroke-linejoin:round;">
</g>
<g style="fill:#000000; fill-opacity:0.0; 
stroke:#000000; stroke-width:118.11; stroke-opacity:1; 
stroke-linecap:round; stroke-linejoin:round;">
<path d="M97169 78613
L96972 78332
" />
<path d="M96831 78613
L96831 78023
L97056 78023
L97112 78051
L97140 78079
L97169 78135
L97169 78219
L97140 78276
L97112 78304
L97056 78332
L96831 78332
" />
<path d="M97647 78585
L97590 78613
L97478 78613
L97422 78585
L97393 78529
L97393 78304
L97422 78248
L97478 78219
L97590 78219
L97647 78248
L97675 78304
L97675 78360
L97393 78416
" />
<path d="M97872 78219
L98012 78613
L98153 78219
" />
<path d="M98378 78557
L98406 78585
L98378 78613
L98350 78585
L98378 78557
L98378 78613
" />
<path d="M98378 78248
L98406 78276
L98378 78304
L98350 78276
L98378 78248
L98378 78304
" />
<path d="M99446 78613
L99250 78332
" />
<path d="M99109 78613
L99109 78023
L99334 78023
L99390 78051
L99418 78079
L99446 78135
L99446 78219
L99418 78276
L99390 78304
L99334 78332
L99109 78332
" />
<path d="M99812 78023
L99868 78023
L99924 78051
L99953 78079
L99981 78135
L100009 78248
L100009 78388
L99981 78501
L99953 78557
L99924 78585
L99868 78613
L99812 78613
L99756 78585
L99728 78557
L99699 78501
L99671 78388
L99671 78248
L99699 78135
L99728 78079
L99756 78051
L99812 78023
" />
<path d="M100262 78557
L100290 78585
L100262 78613
L100234 78585
L100262 78557
L100262 78613
" />
<path d="M100796 78219
L100796 78613
" />
<path d="M100656 77994
L100515 78416
L100881 78416
" />
<path d="M101106 78557
L101134 78585
L101106 78613
L101077 78585
L101106 78557
L101106 78613
" />
<path d="M101330 78023
L101724 78023
L101471 78613
" />
</g>
<g style="fill:#000000; fill-opacity:0.0; 
stroke:#000000; stroke-width:39.3701; stroke-opacity:1; 
stroke-linecap:round; stroke-linejoin:round;">
</g>
<g style="fill:#000000; fill-opacity:0.0; 
stroke:#000000; stroke-width:59.0551; stroke-opacity:1; 
stroke-linecap:round; stroke-linejoin:round;">
<path d="M63291 78585
L63375 78613
L63516 78613
L63572 78585
L63600 78557
L63629 78501
L63629 78444
L63600 78388
L63572 78360
L63516 78332
L63404 78304
L63347 78276
L63319 78248
L63291 78191
L63291 78135
L63319 78079
L63347 78051
L63404 78023
L63544 78023
L63629 78051
" />
<path d="M63882 78613
L63882 78219
" />
<path d="M63882 78023
L63854 78051
L63882 78079
L63910 78051
L63882 78023
L63882 78079
" />
<path d="M64107 78219
L64416 78219
L64107 78613
L64416 78613
" />
<path d="M64866 78585
L64810 78613
L64697 78613
L64641 78585
L64613 78529
L64613 78304
L64641 78248
L64697 78219
L64810 78219
L64866 78248
L64894 78304
L64894 78360
L64613 78416
" />
<path d="M65147 78557
L65175 78585
L65147 78613
L65119 78585
L65147 78557
L65147 78613
" />
<path d="M65147 78248
L65175 78276
L65147 78304
L65119 78276
L65147 78248
L65147 78304
" />
<path d="M65850 78444
L66131 78444
" />
<path d="M65794 78613
L65991 78023
L66188 78613
" />
</g>
<g style="fill:#000000; fill-opacity:0.0; 
stroke:#000000; stroke-width:39.3701; stroke-opacity:1; 
stroke-linecap:round; stroke-linejoin:round;">
</g>
<g style="fill:#000000; fill-opacity:0.0; 
stroke:#000000; stroke-width:59.0551; stroke-opacity:1; 
stroke-linecap:round; stroke-linejoin:round;">
<path d="M96784 79715
L96784 79125
" />
<path d="M97318 79715
L97318 79125
" />
<path d="M97318 79687
L97262 79715
L97149 79715
L97093 79687
L97065 79659
L97037 79603
L97037 79434
L97065 79378
L97093 79350
L97149 79322
L97262 79322
L97318 79350
" />
<path d="M97599 79659
L97627 79687
L97599 79715
L97571 79687
L97599 79659
L97599 79715
" />
<path d="M97599 79350
L97627 79378
L97599 79406
L97571 79378
L97599 79350
L97599 79406
" />
<path d="M98640 79715
L98302 79715
" />
<path d="M98471 79715
L98471 79125
L98415 79209
L98359 79266
L98302 79294
" />
<path d="M99315 79097
L98809 79856
" />
<path d="M99821 79715
L99483 79715
" />
<path d="M99652 79715
L99652 79125
L99596 79209
L99540 79266
L99483 79294
" />
</g>
<g style="fill:#000000; fill-opacity:0.0; 
stroke:#000000; stroke-width:39.3701; stroke-opacity:1; 
stroke-linecap:round; stroke-linejoin:round;">
</g>
<g style="fill:#000000; fill-opacity:0.0; 
stroke:#000000; stroke-width:59.0551; stroke-opacity:1; 
stroke-linecap:round; stroke-linejoin:round;">
<path d="M62755 76141
L105275 76141
" />
</g>
<g style="fill:#000000; fill-opacity:0.0; 
stroke:#000000; stroke-width:39.3701; stroke-opacity:1; 
stroke-linecap:round; stroke-linejoin:round;">
</g>
<g style="fill:#000000; fill-opacity:0.0; 
stroke:#000000; stroke-width:157.48; stroke-opacity:1; 
stroke-linecap:round; stroke-linejoin:round;">
<path d="M63430 76419
L63880 76419
" />
<path d="M63556 77206
L63655 76419
" />
<path d="M64044 77206
L64109 76681
" />
<path d="M64142 76419
L64100 76456
L64133 76494
L64175 76456
L64142 76419
L64133 76494
" />
<path d="M64372 76681
L64672 76681
" />
<path d="M64517 76419
L64433 77094
L64461 77169
L64531 77206
L64606 77206
" />
<path d="M64981 77206
L64911 77169
L64883 77094
L64967 76419
" />
<path d="M65586 77169
L65506 77206
L65356 77206
L65286 77169
L65257 77094
L65295 76794
L65342 76719
L65422 76681
L65571 76681
L65642 76719
L65670 76794
L65661 76869
L65276 76944
" />
<path d="M65965 77131
L65998 77169
L65956 77206
L65923 77169
L65965 77131
L65956 77206
" />
<path d="M66017 76719
L66050 76756
L66007 76794
L65975 76756
L66017 76719
L66007 76794
" />
<path d="M66931 77206
L66996 76681
" />
<path d="M66987 76756
L67029 76719
L67109 76681
L67221 76681
L67292 76719
L67320 76794
L67268 77206
" />
<path d="M67320 76794
L67367 76719
L67446 76681
L67559 76681
L67629 76719
L67657 76794
L67606 77206
" />
<path d="M67981 77206
L68046 76681
" />
<path d="M68079 76419
L68037 76456
L68070 76494
L68112 76456
L68079 76419
L68070 76494
" />
<path d="M68698 77169
L68618 77206
L68468 77206
L68398 77169
L68365 77131
L68337 77056
L68365 76831
L68412 76756
L68454 76719
L68534 76681
L68684 76681
L68754 76719
" />
<path d="M69030 77206
L69096 76681
" />
<path d="M69077 76831
L69124 76756
L69166 76719
L69246 76681
L69321 76681
" />
<path d="M69630 77206
L69560 77169
L69527 77131
L69499 77056
L69527 76831
L69574 76756
L69616 76719
L69696 76681
L69808 76681
L69879 76719
L69912 76756
L69940 76831
L69912 77056
L69865 77131
L69823 77169
L69743 77206
L69630 77206
" />
<path d="M70680 77206
L70465 76831
" />
<path d="M70230 77206
L70329 76419
L70629 76419
L70699 76456
L70732 76494
L70760 76569
L70746 76681
L70699 76756
L70657 76794
L70577 76831
L70277 76831
" />
<path d="M71421 76681
L71355 77206
" />
<path d="M71083 76681
L71032 77094
L71060 77169
L71130 77206
L71243 77206
L71322 77169
L71365 77131
" />
<path d="M71697 77169
L71768 77206
L71918 77206
L71997 77169
L72044 77094
L72049 77056
L72021 76981
L71950 76944
L71838 76944
L71768 76906
L71739 76831
L71744 76794
L71791 76719
L71871 76681
L71983 76681
L72053 76719
" />
<path d="M72419 76794
L72682 76794
" />
<path d="M72742 77206
L72368 77206
L72466 76419
L72841 76419
" />
<path d="M73033 76681
L73333 76681
" />
<path d="M73080 77206
L73164 76531
L73211 76456
L73291 76419
L73366 76419
" />
<path d="M73530 77206
L73595 76681
" />
<path d="M73628 76419
L73586 76456
L73619 76494
L73661 76456
L73628 76419
L73619 76494
" />
</g>
<g style="fill:#000000; fill-opacity:0.0; 
stroke:#000000; stroke-width:39.3701; stroke-opacity:1; 
stroke-linecap:round; stroke-linejoin:round;">
</g>
<g style="fill:#000000; fill-opacity:0.0; 
stroke:#000000; stroke-width:59.0551; stroke-opacity:1; 
stroke-linecap:round; stroke-linejoin:round;">
<path d="M63516 75390
L63319 75390
" />
<path d="M63319 75700
L63319 75109
L63600 75109
" />
<path d="M63825 75700
L63825 75306
" />
<path d="M63825 75109
L63797 75137
L63825 75165
L63854 75137
L63825 75109
L63825 75165
" />
<path d="M64191 75700
L64135 75672
L64107 75615
L64107 75109
" />
<path d="M64641 75672
L64585 75700
L64472 75700
L64416 75672
L64388 75615
L64388 75390
L64416 75334
L64472 75306
L64585 75306
L64641 75334
L64669 75390
L64669 75447
L64388 75503
" />
<path d="M64922 75643
L64950 75672
L64922 75700
L64894 75672
L64922 75643
L64922 75700
" />
<path d="M64922 75334
L64950 75362
L64922 75390
L64894 75362
L64922 75334
L64922 75390
" />
<path d="M65653 75700
L65653 75306
" />
<path d="M65653 75362
L65681 75334
L65738 75306
L65822 75306
L65878 75334
L65906 75390
L65906 75700
" />
<path d="M65906 75390
L65935 75334
L65991 75306
L66075 75306
L66131 75334
L66160 75390
L66160 75700
" />
<path d="M66441 75700
L66441 75306
" />
<path d="M66441 75109
L66413 75137
L66441 75165
L66469 75137
L66441 75109
L66441 75165
" />
<path d="M66975 75672
L66919 75700
L66806 75700
L66750 75672
L66722 75643
L66694 75587
L66694 75419
L66722 75362
L66750 75334
L66806 75306
L66919 75306
L66975 75334
" />
<path d="M67228 75700
L67228 75306
" />
<path d="M67228 75419
L67256 75362
L67284 75334
L67341 75306
L67397 75306
" />
<path d="M67678 75700
L67622 75672
L67594 75643
L67566 75587
L67566 75419
L67594 75362
L67622 75334
L67678 75306
L67762 75306
L67819 75334
L67847 75362
L67875 75419
L67875 75587
L67847 75643
L67819 75672
L67762 75700
L67678 75700
" />
<path d="M68465 75700
L68269 75419
" />
<path d="M68128 75700
L68128 75109
L68353 75109
L68409 75137
L68437 75165
L68465 75222
L68465 75306
L68437 75362
L68409 75390
L68353 75419
L68128 75419
" />
<path d="M68972 75306
L68972 75700
" />
<path d="M68719 75306
L68719 75615
L68747 75672
L68803 75700
L68887 75700
L68944 75672
L68972 75643
" />
<path d="M69225 75672
L69281 75700
L69393 75700
L69450 75672
L69478 75615
L69478 75587
L69450 75531
L69393 75503
L69309 75503
L69253 75475
L69225 75419
L69225 75390
L69253 75334
L69309 75306
L69393 75306
L69450 75334
" />
<path d="M69731 75390
L69928 75390
" />
<path d="M70012 75700
L69731 75700
L69731 75109
L70012 75109
" />
<path d="M70181 75306
L70406 75306
" />
<path d="M70265 75700
L70265 75194
L70293 75137
L70350 75109
L70406 75109
" />
<path d="M70603 75700
L70603 75306
" />
<path d="M70603 75109
L70575 75137
L70603 75165
L70631 75137
L70603 75109
L70603 75165
" />
<path d="M70884 75643
L70912 75672
L70884 75700
L70856 75672
L70884 75643
L70884 75700
" />
<path d="M71165 75700
L71165 75109
" />
<path d="M71221 75475
L71390 75700
" />
<path d="M71390 75306
L71165 75531
" />
<path d="M71643 75700
L71643 75306
" />
<path d="M71643 75109
L71615 75137
L71643 75165
L71671 75137
L71643 75109
L71643 75165
" />
<path d="M72178 75672
L72121 75700
L72009 75700
L71953 75672
L71924 75643
L71896 75587
L71896 75419
L71924 75362
L71953 75334
L72009 75306
L72121 75306
L72178 75334
" />
<path d="M72684 75700
L72684 75390
L72656 75334
L72599 75306
L72487 75306
L72431 75334
" />
<path d="M72684 75672
L72627 75700
L72487 75700
L72431 75672
L72402 75615
L72402 75559
L72431 75503
L72487 75475
L72627 75475
L72684 75447
" />
<path d="M73218 75700
L73218 75109
" />
<path d="M73218 75672
L73162 75700
L73049 75700
L72993 75672
L72965 75643
L72937 75587
L72937 75419
L72965 75362
L72993 75334
L73049 75306
L73162 75306
L73218 75334
" />
<path d="M73359 75756
L73809 75756
" />
<path d="M73949 75306
L73949 75897
" />
<path d="M73949 75334
L74005 75306
L74118 75306
L74174 75334
L74202 75362
L74230 75419
L74230 75587
L74202 75643
L74174 75672
L74118 75700
L74005 75700
L73949 75672
" />
<path d="M74737 75672
L74680 75700
L74568 75700
L74512 75672
L74483 75643
L74455 75587
L74455 75419
L74483 75362
L74512 75334
L74568 75306
L74680 75306
L74737 75334
" />
<path d="M74990 75700
L74990 75109
" />
<path d="M74990 75334
L75046 75306
L75158 75306
L75215 75334
L75243 75362
L75271 75419
L75271 75587
L75243 75643
L75215 75672
L75158 75700
L75046 75700
L74990 75672
" />
</g>
<g style="fill:#000000; fill-opacity:0.0; 
stroke:#000000; stroke-width:39.3701; stroke-opacity:1; 
stroke-linecap:round; stroke-linejoin:round;">
</g>
<g style="fill:#000000; fill-opacity:0.0; 
stroke:#000000; stroke-width:59.0551; stroke-opacity:1; 
stroke-linecap:round; stroke-linejoin:round;">
<path d="M62755 73779
L105275 73779
" />
</g>
<g style="fill:#000000; fill-opacity:0.0; 
stroke:#000000; stroke-width:39.3701; stroke-opacity:1; 
stroke-linecap:round; stroke-linejoin:round;">
</g>
<g style="fill:#000000; fill-opacity:0.0; 
stroke:#000000; stroke-width:59.0551; stroke-opacity:1; 
stroke-linecap:round; stroke-linejoin:round;">
<path d="M63291 74609
L63375 74637
L63516 74637
L63572 74609
L63600 74580
L63629 74524
L63629 74468
L63600 74412
L63572 74384
L63516 74356
L63404 74327
L63347 74299
L63319 74271
L63291 74215
L63291 74159
L63319 74102
L63347 74074
L63404 74046
L63544 74046
L63629 74074
" />
<path d="M63882 74637
L63882 74046
" />
<path d="M64135 74637
L64135 74327
L64107 74271
L64050 74243
L63966 74243
L63910 74271
L63882 74299
" />
<path d="M64641 74609
L64585 74637
L64472 74637
L64416 74609
L64388 74552
L64388 74327
L64416 74271
L64472 74243
L64585 74243
L64641 74271
L64669 74327
L64669 74384
L64388 74440
" />
<path d="M65147 74609
L65091 74637
L64978 74637
L64922 74609
L64894 74552
L64894 74327
L64922 74271
L64978 74243
L65091 74243
L65147 74271
L65175 74327
L65175 74384
L64894 74440
" />
<path d="M65344 74243
L65569 74243
" />
<path d="M65428 74046
L65428 74552
L65456 74609
L65513 74637
L65569 74637
" />
<path d="M65766 74580
L65794 74609
L65766 74637
L65738 74609
L65766 74580
L65766 74637
" />
<path d="M65766 74271
L65794 74299
L65766 74327
L65738 74299
L65766 74271
L65766 74327
" />
</g>
<g style="fill:#000000; fill-opacity:0.0; 
stroke:#000000; stroke-width:39.3701; stroke-opacity:1; 
stroke-linecap:round; stroke-linejoin:round;">
</g>
<g style="fill:#000000; fill-opacity:0.0; 
stroke:#000000; stroke-width:59.0551; stroke-opacity:1; 
stroke-linecap:round; stroke-linejoin:round;">
<path d="M70629 77716
L70629 78897
" />
</g>
<g style="fill:#000000; fill-opacity:0.0; 
stroke:#000000; stroke-width:39.3701; stroke-opacity:1; 
stroke-linecap:round; stroke-linejoin:round;">
</g>
<g style="fill:#000000; fill-opacity:0.0; 
stroke:#000000; stroke-width:59.0551; stroke-opacity:1; 
stroke-linecap:round; stroke-linejoin:round;">
<path d="M95826 77716
L95826 80275
" />
</g>
<g style="fill:#C2C200; fill-opacity:0.0; 
stroke:#C2C200; stroke-width:59.0551; stroke-opacity:1; 
stroke-linecap:round; stroke-linejoin:round;">
</g>
<g style="fill:#C2C200; fill-opacity:0.0; 
stroke:#C2C200; stroke-width:78.7402; stroke-opacity:1; 
stroke-linecap:round; stroke-linejoin:round;">
<path d="M8110 13991
L10195 8818
" />
<path d="M37732 8818
L39837 13991
" />
<path d="M12930 45697
L8110 41095
" />
<path d="M39838 41095
L35018 45697
" />
<path d="M10195 8818
L37732 8818
" />
<path d="M39837 13991
L39838 41095
" />
<path d="M8110 13991
L8110 41095
" />
<circle cx="32459.6" cy="39319" r="645" /> 
<path d="M12930 45697
L35018 45697
" />
<circle cx="10349.6" cy="19669" r="645" /> 
<circle cx="34539.6" cy="41169" r="705" /> 
<circle cx="36704.6" cy="16654" r="705" /> 
<circle cx="11244.6" cy="16654" r="705" /> 
<circle cx="13409.6" cy="41169" r="705" /> 
<g >
</g>
<g >
</g>
<g >
</g>
<g >
</g>
<g >
</g>
<g >
</g>
<g >
</g>
<g >
</g>
<g >
</g>
<g >
</g>
<g >
</g>
<g >
</g>
<g >
</g>
<g >
</g>
<g >
</g>
<g >
</g>
<g >
</g>
<g >
</g>
<g >
</g>
<g >
</g>
<g >
</g>
<g >
</g>
<g >
</g>
<g >
</g>
<g >
</g>
<g >
</g>
<g >
</g>
<g >
</g>
<g >
</g>
<g >
</g>
<g >
</g>
<g >
</g>
<g >
</g>
<g >
</g>
<g >
</g>
<g >
</g>
<g >
</g>
<g >
</g>
<g >
</g>
<g >
</g>
<g >
</g>
<g >
</g>
<g >
</g>
<g >
</g>
<g >
</g>
<g >
</g>
<g >
</g>
<g >
</g>
<g >
</g>
<g >
</g>
<g >
</g>
<g >
</g>
<g >
</g>
<g >
</g>
<g >
</g>
<g >
</g>
<g >
</g>
<g >
</g>
<g >
</g>
<g >
</g>
<g >
</g>
<g >
</g>
<g >
</g>
<g >
</g>
<g >
</g>
<g >
</g>
<g >
</g>
<g >
</g>
<g >
</g>
<g >
</g>
<g >
</g>
<g >
</g>
<g >
</g>
<g >
</g>
<g >
</g>
<g >
</g>
<g >
</g>
<g >
</g>
<g >
</g>
<g >
</g>
<g >
</g>
<g >
</g>
<g >
</g>
<g >
</g>
<g >
</g>
<g >
</g>
<g >
</g>
<g >
</g>
<g >
</g>
<g >
</g>
<g >
</g>
<g >
</g>
<g >
</g>
<g >
</g>
<g >
</g>
<g >
</g>
<g >
</g>
<g >
</g>
<g >
</g>
<g >
</g>
<g >
</g>
<g >
</g>
<g >
</g>
<g >
</g>
<g >
</g>
<g >
</g>
<g >
</g>
<g >
</g>
<g >
</g>
<g >
</g>
<g >
</g>
<g >
</g>
<g >
</g>
<g >
</g>
<g >
</g>
<g >
</g>
<g >
</g>
<g >
</g>
<g >
</g>
<g >
</g>
<g >
</g>
<g >
</g>
<g >
</g>
<g >
</g>
<g >
</g>
<g >
</g>
<g >
</g>
<g >
</g>
<g >
</g>
<g >
</g>
<g >
</g>
<g >
</g>
<g >
</g>
<g >
</g>
<g >
</g>
<g >
</g>
<g >
</g>
<g >
</g>
<g >
</g>
<g >
</g>
<g >
</g>
<g >
</g>
<g >
</g>
<g >
</g>
<g >
</g>
<g >
</g>
<g >
</g>
<g >
</g>
<g >
</g>
<g >
</g>
<g >
</g>
<g >
</g>
<g >
</g>
<g >
</g>
<g >
</g>
<g >
</g>
<g >
</g>
<g >
</g>
<g >
</g>
<g >
</g>
<g >
</g>
<g >
</g>
<g >
</g>
<g >
</g>
<g >
</g>
<g >
</g>
<g >
</g>
<g >
</g>
<g >
</g>
<g >
</g>
<g >
</g>
<g >
</g>
<g >
</g>
<g >
</g>
<g >
</g>
<g >
</g>
<g >
</g>
<g >
</g>
<g >
</g>
<g >
</g>
<g >
</g>
<g >
</g>
<g >
</g>
<g >
</g>
<g >
</g>
<g >
</g>
<g >
</g>
<g >
</g>
<g >
</g>
<g >
</g>
<g >
</g>
<g >
</g>
<g >
</g>
<g >
</g>
<g >
</g>
<g >
</g>
<g >
</g>
<g >
</g>
<g >
</g>
<g >
</g>
<g >
</g>
<g >
</g>
<g >
</g>
<g >
</g>
<g >
</g>
<g >
</g>
<g >
</g>
<g >
</g>
<g >
</g>
<g >
</g>
<g >
</g>
<g >
</g>
<g >
</g>
<g >
</g>
<g >
</g>
<g >
</g>
<g >
</g>
<g >
</g>
<g >
</g>
<g >
</g>
<g >
</g>
<g >
</g>
<g >
</g>
<g >
</g>
<g >
</g>
<g >
</g>
<g >
</g>
<g >
</g>
<g >
</g>
<g >
</g>
<g >
</g>
<g >
</g>
<g >
</g>
<g >
</g>
<g >
</g>
<g >
</g>
</g> 
</svg>
